G04 #@! TF.GenerationSoftware,KiCad,Pcbnew,(5.1.2-1)-1*
G04 #@! TF.CreationDate,2019-06-07T14:52:31+02:00*
G04 #@! TF.ProjectId,matrix-mixer-smt,6d617472-6978-42d6-9d69-7865722d736d,rev?*
G04 #@! TF.SameCoordinates,Original*
G04 #@! TF.FileFunction,Legend,Top*
G04 #@! TF.FilePolarity,Positive*
%FSLAX46Y46*%
G04 Gerber Fmt 4.6, Leading zero omitted, Abs format (unit mm)*
G04 Created by KiCad (PCBNEW (5.1.2-1)-1) date 2019-06-07 14:52:31*
%MOMM*%
%LPD*%
G04 APERTURE LIST*
%ADD10C,0.150000*%
%ADD11C,0.127000*%
%ADD12C,0.500000*%
%ADD13C,0.120000*%
%ADD14C,0.300000*%
%ADD15C,0.152400*%
%ADD16C,0.125000*%
G04 APERTURE END LIST*
D10*
X57158190Y-139264380D02*
X57158190Y-138264380D01*
X57491523Y-138978666D01*
X57824857Y-138264380D01*
X57824857Y-139264380D01*
X58729619Y-139264380D02*
X58729619Y-138740571D01*
X58682000Y-138645333D01*
X58586761Y-138597714D01*
X58396285Y-138597714D01*
X58301047Y-138645333D01*
X58729619Y-139216761D02*
X58634380Y-139264380D01*
X58396285Y-139264380D01*
X58301047Y-139216761D01*
X58253428Y-139121523D01*
X58253428Y-139026285D01*
X58301047Y-138931047D01*
X58396285Y-138883428D01*
X58634380Y-138883428D01*
X58729619Y-138835809D01*
X59062952Y-138597714D02*
X59443904Y-138597714D01*
X59205809Y-138264380D02*
X59205809Y-139121523D01*
X59253428Y-139216761D01*
X59348666Y-139264380D01*
X59443904Y-139264380D01*
X59777238Y-139264380D02*
X59777238Y-138597714D01*
X59777238Y-138788190D02*
X59824857Y-138692952D01*
X59872476Y-138645333D01*
X59967714Y-138597714D01*
X60062952Y-138597714D01*
X60396285Y-139264380D02*
X60396285Y-138597714D01*
X60396285Y-138264380D02*
X60348666Y-138312000D01*
X60396285Y-138359619D01*
X60443904Y-138312000D01*
X60396285Y-138264380D01*
X60396285Y-138359619D01*
X60777238Y-139264380D02*
X61301047Y-138597714D01*
X60777238Y-138597714D02*
X61301047Y-139264380D01*
X57467714Y-140914380D02*
X57467714Y-139914380D01*
X57801047Y-140628666D01*
X58134380Y-139914380D01*
X58134380Y-140914380D01*
X58610571Y-140914380D02*
X58610571Y-140247714D01*
X58610571Y-139914380D02*
X58562952Y-139962000D01*
X58610571Y-140009619D01*
X58658190Y-139962000D01*
X58610571Y-139914380D01*
X58610571Y-140009619D01*
X58991523Y-140914380D02*
X59515333Y-140247714D01*
X58991523Y-140247714D02*
X59515333Y-140914380D01*
X60277238Y-140866761D02*
X60182000Y-140914380D01*
X59991523Y-140914380D01*
X59896285Y-140866761D01*
X59848666Y-140771523D01*
X59848666Y-140390571D01*
X59896285Y-140295333D01*
X59991523Y-140247714D01*
X60182000Y-140247714D01*
X60277238Y-140295333D01*
X60324857Y-140390571D01*
X60324857Y-140485809D01*
X59848666Y-140581047D01*
X60753428Y-140914380D02*
X60753428Y-140247714D01*
X60753428Y-140438190D02*
X60801047Y-140342952D01*
X60848666Y-140295333D01*
X60943904Y-140247714D01*
X61039142Y-140247714D01*
X57705809Y-141564380D02*
X57801047Y-141564380D01*
X57896285Y-141612000D01*
X57943904Y-141659619D01*
X57991523Y-141754857D01*
X58039142Y-141945333D01*
X58039142Y-142183428D01*
X57991523Y-142373904D01*
X57943904Y-142469142D01*
X57896285Y-142516761D01*
X57801047Y-142564380D01*
X57705809Y-142564380D01*
X57610571Y-142516761D01*
X57562952Y-142469142D01*
X57515333Y-142373904D01*
X57467714Y-142183428D01*
X57467714Y-141945333D01*
X57515333Y-141754857D01*
X57562952Y-141659619D01*
X57610571Y-141612000D01*
X57705809Y-141564380D01*
X58467714Y-142469142D02*
X58515333Y-142516761D01*
X58467714Y-142564380D01*
X58420095Y-142516761D01*
X58467714Y-142469142D01*
X58467714Y-142564380D01*
X59134380Y-141564380D02*
X59229619Y-141564380D01*
X59324857Y-141612000D01*
X59372476Y-141659619D01*
X59420095Y-141754857D01*
X59467714Y-141945333D01*
X59467714Y-142183428D01*
X59420095Y-142373904D01*
X59372476Y-142469142D01*
X59324857Y-142516761D01*
X59229619Y-142564380D01*
X59134380Y-142564380D01*
X59039142Y-142516761D01*
X58991523Y-142469142D01*
X58943904Y-142373904D01*
X58896285Y-142183428D01*
X58896285Y-141945333D01*
X58943904Y-141754857D01*
X58991523Y-141659619D01*
X59039142Y-141612000D01*
X59134380Y-141564380D01*
X59896285Y-142469142D02*
X59943904Y-142516761D01*
X59896285Y-142564380D01*
X59848666Y-142516761D01*
X59896285Y-142469142D01*
X59896285Y-142564380D01*
X60896285Y-142564380D02*
X60324857Y-142564380D01*
X60610571Y-142564380D02*
X60610571Y-141564380D01*
X60515333Y-141707238D01*
X60420095Y-141802476D01*
X60324857Y-141850095D01*
X55126476Y-136850380D02*
X55126476Y-135850380D01*
X55507428Y-135850380D01*
X55602666Y-135898000D01*
X55650285Y-135945619D01*
X55697904Y-136040857D01*
X55697904Y-136183714D01*
X55650285Y-136278952D01*
X55602666Y-136326571D01*
X55507428Y-136374190D01*
X55126476Y-136374190D01*
X56555047Y-136850380D02*
X56555047Y-136326571D01*
X56507428Y-136231333D01*
X56412190Y-136183714D01*
X56221714Y-136183714D01*
X56126476Y-136231333D01*
X56555047Y-136802761D02*
X56459809Y-136850380D01*
X56221714Y-136850380D01*
X56126476Y-136802761D01*
X56078857Y-136707523D01*
X56078857Y-136612285D01*
X56126476Y-136517047D01*
X56221714Y-136469428D01*
X56459809Y-136469428D01*
X56555047Y-136421809D01*
X57459809Y-136183714D02*
X57459809Y-136850380D01*
X57031238Y-136183714D02*
X57031238Y-136707523D01*
X57078857Y-136802761D01*
X57174095Y-136850380D01*
X57316952Y-136850380D01*
X57412190Y-136802761D01*
X57459809Y-136755142D01*
X58078857Y-136850380D02*
X57983619Y-136802761D01*
X57936000Y-136707523D01*
X57936000Y-135850380D01*
X59174095Y-136564666D02*
X59650285Y-136564666D01*
X59078857Y-136850380D02*
X59412190Y-135850380D01*
X59745523Y-136850380D01*
X60507428Y-136850380D02*
X60507428Y-135850380D01*
X60507428Y-136802761D02*
X60412190Y-136850380D01*
X60221714Y-136850380D01*
X60126476Y-136802761D01*
X60078857Y-136755142D01*
X60031238Y-136659904D01*
X60031238Y-136374190D01*
X60078857Y-136278952D01*
X60126476Y-136231333D01*
X60221714Y-136183714D01*
X60412190Y-136183714D01*
X60507428Y-136231333D01*
X61364571Y-136802761D02*
X61269333Y-136850380D01*
X61078857Y-136850380D01*
X60983619Y-136802761D01*
X60936000Y-136707523D01*
X60936000Y-136326571D01*
X60983619Y-136231333D01*
X61078857Y-136183714D01*
X61269333Y-136183714D01*
X61364571Y-136231333D01*
X61412190Y-136326571D01*
X61412190Y-136421809D01*
X60936000Y-136517047D01*
X61840761Y-136183714D02*
X61840761Y-136850380D01*
X61840761Y-136278952D02*
X61888380Y-136231333D01*
X61983619Y-136183714D01*
X62126476Y-136183714D01*
X62221714Y-136231333D01*
X62269333Y-136326571D01*
X62269333Y-136850380D01*
X62888380Y-136850380D02*
X62793142Y-136802761D01*
X62745523Y-136755142D01*
X62697904Y-136659904D01*
X62697904Y-136374190D01*
X62745523Y-136278952D01*
X62793142Y-136231333D01*
X62888380Y-136183714D01*
X63031238Y-136183714D01*
X63126476Y-136231333D01*
X63174095Y-136278952D01*
X63221714Y-136374190D01*
X63221714Y-136659904D01*
X63174095Y-136755142D01*
X63126476Y-136802761D01*
X63031238Y-136850380D01*
X62888380Y-136850380D01*
X63507428Y-136183714D02*
X63888380Y-136183714D01*
X63650285Y-135850380D02*
X63650285Y-136707523D01*
X63697904Y-136802761D01*
X63793142Y-136850380D01*
X63888380Y-136850380D01*
X54174000Y-84732000D02*
X63174000Y-84732000D01*
X54174000Y-95632000D02*
X63174000Y-95632000D01*
X54174000Y-84732000D02*
X54174000Y-95632000D01*
X63174000Y-84732000D02*
X63174000Y-95632000D01*
X60474000Y-90932000D02*
G75*
G03X60474000Y-90932000I-1800000J0D01*
G01*
X58674000Y-89132000D02*
X58674000Y-92732000D01*
X56874000Y-90932000D02*
X60474000Y-90932000D01*
X104521000Y-106807000D02*
X107823000Y-106807000D01*
X107823000Y-106807000D02*
G75*
G03X104521000Y-106807000I-1651000J2159000D01*
G01*
D11*
X111026163Y-109639943D02*
X111026163Y-99659743D01*
X110262263Y-99149843D02*
G75*
G02X111026163Y-99659743I127000J-636900D01*
G01*
X110262263Y-99149843D02*
X102082063Y-99149843D01*
X101318163Y-99659743D02*
G75*
G02X102082063Y-99149843I636900J-127000D01*
G01*
X101318163Y-99659743D02*
X101318163Y-109639943D01*
X102082063Y-110149843D02*
G75*
G02X101318163Y-109639943I-127000J636900D01*
G01*
X102082063Y-110149843D02*
X110262263Y-110149843D01*
X111026163Y-109639943D02*
G75*
G02X110262263Y-110149843I-636900J127000D01*
G01*
X109672163Y-104649843D02*
G75*
G03X109672163Y-104649843I-3500000J0D01*
G01*
X97480163Y-104649843D02*
G75*
G03X97480163Y-104649843I-3500000J0D01*
G01*
X98834163Y-109639943D02*
G75*
G02X98070263Y-110149843I-636900J127000D01*
G01*
X89890063Y-110149843D02*
X98070263Y-110149843D01*
X89890063Y-110149843D02*
G75*
G02X89126163Y-109639943I-127000J636900D01*
G01*
X89126163Y-99659743D02*
X89126163Y-109639943D01*
X89126163Y-99659743D02*
G75*
G02X89890063Y-99149843I636900J-127000D01*
G01*
X98070263Y-99149843D02*
X89890063Y-99149843D01*
X98070263Y-99149843D02*
G75*
G02X98834163Y-99659743I127000J-636900D01*
G01*
X98834163Y-109639943D02*
X98834163Y-99659743D01*
D10*
X95631000Y-106807000D02*
G75*
G03X92329000Y-106807000I-1651000J2159000D01*
G01*
X92329000Y-106807000D02*
X95631000Y-106807000D01*
D11*
X85288163Y-104649843D02*
G75*
G03X85288163Y-104649843I-3500000J0D01*
G01*
X86642163Y-109639943D02*
G75*
G02X85878263Y-110149843I-636900J127000D01*
G01*
X77698063Y-110149843D02*
X85878263Y-110149843D01*
X77698063Y-110149843D02*
G75*
G02X76934163Y-109639943I-127000J636900D01*
G01*
X76934163Y-99659743D02*
X76934163Y-109639943D01*
X76934163Y-99659743D02*
G75*
G02X77698063Y-99149843I636900J-127000D01*
G01*
X85878263Y-99149843D02*
X77698063Y-99149843D01*
X85878263Y-99149843D02*
G75*
G02X86642163Y-99659743I127000J-636900D01*
G01*
X86642163Y-109639943D02*
X86642163Y-99659743D01*
D10*
X83439000Y-106807000D02*
G75*
G03X80137000Y-106807000I-1651000J2159000D01*
G01*
X80137000Y-106807000D02*
X83439000Y-106807000D01*
X67945000Y-106730800D02*
X71247000Y-106730800D01*
X71247000Y-106730800D02*
G75*
G03X67945000Y-106730800I-1651000J2159000D01*
G01*
D11*
X74450163Y-109563743D02*
X74450163Y-99583543D01*
X73686263Y-99073643D02*
G75*
G02X74450163Y-99583543I127000J-636900D01*
G01*
X73686263Y-99073643D02*
X65506063Y-99073643D01*
X64742163Y-99583543D02*
G75*
G02X65506063Y-99073643I636900J-127000D01*
G01*
X64742163Y-99583543D02*
X64742163Y-109563743D01*
X65506063Y-110073643D02*
G75*
G02X64742163Y-109563743I-127000J636900D01*
G01*
X65506063Y-110073643D02*
X73686263Y-110073643D01*
X74450163Y-109563743D02*
G75*
G02X73686263Y-110073643I-636900J127000D01*
G01*
X73096163Y-104573643D02*
G75*
G03X73096163Y-104573643I-3500000J0D01*
G01*
D10*
X104521000Y-92329000D02*
X107823000Y-92329000D01*
X107823000Y-92329000D02*
G75*
G03X104521000Y-92329000I-1651000J2159000D01*
G01*
D11*
X111026163Y-95161943D02*
X111026163Y-85181743D01*
X110262263Y-84671843D02*
G75*
G02X111026163Y-85181743I127000J-636900D01*
G01*
X110262263Y-84671843D02*
X102082063Y-84671843D01*
X101318163Y-85181743D02*
G75*
G02X102082063Y-84671843I636900J-127000D01*
G01*
X101318163Y-85181743D02*
X101318163Y-95161943D01*
X102082063Y-95671843D02*
G75*
G02X101318163Y-95161943I-127000J636900D01*
G01*
X102082063Y-95671843D02*
X110262263Y-95671843D01*
X111026163Y-95161943D02*
G75*
G02X110262263Y-95671843I-636900J127000D01*
G01*
X109672163Y-90171843D02*
G75*
G03X109672163Y-90171843I-3500000J0D01*
G01*
X97480163Y-90171843D02*
G75*
G03X97480163Y-90171843I-3500000J0D01*
G01*
X98834163Y-95161943D02*
G75*
G02X98070263Y-95671843I-636900J127000D01*
G01*
X89890063Y-95671843D02*
X98070263Y-95671843D01*
X89890063Y-95671843D02*
G75*
G02X89126163Y-95161943I-127000J636900D01*
G01*
X89126163Y-85181743D02*
X89126163Y-95161943D01*
X89126163Y-85181743D02*
G75*
G02X89890063Y-84671843I636900J-127000D01*
G01*
X98070263Y-84671843D02*
X89890063Y-84671843D01*
X98070263Y-84671843D02*
G75*
G02X98834163Y-85181743I127000J-636900D01*
G01*
X98834163Y-95161943D02*
X98834163Y-85181743D01*
D10*
X95631000Y-92329000D02*
G75*
G03X92329000Y-92329000I-1651000J2159000D01*
G01*
X92329000Y-92329000D02*
X95631000Y-92329000D01*
D11*
X85288163Y-90171843D02*
G75*
G03X85288163Y-90171843I-3500000J0D01*
G01*
X86642163Y-95161943D02*
G75*
G02X85878263Y-95671843I-636900J127000D01*
G01*
X77698063Y-95671843D02*
X85878263Y-95671843D01*
X77698063Y-95671843D02*
G75*
G02X76934163Y-95161943I-127000J636900D01*
G01*
X76934163Y-85181743D02*
X76934163Y-95161943D01*
X76934163Y-85181743D02*
G75*
G02X77698063Y-84671843I636900J-127000D01*
G01*
X85878263Y-84671843D02*
X77698063Y-84671843D01*
X85878263Y-84671843D02*
G75*
G02X86642163Y-85181743I127000J-636900D01*
G01*
X86642163Y-95161943D02*
X86642163Y-85181743D01*
D10*
X83439000Y-92329000D02*
G75*
G03X80137000Y-92329000I-1651000J2159000D01*
G01*
X80137000Y-92329000D02*
X83439000Y-92329000D01*
X67945000Y-92329000D02*
X71247000Y-92329000D01*
X71247000Y-92329000D02*
G75*
G03X67945000Y-92329000I-1651000J2159000D01*
G01*
D11*
X74450163Y-95161943D02*
X74450163Y-85181743D01*
X73686263Y-84671843D02*
G75*
G02X74450163Y-85181743I127000J-636900D01*
G01*
X73686263Y-84671843D02*
X65506063Y-84671843D01*
X64742163Y-85181743D02*
G75*
G02X65506063Y-84671843I636900J-127000D01*
G01*
X64742163Y-85181743D02*
X64742163Y-95161943D01*
X65506063Y-95671843D02*
G75*
G02X64742163Y-95161943I-127000J636900D01*
G01*
X65506063Y-95671843D02*
X73686263Y-95671843D01*
X74450163Y-95161943D02*
G75*
G02X73686263Y-95671843I-636900J127000D01*
G01*
X73096163Y-90171843D02*
G75*
G03X73096163Y-90171843I-3500000J0D01*
G01*
D10*
X104267000Y-77851000D02*
X107569000Y-77851000D01*
X107569000Y-77851000D02*
G75*
G03X104267000Y-77851000I-1651000J2159000D01*
G01*
D11*
X110772163Y-80683943D02*
X110772163Y-70703743D01*
X110008263Y-70193843D02*
G75*
G02X110772163Y-70703743I127000J-636900D01*
G01*
X110008263Y-70193843D02*
X101828063Y-70193843D01*
X101064163Y-70703743D02*
G75*
G02X101828063Y-70193843I636900J-127000D01*
G01*
X101064163Y-70703743D02*
X101064163Y-80683943D01*
X101828063Y-81193843D02*
G75*
G02X101064163Y-80683943I-127000J636900D01*
G01*
X101828063Y-81193843D02*
X110008263Y-81193843D01*
X110772163Y-80683943D02*
G75*
G02X110008263Y-81193843I-636900J127000D01*
G01*
X109418163Y-75693843D02*
G75*
G03X109418163Y-75693843I-3500000J0D01*
G01*
X97226163Y-75693843D02*
G75*
G03X97226163Y-75693843I-3500000J0D01*
G01*
X98580163Y-80683943D02*
G75*
G02X97816263Y-81193843I-636900J127000D01*
G01*
X89636063Y-81193843D02*
X97816263Y-81193843D01*
X89636063Y-81193843D02*
G75*
G02X88872163Y-80683943I-127000J636900D01*
G01*
X88872163Y-70703743D02*
X88872163Y-80683943D01*
X88872163Y-70703743D02*
G75*
G02X89636063Y-70193843I636900J-127000D01*
G01*
X97816263Y-70193843D02*
X89636063Y-70193843D01*
X97816263Y-70193843D02*
G75*
G02X98580163Y-70703743I127000J-636900D01*
G01*
X98580163Y-80683943D02*
X98580163Y-70703743D01*
D10*
X95377000Y-77851000D02*
G75*
G03X92075000Y-77851000I-1651000J2159000D01*
G01*
X92075000Y-77851000D02*
X95377000Y-77851000D01*
X79883000Y-77851000D02*
X83185000Y-77851000D01*
X83185000Y-77851000D02*
G75*
G03X79883000Y-77851000I-1651000J2159000D01*
G01*
D11*
X86388163Y-80683943D02*
X86388163Y-70703743D01*
X85624263Y-70193843D02*
G75*
G02X86388163Y-70703743I127000J-636900D01*
G01*
X85624263Y-70193843D02*
X77444063Y-70193843D01*
X76680163Y-70703743D02*
G75*
G02X77444063Y-70193843I636900J-127000D01*
G01*
X76680163Y-70703743D02*
X76680163Y-80683943D01*
X77444063Y-81193843D02*
G75*
G02X76680163Y-80683943I-127000J636900D01*
G01*
X77444063Y-81193843D02*
X85624263Y-81193843D01*
X86388163Y-80683943D02*
G75*
G02X85624263Y-81193843I-636900J127000D01*
G01*
X85034163Y-75693843D02*
G75*
G03X85034163Y-75693843I-3500000J0D01*
G01*
X72842163Y-75693843D02*
G75*
G03X72842163Y-75693843I-3500000J0D01*
G01*
X74196163Y-80683943D02*
G75*
G02X73432263Y-81193843I-636900J127000D01*
G01*
X65252063Y-81193843D02*
X73432263Y-81193843D01*
X65252063Y-81193843D02*
G75*
G02X64488163Y-80683943I-127000J636900D01*
G01*
X64488163Y-70703743D02*
X64488163Y-80683943D01*
X64488163Y-70703743D02*
G75*
G02X65252063Y-70193843I636900J-127000D01*
G01*
X73432263Y-70193843D02*
X65252063Y-70193843D01*
X73432263Y-70193843D02*
G75*
G02X74196163Y-70703743I127000J-636900D01*
G01*
X74196163Y-80683943D02*
X74196163Y-70703743D01*
D10*
X70993000Y-77851000D02*
G75*
G03X67691000Y-77851000I-1651000J2159000D01*
G01*
X67691000Y-77851000D02*
X70993000Y-77851000D01*
D11*
X109418163Y-61278414D02*
G75*
G03X109418163Y-61278414I-3500000J0D01*
G01*
X110772163Y-66268514D02*
G75*
G02X110008263Y-66778414I-636900J127000D01*
G01*
X101828063Y-66778414D02*
X110008263Y-66778414D01*
X101828063Y-66778414D02*
G75*
G02X101064163Y-66268514I-127000J636900D01*
G01*
X101064163Y-56288314D02*
X101064163Y-66268514D01*
X101064163Y-56288314D02*
G75*
G02X101828063Y-55778414I636900J-127000D01*
G01*
X110008263Y-55778414D02*
X101828063Y-55778414D01*
X110008263Y-55778414D02*
G75*
G02X110772163Y-56288314I127000J-636900D01*
G01*
X110772163Y-66268514D02*
X110772163Y-56288314D01*
D10*
X107569000Y-63435571D02*
G75*
G03X104267000Y-63435571I-1651000J2159000D01*
G01*
X104267000Y-63435571D02*
X107569000Y-63435571D01*
X92075000Y-63435571D02*
X95377000Y-63435571D01*
X95377000Y-63435571D02*
G75*
G03X92075000Y-63435571I-1651000J2159000D01*
G01*
D11*
X98580163Y-66268514D02*
X98580163Y-56288314D01*
X97816263Y-55778414D02*
G75*
G02X98580163Y-56288314I127000J-636900D01*
G01*
X97816263Y-55778414D02*
X89636063Y-55778414D01*
X88872163Y-56288314D02*
G75*
G02X89636063Y-55778414I636900J-127000D01*
G01*
X88872163Y-56288314D02*
X88872163Y-66268514D01*
X89636063Y-66778414D02*
G75*
G02X88872163Y-66268514I-127000J636900D01*
G01*
X89636063Y-66778414D02*
X97816263Y-66778414D01*
X98580163Y-66268514D02*
G75*
G02X97816263Y-66778414I-636900J127000D01*
G01*
X97226163Y-61278414D02*
G75*
G03X97226163Y-61278414I-3500000J0D01*
G01*
D10*
X79883000Y-63435571D02*
X83185000Y-63435571D01*
X83185000Y-63435571D02*
G75*
G03X79883000Y-63435571I-1651000J2159000D01*
G01*
D11*
X86388163Y-66268514D02*
X86388163Y-56288314D01*
X85624263Y-55778414D02*
G75*
G02X86388163Y-56288314I127000J-636900D01*
G01*
X85624263Y-55778414D02*
X77444063Y-55778414D01*
X76680163Y-56288314D02*
G75*
G02X77444063Y-55778414I636900J-127000D01*
G01*
X76680163Y-56288314D02*
X76680163Y-66268514D01*
X77444063Y-66778414D02*
G75*
G02X76680163Y-66268514I-127000J636900D01*
G01*
X77444063Y-66778414D02*
X85624263Y-66778414D01*
X86388163Y-66268514D02*
G75*
G02X85624263Y-66778414I-636900J127000D01*
G01*
X85034163Y-61278414D02*
G75*
G03X85034163Y-61278414I-3500000J0D01*
G01*
X72842163Y-61278414D02*
G75*
G03X72842163Y-61278414I-3500000J0D01*
G01*
X74196163Y-66268514D02*
G75*
G02X73432263Y-66778414I-636900J127000D01*
G01*
X65252063Y-66778414D02*
X73432263Y-66778414D01*
X65252063Y-66778414D02*
G75*
G02X64488163Y-66268514I-127000J636900D01*
G01*
X64488163Y-56288314D02*
X64488163Y-66268514D01*
X64488163Y-56288314D02*
G75*
G02X65252063Y-55778414I636900J-127000D01*
G01*
X73432263Y-55778414D02*
X65252063Y-55778414D01*
X73432263Y-55778414D02*
G75*
G02X74196163Y-56288314I127000J-636900D01*
G01*
X74196163Y-66268514D02*
X74196163Y-56288314D01*
D10*
X70993000Y-63435571D02*
G75*
G03X67691000Y-63435571I-1651000J2159000D01*
G01*
X67691000Y-63435571D02*
X70993000Y-63435571D01*
X104118000Y-129540000D02*
X107718000Y-129540000D01*
X105918000Y-127740000D02*
X105918000Y-131340000D01*
X107718000Y-129540000D02*
G75*
G03X107718000Y-129540000I-1800000J0D01*
G01*
X110418000Y-123340000D02*
X110418000Y-134240000D01*
X101418000Y-123340000D02*
X101418000Y-134240000D01*
X101418000Y-134240000D02*
X110418000Y-134240000D01*
X101418000Y-123340000D02*
X110418000Y-123340000D01*
X89226000Y-123086000D02*
X98226000Y-123086000D01*
X89226000Y-133986000D02*
X98226000Y-133986000D01*
X89226000Y-123086000D02*
X89226000Y-133986000D01*
X98226000Y-123086000D02*
X98226000Y-133986000D01*
X95526000Y-129286000D02*
G75*
G03X95526000Y-129286000I-1800000J0D01*
G01*
X93726000Y-127486000D02*
X93726000Y-131086000D01*
X91926000Y-129286000D02*
X95526000Y-129286000D01*
X77034000Y-123086000D02*
X86034000Y-123086000D01*
X77034000Y-133986000D02*
X86034000Y-133986000D01*
X77034000Y-123086000D02*
X77034000Y-133986000D01*
X86034000Y-123086000D02*
X86034000Y-133986000D01*
X83334000Y-129286000D02*
G75*
G03X83334000Y-129286000I-1800000J0D01*
G01*
X81534000Y-127486000D02*
X81534000Y-131086000D01*
X79734000Y-129286000D02*
X83334000Y-129286000D01*
X64842000Y-123086000D02*
X73842000Y-123086000D01*
X64842000Y-133986000D02*
X73842000Y-133986000D01*
X64842000Y-123086000D02*
X64842000Y-133986000D01*
X73842000Y-123086000D02*
X73842000Y-133986000D01*
X71142000Y-129286000D02*
G75*
G03X71142000Y-129286000I-1800000J0D01*
G01*
X69342000Y-127486000D02*
X69342000Y-131086000D01*
X67542000Y-129286000D02*
X71142000Y-129286000D01*
X57128000Y-105410000D02*
X60728000Y-105410000D01*
X58928000Y-103610000D02*
X58928000Y-107210000D01*
X60728000Y-105410000D02*
G75*
G03X60728000Y-105410000I-1800000J0D01*
G01*
X63428000Y-99210000D02*
X63428000Y-110110000D01*
X54428000Y-99210000D02*
X54428000Y-110110000D01*
X54428000Y-110110000D02*
X63428000Y-110110000D01*
X54428000Y-99210000D02*
X63428000Y-99210000D01*
X54174000Y-70254000D02*
X63174000Y-70254000D01*
X54174000Y-81154000D02*
X63174000Y-81154000D01*
X54174000Y-70254000D02*
X54174000Y-81154000D01*
X63174000Y-70254000D02*
X63174000Y-81154000D01*
X60474000Y-76454000D02*
G75*
G03X60474000Y-76454000I-1800000J0D01*
G01*
X58674000Y-74654000D02*
X58674000Y-78254000D01*
X56874000Y-76454000D02*
X60474000Y-76454000D01*
X54248000Y-55610514D02*
X63248000Y-55610514D01*
X54248000Y-66510514D02*
X63248000Y-66510514D01*
X54248000Y-55610514D02*
X54248000Y-66510514D01*
X63248000Y-55610514D02*
X63248000Y-66510514D01*
X60548000Y-61810514D02*
G75*
G03X60548000Y-61810514I-1800000J0D01*
G01*
X58748000Y-60010514D02*
X58748000Y-63610514D01*
X56948000Y-61810514D02*
X60548000Y-61810514D01*
D12*
X55075000Y-162369500D02*
X60325000Y-162369500D01*
D13*
X55074000Y-150794000D02*
X55074000Y-161074000D01*
X55074000Y-161074000D02*
X60394000Y-161074000D01*
X60394000Y-161074000D02*
X60394000Y-148134000D01*
X60394000Y-148134000D02*
X57734000Y-148134000D01*
X57734000Y-148134000D02*
X57734000Y-150794000D01*
X57734000Y-150794000D02*
X55074000Y-150794000D01*
X55074000Y-149524000D02*
X55074000Y-148134000D01*
X55074000Y-148134000D02*
X56464000Y-148134000D01*
D14*
X77452000Y-151886000D02*
X73932000Y-151886000D01*
D13*
X73842000Y-151856000D02*
X73842000Y-158956000D01*
X77542000Y-151856000D02*
X77542000Y-158956000D01*
X97608000Y-151856000D02*
X97608000Y-158956000D01*
X93908000Y-151856000D02*
X93908000Y-158956000D01*
D14*
X97518000Y-151886000D02*
X93998000Y-151886000D01*
D10*
X83005000Y-151614000D02*
X81630000Y-151614000D01*
X83005000Y-160389000D02*
X87155000Y-160389000D01*
X83005000Y-151509000D02*
X87155000Y-151509000D01*
X83005000Y-160389000D02*
X83005000Y-160284000D01*
X87155000Y-160389000D02*
X87155000Y-160284000D01*
X87155000Y-151509000D02*
X87155000Y-151614000D01*
X83005000Y-151509000D02*
X83005000Y-151614000D01*
X84191000Y-152139000D02*
G75*
G03X84191000Y-152139000I-254000J0D01*
G01*
X80762000Y-151844000D02*
X81143000Y-152098000D01*
X81143000Y-152098000D02*
X80762000Y-152352000D01*
X80762000Y-152352000D02*
X80762000Y-151844000D01*
D13*
X64170779Y-67562000D02*
X63845221Y-67562000D01*
X64170779Y-68582000D02*
X63845221Y-68582000D01*
X75600779Y-68582000D02*
X75275221Y-68582000D01*
X75600779Y-67562000D02*
X75275221Y-67562000D01*
X87792779Y-67562000D02*
X87467221Y-67562000D01*
X87792779Y-68582000D02*
X87467221Y-68582000D01*
X100492779Y-68582000D02*
X100167221Y-68582000D01*
X100492779Y-67562000D02*
X100167221Y-67562000D01*
X64170779Y-83314000D02*
X63845221Y-83314000D01*
X64170779Y-82294000D02*
X63845221Y-82294000D01*
X75600779Y-82294000D02*
X75275221Y-82294000D01*
X75600779Y-83314000D02*
X75275221Y-83314000D01*
X87792779Y-82294000D02*
X87467221Y-82294000D01*
X87792779Y-83314000D02*
X87467221Y-83314000D01*
X100492779Y-83314000D02*
X100167221Y-83314000D01*
X100492779Y-82294000D02*
X100167221Y-82294000D01*
X64170779Y-96772000D02*
X63845221Y-96772000D01*
X64170779Y-97792000D02*
X63845221Y-97792000D01*
X75854779Y-97792000D02*
X75529221Y-97792000D01*
X75854779Y-96772000D02*
X75529221Y-96772000D01*
X87792779Y-97538000D02*
X87467221Y-97538000D01*
X87792779Y-96518000D02*
X87467221Y-96518000D01*
X100492779Y-96772000D02*
X100167221Y-96772000D01*
X100492779Y-97792000D02*
X100167221Y-97792000D01*
X64424779Y-111250000D02*
X64099221Y-111250000D01*
X64424779Y-112270000D02*
X64099221Y-112270000D01*
X75854779Y-112270000D02*
X75529221Y-112270000D01*
X75854779Y-111250000D02*
X75529221Y-111250000D01*
X88046779Y-111250000D02*
X87721221Y-111250000D01*
X88046779Y-112270000D02*
X87721221Y-112270000D01*
X100746779Y-112270000D02*
X100421221Y-112270000D01*
X100746779Y-111250000D02*
X100421221Y-111250000D01*
D10*
X68592000Y-139596000D02*
X70092000Y-139596000D01*
X70092000Y-139296000D02*
X68592000Y-139296000D01*
X80530000Y-138834000D02*
X82030000Y-138834000D01*
X82030000Y-138534000D02*
X80530000Y-138534000D01*
X92722000Y-138834000D02*
X94222000Y-138834000D01*
X94222000Y-138534000D02*
X92722000Y-138534000D01*
X102374000Y-138834000D02*
X103874000Y-138834000D01*
X103874000Y-138534000D02*
X102374000Y-138534000D01*
X70092000Y-143106000D02*
X68592000Y-143106000D01*
X68592000Y-143406000D02*
X70092000Y-143406000D01*
X82030000Y-142344000D02*
X80530000Y-142344000D01*
X80530000Y-142644000D02*
X82030000Y-142644000D01*
X94222000Y-142852000D02*
X92722000Y-142852000D01*
X92722000Y-143152000D02*
X94222000Y-143152000D01*
X103874000Y-142852000D02*
X102374000Y-142852000D01*
X102374000Y-143152000D02*
X103874000Y-143152000D01*
D13*
X69064000Y-150456000D02*
X69064000Y-148756000D01*
X69064000Y-148756000D02*
X66514000Y-148756000D01*
X69064000Y-150456000D02*
X66514000Y-150456000D01*
X66064000Y-158916000D02*
X68614000Y-158916000D01*
X66064000Y-160616000D02*
X68614000Y-160616000D01*
X66064000Y-158916000D02*
X66064000Y-160616000D01*
D10*
X64936000Y-139508000D02*
X66636000Y-139508000D01*
X66636000Y-140908000D02*
X64936000Y-140908000D01*
X76786000Y-138746000D02*
X78486000Y-138746000D01*
X78486000Y-140146000D02*
X76786000Y-140146000D01*
X89066000Y-138746000D02*
X90766000Y-138746000D01*
X90766000Y-140146000D02*
X89066000Y-140146000D01*
X108292000Y-140146000D02*
X106592000Y-140146000D01*
X106592000Y-138746000D02*
X108292000Y-138746000D01*
X66636000Y-144718000D02*
X64936000Y-144718000D01*
X64936000Y-143318000D02*
X66636000Y-143318000D01*
X78574000Y-143956000D02*
X76874000Y-143956000D01*
X76874000Y-142556000D02*
X78574000Y-142556000D01*
X90766000Y-144464000D02*
X89066000Y-144464000D01*
X89066000Y-143064000D02*
X90766000Y-143064000D01*
X106592000Y-143064000D02*
X108292000Y-143064000D01*
X108292000Y-144464000D02*
X106592000Y-144464000D01*
D11*
X65495999Y-121017999D02*
G75*
G03X65750000Y-121382000I308901J-55070D01*
G01*
X65496000Y-121018000D02*
X65496000Y-116526000D01*
X65750000Y-116362000D02*
G75*
G03X65496000Y-116526000I-45000J-209000D01*
G01*
X65750000Y-116362000D02*
X73242000Y-116362000D01*
X73696000Y-116726000D02*
G75*
G03X73242000Y-116362000I-409000J-45000D01*
G01*
X73696000Y-116726000D02*
X73696000Y-121218000D01*
X73342000Y-121382001D02*
G75*
G03X73696000Y-121218000I95046J258901D01*
G01*
X73342000Y-121382000D02*
X65750000Y-121382000D01*
X71966000Y-118872000D02*
G75*
G03X71966000Y-118872000I-2370000J0D01*
G01*
X84158000Y-118872000D02*
G75*
G03X84158000Y-118872000I-2370000J0D01*
G01*
X85534000Y-121382000D02*
X77942000Y-121382000D01*
X85534000Y-121382001D02*
G75*
G03X85888000Y-121218000I95046J258901D01*
G01*
X85888000Y-116726000D02*
X85888000Y-121218000D01*
X85888000Y-116726000D02*
G75*
G03X85434000Y-116362000I-409000J-45000D01*
G01*
X77942000Y-116362000D02*
X85434000Y-116362000D01*
X77942000Y-116362000D02*
G75*
G03X77688000Y-116526000I-45000J-209000D01*
G01*
X77688000Y-121018000D02*
X77688000Y-116526000D01*
X77687999Y-121017999D02*
G75*
G03X77942000Y-121382000I308901J-55070D01*
G01*
X89879999Y-121017999D02*
G75*
G03X90134000Y-121382000I308901J-55070D01*
G01*
X89880000Y-121018000D02*
X89880000Y-116526000D01*
X90134000Y-116362000D02*
G75*
G03X89880000Y-116526000I-45000J-209000D01*
G01*
X90134000Y-116362000D02*
X97626000Y-116362000D01*
X98080000Y-116726000D02*
G75*
G03X97626000Y-116362000I-409000J-45000D01*
G01*
X98080000Y-116726000D02*
X98080000Y-121218000D01*
X97726000Y-121382001D02*
G75*
G03X98080000Y-121218000I95046J258901D01*
G01*
X97726000Y-121382000D02*
X90134000Y-121382000D01*
X96350000Y-118872000D02*
G75*
G03X96350000Y-118872000I-2370000J0D01*
G01*
X108542000Y-118618000D02*
G75*
G03X108542000Y-118618000I-2370000J0D01*
G01*
X109918000Y-121128000D02*
X102326000Y-121128000D01*
X109918000Y-121128001D02*
G75*
G03X110272000Y-120964000I95046J258901D01*
G01*
X110272000Y-116472000D02*
X110272000Y-120964000D01*
X110272000Y-116472000D02*
G75*
G03X109818000Y-116108000I-409000J-45000D01*
G01*
X102326000Y-116108000D02*
X109818000Y-116108000D01*
X102326000Y-116108000D02*
G75*
G03X102072000Y-116272000I-45000J-209000D01*
G01*
X102072000Y-120764000D02*
X102072000Y-116272000D01*
X102071999Y-120763999D02*
G75*
G03X102326000Y-121128000I308901J-55070D01*
G01*
D10*
X55570380Y-94217714D02*
X54570380Y-94217714D01*
X55570380Y-93741523D02*
X54570380Y-93741523D01*
X55570380Y-93170095D01*
X54570380Y-93170095D01*
X55570380Y-92693904D02*
X54570380Y-92693904D01*
X54570380Y-92312952D01*
X54618000Y-92217714D01*
X54665619Y-92170095D01*
X54760857Y-92122476D01*
X54903714Y-92122476D01*
X54998952Y-92170095D01*
X55046571Y-92217714D01*
X55094190Y-92312952D01*
X55094190Y-92693904D01*
X54570380Y-91693904D02*
X55379904Y-91693904D01*
X55475142Y-91646285D01*
X55522761Y-91598666D01*
X55570380Y-91503428D01*
X55570380Y-91312952D01*
X55522761Y-91217714D01*
X55475142Y-91170095D01*
X55379904Y-91122476D01*
X54570380Y-91122476D01*
X54570380Y-90789142D02*
X54570380Y-90217714D01*
X55570380Y-90503428D02*
X54570380Y-90503428D01*
X55665619Y-90122476D02*
X55665619Y-89360571D01*
X55475142Y-88551047D02*
X55522761Y-88598666D01*
X55570380Y-88741523D01*
X55570380Y-88836761D01*
X55522761Y-88979619D01*
X55427523Y-89074857D01*
X55332285Y-89122476D01*
X55141809Y-89170095D01*
X54998952Y-89170095D01*
X54808476Y-89122476D01*
X54713238Y-89074857D01*
X54618000Y-88979619D01*
X54570380Y-88836761D01*
X54570380Y-88741523D01*
X54618000Y-88598666D01*
X54665619Y-88551047D01*
X55570380Y-87598666D02*
X55570380Y-88170095D01*
X55570380Y-87884380D02*
X54570380Y-87884380D01*
X54713238Y-87979619D01*
X54808476Y-88074857D01*
X54856095Y-88170095D01*
D15*
X104415892Y-108603747D02*
X104013725Y-108029223D01*
X103726463Y-108603747D02*
X103726463Y-107397247D01*
X104186082Y-107397247D01*
X104300987Y-107454700D01*
X104358440Y-107512152D01*
X104415892Y-107627057D01*
X104415892Y-107799414D01*
X104358440Y-107914319D01*
X104300987Y-107971771D01*
X104186082Y-108029223D01*
X103726463Y-108029223D01*
X104760606Y-107397247D02*
X105162773Y-108603747D01*
X105564940Y-107397247D01*
X106599082Y-108603747D02*
X105909654Y-108603747D01*
X106254368Y-108603747D02*
X106254368Y-107397247D01*
X106139463Y-107569604D01*
X106024559Y-107684509D01*
X105909654Y-107741961D01*
X107633225Y-107397247D02*
X107403416Y-107397247D01*
X107288511Y-107454700D01*
X107231059Y-107512152D01*
X107116154Y-107684509D01*
X107058701Y-107914319D01*
X107058701Y-108373938D01*
X107116154Y-108488842D01*
X107173606Y-108546295D01*
X107288511Y-108603747D01*
X107518320Y-108603747D01*
X107633225Y-108546295D01*
X107690678Y-108488842D01*
X107748130Y-108373938D01*
X107748130Y-108086676D01*
X107690678Y-107971771D01*
X107633225Y-107914319D01*
X107518320Y-107856866D01*
X107288511Y-107856866D01*
X107173606Y-107914319D01*
X107116154Y-107971771D01*
X107058701Y-108086676D01*
X92223892Y-108603747D02*
X91821725Y-108029223D01*
X91534463Y-108603747D02*
X91534463Y-107397247D01*
X91994082Y-107397247D01*
X92108987Y-107454700D01*
X92166440Y-107512152D01*
X92223892Y-107627057D01*
X92223892Y-107799414D01*
X92166440Y-107914319D01*
X92108987Y-107971771D01*
X91994082Y-108029223D01*
X91534463Y-108029223D01*
X92568606Y-107397247D02*
X92970773Y-108603747D01*
X93372940Y-107397247D01*
X94407082Y-108603747D02*
X93717654Y-108603747D01*
X94062368Y-108603747D02*
X94062368Y-107397247D01*
X93947463Y-107569604D01*
X93832559Y-107684509D01*
X93717654Y-107741961D01*
X95498678Y-107397247D02*
X94924154Y-107397247D01*
X94866701Y-107971771D01*
X94924154Y-107914319D01*
X95039059Y-107856866D01*
X95326320Y-107856866D01*
X95441225Y-107914319D01*
X95498678Y-107971771D01*
X95556130Y-108086676D01*
X95556130Y-108373938D01*
X95498678Y-108488842D01*
X95441225Y-108546295D01*
X95326320Y-108603747D01*
X95039059Y-108603747D01*
X94924154Y-108546295D01*
X94866701Y-108488842D01*
X80031892Y-108603747D02*
X79629725Y-108029223D01*
X79342463Y-108603747D02*
X79342463Y-107397247D01*
X79802082Y-107397247D01*
X79916987Y-107454700D01*
X79974440Y-107512152D01*
X80031892Y-107627057D01*
X80031892Y-107799414D01*
X79974440Y-107914319D01*
X79916987Y-107971771D01*
X79802082Y-108029223D01*
X79342463Y-108029223D01*
X80376606Y-107397247D02*
X80778773Y-108603747D01*
X81180940Y-107397247D01*
X82215082Y-108603747D02*
X81525654Y-108603747D01*
X81870368Y-108603747D02*
X81870368Y-107397247D01*
X81755463Y-107569604D01*
X81640559Y-107684509D01*
X81525654Y-107741961D01*
X83249225Y-107799414D02*
X83249225Y-108603747D01*
X82961963Y-107339795D02*
X82674701Y-108201580D01*
X83421582Y-108201580D01*
X67839892Y-108527547D02*
X67437725Y-107953023D01*
X67150463Y-108527547D02*
X67150463Y-107321047D01*
X67610082Y-107321047D01*
X67724987Y-107378500D01*
X67782440Y-107435952D01*
X67839892Y-107550857D01*
X67839892Y-107723214D01*
X67782440Y-107838119D01*
X67724987Y-107895571D01*
X67610082Y-107953023D01*
X67150463Y-107953023D01*
X68184606Y-107321047D02*
X68586773Y-108527547D01*
X68988940Y-107321047D01*
X70023082Y-108527547D02*
X69333654Y-108527547D01*
X69678368Y-108527547D02*
X69678368Y-107321047D01*
X69563463Y-107493404D01*
X69448559Y-107608309D01*
X69333654Y-107665761D01*
X70425249Y-107321047D02*
X71172130Y-107321047D01*
X70769963Y-107780666D01*
X70942320Y-107780666D01*
X71057225Y-107838119D01*
X71114678Y-107895571D01*
X71172130Y-108010476D01*
X71172130Y-108297738D01*
X71114678Y-108412642D01*
X71057225Y-108470095D01*
X70942320Y-108527547D01*
X70597606Y-108527547D01*
X70482701Y-108470095D01*
X70425249Y-108412642D01*
X104415892Y-94125747D02*
X104013725Y-93551223D01*
X103726463Y-94125747D02*
X103726463Y-92919247D01*
X104186082Y-92919247D01*
X104300987Y-92976700D01*
X104358440Y-93034152D01*
X104415892Y-93149057D01*
X104415892Y-93321414D01*
X104358440Y-93436319D01*
X104300987Y-93493771D01*
X104186082Y-93551223D01*
X103726463Y-93551223D01*
X104760606Y-92919247D02*
X105162773Y-94125747D01*
X105564940Y-92919247D01*
X106599082Y-94125747D02*
X105909654Y-94125747D01*
X106254368Y-94125747D02*
X106254368Y-92919247D01*
X106139463Y-93091604D01*
X106024559Y-93206509D01*
X105909654Y-93263961D01*
X107058701Y-93034152D02*
X107116154Y-92976700D01*
X107231059Y-92919247D01*
X107518320Y-92919247D01*
X107633225Y-92976700D01*
X107690678Y-93034152D01*
X107748130Y-93149057D01*
X107748130Y-93263961D01*
X107690678Y-93436319D01*
X107001249Y-94125747D01*
X107748130Y-94125747D01*
X92223892Y-94125747D02*
X91821725Y-93551223D01*
X91534463Y-94125747D02*
X91534463Y-92919247D01*
X91994082Y-92919247D01*
X92108987Y-92976700D01*
X92166440Y-93034152D01*
X92223892Y-93149057D01*
X92223892Y-93321414D01*
X92166440Y-93436319D01*
X92108987Y-93493771D01*
X91994082Y-93551223D01*
X91534463Y-93551223D01*
X92568606Y-92919247D02*
X92970773Y-94125747D01*
X93372940Y-92919247D01*
X94407082Y-94125747D02*
X93717654Y-94125747D01*
X94062368Y-94125747D02*
X94062368Y-92919247D01*
X93947463Y-93091604D01*
X93832559Y-93206509D01*
X93717654Y-93263961D01*
X95556130Y-94125747D02*
X94866701Y-94125747D01*
X95211416Y-94125747D02*
X95211416Y-92919247D01*
X95096511Y-93091604D01*
X94981606Y-93206509D01*
X94866701Y-93263961D01*
X80031892Y-94125747D02*
X79629725Y-93551223D01*
X79342463Y-94125747D02*
X79342463Y-92919247D01*
X79802082Y-92919247D01*
X79916987Y-92976700D01*
X79974440Y-93034152D01*
X80031892Y-93149057D01*
X80031892Y-93321414D01*
X79974440Y-93436319D01*
X79916987Y-93493771D01*
X79802082Y-93551223D01*
X79342463Y-93551223D01*
X80376606Y-92919247D02*
X80778773Y-94125747D01*
X81180940Y-92919247D01*
X82215082Y-94125747D02*
X81525654Y-94125747D01*
X81870368Y-94125747D02*
X81870368Y-92919247D01*
X81755463Y-93091604D01*
X81640559Y-93206509D01*
X81525654Y-93263961D01*
X82961963Y-92919247D02*
X83076868Y-92919247D01*
X83191773Y-92976700D01*
X83249225Y-93034152D01*
X83306678Y-93149057D01*
X83364130Y-93378866D01*
X83364130Y-93666128D01*
X83306678Y-93895938D01*
X83249225Y-94010842D01*
X83191773Y-94068295D01*
X83076868Y-94125747D01*
X82961963Y-94125747D01*
X82847059Y-94068295D01*
X82789606Y-94010842D01*
X82732154Y-93895938D01*
X82674701Y-93666128D01*
X82674701Y-93378866D01*
X82732154Y-93149057D01*
X82789606Y-93034152D01*
X82847059Y-92976700D01*
X82961963Y-92919247D01*
X68988940Y-94125747D02*
X68586773Y-93551223D01*
X68299511Y-94125747D02*
X68299511Y-92919247D01*
X68759130Y-92919247D01*
X68874035Y-92976700D01*
X68931487Y-93034152D01*
X68988940Y-93149057D01*
X68988940Y-93321414D01*
X68931487Y-93436319D01*
X68874035Y-93493771D01*
X68759130Y-93551223D01*
X68299511Y-93551223D01*
X69333654Y-92919247D02*
X69735820Y-94125747D01*
X70137987Y-92919247D01*
X70597606Y-94125747D02*
X70827416Y-94125747D01*
X70942320Y-94068295D01*
X70999773Y-94010842D01*
X71114678Y-93838485D01*
X71172130Y-93608676D01*
X71172130Y-93149057D01*
X71114678Y-93034152D01*
X71057225Y-92976700D01*
X70942320Y-92919247D01*
X70712511Y-92919247D01*
X70597606Y-92976700D01*
X70540154Y-93034152D01*
X70482701Y-93149057D01*
X70482701Y-93436319D01*
X70540154Y-93551223D01*
X70597606Y-93608676D01*
X70712511Y-93666128D01*
X70942320Y-93666128D01*
X71057225Y-93608676D01*
X71114678Y-93551223D01*
X71172130Y-93436319D01*
X105310940Y-79647747D02*
X104908773Y-79073223D01*
X104621511Y-79647747D02*
X104621511Y-78441247D01*
X105081130Y-78441247D01*
X105196035Y-78498700D01*
X105253487Y-78556152D01*
X105310940Y-78671057D01*
X105310940Y-78843414D01*
X105253487Y-78958319D01*
X105196035Y-79015771D01*
X105081130Y-79073223D01*
X104621511Y-79073223D01*
X105655654Y-78441247D02*
X106057820Y-79647747D01*
X106459987Y-78441247D01*
X107034511Y-78958319D02*
X106919606Y-78900866D01*
X106862154Y-78843414D01*
X106804701Y-78728509D01*
X106804701Y-78671057D01*
X106862154Y-78556152D01*
X106919606Y-78498700D01*
X107034511Y-78441247D01*
X107264320Y-78441247D01*
X107379225Y-78498700D01*
X107436678Y-78556152D01*
X107494130Y-78671057D01*
X107494130Y-78728509D01*
X107436678Y-78843414D01*
X107379225Y-78900866D01*
X107264320Y-78958319D01*
X107034511Y-78958319D01*
X106919606Y-79015771D01*
X106862154Y-79073223D01*
X106804701Y-79188128D01*
X106804701Y-79417938D01*
X106862154Y-79532842D01*
X106919606Y-79590295D01*
X107034511Y-79647747D01*
X107264320Y-79647747D01*
X107379225Y-79590295D01*
X107436678Y-79532842D01*
X107494130Y-79417938D01*
X107494130Y-79188128D01*
X107436678Y-79073223D01*
X107379225Y-79015771D01*
X107264320Y-78958319D01*
X93118940Y-79647747D02*
X92716773Y-79073223D01*
X92429511Y-79647747D02*
X92429511Y-78441247D01*
X92889130Y-78441247D01*
X93004035Y-78498700D01*
X93061487Y-78556152D01*
X93118940Y-78671057D01*
X93118940Y-78843414D01*
X93061487Y-78958319D01*
X93004035Y-79015771D01*
X92889130Y-79073223D01*
X92429511Y-79073223D01*
X93463654Y-78441247D02*
X93865820Y-79647747D01*
X94267987Y-78441247D01*
X94555249Y-78441247D02*
X95359582Y-78441247D01*
X94842511Y-79647747D01*
X80926940Y-79647747D02*
X80524773Y-79073223D01*
X80237511Y-79647747D02*
X80237511Y-78441247D01*
X80697130Y-78441247D01*
X80812035Y-78498700D01*
X80869487Y-78556152D01*
X80926940Y-78671057D01*
X80926940Y-78843414D01*
X80869487Y-78958319D01*
X80812035Y-79015771D01*
X80697130Y-79073223D01*
X80237511Y-79073223D01*
X81271654Y-78441247D02*
X81673820Y-79647747D01*
X82075987Y-78441247D01*
X82995225Y-78441247D02*
X82765416Y-78441247D01*
X82650511Y-78498700D01*
X82593059Y-78556152D01*
X82478154Y-78728509D01*
X82420701Y-78958319D01*
X82420701Y-79417938D01*
X82478154Y-79532842D01*
X82535606Y-79590295D01*
X82650511Y-79647747D01*
X82880320Y-79647747D01*
X82995225Y-79590295D01*
X83052678Y-79532842D01*
X83110130Y-79417938D01*
X83110130Y-79130676D01*
X83052678Y-79015771D01*
X82995225Y-78958319D01*
X82880320Y-78900866D01*
X82650511Y-78900866D01*
X82535606Y-78958319D01*
X82478154Y-79015771D01*
X82420701Y-79130676D01*
X68734940Y-79647747D02*
X68332773Y-79073223D01*
X68045511Y-79647747D02*
X68045511Y-78441247D01*
X68505130Y-78441247D01*
X68620035Y-78498700D01*
X68677487Y-78556152D01*
X68734940Y-78671057D01*
X68734940Y-78843414D01*
X68677487Y-78958319D01*
X68620035Y-79015771D01*
X68505130Y-79073223D01*
X68045511Y-79073223D01*
X69079654Y-78441247D02*
X69481820Y-79647747D01*
X69883987Y-78441247D01*
X70860678Y-78441247D02*
X70286154Y-78441247D01*
X70228701Y-79015771D01*
X70286154Y-78958319D01*
X70401059Y-78900866D01*
X70688320Y-78900866D01*
X70803225Y-78958319D01*
X70860678Y-79015771D01*
X70918130Y-79130676D01*
X70918130Y-79417938D01*
X70860678Y-79532842D01*
X70803225Y-79590295D01*
X70688320Y-79647747D01*
X70401059Y-79647747D01*
X70286154Y-79590295D01*
X70228701Y-79532842D01*
X105310940Y-65232318D02*
X104908773Y-64657794D01*
X104621511Y-65232318D02*
X104621511Y-64025818D01*
X105081130Y-64025818D01*
X105196035Y-64083271D01*
X105253487Y-64140723D01*
X105310940Y-64255628D01*
X105310940Y-64427985D01*
X105253487Y-64542890D01*
X105196035Y-64600342D01*
X105081130Y-64657794D01*
X104621511Y-64657794D01*
X105655654Y-64025818D02*
X106057820Y-65232318D01*
X106459987Y-64025818D01*
X107379225Y-64427985D02*
X107379225Y-65232318D01*
X107091963Y-63968366D02*
X106804701Y-64830151D01*
X107551582Y-64830151D01*
X93118940Y-65232318D02*
X92716773Y-64657794D01*
X92429511Y-65232318D02*
X92429511Y-64025818D01*
X92889130Y-64025818D01*
X93004035Y-64083271D01*
X93061487Y-64140723D01*
X93118940Y-64255628D01*
X93118940Y-64427985D01*
X93061487Y-64542890D01*
X93004035Y-64600342D01*
X92889130Y-64657794D01*
X92429511Y-64657794D01*
X93463654Y-64025818D02*
X93865820Y-65232318D01*
X94267987Y-64025818D01*
X94555249Y-64025818D02*
X95302130Y-64025818D01*
X94899963Y-64485437D01*
X95072320Y-64485437D01*
X95187225Y-64542890D01*
X95244678Y-64600342D01*
X95302130Y-64715247D01*
X95302130Y-65002509D01*
X95244678Y-65117413D01*
X95187225Y-65174866D01*
X95072320Y-65232318D01*
X94727606Y-65232318D01*
X94612701Y-65174866D01*
X94555249Y-65117413D01*
X80926940Y-65232318D02*
X80524773Y-64657794D01*
X80237511Y-65232318D02*
X80237511Y-64025818D01*
X80697130Y-64025818D01*
X80812035Y-64083271D01*
X80869487Y-64140723D01*
X80926940Y-64255628D01*
X80926940Y-64427985D01*
X80869487Y-64542890D01*
X80812035Y-64600342D01*
X80697130Y-64657794D01*
X80237511Y-64657794D01*
X81271654Y-64025818D02*
X81673820Y-65232318D01*
X82075987Y-64025818D01*
X82420701Y-64140723D02*
X82478154Y-64083271D01*
X82593059Y-64025818D01*
X82880320Y-64025818D01*
X82995225Y-64083271D01*
X83052678Y-64140723D01*
X83110130Y-64255628D01*
X83110130Y-64370532D01*
X83052678Y-64542890D01*
X82363249Y-65232318D01*
X83110130Y-65232318D01*
X68734940Y-65232318D02*
X68332773Y-64657794D01*
X68045511Y-65232318D02*
X68045511Y-64025818D01*
X68505130Y-64025818D01*
X68620035Y-64083271D01*
X68677487Y-64140723D01*
X68734940Y-64255628D01*
X68734940Y-64427985D01*
X68677487Y-64542890D01*
X68620035Y-64600342D01*
X68505130Y-64657794D01*
X68045511Y-64657794D01*
X69079654Y-64025818D02*
X69481820Y-65232318D01*
X69883987Y-64025818D01*
X70918130Y-65232318D02*
X70228701Y-65232318D01*
X70573416Y-65232318D02*
X70573416Y-64025818D01*
X70458511Y-64198175D01*
X70343606Y-64313080D01*
X70228701Y-64370532D01*
D10*
X101814380Y-133429142D02*
X101814380Y-133238666D01*
X101862000Y-133143428D01*
X101957238Y-133048190D01*
X102147714Y-133000571D01*
X102481047Y-133000571D01*
X102671523Y-133048190D01*
X102766761Y-133143428D01*
X102814380Y-133238666D01*
X102814380Y-133429142D01*
X102766761Y-133524380D01*
X102671523Y-133619619D01*
X102481047Y-133667238D01*
X102147714Y-133667238D01*
X101957238Y-133619619D01*
X101862000Y-133524380D01*
X101814380Y-133429142D01*
X101814380Y-132572000D02*
X102623904Y-132572000D01*
X102719142Y-132524380D01*
X102766761Y-132476761D01*
X102814380Y-132381523D01*
X102814380Y-132191047D01*
X102766761Y-132095809D01*
X102719142Y-132048190D01*
X102623904Y-132000571D01*
X101814380Y-132000571D01*
X101814380Y-131667238D02*
X101814380Y-131095809D01*
X102814380Y-131381523D02*
X101814380Y-131381523D01*
X102909619Y-131000571D02*
X102909619Y-130238666D01*
X102147714Y-129572000D02*
X102814380Y-129572000D01*
X101766761Y-129810095D02*
X102481047Y-130048190D01*
X102481047Y-129429142D01*
X89876380Y-133175142D02*
X89876380Y-132984666D01*
X89924000Y-132889428D01*
X90019238Y-132794190D01*
X90209714Y-132746571D01*
X90543047Y-132746571D01*
X90733523Y-132794190D01*
X90828761Y-132889428D01*
X90876380Y-132984666D01*
X90876380Y-133175142D01*
X90828761Y-133270380D01*
X90733523Y-133365619D01*
X90543047Y-133413238D01*
X90209714Y-133413238D01*
X90019238Y-133365619D01*
X89924000Y-133270380D01*
X89876380Y-133175142D01*
X89876380Y-132318000D02*
X90685904Y-132318000D01*
X90781142Y-132270380D01*
X90828761Y-132222761D01*
X90876380Y-132127523D01*
X90876380Y-131937047D01*
X90828761Y-131841809D01*
X90781142Y-131794190D01*
X90685904Y-131746571D01*
X89876380Y-131746571D01*
X89876380Y-131413238D02*
X89876380Y-130841809D01*
X90876380Y-131127523D02*
X89876380Y-131127523D01*
X90971619Y-130746571D02*
X90971619Y-129984666D01*
X89876380Y-129841809D02*
X89876380Y-129222761D01*
X90257333Y-129556095D01*
X90257333Y-129413238D01*
X90304952Y-129318000D01*
X90352571Y-129270380D01*
X90447809Y-129222761D01*
X90685904Y-129222761D01*
X90781142Y-129270380D01*
X90828761Y-129318000D01*
X90876380Y-129413238D01*
X90876380Y-129698952D01*
X90828761Y-129794190D01*
X90781142Y-129841809D01*
X78192380Y-133175142D02*
X78192380Y-132984666D01*
X78240000Y-132889428D01*
X78335238Y-132794190D01*
X78525714Y-132746571D01*
X78859047Y-132746571D01*
X79049523Y-132794190D01*
X79144761Y-132889428D01*
X79192380Y-132984666D01*
X79192380Y-133175142D01*
X79144761Y-133270380D01*
X79049523Y-133365619D01*
X78859047Y-133413238D01*
X78525714Y-133413238D01*
X78335238Y-133365619D01*
X78240000Y-133270380D01*
X78192380Y-133175142D01*
X78192380Y-132318000D02*
X79001904Y-132318000D01*
X79097142Y-132270380D01*
X79144761Y-132222761D01*
X79192380Y-132127523D01*
X79192380Y-131937047D01*
X79144761Y-131841809D01*
X79097142Y-131794190D01*
X79001904Y-131746571D01*
X78192380Y-131746571D01*
X78192380Y-131413238D02*
X78192380Y-130841809D01*
X79192380Y-131127523D02*
X78192380Y-131127523D01*
X79287619Y-130746571D02*
X79287619Y-129984666D01*
X78287619Y-129794190D02*
X78240000Y-129746571D01*
X78192380Y-129651333D01*
X78192380Y-129413238D01*
X78240000Y-129318000D01*
X78287619Y-129270380D01*
X78382857Y-129222761D01*
X78478095Y-129222761D01*
X78620952Y-129270380D01*
X79192380Y-129841809D01*
X79192380Y-129222761D01*
X65492380Y-133175142D02*
X65492380Y-132984666D01*
X65540000Y-132889428D01*
X65635238Y-132794190D01*
X65825714Y-132746571D01*
X66159047Y-132746571D01*
X66349523Y-132794190D01*
X66444761Y-132889428D01*
X66492380Y-132984666D01*
X66492380Y-133175142D01*
X66444761Y-133270380D01*
X66349523Y-133365619D01*
X66159047Y-133413238D01*
X65825714Y-133413238D01*
X65635238Y-133365619D01*
X65540000Y-133270380D01*
X65492380Y-133175142D01*
X65492380Y-132318000D02*
X66301904Y-132318000D01*
X66397142Y-132270380D01*
X66444761Y-132222761D01*
X66492380Y-132127523D01*
X66492380Y-131937047D01*
X66444761Y-131841809D01*
X66397142Y-131794190D01*
X66301904Y-131746571D01*
X65492380Y-131746571D01*
X65492380Y-131413238D02*
X65492380Y-130841809D01*
X66492380Y-131127523D02*
X65492380Y-131127523D01*
X66587619Y-130746571D02*
X66587619Y-129984666D01*
X66492380Y-129222761D02*
X66492380Y-129794190D01*
X66492380Y-129508476D02*
X65492380Y-129508476D01*
X65635238Y-129603714D01*
X65730476Y-129698952D01*
X65778095Y-129794190D01*
X55824380Y-108695714D02*
X54824380Y-108695714D01*
X55824380Y-108219523D02*
X54824380Y-108219523D01*
X55824380Y-107648095D01*
X54824380Y-107648095D01*
X55824380Y-107171904D02*
X54824380Y-107171904D01*
X54824380Y-106790952D01*
X54872000Y-106695714D01*
X54919619Y-106648095D01*
X55014857Y-106600476D01*
X55157714Y-106600476D01*
X55252952Y-106648095D01*
X55300571Y-106695714D01*
X55348190Y-106790952D01*
X55348190Y-107171904D01*
X54824380Y-106171904D02*
X55633904Y-106171904D01*
X55729142Y-106124285D01*
X55776761Y-106076666D01*
X55824380Y-105981428D01*
X55824380Y-105790952D01*
X55776761Y-105695714D01*
X55729142Y-105648095D01*
X55633904Y-105600476D01*
X54824380Y-105600476D01*
X54824380Y-105267142D02*
X54824380Y-104695714D01*
X55824380Y-104981428D02*
X54824380Y-104981428D01*
X55919619Y-104600476D02*
X55919619Y-103838571D01*
X55824380Y-103600476D02*
X54824380Y-103600476D01*
X54824380Y-103362380D01*
X54872000Y-103219523D01*
X54967238Y-103124285D01*
X55062476Y-103076666D01*
X55252952Y-103029047D01*
X55395809Y-103029047D01*
X55586285Y-103076666D01*
X55681523Y-103124285D01*
X55776761Y-103219523D01*
X55824380Y-103362380D01*
X55824380Y-103600476D01*
X55824380Y-102076666D02*
X55824380Y-102648095D01*
X55824380Y-102362380D02*
X54824380Y-102362380D01*
X54967238Y-102457619D01*
X55062476Y-102552857D01*
X55110095Y-102648095D01*
X55570380Y-79739714D02*
X54570380Y-79739714D01*
X55570380Y-79263523D02*
X54570380Y-79263523D01*
X55570380Y-78692095D01*
X54570380Y-78692095D01*
X55570380Y-78215904D02*
X54570380Y-78215904D01*
X54570380Y-77834952D01*
X54618000Y-77739714D01*
X54665619Y-77692095D01*
X54760857Y-77644476D01*
X54903714Y-77644476D01*
X54998952Y-77692095D01*
X55046571Y-77739714D01*
X55094190Y-77834952D01*
X55094190Y-78215904D01*
X54570380Y-77215904D02*
X55379904Y-77215904D01*
X55475142Y-77168285D01*
X55522761Y-77120666D01*
X55570380Y-77025428D01*
X55570380Y-76834952D01*
X55522761Y-76739714D01*
X55475142Y-76692095D01*
X55379904Y-76644476D01*
X54570380Y-76644476D01*
X54570380Y-76311142D02*
X54570380Y-75739714D01*
X55570380Y-76025428D02*
X54570380Y-76025428D01*
X55665619Y-75644476D02*
X55665619Y-74882571D01*
X55046571Y-74311142D02*
X55094190Y-74168285D01*
X55141809Y-74120666D01*
X55237047Y-74073047D01*
X55379904Y-74073047D01*
X55475142Y-74120666D01*
X55522761Y-74168285D01*
X55570380Y-74263523D01*
X55570380Y-74644476D01*
X54570380Y-74644476D01*
X54570380Y-74311142D01*
X54618000Y-74215904D01*
X54665619Y-74168285D01*
X54760857Y-74120666D01*
X54856095Y-74120666D01*
X54951333Y-74168285D01*
X54998952Y-74215904D01*
X55046571Y-74311142D01*
X55046571Y-74644476D01*
X55570380Y-73120666D02*
X55570380Y-73692095D01*
X55570380Y-73406380D02*
X54570380Y-73406380D01*
X54713238Y-73501619D01*
X54808476Y-73596857D01*
X54856095Y-73692095D01*
X56078380Y-64831997D02*
X55078380Y-64831997D01*
X56078380Y-64355807D02*
X55078380Y-64355807D01*
X56078380Y-63784378D01*
X55078380Y-63784378D01*
X56078380Y-63308188D02*
X55078380Y-63308188D01*
X55078380Y-62927235D01*
X55126000Y-62831997D01*
X55173619Y-62784378D01*
X55268857Y-62736759D01*
X55411714Y-62736759D01*
X55506952Y-62784378D01*
X55554571Y-62831997D01*
X55602190Y-62927235D01*
X55602190Y-63308188D01*
X55078380Y-62308188D02*
X55887904Y-62308188D01*
X55983142Y-62260569D01*
X56030761Y-62212950D01*
X56078380Y-62117712D01*
X56078380Y-61927235D01*
X56030761Y-61831997D01*
X55983142Y-61784378D01*
X55887904Y-61736759D01*
X55078380Y-61736759D01*
X55078380Y-61403426D02*
X55078380Y-60831997D01*
X56078380Y-61117712D02*
X55078380Y-61117712D01*
X56173619Y-60736759D02*
X56173619Y-59974854D01*
X55792666Y-59784378D02*
X55792666Y-59308188D01*
X56078380Y-59879616D02*
X55078380Y-59546283D01*
X56078380Y-59212950D01*
X56078380Y-58355807D02*
X56078380Y-58927235D01*
X56078380Y-58641521D02*
X55078380Y-58641521D01*
X55221238Y-58736759D01*
X55316476Y-58831997D01*
X55364095Y-58927235D01*
X60976095Y-159900928D02*
X61738000Y-159900928D01*
X62738000Y-160281880D02*
X62166571Y-160281880D01*
X62452285Y-160281880D02*
X62452285Y-159281880D01*
X62357047Y-159424738D01*
X62261809Y-159519976D01*
X62166571Y-159567595D01*
X63118952Y-159377119D02*
X63166571Y-159329500D01*
X63261809Y-159281880D01*
X63499904Y-159281880D01*
X63595142Y-159329500D01*
X63642761Y-159377119D01*
X63690380Y-159472357D01*
X63690380Y-159567595D01*
X63642761Y-159710452D01*
X63071333Y-160281880D01*
X63690380Y-160281880D01*
X63976095Y-159281880D02*
X64309428Y-160281880D01*
X64642761Y-159281880D01*
D16*
X61051428Y-162571880D02*
X61122857Y-162595690D01*
X61241904Y-162595690D01*
X61289523Y-162571880D01*
X61313333Y-162548071D01*
X61337142Y-162500452D01*
X61337142Y-162452833D01*
X61313333Y-162405214D01*
X61289523Y-162381404D01*
X61241904Y-162357595D01*
X61146666Y-162333785D01*
X61099047Y-162309976D01*
X61075238Y-162286166D01*
X61051428Y-162238547D01*
X61051428Y-162190928D01*
X61075238Y-162143309D01*
X61099047Y-162119500D01*
X61146666Y-162095690D01*
X61265714Y-162095690D01*
X61337142Y-162119500D01*
X61480000Y-162095690D02*
X61765714Y-162095690D01*
X61622857Y-162595690D02*
X61622857Y-162095690D01*
X62218095Y-162595690D02*
X62051428Y-162357595D01*
X61932380Y-162595690D02*
X61932380Y-162095690D01*
X62122857Y-162095690D01*
X62170476Y-162119500D01*
X62194285Y-162143309D01*
X62218095Y-162190928D01*
X62218095Y-162262357D01*
X62194285Y-162309976D01*
X62170476Y-162333785D01*
X62122857Y-162357595D01*
X61932380Y-162357595D01*
X62432380Y-162595690D02*
X62432380Y-162095690D01*
X62670476Y-162595690D02*
X62670476Y-162095690D01*
X62860952Y-162095690D01*
X62908571Y-162119500D01*
X62932380Y-162143309D01*
X62956190Y-162190928D01*
X62956190Y-162262357D01*
X62932380Y-162309976D01*
X62908571Y-162333785D01*
X62860952Y-162357595D01*
X62670476Y-162357595D01*
X63170476Y-162333785D02*
X63337142Y-162333785D01*
X63408571Y-162595690D02*
X63170476Y-162595690D01*
X63170476Y-162095690D01*
X63408571Y-162095690D01*
D10*
X78769142Y-158372666D02*
X78816761Y-158420285D01*
X78864380Y-158563142D01*
X78864380Y-158658380D01*
X78816761Y-158801238D01*
X78721523Y-158896476D01*
X78626285Y-158944095D01*
X78435809Y-158991714D01*
X78292952Y-158991714D01*
X78102476Y-158944095D01*
X78007238Y-158896476D01*
X77912000Y-158801238D01*
X77864380Y-158658380D01*
X77864380Y-158563142D01*
X77912000Y-158420285D01*
X77959619Y-158372666D01*
X78864380Y-157420285D02*
X78864380Y-157991714D01*
X78864380Y-157706000D02*
X77864380Y-157706000D01*
X78007238Y-157801238D01*
X78102476Y-157896476D01*
X78150095Y-157991714D01*
X78227714Y-154192190D02*
X78894380Y-154192190D01*
X77846761Y-154430285D02*
X78561047Y-154668380D01*
X78561047Y-154049333D01*
X78799142Y-153668380D02*
X78846761Y-153620761D01*
X78894380Y-153668380D01*
X78846761Y-153716000D01*
X78799142Y-153668380D01*
X78894380Y-153668380D01*
X77894380Y-153287428D02*
X77894380Y-152620761D01*
X78894380Y-153049333D01*
X78227714Y-151811238D02*
X78894380Y-151811238D01*
X78227714Y-152239809D02*
X78751523Y-152239809D01*
X78846761Y-152192190D01*
X78894380Y-152096952D01*
X78894380Y-151954095D01*
X78846761Y-151858857D01*
X78799142Y-151811238D01*
X98835142Y-158372666D02*
X98882761Y-158420285D01*
X98930380Y-158563142D01*
X98930380Y-158658380D01*
X98882761Y-158801238D01*
X98787523Y-158896476D01*
X98692285Y-158944095D01*
X98501809Y-158991714D01*
X98358952Y-158991714D01*
X98168476Y-158944095D01*
X98073238Y-158896476D01*
X97978000Y-158801238D01*
X97930380Y-158658380D01*
X97930380Y-158563142D01*
X97978000Y-158420285D01*
X98025619Y-158372666D01*
X98025619Y-157991714D02*
X97978000Y-157944095D01*
X97930380Y-157848857D01*
X97930380Y-157610761D01*
X97978000Y-157515523D01*
X98025619Y-157467904D01*
X98120857Y-157420285D01*
X98216095Y-157420285D01*
X98358952Y-157467904D01*
X98930380Y-158039333D01*
X98930380Y-157420285D01*
X98293714Y-154192190D02*
X98960380Y-154192190D01*
X97912761Y-154430285D02*
X98627047Y-154668380D01*
X98627047Y-154049333D01*
X98865142Y-153668380D02*
X98912761Y-153620761D01*
X98960380Y-153668380D01*
X98912761Y-153716000D01*
X98865142Y-153668380D01*
X98960380Y-153668380D01*
X97960380Y-153287428D02*
X97960380Y-152620761D01*
X98960380Y-153049333D01*
X98293714Y-151811238D02*
X98960380Y-151811238D01*
X98293714Y-152239809D02*
X98817523Y-152239809D01*
X98912761Y-152192190D01*
X98960380Y-152096952D01*
X98960380Y-151954095D01*
X98912761Y-151858857D01*
X98865142Y-151811238D01*
X84153809Y-151116380D02*
X84153809Y-150116380D01*
X85201428Y-151021142D02*
X85153809Y-151068761D01*
X85010952Y-151116380D01*
X84915714Y-151116380D01*
X84772857Y-151068761D01*
X84677619Y-150973523D01*
X84630000Y-150878285D01*
X84582380Y-150687809D01*
X84582380Y-150544952D01*
X84630000Y-150354476D01*
X84677619Y-150259238D01*
X84772857Y-150164000D01*
X84915714Y-150116380D01*
X85010952Y-150116380D01*
X85153809Y-150164000D01*
X85201428Y-150211619D01*
X86153809Y-151116380D02*
X85582380Y-151116380D01*
X85868095Y-151116380D02*
X85868095Y-150116380D01*
X85772857Y-150259238D01*
X85677619Y-150354476D01*
X85582380Y-150402095D01*
X85646680Y-158328385D02*
X85646680Y-158804576D01*
X84646680Y-158804576D01*
X85646680Y-157995052D02*
X84646680Y-157995052D01*
X85360966Y-157661719D01*
X84646680Y-157328385D01*
X85646680Y-157328385D01*
X84646680Y-156947433D02*
X84646680Y-156328385D01*
X85027633Y-156661719D01*
X85027633Y-156518861D01*
X85075252Y-156423623D01*
X85122871Y-156376004D01*
X85218109Y-156328385D01*
X85456204Y-156328385D01*
X85551442Y-156376004D01*
X85599061Y-156423623D01*
X85646680Y-156518861D01*
X85646680Y-156804576D01*
X85599061Y-156899814D01*
X85551442Y-156947433D01*
X84741919Y-155947433D02*
X84694300Y-155899814D01*
X84646680Y-155804576D01*
X84646680Y-155566480D01*
X84694300Y-155471242D01*
X84741919Y-155423623D01*
X84837157Y-155376004D01*
X84932395Y-155376004D01*
X85075252Y-155423623D01*
X85646680Y-155995052D01*
X85646680Y-155376004D01*
X84980014Y-154518861D02*
X85646680Y-154518861D01*
X84599061Y-154756957D02*
X85313347Y-154995052D01*
X85313347Y-154376004D01*
X85646680Y-153995052D02*
X84646680Y-153995052D01*
X85646680Y-153423623D01*
X84646680Y-153423623D01*
X63841333Y-69954380D02*
X63508000Y-69478190D01*
X63269904Y-69954380D02*
X63269904Y-68954380D01*
X63650857Y-68954380D01*
X63746095Y-69002000D01*
X63793714Y-69049619D01*
X63841333Y-69144857D01*
X63841333Y-69287714D01*
X63793714Y-69382952D01*
X63746095Y-69430571D01*
X63650857Y-69478190D01*
X63269904Y-69478190D01*
X64793714Y-69954380D02*
X64222285Y-69954380D01*
X64508000Y-69954380D02*
X64508000Y-68954380D01*
X64412761Y-69097238D01*
X64317523Y-69192476D01*
X64222285Y-69240095D01*
X75271333Y-69954380D02*
X74938000Y-69478190D01*
X74699904Y-69954380D02*
X74699904Y-68954380D01*
X75080857Y-68954380D01*
X75176095Y-69002000D01*
X75223714Y-69049619D01*
X75271333Y-69144857D01*
X75271333Y-69287714D01*
X75223714Y-69382952D01*
X75176095Y-69430571D01*
X75080857Y-69478190D01*
X74699904Y-69478190D01*
X75652285Y-69049619D02*
X75699904Y-69002000D01*
X75795142Y-68954380D01*
X76033238Y-68954380D01*
X76128476Y-69002000D01*
X76176095Y-69049619D01*
X76223714Y-69144857D01*
X76223714Y-69240095D01*
X76176095Y-69382952D01*
X75604666Y-69954380D01*
X76223714Y-69954380D01*
X87463333Y-69954380D02*
X87130000Y-69478190D01*
X86891904Y-69954380D02*
X86891904Y-68954380D01*
X87272857Y-68954380D01*
X87368095Y-69002000D01*
X87415714Y-69049619D01*
X87463333Y-69144857D01*
X87463333Y-69287714D01*
X87415714Y-69382952D01*
X87368095Y-69430571D01*
X87272857Y-69478190D01*
X86891904Y-69478190D01*
X87796666Y-68954380D02*
X88415714Y-68954380D01*
X88082380Y-69335333D01*
X88225238Y-69335333D01*
X88320476Y-69382952D01*
X88368095Y-69430571D01*
X88415714Y-69525809D01*
X88415714Y-69763904D01*
X88368095Y-69859142D01*
X88320476Y-69906761D01*
X88225238Y-69954380D01*
X87939523Y-69954380D01*
X87844285Y-69906761D01*
X87796666Y-69859142D01*
X100163333Y-69954380D02*
X99830000Y-69478190D01*
X99591904Y-69954380D02*
X99591904Y-68954380D01*
X99972857Y-68954380D01*
X100068095Y-69002000D01*
X100115714Y-69049619D01*
X100163333Y-69144857D01*
X100163333Y-69287714D01*
X100115714Y-69382952D01*
X100068095Y-69430571D01*
X99972857Y-69478190D01*
X99591904Y-69478190D01*
X101020476Y-69287714D02*
X101020476Y-69954380D01*
X100782380Y-68906761D02*
X100544285Y-69621047D01*
X101163333Y-69621047D01*
X63841333Y-84686380D02*
X63508000Y-84210190D01*
X63269904Y-84686380D02*
X63269904Y-83686380D01*
X63650857Y-83686380D01*
X63746095Y-83734000D01*
X63793714Y-83781619D01*
X63841333Y-83876857D01*
X63841333Y-84019714D01*
X63793714Y-84114952D01*
X63746095Y-84162571D01*
X63650857Y-84210190D01*
X63269904Y-84210190D01*
X64746095Y-83686380D02*
X64269904Y-83686380D01*
X64222285Y-84162571D01*
X64269904Y-84114952D01*
X64365142Y-84067333D01*
X64603238Y-84067333D01*
X64698476Y-84114952D01*
X64746095Y-84162571D01*
X64793714Y-84257809D01*
X64793714Y-84495904D01*
X64746095Y-84591142D01*
X64698476Y-84638761D01*
X64603238Y-84686380D01*
X64365142Y-84686380D01*
X64269904Y-84638761D01*
X64222285Y-84591142D01*
X75271333Y-84686380D02*
X74938000Y-84210190D01*
X74699904Y-84686380D02*
X74699904Y-83686380D01*
X75080857Y-83686380D01*
X75176095Y-83734000D01*
X75223714Y-83781619D01*
X75271333Y-83876857D01*
X75271333Y-84019714D01*
X75223714Y-84114952D01*
X75176095Y-84162571D01*
X75080857Y-84210190D01*
X74699904Y-84210190D01*
X76128476Y-83686380D02*
X75938000Y-83686380D01*
X75842761Y-83734000D01*
X75795142Y-83781619D01*
X75699904Y-83924476D01*
X75652285Y-84114952D01*
X75652285Y-84495904D01*
X75699904Y-84591142D01*
X75747523Y-84638761D01*
X75842761Y-84686380D01*
X76033238Y-84686380D01*
X76128476Y-84638761D01*
X76176095Y-84591142D01*
X76223714Y-84495904D01*
X76223714Y-84257809D01*
X76176095Y-84162571D01*
X76128476Y-84114952D01*
X76033238Y-84067333D01*
X75842761Y-84067333D01*
X75747523Y-84114952D01*
X75699904Y-84162571D01*
X75652285Y-84257809D01*
X87463333Y-84686380D02*
X87130000Y-84210190D01*
X86891904Y-84686380D02*
X86891904Y-83686380D01*
X87272857Y-83686380D01*
X87368095Y-83734000D01*
X87415714Y-83781619D01*
X87463333Y-83876857D01*
X87463333Y-84019714D01*
X87415714Y-84114952D01*
X87368095Y-84162571D01*
X87272857Y-84210190D01*
X86891904Y-84210190D01*
X87796666Y-83686380D02*
X88463333Y-83686380D01*
X88034761Y-84686380D01*
X100163333Y-84686380D02*
X99830000Y-84210190D01*
X99591904Y-84686380D02*
X99591904Y-83686380D01*
X99972857Y-83686380D01*
X100068095Y-83734000D01*
X100115714Y-83781619D01*
X100163333Y-83876857D01*
X100163333Y-84019714D01*
X100115714Y-84114952D01*
X100068095Y-84162571D01*
X99972857Y-84210190D01*
X99591904Y-84210190D01*
X100734761Y-84114952D02*
X100639523Y-84067333D01*
X100591904Y-84019714D01*
X100544285Y-83924476D01*
X100544285Y-83876857D01*
X100591904Y-83781619D01*
X100639523Y-83734000D01*
X100734761Y-83686380D01*
X100925238Y-83686380D01*
X101020476Y-83734000D01*
X101068095Y-83781619D01*
X101115714Y-83876857D01*
X101115714Y-83924476D01*
X101068095Y-84019714D01*
X101020476Y-84067333D01*
X100925238Y-84114952D01*
X100734761Y-84114952D01*
X100639523Y-84162571D01*
X100591904Y-84210190D01*
X100544285Y-84305428D01*
X100544285Y-84495904D01*
X100591904Y-84591142D01*
X100639523Y-84638761D01*
X100734761Y-84686380D01*
X100925238Y-84686380D01*
X101020476Y-84638761D01*
X101068095Y-84591142D01*
X101115714Y-84495904D01*
X101115714Y-84305428D01*
X101068095Y-84210190D01*
X101020476Y-84162571D01*
X100925238Y-84114952D01*
X63841333Y-99164380D02*
X63508000Y-98688190D01*
X63269904Y-99164380D02*
X63269904Y-98164380D01*
X63650857Y-98164380D01*
X63746095Y-98212000D01*
X63793714Y-98259619D01*
X63841333Y-98354857D01*
X63841333Y-98497714D01*
X63793714Y-98592952D01*
X63746095Y-98640571D01*
X63650857Y-98688190D01*
X63269904Y-98688190D01*
X64317523Y-99164380D02*
X64508000Y-99164380D01*
X64603238Y-99116761D01*
X64650857Y-99069142D01*
X64746095Y-98926285D01*
X64793714Y-98735809D01*
X64793714Y-98354857D01*
X64746095Y-98259619D01*
X64698476Y-98212000D01*
X64603238Y-98164380D01*
X64412761Y-98164380D01*
X64317523Y-98212000D01*
X64269904Y-98259619D01*
X64222285Y-98354857D01*
X64222285Y-98592952D01*
X64269904Y-98688190D01*
X64317523Y-98735809D01*
X64412761Y-98783428D01*
X64603238Y-98783428D01*
X64698476Y-98735809D01*
X64746095Y-98688190D01*
X64793714Y-98592952D01*
X75049142Y-99164380D02*
X74715809Y-98688190D01*
X74477714Y-99164380D02*
X74477714Y-98164380D01*
X74858666Y-98164380D01*
X74953904Y-98212000D01*
X75001523Y-98259619D01*
X75049142Y-98354857D01*
X75049142Y-98497714D01*
X75001523Y-98592952D01*
X74953904Y-98640571D01*
X74858666Y-98688190D01*
X74477714Y-98688190D01*
X76001523Y-99164380D02*
X75430095Y-99164380D01*
X75715809Y-99164380D02*
X75715809Y-98164380D01*
X75620571Y-98307238D01*
X75525333Y-98402476D01*
X75430095Y-98450095D01*
X76620571Y-98164380D02*
X76715809Y-98164380D01*
X76811047Y-98212000D01*
X76858666Y-98259619D01*
X76906285Y-98354857D01*
X76953904Y-98545333D01*
X76953904Y-98783428D01*
X76906285Y-98973904D01*
X76858666Y-99069142D01*
X76811047Y-99116761D01*
X76715809Y-99164380D01*
X76620571Y-99164380D01*
X76525333Y-99116761D01*
X76477714Y-99069142D01*
X76430095Y-98973904D01*
X76382476Y-98783428D01*
X76382476Y-98545333D01*
X76430095Y-98354857D01*
X76477714Y-98259619D01*
X76525333Y-98212000D01*
X76620571Y-98164380D01*
X86987142Y-98910380D02*
X86653809Y-98434190D01*
X86415714Y-98910380D02*
X86415714Y-97910380D01*
X86796666Y-97910380D01*
X86891904Y-97958000D01*
X86939523Y-98005619D01*
X86987142Y-98100857D01*
X86987142Y-98243714D01*
X86939523Y-98338952D01*
X86891904Y-98386571D01*
X86796666Y-98434190D01*
X86415714Y-98434190D01*
X87939523Y-98910380D02*
X87368095Y-98910380D01*
X87653809Y-98910380D02*
X87653809Y-97910380D01*
X87558571Y-98053238D01*
X87463333Y-98148476D01*
X87368095Y-98196095D01*
X88891904Y-98910380D02*
X88320476Y-98910380D01*
X88606190Y-98910380D02*
X88606190Y-97910380D01*
X88510952Y-98053238D01*
X88415714Y-98148476D01*
X88320476Y-98196095D01*
X99687142Y-99164380D02*
X99353809Y-98688190D01*
X99115714Y-99164380D02*
X99115714Y-98164380D01*
X99496666Y-98164380D01*
X99591904Y-98212000D01*
X99639523Y-98259619D01*
X99687142Y-98354857D01*
X99687142Y-98497714D01*
X99639523Y-98592952D01*
X99591904Y-98640571D01*
X99496666Y-98688190D01*
X99115714Y-98688190D01*
X100639523Y-99164380D02*
X100068095Y-99164380D01*
X100353809Y-99164380D02*
X100353809Y-98164380D01*
X100258571Y-98307238D01*
X100163333Y-98402476D01*
X100068095Y-98450095D01*
X101020476Y-98259619D02*
X101068095Y-98212000D01*
X101163333Y-98164380D01*
X101401428Y-98164380D01*
X101496666Y-98212000D01*
X101544285Y-98259619D01*
X101591904Y-98354857D01*
X101591904Y-98450095D01*
X101544285Y-98592952D01*
X100972857Y-99164380D01*
X101591904Y-99164380D01*
X63619142Y-113642380D02*
X63285809Y-113166190D01*
X63047714Y-113642380D02*
X63047714Y-112642380D01*
X63428666Y-112642380D01*
X63523904Y-112690000D01*
X63571523Y-112737619D01*
X63619142Y-112832857D01*
X63619142Y-112975714D01*
X63571523Y-113070952D01*
X63523904Y-113118571D01*
X63428666Y-113166190D01*
X63047714Y-113166190D01*
X64571523Y-113642380D02*
X64000095Y-113642380D01*
X64285809Y-113642380D02*
X64285809Y-112642380D01*
X64190571Y-112785238D01*
X64095333Y-112880476D01*
X64000095Y-112928095D01*
X64904857Y-112642380D02*
X65523904Y-112642380D01*
X65190571Y-113023333D01*
X65333428Y-113023333D01*
X65428666Y-113070952D01*
X65476285Y-113118571D01*
X65523904Y-113213809D01*
X65523904Y-113451904D01*
X65476285Y-113547142D01*
X65428666Y-113594761D01*
X65333428Y-113642380D01*
X65047714Y-113642380D01*
X64952476Y-113594761D01*
X64904857Y-113547142D01*
X75049142Y-113642380D02*
X74715809Y-113166190D01*
X74477714Y-113642380D02*
X74477714Y-112642380D01*
X74858666Y-112642380D01*
X74953904Y-112690000D01*
X75001523Y-112737619D01*
X75049142Y-112832857D01*
X75049142Y-112975714D01*
X75001523Y-113070952D01*
X74953904Y-113118571D01*
X74858666Y-113166190D01*
X74477714Y-113166190D01*
X76001523Y-113642380D02*
X75430095Y-113642380D01*
X75715809Y-113642380D02*
X75715809Y-112642380D01*
X75620571Y-112785238D01*
X75525333Y-112880476D01*
X75430095Y-112928095D01*
X76858666Y-112975714D02*
X76858666Y-113642380D01*
X76620571Y-112594761D02*
X76382476Y-113309047D01*
X77001523Y-113309047D01*
X87241142Y-113642380D02*
X86907809Y-113166190D01*
X86669714Y-113642380D02*
X86669714Y-112642380D01*
X87050666Y-112642380D01*
X87145904Y-112690000D01*
X87193523Y-112737619D01*
X87241142Y-112832857D01*
X87241142Y-112975714D01*
X87193523Y-113070952D01*
X87145904Y-113118571D01*
X87050666Y-113166190D01*
X86669714Y-113166190D01*
X88193523Y-113642380D02*
X87622095Y-113642380D01*
X87907809Y-113642380D02*
X87907809Y-112642380D01*
X87812571Y-112785238D01*
X87717333Y-112880476D01*
X87622095Y-112928095D01*
X89098285Y-112642380D02*
X88622095Y-112642380D01*
X88574476Y-113118571D01*
X88622095Y-113070952D01*
X88717333Y-113023333D01*
X88955428Y-113023333D01*
X89050666Y-113070952D01*
X89098285Y-113118571D01*
X89145904Y-113213809D01*
X89145904Y-113451904D01*
X89098285Y-113547142D01*
X89050666Y-113594761D01*
X88955428Y-113642380D01*
X88717333Y-113642380D01*
X88622095Y-113594761D01*
X88574476Y-113547142D01*
X99941142Y-113642380D02*
X99607809Y-113166190D01*
X99369714Y-113642380D02*
X99369714Y-112642380D01*
X99750666Y-112642380D01*
X99845904Y-112690000D01*
X99893523Y-112737619D01*
X99941142Y-112832857D01*
X99941142Y-112975714D01*
X99893523Y-113070952D01*
X99845904Y-113118571D01*
X99750666Y-113166190D01*
X99369714Y-113166190D01*
X100893523Y-113642380D02*
X100322095Y-113642380D01*
X100607809Y-113642380D02*
X100607809Y-112642380D01*
X100512571Y-112785238D01*
X100417333Y-112880476D01*
X100322095Y-112928095D01*
X101750666Y-112642380D02*
X101560190Y-112642380D01*
X101464952Y-112690000D01*
X101417333Y-112737619D01*
X101322095Y-112880476D01*
X101274476Y-113070952D01*
X101274476Y-113451904D01*
X101322095Y-113547142D01*
X101369714Y-113594761D01*
X101464952Y-113642380D01*
X101655428Y-113642380D01*
X101750666Y-113594761D01*
X101798285Y-113547142D01*
X101845904Y-113451904D01*
X101845904Y-113213809D01*
X101798285Y-113118571D01*
X101750666Y-113070952D01*
X101655428Y-113023333D01*
X101464952Y-113023333D01*
X101369714Y-113070952D01*
X101322095Y-113118571D01*
X101274476Y-113213809D01*
D15*
X71604857Y-139615333D02*
X71653238Y-139663714D01*
X71701619Y-139808857D01*
X71701619Y-139905619D01*
X71653238Y-140050761D01*
X71556476Y-140147523D01*
X71459714Y-140195904D01*
X71266190Y-140244285D01*
X71121047Y-140244285D01*
X70927523Y-140195904D01*
X70830761Y-140147523D01*
X70734000Y-140050761D01*
X70685619Y-139905619D01*
X70685619Y-139808857D01*
X70734000Y-139663714D01*
X70782380Y-139615333D01*
X70685619Y-139276666D02*
X70685619Y-138647714D01*
X71072666Y-138986380D01*
X71072666Y-138841238D01*
X71121047Y-138744476D01*
X71169428Y-138696095D01*
X71266190Y-138647714D01*
X71508095Y-138647714D01*
X71604857Y-138696095D01*
X71653238Y-138744476D01*
X71701619Y-138841238D01*
X71701619Y-139131523D01*
X71653238Y-139228285D01*
X71604857Y-139276666D01*
X67804857Y-139131523D02*
X67853238Y-139179904D01*
X67901619Y-139325047D01*
X67901619Y-139421809D01*
X67853238Y-139566952D01*
X67756476Y-139663714D01*
X67659714Y-139712095D01*
X67466190Y-139760476D01*
X67321047Y-139760476D01*
X67127523Y-139712095D01*
X67030761Y-139663714D01*
X66934000Y-139566952D01*
X66885619Y-139421809D01*
X66885619Y-139325047D01*
X66934000Y-139179904D01*
X66982380Y-139131523D01*
X83542857Y-138853333D02*
X83591238Y-138901714D01*
X83639619Y-139046857D01*
X83639619Y-139143619D01*
X83591238Y-139288761D01*
X83494476Y-139385523D01*
X83397714Y-139433904D01*
X83204190Y-139482285D01*
X83059047Y-139482285D01*
X82865523Y-139433904D01*
X82768761Y-139385523D01*
X82672000Y-139288761D01*
X82623619Y-139143619D01*
X82623619Y-139046857D01*
X82672000Y-138901714D01*
X82720380Y-138853333D01*
X82962285Y-137982476D02*
X83639619Y-137982476D01*
X82575238Y-138224380D02*
X83300952Y-138466285D01*
X83300952Y-137837333D01*
X79742857Y-138369523D02*
X79791238Y-138417904D01*
X79839619Y-138563047D01*
X79839619Y-138659809D01*
X79791238Y-138804952D01*
X79694476Y-138901714D01*
X79597714Y-138950095D01*
X79404190Y-138998476D01*
X79259047Y-138998476D01*
X79065523Y-138950095D01*
X78968761Y-138901714D01*
X78872000Y-138804952D01*
X78823619Y-138659809D01*
X78823619Y-138563047D01*
X78872000Y-138417904D01*
X78920380Y-138369523D01*
X95734857Y-138853333D02*
X95783238Y-138901714D01*
X95831619Y-139046857D01*
X95831619Y-139143619D01*
X95783238Y-139288761D01*
X95686476Y-139385523D01*
X95589714Y-139433904D01*
X95396190Y-139482285D01*
X95251047Y-139482285D01*
X95057523Y-139433904D01*
X94960761Y-139385523D01*
X94864000Y-139288761D01*
X94815619Y-139143619D01*
X94815619Y-139046857D01*
X94864000Y-138901714D01*
X94912380Y-138853333D01*
X94815619Y-137934095D02*
X94815619Y-138417904D01*
X95299428Y-138466285D01*
X95251047Y-138417904D01*
X95202666Y-138321142D01*
X95202666Y-138079238D01*
X95251047Y-137982476D01*
X95299428Y-137934095D01*
X95396190Y-137885714D01*
X95638095Y-137885714D01*
X95734857Y-137934095D01*
X95783238Y-137982476D01*
X95831619Y-138079238D01*
X95831619Y-138321142D01*
X95783238Y-138417904D01*
X95734857Y-138466285D01*
X91934857Y-138369523D02*
X91983238Y-138417904D01*
X92031619Y-138563047D01*
X92031619Y-138659809D01*
X91983238Y-138804952D01*
X91886476Y-138901714D01*
X91789714Y-138950095D01*
X91596190Y-138998476D01*
X91451047Y-138998476D01*
X91257523Y-138950095D01*
X91160761Y-138901714D01*
X91064000Y-138804952D01*
X91015619Y-138659809D01*
X91015619Y-138563047D01*
X91064000Y-138417904D01*
X91112380Y-138369523D01*
X105386857Y-138853333D02*
X105435238Y-138901714D01*
X105483619Y-139046857D01*
X105483619Y-139143619D01*
X105435238Y-139288761D01*
X105338476Y-139385523D01*
X105241714Y-139433904D01*
X105048190Y-139482285D01*
X104903047Y-139482285D01*
X104709523Y-139433904D01*
X104612761Y-139385523D01*
X104516000Y-139288761D01*
X104467619Y-139143619D01*
X104467619Y-139046857D01*
X104516000Y-138901714D01*
X104564380Y-138853333D01*
X104467619Y-137982476D02*
X104467619Y-138176000D01*
X104516000Y-138272761D01*
X104564380Y-138321142D01*
X104709523Y-138417904D01*
X104903047Y-138466285D01*
X105290095Y-138466285D01*
X105386857Y-138417904D01*
X105435238Y-138369523D01*
X105483619Y-138272761D01*
X105483619Y-138079238D01*
X105435238Y-137982476D01*
X105386857Y-137934095D01*
X105290095Y-137885714D01*
X105048190Y-137885714D01*
X104951428Y-137934095D01*
X104903047Y-137982476D01*
X104854666Y-138079238D01*
X104854666Y-138272761D01*
X104903047Y-138369523D01*
X104951428Y-138417904D01*
X105048190Y-138466285D01*
X101586857Y-138369523D02*
X101635238Y-138417904D01*
X101683619Y-138563047D01*
X101683619Y-138659809D01*
X101635238Y-138804952D01*
X101538476Y-138901714D01*
X101441714Y-138950095D01*
X101248190Y-138998476D01*
X101103047Y-138998476D01*
X100909523Y-138950095D01*
X100812761Y-138901714D01*
X100716000Y-138804952D01*
X100667619Y-138659809D01*
X100667619Y-138563047D01*
X100716000Y-138417904D01*
X100764380Y-138369523D01*
X71604857Y-143425333D02*
X71653238Y-143473714D01*
X71701619Y-143618857D01*
X71701619Y-143715619D01*
X71653238Y-143860761D01*
X71556476Y-143957523D01*
X71459714Y-144005904D01*
X71266190Y-144054285D01*
X71121047Y-144054285D01*
X70927523Y-144005904D01*
X70830761Y-143957523D01*
X70734000Y-143860761D01*
X70685619Y-143715619D01*
X70685619Y-143618857D01*
X70734000Y-143473714D01*
X70782380Y-143425333D01*
X70685619Y-143086666D02*
X70685619Y-142409333D01*
X71701619Y-142844761D01*
X67804857Y-142941523D02*
X67853238Y-142989904D01*
X67901619Y-143135047D01*
X67901619Y-143231809D01*
X67853238Y-143376952D01*
X67756476Y-143473714D01*
X67659714Y-143522095D01*
X67466190Y-143570476D01*
X67321047Y-143570476D01*
X67127523Y-143522095D01*
X67030761Y-143473714D01*
X66934000Y-143376952D01*
X66885619Y-143231809D01*
X66885619Y-143135047D01*
X66934000Y-142989904D01*
X66982380Y-142941523D01*
X83542857Y-142663333D02*
X83591238Y-142711714D01*
X83639619Y-142856857D01*
X83639619Y-142953619D01*
X83591238Y-143098761D01*
X83494476Y-143195523D01*
X83397714Y-143243904D01*
X83204190Y-143292285D01*
X83059047Y-143292285D01*
X82865523Y-143243904D01*
X82768761Y-143195523D01*
X82672000Y-143098761D01*
X82623619Y-142953619D01*
X82623619Y-142856857D01*
X82672000Y-142711714D01*
X82720380Y-142663333D01*
X83059047Y-142082761D02*
X83010666Y-142179523D01*
X82962285Y-142227904D01*
X82865523Y-142276285D01*
X82817142Y-142276285D01*
X82720380Y-142227904D01*
X82672000Y-142179523D01*
X82623619Y-142082761D01*
X82623619Y-141889238D01*
X82672000Y-141792476D01*
X82720380Y-141744095D01*
X82817142Y-141695714D01*
X82865523Y-141695714D01*
X82962285Y-141744095D01*
X83010666Y-141792476D01*
X83059047Y-141889238D01*
X83059047Y-142082761D01*
X83107428Y-142179523D01*
X83155809Y-142227904D01*
X83252571Y-142276285D01*
X83446095Y-142276285D01*
X83542857Y-142227904D01*
X83591238Y-142179523D01*
X83639619Y-142082761D01*
X83639619Y-141889238D01*
X83591238Y-141792476D01*
X83542857Y-141744095D01*
X83446095Y-141695714D01*
X83252571Y-141695714D01*
X83155809Y-141744095D01*
X83107428Y-141792476D01*
X83059047Y-141889238D01*
X79742857Y-142179523D02*
X79791238Y-142227904D01*
X79839619Y-142373047D01*
X79839619Y-142469809D01*
X79791238Y-142614952D01*
X79694476Y-142711714D01*
X79597714Y-142760095D01*
X79404190Y-142808476D01*
X79259047Y-142808476D01*
X79065523Y-142760095D01*
X78968761Y-142711714D01*
X78872000Y-142614952D01*
X78823619Y-142469809D01*
X78823619Y-142373047D01*
X78872000Y-142227904D01*
X78920380Y-142179523D01*
X95734857Y-143171333D02*
X95783238Y-143219714D01*
X95831619Y-143364857D01*
X95831619Y-143461619D01*
X95783238Y-143606761D01*
X95686476Y-143703523D01*
X95589714Y-143751904D01*
X95396190Y-143800285D01*
X95251047Y-143800285D01*
X95057523Y-143751904D01*
X94960761Y-143703523D01*
X94864000Y-143606761D01*
X94815619Y-143461619D01*
X94815619Y-143364857D01*
X94864000Y-143219714D01*
X94912380Y-143171333D01*
X95831619Y-142687523D02*
X95831619Y-142494000D01*
X95783238Y-142397238D01*
X95734857Y-142348857D01*
X95589714Y-142252095D01*
X95396190Y-142203714D01*
X95009142Y-142203714D01*
X94912380Y-142252095D01*
X94864000Y-142300476D01*
X94815619Y-142397238D01*
X94815619Y-142590761D01*
X94864000Y-142687523D01*
X94912380Y-142735904D01*
X95009142Y-142784285D01*
X95251047Y-142784285D01*
X95347809Y-142735904D01*
X95396190Y-142687523D01*
X95444571Y-142590761D01*
X95444571Y-142397238D01*
X95396190Y-142300476D01*
X95347809Y-142252095D01*
X95251047Y-142203714D01*
X91934857Y-142687523D02*
X91983238Y-142735904D01*
X92031619Y-142881047D01*
X92031619Y-142977809D01*
X91983238Y-143122952D01*
X91886476Y-143219714D01*
X91789714Y-143268095D01*
X91596190Y-143316476D01*
X91451047Y-143316476D01*
X91257523Y-143268095D01*
X91160761Y-143219714D01*
X91064000Y-143122952D01*
X91015619Y-142977809D01*
X91015619Y-142881047D01*
X91064000Y-142735904D01*
X91112380Y-142687523D01*
X105386857Y-143655142D02*
X105435238Y-143703523D01*
X105483619Y-143848666D01*
X105483619Y-143945428D01*
X105435238Y-144090571D01*
X105338476Y-144187333D01*
X105241714Y-144235714D01*
X105048190Y-144284095D01*
X104903047Y-144284095D01*
X104709523Y-144235714D01*
X104612761Y-144187333D01*
X104516000Y-144090571D01*
X104467619Y-143945428D01*
X104467619Y-143848666D01*
X104516000Y-143703523D01*
X104564380Y-143655142D01*
X105483619Y-142687523D02*
X105483619Y-143268095D01*
X105483619Y-142977809D02*
X104467619Y-142977809D01*
X104612761Y-143074571D01*
X104709523Y-143171333D01*
X104757904Y-143268095D01*
X104467619Y-142058571D02*
X104467619Y-141961809D01*
X104516000Y-141865047D01*
X104564380Y-141816666D01*
X104661142Y-141768285D01*
X104854666Y-141719904D01*
X105096571Y-141719904D01*
X105290095Y-141768285D01*
X105386857Y-141816666D01*
X105435238Y-141865047D01*
X105483619Y-141961809D01*
X105483619Y-142058571D01*
X105435238Y-142155333D01*
X105386857Y-142203714D01*
X105290095Y-142252095D01*
X105096571Y-142300476D01*
X104854666Y-142300476D01*
X104661142Y-142252095D01*
X104564380Y-142203714D01*
X104516000Y-142155333D01*
X104467619Y-142058571D01*
X101586857Y-142687523D02*
X101635238Y-142735904D01*
X101683619Y-142881047D01*
X101683619Y-142977809D01*
X101635238Y-143122952D01*
X101538476Y-143219714D01*
X101441714Y-143268095D01*
X101248190Y-143316476D01*
X101103047Y-143316476D01*
X100909523Y-143268095D01*
X100812761Y-143219714D01*
X100716000Y-143122952D01*
X100667619Y-142977809D01*
X100667619Y-142881047D01*
X100716000Y-142735904D01*
X100764380Y-142687523D01*
D10*
X66825904Y-151908380D02*
X66825904Y-150908380D01*
X67064000Y-150908380D01*
X67206857Y-150956000D01*
X67302095Y-151051238D01*
X67349714Y-151146476D01*
X67397333Y-151336952D01*
X67397333Y-151479809D01*
X67349714Y-151670285D01*
X67302095Y-151765523D01*
X67206857Y-151860761D01*
X67064000Y-151908380D01*
X66825904Y-151908380D01*
X68349714Y-151908380D02*
X67778285Y-151908380D01*
X68064000Y-151908380D02*
X68064000Y-150908380D01*
X67968761Y-151051238D01*
X67873523Y-151146476D01*
X67778285Y-151194095D01*
X66825904Y-158368380D02*
X66825904Y-157368380D01*
X67064000Y-157368380D01*
X67206857Y-157416000D01*
X67302095Y-157511238D01*
X67349714Y-157606476D01*
X67397333Y-157796952D01*
X67397333Y-157939809D01*
X67349714Y-158130285D01*
X67302095Y-158225523D01*
X67206857Y-158320761D01*
X67064000Y-158368380D01*
X66825904Y-158368380D01*
X67778285Y-157463619D02*
X67825904Y-157416000D01*
X67921142Y-157368380D01*
X68159238Y-157368380D01*
X68254476Y-157416000D01*
X68302095Y-157463619D01*
X68349714Y-157558857D01*
X68349714Y-157654095D01*
X68302095Y-157796952D01*
X67730666Y-158368380D01*
X68349714Y-158368380D01*
X65408142Y-138762047D02*
X65191476Y-138452523D01*
X65036714Y-138762047D02*
X65036714Y-138112047D01*
X65284333Y-138112047D01*
X65346238Y-138143000D01*
X65377190Y-138173952D01*
X65408142Y-138235857D01*
X65408142Y-138328714D01*
X65377190Y-138390619D01*
X65346238Y-138421571D01*
X65284333Y-138452523D01*
X65036714Y-138452523D01*
X66027190Y-138762047D02*
X65655761Y-138762047D01*
X65841476Y-138762047D02*
X65841476Y-138112047D01*
X65779571Y-138204904D01*
X65717666Y-138266809D01*
X65655761Y-138297761D01*
X66243857Y-138112047D02*
X66677190Y-138112047D01*
X66398619Y-138762047D01*
X65881714Y-142089428D02*
X65681714Y-141803714D01*
X65538857Y-142089428D02*
X65538857Y-141489428D01*
X65767428Y-141489428D01*
X65824571Y-141518000D01*
X65853142Y-141546571D01*
X65881714Y-141603714D01*
X65881714Y-141689428D01*
X65853142Y-141746571D01*
X65824571Y-141775142D01*
X65767428Y-141803714D01*
X65538857Y-141803714D01*
X77258142Y-138000047D02*
X77041476Y-137690523D01*
X76886714Y-138000047D02*
X76886714Y-137350047D01*
X77134333Y-137350047D01*
X77196238Y-137381000D01*
X77227190Y-137411952D01*
X77258142Y-137473857D01*
X77258142Y-137566714D01*
X77227190Y-137628619D01*
X77196238Y-137659571D01*
X77134333Y-137690523D01*
X76886714Y-137690523D01*
X77877190Y-138000047D02*
X77505761Y-138000047D01*
X77691476Y-138000047D02*
X77691476Y-137350047D01*
X77629571Y-137442904D01*
X77567666Y-137504809D01*
X77505761Y-137535761D01*
X78248619Y-137628619D02*
X78186714Y-137597666D01*
X78155761Y-137566714D01*
X78124809Y-137504809D01*
X78124809Y-137473857D01*
X78155761Y-137411952D01*
X78186714Y-137381000D01*
X78248619Y-137350047D01*
X78372428Y-137350047D01*
X78434333Y-137381000D01*
X78465285Y-137411952D01*
X78496238Y-137473857D01*
X78496238Y-137504809D01*
X78465285Y-137566714D01*
X78434333Y-137597666D01*
X78372428Y-137628619D01*
X78248619Y-137628619D01*
X78186714Y-137659571D01*
X78155761Y-137690523D01*
X78124809Y-137752428D01*
X78124809Y-137876238D01*
X78155761Y-137938142D01*
X78186714Y-137969095D01*
X78248619Y-138000047D01*
X78372428Y-138000047D01*
X78434333Y-137969095D01*
X78465285Y-137938142D01*
X78496238Y-137876238D01*
X78496238Y-137752428D01*
X78465285Y-137690523D01*
X78434333Y-137659571D01*
X78372428Y-137628619D01*
X77731714Y-141327428D02*
X77531714Y-141041714D01*
X77388857Y-141327428D02*
X77388857Y-140727428D01*
X77617428Y-140727428D01*
X77674571Y-140756000D01*
X77703142Y-140784571D01*
X77731714Y-140841714D01*
X77731714Y-140927428D01*
X77703142Y-140984571D01*
X77674571Y-141013142D01*
X77617428Y-141041714D01*
X77388857Y-141041714D01*
X89538142Y-138000047D02*
X89321476Y-137690523D01*
X89166714Y-138000047D02*
X89166714Y-137350047D01*
X89414333Y-137350047D01*
X89476238Y-137381000D01*
X89507190Y-137411952D01*
X89538142Y-137473857D01*
X89538142Y-137566714D01*
X89507190Y-137628619D01*
X89476238Y-137659571D01*
X89414333Y-137690523D01*
X89166714Y-137690523D01*
X90157190Y-138000047D02*
X89785761Y-138000047D01*
X89971476Y-138000047D02*
X89971476Y-137350047D01*
X89909571Y-137442904D01*
X89847666Y-137504809D01*
X89785761Y-137535761D01*
X90466714Y-138000047D02*
X90590523Y-138000047D01*
X90652428Y-137969095D01*
X90683380Y-137938142D01*
X90745285Y-137845285D01*
X90776238Y-137721476D01*
X90776238Y-137473857D01*
X90745285Y-137411952D01*
X90714333Y-137381000D01*
X90652428Y-137350047D01*
X90528619Y-137350047D01*
X90466714Y-137381000D01*
X90435761Y-137411952D01*
X90404809Y-137473857D01*
X90404809Y-137628619D01*
X90435761Y-137690523D01*
X90466714Y-137721476D01*
X90528619Y-137752428D01*
X90652428Y-137752428D01*
X90714333Y-137721476D01*
X90745285Y-137690523D01*
X90776238Y-137628619D01*
X90011714Y-141327428D02*
X89811714Y-141041714D01*
X89668857Y-141327428D02*
X89668857Y-140727428D01*
X89897428Y-140727428D01*
X89954571Y-140756000D01*
X89983142Y-140784571D01*
X90011714Y-140841714D01*
X90011714Y-140927428D01*
X89983142Y-140984571D01*
X89954571Y-141013142D01*
X89897428Y-141041714D01*
X89668857Y-141041714D01*
X106984142Y-141480047D02*
X106767476Y-141170523D01*
X106612714Y-141480047D02*
X106612714Y-140830047D01*
X106860333Y-140830047D01*
X106922238Y-140861000D01*
X106953190Y-140891952D01*
X106984142Y-140953857D01*
X106984142Y-141046714D01*
X106953190Y-141108619D01*
X106922238Y-141139571D01*
X106860333Y-141170523D01*
X106612714Y-141170523D01*
X107231761Y-140891952D02*
X107262714Y-140861000D01*
X107324619Y-140830047D01*
X107479380Y-140830047D01*
X107541285Y-140861000D01*
X107572238Y-140891952D01*
X107603190Y-140953857D01*
X107603190Y-141015761D01*
X107572238Y-141108619D01*
X107200809Y-141480047D01*
X107603190Y-141480047D01*
X108005571Y-140830047D02*
X108067476Y-140830047D01*
X108129380Y-140861000D01*
X108160333Y-140891952D01*
X108191285Y-140953857D01*
X108222238Y-141077666D01*
X108222238Y-141232428D01*
X108191285Y-141356238D01*
X108160333Y-141418142D01*
X108129380Y-141449095D01*
X108067476Y-141480047D01*
X108005571Y-141480047D01*
X107943666Y-141449095D01*
X107912714Y-141418142D01*
X107881761Y-141356238D01*
X107850809Y-141232428D01*
X107850809Y-141077666D01*
X107881761Y-140953857D01*
X107912714Y-140891952D01*
X107943666Y-140861000D01*
X108005571Y-140830047D01*
X107717714Y-138107428D02*
X107517714Y-137821714D01*
X107374857Y-138107428D02*
X107374857Y-137507428D01*
X107603428Y-137507428D01*
X107660571Y-137536000D01*
X107689142Y-137564571D01*
X107717714Y-137621714D01*
X107717714Y-137707428D01*
X107689142Y-137764571D01*
X107660571Y-137793142D01*
X107603428Y-137821714D01*
X107374857Y-137821714D01*
X65408142Y-142572047D02*
X65191476Y-142262523D01*
X65036714Y-142572047D02*
X65036714Y-141922047D01*
X65284333Y-141922047D01*
X65346238Y-141953000D01*
X65377190Y-141983952D01*
X65408142Y-142045857D01*
X65408142Y-142138714D01*
X65377190Y-142200619D01*
X65346238Y-142231571D01*
X65284333Y-142262523D01*
X65036714Y-142262523D01*
X65655761Y-141983952D02*
X65686714Y-141953000D01*
X65748619Y-141922047D01*
X65903380Y-141922047D01*
X65965285Y-141953000D01*
X65996238Y-141983952D01*
X66027190Y-142045857D01*
X66027190Y-142107761D01*
X65996238Y-142200619D01*
X65624809Y-142572047D01*
X66027190Y-142572047D01*
X66646238Y-142572047D02*
X66274809Y-142572047D01*
X66460523Y-142572047D02*
X66460523Y-141922047D01*
X66398619Y-142014904D01*
X66336714Y-142076809D01*
X66274809Y-142107761D01*
X65881714Y-145899428D02*
X65681714Y-145613714D01*
X65538857Y-145899428D02*
X65538857Y-145299428D01*
X65767428Y-145299428D01*
X65824571Y-145328000D01*
X65853142Y-145356571D01*
X65881714Y-145413714D01*
X65881714Y-145499428D01*
X65853142Y-145556571D01*
X65824571Y-145585142D01*
X65767428Y-145613714D01*
X65538857Y-145613714D01*
X77346142Y-141810047D02*
X77129476Y-141500523D01*
X76974714Y-141810047D02*
X76974714Y-141160047D01*
X77222333Y-141160047D01*
X77284238Y-141191000D01*
X77315190Y-141221952D01*
X77346142Y-141283857D01*
X77346142Y-141376714D01*
X77315190Y-141438619D01*
X77284238Y-141469571D01*
X77222333Y-141500523D01*
X76974714Y-141500523D01*
X77593761Y-141221952D02*
X77624714Y-141191000D01*
X77686619Y-141160047D01*
X77841380Y-141160047D01*
X77903285Y-141191000D01*
X77934238Y-141221952D01*
X77965190Y-141283857D01*
X77965190Y-141345761D01*
X77934238Y-141438619D01*
X77562809Y-141810047D01*
X77965190Y-141810047D01*
X78212809Y-141221952D02*
X78243761Y-141191000D01*
X78305666Y-141160047D01*
X78460428Y-141160047D01*
X78522333Y-141191000D01*
X78553285Y-141221952D01*
X78584238Y-141283857D01*
X78584238Y-141345761D01*
X78553285Y-141438619D01*
X78181857Y-141810047D01*
X78584238Y-141810047D01*
X77819714Y-145137428D02*
X77619714Y-144851714D01*
X77476857Y-145137428D02*
X77476857Y-144537428D01*
X77705428Y-144537428D01*
X77762571Y-144566000D01*
X77791142Y-144594571D01*
X77819714Y-144651714D01*
X77819714Y-144737428D01*
X77791142Y-144794571D01*
X77762571Y-144823142D01*
X77705428Y-144851714D01*
X77476857Y-144851714D01*
X89538142Y-142318047D02*
X89321476Y-142008523D01*
X89166714Y-142318047D02*
X89166714Y-141668047D01*
X89414333Y-141668047D01*
X89476238Y-141699000D01*
X89507190Y-141729952D01*
X89538142Y-141791857D01*
X89538142Y-141884714D01*
X89507190Y-141946619D01*
X89476238Y-141977571D01*
X89414333Y-142008523D01*
X89166714Y-142008523D01*
X89785761Y-141729952D02*
X89816714Y-141699000D01*
X89878619Y-141668047D01*
X90033380Y-141668047D01*
X90095285Y-141699000D01*
X90126238Y-141729952D01*
X90157190Y-141791857D01*
X90157190Y-141853761D01*
X90126238Y-141946619D01*
X89754809Y-142318047D01*
X90157190Y-142318047D01*
X90373857Y-141668047D02*
X90776238Y-141668047D01*
X90559571Y-141915666D01*
X90652428Y-141915666D01*
X90714333Y-141946619D01*
X90745285Y-141977571D01*
X90776238Y-142039476D01*
X90776238Y-142194238D01*
X90745285Y-142256142D01*
X90714333Y-142287095D01*
X90652428Y-142318047D01*
X90466714Y-142318047D01*
X90404809Y-142287095D01*
X90373857Y-142256142D01*
X90011714Y-145645428D02*
X89811714Y-145359714D01*
X89668857Y-145645428D02*
X89668857Y-145045428D01*
X89897428Y-145045428D01*
X89954571Y-145074000D01*
X89983142Y-145102571D01*
X90011714Y-145159714D01*
X90011714Y-145245428D01*
X89983142Y-145302571D01*
X89954571Y-145331142D01*
X89897428Y-145359714D01*
X89668857Y-145359714D01*
X106984142Y-145798047D02*
X106767476Y-145488523D01*
X106612714Y-145798047D02*
X106612714Y-145148047D01*
X106860333Y-145148047D01*
X106922238Y-145179000D01*
X106953190Y-145209952D01*
X106984142Y-145271857D01*
X106984142Y-145364714D01*
X106953190Y-145426619D01*
X106922238Y-145457571D01*
X106860333Y-145488523D01*
X106612714Y-145488523D01*
X107231761Y-145209952D02*
X107262714Y-145179000D01*
X107324619Y-145148047D01*
X107479380Y-145148047D01*
X107541285Y-145179000D01*
X107572238Y-145209952D01*
X107603190Y-145271857D01*
X107603190Y-145333761D01*
X107572238Y-145426619D01*
X107200809Y-145798047D01*
X107603190Y-145798047D01*
X108160333Y-145364714D02*
X108160333Y-145798047D01*
X108005571Y-145117095D02*
X107850809Y-145581380D01*
X108253190Y-145581380D01*
X107717714Y-142425428D02*
X107517714Y-142139714D01*
X107374857Y-142425428D02*
X107374857Y-141825428D01*
X107603428Y-141825428D01*
X107660571Y-141854000D01*
X107689142Y-141882571D01*
X107717714Y-141939714D01*
X107717714Y-142025428D01*
X107689142Y-142082571D01*
X107660571Y-142111142D01*
X107603428Y-142139714D01*
X107374857Y-142139714D01*
X65148380Y-120416404D02*
X64148380Y-120416404D01*
X64624571Y-120416404D02*
X64624571Y-119844976D01*
X65148380Y-119844976D02*
X64148380Y-119844976D01*
X65148380Y-119368785D02*
X64148380Y-119368785D01*
X64148380Y-118987833D01*
X64196000Y-118892595D01*
X64243619Y-118844976D01*
X64338857Y-118797357D01*
X64481714Y-118797357D01*
X64576952Y-118844976D01*
X64624571Y-118892595D01*
X64672190Y-118987833D01*
X64672190Y-119368785D01*
X64624571Y-118035452D02*
X64624571Y-118368785D01*
X65148380Y-118368785D02*
X64148380Y-118368785D01*
X64148380Y-117892595D01*
X65243619Y-117749738D02*
X65243619Y-116987833D01*
X65148380Y-116225928D02*
X65148380Y-116797357D01*
X65148380Y-116511642D02*
X64148380Y-116511642D01*
X64291238Y-116606880D01*
X64386476Y-116702119D01*
X64434095Y-116797357D01*
X77340380Y-120416404D02*
X76340380Y-120416404D01*
X76816571Y-120416404D02*
X76816571Y-119844976D01*
X77340380Y-119844976D02*
X76340380Y-119844976D01*
X77340380Y-119368785D02*
X76340380Y-119368785D01*
X76340380Y-118987833D01*
X76388000Y-118892595D01*
X76435619Y-118844976D01*
X76530857Y-118797357D01*
X76673714Y-118797357D01*
X76768952Y-118844976D01*
X76816571Y-118892595D01*
X76864190Y-118987833D01*
X76864190Y-119368785D01*
X76816571Y-118035452D02*
X76816571Y-118368785D01*
X77340380Y-118368785D02*
X76340380Y-118368785D01*
X76340380Y-117892595D01*
X77435619Y-117749738D02*
X77435619Y-116987833D01*
X76435619Y-116797357D02*
X76388000Y-116749738D01*
X76340380Y-116654500D01*
X76340380Y-116416404D01*
X76388000Y-116321166D01*
X76435619Y-116273547D01*
X76530857Y-116225928D01*
X76626095Y-116225928D01*
X76768952Y-116273547D01*
X77340380Y-116844976D01*
X77340380Y-116225928D01*
X89532380Y-120416404D02*
X88532380Y-120416404D01*
X89008571Y-120416404D02*
X89008571Y-119844976D01*
X89532380Y-119844976D02*
X88532380Y-119844976D01*
X89532380Y-119368785D02*
X88532380Y-119368785D01*
X88532380Y-118987833D01*
X88580000Y-118892595D01*
X88627619Y-118844976D01*
X88722857Y-118797357D01*
X88865714Y-118797357D01*
X88960952Y-118844976D01*
X89008571Y-118892595D01*
X89056190Y-118987833D01*
X89056190Y-119368785D01*
X89008571Y-118035452D02*
X89008571Y-118368785D01*
X89532380Y-118368785D02*
X88532380Y-118368785D01*
X88532380Y-117892595D01*
X89627619Y-117749738D02*
X89627619Y-116987833D01*
X88532380Y-116844976D02*
X88532380Y-116225928D01*
X88913333Y-116559261D01*
X88913333Y-116416404D01*
X88960952Y-116321166D01*
X89008571Y-116273547D01*
X89103809Y-116225928D01*
X89341904Y-116225928D01*
X89437142Y-116273547D01*
X89484761Y-116321166D01*
X89532380Y-116416404D01*
X89532380Y-116702119D01*
X89484761Y-116797357D01*
X89437142Y-116844976D01*
X101724380Y-120162404D02*
X100724380Y-120162404D01*
X101200571Y-120162404D02*
X101200571Y-119590976D01*
X101724380Y-119590976D02*
X100724380Y-119590976D01*
X101724380Y-119114785D02*
X100724380Y-119114785D01*
X100724380Y-118733833D01*
X100772000Y-118638595D01*
X100819619Y-118590976D01*
X100914857Y-118543357D01*
X101057714Y-118543357D01*
X101152952Y-118590976D01*
X101200571Y-118638595D01*
X101248190Y-118733833D01*
X101248190Y-119114785D01*
X101200571Y-117781452D02*
X101200571Y-118114785D01*
X101724380Y-118114785D02*
X100724380Y-118114785D01*
X100724380Y-117638595D01*
X101819619Y-117495738D02*
X101819619Y-116733833D01*
X101057714Y-116067166D02*
X101724380Y-116067166D01*
X100676761Y-116305261D02*
X101391047Y-116543357D01*
X101391047Y-115924309D01*
M02*
