G04 #@! TF.GenerationSoftware,KiCad,Pcbnew,(5.1.2-1)-1*
G04 #@! TF.CreationDate,2019-11-10T13:08:31+01:00*
G04 #@! TF.ProjectId,matrix-mixer,6d617472-6978-42d6-9d69-7865722e6b69,rev?*
G04 #@! TF.SameCoordinates,Original*
G04 #@! TF.FileFunction,Legend,Top*
G04 #@! TF.FilePolarity,Positive*
%FSLAX46Y46*%
G04 Gerber Fmt 4.6, Leading zero omitted, Abs format (unit mm)*
G04 Created by KiCad (PCBNEW (5.1.2-1)-1) date 2019-11-10 13:08:31*
%MOMM*%
%LPD*%
G04 APERTURE LIST*
%ADD10C,0.150000*%
%ADD11C,0.127000*%
%ADD12C,0.120000*%
%ADD13C,0.500000*%
%ADD14C,0.152400*%
%ADD15C,0.100000*%
%ADD16C,0.125000*%
G04 APERTURE END LIST*
D10*
X23884190Y-100910380D02*
X23884190Y-99910380D01*
X24217523Y-100624666D01*
X24550857Y-99910380D01*
X24550857Y-100910380D01*
X25455619Y-100910380D02*
X25455619Y-100386571D01*
X25408000Y-100291333D01*
X25312761Y-100243714D01*
X25122285Y-100243714D01*
X25027047Y-100291333D01*
X25455619Y-100862761D02*
X25360380Y-100910380D01*
X25122285Y-100910380D01*
X25027047Y-100862761D01*
X24979428Y-100767523D01*
X24979428Y-100672285D01*
X25027047Y-100577047D01*
X25122285Y-100529428D01*
X25360380Y-100529428D01*
X25455619Y-100481809D01*
X25788952Y-100243714D02*
X26169904Y-100243714D01*
X25931809Y-99910380D02*
X25931809Y-100767523D01*
X25979428Y-100862761D01*
X26074666Y-100910380D01*
X26169904Y-100910380D01*
X26503238Y-100910380D02*
X26503238Y-100243714D01*
X26503238Y-100434190D02*
X26550857Y-100338952D01*
X26598476Y-100291333D01*
X26693714Y-100243714D01*
X26788952Y-100243714D01*
X27122285Y-100910380D02*
X27122285Y-100243714D01*
X27122285Y-99910380D02*
X27074666Y-99958000D01*
X27122285Y-100005619D01*
X27169904Y-99958000D01*
X27122285Y-99910380D01*
X27122285Y-100005619D01*
X27503238Y-100910380D02*
X28027047Y-100243714D01*
X27503238Y-100243714D02*
X28027047Y-100910380D01*
X24193714Y-102560380D02*
X24193714Y-101560380D01*
X24527047Y-102274666D01*
X24860380Y-101560380D01*
X24860380Y-102560380D01*
X25336571Y-102560380D02*
X25336571Y-101893714D01*
X25336571Y-101560380D02*
X25288952Y-101608000D01*
X25336571Y-101655619D01*
X25384190Y-101608000D01*
X25336571Y-101560380D01*
X25336571Y-101655619D01*
X25717523Y-102560380D02*
X26241333Y-101893714D01*
X25717523Y-101893714D02*
X26241333Y-102560380D01*
X27003238Y-102512761D02*
X26908000Y-102560380D01*
X26717523Y-102560380D01*
X26622285Y-102512761D01*
X26574666Y-102417523D01*
X26574666Y-102036571D01*
X26622285Y-101941333D01*
X26717523Y-101893714D01*
X26908000Y-101893714D01*
X27003238Y-101941333D01*
X27050857Y-102036571D01*
X27050857Y-102131809D01*
X26574666Y-102227047D01*
X27479428Y-102560380D02*
X27479428Y-101893714D01*
X27479428Y-102084190D02*
X27527047Y-101988952D01*
X27574666Y-101941333D01*
X27669904Y-101893714D01*
X27765142Y-101893714D01*
X24431809Y-103210380D02*
X24527047Y-103210380D01*
X24622285Y-103258000D01*
X24669904Y-103305619D01*
X24717523Y-103400857D01*
X24765142Y-103591333D01*
X24765142Y-103829428D01*
X24717523Y-104019904D01*
X24669904Y-104115142D01*
X24622285Y-104162761D01*
X24527047Y-104210380D01*
X24431809Y-104210380D01*
X24336571Y-104162761D01*
X24288952Y-104115142D01*
X24241333Y-104019904D01*
X24193714Y-103829428D01*
X24193714Y-103591333D01*
X24241333Y-103400857D01*
X24288952Y-103305619D01*
X24336571Y-103258000D01*
X24431809Y-103210380D01*
X25193714Y-104115142D02*
X25241333Y-104162761D01*
X25193714Y-104210380D01*
X25146095Y-104162761D01*
X25193714Y-104115142D01*
X25193714Y-104210380D01*
X25860380Y-103210380D02*
X25955619Y-103210380D01*
X26050857Y-103258000D01*
X26098476Y-103305619D01*
X26146095Y-103400857D01*
X26193714Y-103591333D01*
X26193714Y-103829428D01*
X26146095Y-104019904D01*
X26098476Y-104115142D01*
X26050857Y-104162761D01*
X25955619Y-104210380D01*
X25860380Y-104210380D01*
X25765142Y-104162761D01*
X25717523Y-104115142D01*
X25669904Y-104019904D01*
X25622285Y-103829428D01*
X25622285Y-103591333D01*
X25669904Y-103400857D01*
X25717523Y-103305619D01*
X25765142Y-103258000D01*
X25860380Y-103210380D01*
X26622285Y-104115142D02*
X26669904Y-104162761D01*
X26622285Y-104210380D01*
X26574666Y-104162761D01*
X26622285Y-104115142D01*
X26622285Y-104210380D01*
X27622285Y-104210380D02*
X27050857Y-104210380D01*
X27336571Y-104210380D02*
X27336571Y-103210380D01*
X27241333Y-103353238D01*
X27146095Y-103448476D01*
X27050857Y-103496095D01*
X21852476Y-98496380D02*
X21852476Y-97496380D01*
X22233428Y-97496380D01*
X22328666Y-97544000D01*
X22376285Y-97591619D01*
X22423904Y-97686857D01*
X22423904Y-97829714D01*
X22376285Y-97924952D01*
X22328666Y-97972571D01*
X22233428Y-98020190D01*
X21852476Y-98020190D01*
X23281047Y-98496380D02*
X23281047Y-97972571D01*
X23233428Y-97877333D01*
X23138190Y-97829714D01*
X22947714Y-97829714D01*
X22852476Y-97877333D01*
X23281047Y-98448761D02*
X23185809Y-98496380D01*
X22947714Y-98496380D01*
X22852476Y-98448761D01*
X22804857Y-98353523D01*
X22804857Y-98258285D01*
X22852476Y-98163047D01*
X22947714Y-98115428D01*
X23185809Y-98115428D01*
X23281047Y-98067809D01*
X24185809Y-97829714D02*
X24185809Y-98496380D01*
X23757238Y-97829714D02*
X23757238Y-98353523D01*
X23804857Y-98448761D01*
X23900095Y-98496380D01*
X24042952Y-98496380D01*
X24138190Y-98448761D01*
X24185809Y-98401142D01*
X24804857Y-98496380D02*
X24709619Y-98448761D01*
X24662000Y-98353523D01*
X24662000Y-97496380D01*
X25900095Y-98210666D02*
X26376285Y-98210666D01*
X25804857Y-98496380D02*
X26138190Y-97496380D01*
X26471523Y-98496380D01*
X27233428Y-98496380D02*
X27233428Y-97496380D01*
X27233428Y-98448761D02*
X27138190Y-98496380D01*
X26947714Y-98496380D01*
X26852476Y-98448761D01*
X26804857Y-98401142D01*
X26757238Y-98305904D01*
X26757238Y-98020190D01*
X26804857Y-97924952D01*
X26852476Y-97877333D01*
X26947714Y-97829714D01*
X27138190Y-97829714D01*
X27233428Y-97877333D01*
X28090571Y-98448761D02*
X27995333Y-98496380D01*
X27804857Y-98496380D01*
X27709619Y-98448761D01*
X27662000Y-98353523D01*
X27662000Y-97972571D01*
X27709619Y-97877333D01*
X27804857Y-97829714D01*
X27995333Y-97829714D01*
X28090571Y-97877333D01*
X28138190Y-97972571D01*
X28138190Y-98067809D01*
X27662000Y-98163047D01*
X28566761Y-97829714D02*
X28566761Y-98496380D01*
X28566761Y-97924952D02*
X28614380Y-97877333D01*
X28709619Y-97829714D01*
X28852476Y-97829714D01*
X28947714Y-97877333D01*
X28995333Y-97972571D01*
X28995333Y-98496380D01*
X29614380Y-98496380D02*
X29519142Y-98448761D01*
X29471523Y-98401142D01*
X29423904Y-98305904D01*
X29423904Y-98020190D01*
X29471523Y-97924952D01*
X29519142Y-97877333D01*
X29614380Y-97829714D01*
X29757238Y-97829714D01*
X29852476Y-97877333D01*
X29900095Y-97924952D01*
X29947714Y-98020190D01*
X29947714Y-98305904D01*
X29900095Y-98401142D01*
X29852476Y-98448761D01*
X29757238Y-98496380D01*
X29614380Y-98496380D01*
X30233428Y-97829714D02*
X30614380Y-97829714D01*
X30376285Y-97496380D02*
X30376285Y-98353523D01*
X30423904Y-98448761D01*
X30519142Y-98496380D01*
X30614380Y-98496380D01*
D11*
X76144163Y-80519843D02*
G75*
G03X76144163Y-80519843I-3500000J0D01*
G01*
X77498163Y-85509943D02*
G75*
G02X76734263Y-86019843I-636900J127000D01*
G01*
X68554063Y-86019843D02*
X76734263Y-86019843D01*
X68554063Y-86019843D02*
G75*
G02X67790163Y-85509943I-127000J636900D01*
G01*
X67790163Y-75529743D02*
X67790163Y-85509943D01*
X67790163Y-75529743D02*
G75*
G02X68554063Y-75019843I636900J-127000D01*
G01*
X76734263Y-75019843D02*
X68554063Y-75019843D01*
X76734263Y-75019843D02*
G75*
G02X77498163Y-75529743I127000J-636900D01*
G01*
X77498163Y-85509943D02*
X77498163Y-75529743D01*
D10*
X74295000Y-82677000D02*
G75*
G03X70993000Y-82677000I-1651000J2159000D01*
G01*
X70993000Y-82677000D02*
X74295000Y-82677000D01*
X58801000Y-82677000D02*
X62103000Y-82677000D01*
X62103000Y-82677000D02*
G75*
G03X58801000Y-82677000I-1651000J2159000D01*
G01*
D11*
X65306163Y-85509943D02*
X65306163Y-75529743D01*
X64542263Y-75019843D02*
G75*
G02X65306163Y-75529743I127000J-636900D01*
G01*
X64542263Y-75019843D02*
X56362063Y-75019843D01*
X55598163Y-75529743D02*
G75*
G02X56362063Y-75019843I636900J-127000D01*
G01*
X55598163Y-75529743D02*
X55598163Y-85509943D01*
X56362063Y-86019843D02*
G75*
G02X55598163Y-85509943I-127000J636900D01*
G01*
X56362063Y-86019843D02*
X64542263Y-86019843D01*
X65306163Y-85509943D02*
G75*
G02X64542263Y-86019843I-636900J127000D01*
G01*
X63952163Y-80519843D02*
G75*
G03X63952163Y-80519843I-3500000J0D01*
G01*
D10*
X46609000Y-82677000D02*
X49911000Y-82677000D01*
X49911000Y-82677000D02*
G75*
G03X46609000Y-82677000I-1651000J2159000D01*
G01*
D11*
X53114163Y-85509943D02*
X53114163Y-75529743D01*
X52350263Y-75019843D02*
G75*
G02X53114163Y-75529743I127000J-636900D01*
G01*
X52350263Y-75019843D02*
X44170063Y-75019843D01*
X43406163Y-75529743D02*
G75*
G02X44170063Y-75019843I636900J-127000D01*
G01*
X43406163Y-75529743D02*
X43406163Y-85509943D01*
X44170063Y-86019843D02*
G75*
G02X43406163Y-85509943I-127000J636900D01*
G01*
X44170063Y-86019843D02*
X52350263Y-86019843D01*
X53114163Y-85509943D02*
G75*
G02X52350263Y-86019843I-636900J127000D01*
G01*
X51760163Y-80519843D02*
G75*
G03X51760163Y-80519843I-3500000J0D01*
G01*
X39568163Y-80443643D02*
G75*
G03X39568163Y-80443643I-3500000J0D01*
G01*
X40922163Y-85433743D02*
G75*
G02X40158263Y-85943643I-636900J127000D01*
G01*
X31978063Y-85943643D02*
X40158263Y-85943643D01*
X31978063Y-85943643D02*
G75*
G02X31214163Y-85433743I-127000J636900D01*
G01*
X31214163Y-75453543D02*
X31214163Y-85433743D01*
X31214163Y-75453543D02*
G75*
G02X31978063Y-74943643I636900J-127000D01*
G01*
X40158263Y-74943643D02*
X31978063Y-74943643D01*
X40158263Y-74943643D02*
G75*
G02X40922163Y-75453543I127000J-636900D01*
G01*
X40922163Y-85433743D02*
X40922163Y-75453543D01*
D10*
X37719000Y-82600800D02*
G75*
G03X34417000Y-82600800I-1651000J2159000D01*
G01*
X34417000Y-82600800D02*
X37719000Y-82600800D01*
D11*
X76398163Y-61215843D02*
G75*
G03X76398163Y-61215843I-3500000J0D01*
G01*
X77752163Y-66205943D02*
G75*
G02X76988263Y-66715843I-636900J127000D01*
G01*
X68808063Y-66715843D02*
X76988263Y-66715843D01*
X68808063Y-66715843D02*
G75*
G02X68044163Y-66205943I-127000J636900D01*
G01*
X68044163Y-56225743D02*
X68044163Y-66205943D01*
X68044163Y-56225743D02*
G75*
G02X68808063Y-55715843I636900J-127000D01*
G01*
X76988263Y-55715843D02*
X68808063Y-55715843D01*
X76988263Y-55715843D02*
G75*
G02X77752163Y-56225743I127000J-636900D01*
G01*
X77752163Y-66205943D02*
X77752163Y-56225743D01*
D10*
X74549000Y-63373000D02*
G75*
G03X71247000Y-63373000I-1651000J2159000D01*
G01*
X71247000Y-63373000D02*
X74549000Y-63373000D01*
X59055000Y-63373000D02*
X62357000Y-63373000D01*
X62357000Y-63373000D02*
G75*
G03X59055000Y-63373000I-1651000J2159000D01*
G01*
D11*
X65560163Y-66205943D02*
X65560163Y-56225743D01*
X64796263Y-55715843D02*
G75*
G02X65560163Y-56225743I127000J-636900D01*
G01*
X64796263Y-55715843D02*
X56616063Y-55715843D01*
X55852163Y-56225743D02*
G75*
G02X56616063Y-55715843I636900J-127000D01*
G01*
X55852163Y-56225743D02*
X55852163Y-66205943D01*
X56616063Y-66715843D02*
G75*
G02X55852163Y-66205943I-127000J636900D01*
G01*
X56616063Y-66715843D02*
X64796263Y-66715843D01*
X65560163Y-66205943D02*
G75*
G02X64796263Y-66715843I-636900J127000D01*
G01*
X64206163Y-61215843D02*
G75*
G03X64206163Y-61215843I-3500000J0D01*
G01*
D10*
X46863000Y-63373000D02*
X50165000Y-63373000D01*
X50165000Y-63373000D02*
G75*
G03X46863000Y-63373000I-1651000J2159000D01*
G01*
D11*
X53368163Y-66205943D02*
X53368163Y-56225743D01*
X52604263Y-55715843D02*
G75*
G02X53368163Y-56225743I127000J-636900D01*
G01*
X52604263Y-55715843D02*
X44424063Y-55715843D01*
X43660163Y-56225743D02*
G75*
G02X44424063Y-55715843I636900J-127000D01*
G01*
X43660163Y-56225743D02*
X43660163Y-66205943D01*
X44424063Y-66715843D02*
G75*
G02X43660163Y-66205943I-127000J636900D01*
G01*
X44424063Y-66715843D02*
X52604263Y-66715843D01*
X53368163Y-66205943D02*
G75*
G02X52604263Y-66715843I-636900J127000D01*
G01*
X52014163Y-61215843D02*
G75*
G03X52014163Y-61215843I-3500000J0D01*
G01*
X39822163Y-61215843D02*
G75*
G03X39822163Y-61215843I-3500000J0D01*
G01*
X41176163Y-66205943D02*
G75*
G02X40412263Y-66715843I-636900J127000D01*
G01*
X32232063Y-66715843D02*
X40412263Y-66715843D01*
X32232063Y-66715843D02*
G75*
G02X31468163Y-66205943I-127000J636900D01*
G01*
X31468163Y-56225743D02*
X31468163Y-66205943D01*
X31468163Y-56225743D02*
G75*
G02X32232063Y-55715843I636900J-127000D01*
G01*
X40412263Y-55715843D02*
X32232063Y-55715843D01*
X40412263Y-55715843D02*
G75*
G02X41176163Y-56225743I127000J-636900D01*
G01*
X41176163Y-66205943D02*
X41176163Y-56225743D01*
D10*
X37973000Y-63373000D02*
G75*
G03X34671000Y-63373000I-1651000J2159000D01*
G01*
X34671000Y-63373000D02*
X37973000Y-63373000D01*
D11*
X76144163Y-41911843D02*
G75*
G03X76144163Y-41911843I-3500000J0D01*
G01*
X77498163Y-46901943D02*
G75*
G02X76734263Y-47411843I-636900J127000D01*
G01*
X68554063Y-47411843D02*
X76734263Y-47411843D01*
X68554063Y-47411843D02*
G75*
G02X67790163Y-46901943I-127000J636900D01*
G01*
X67790163Y-36921743D02*
X67790163Y-46901943D01*
X67790163Y-36921743D02*
G75*
G02X68554063Y-36411843I636900J-127000D01*
G01*
X76734263Y-36411843D02*
X68554063Y-36411843D01*
X76734263Y-36411843D02*
G75*
G02X77498163Y-36921743I127000J-636900D01*
G01*
X77498163Y-46901943D02*
X77498163Y-36921743D01*
D10*
X74295000Y-44069000D02*
G75*
G03X70993000Y-44069000I-1651000J2159000D01*
G01*
X70993000Y-44069000D02*
X74295000Y-44069000D01*
X58801000Y-44069000D02*
X62103000Y-44069000D01*
X62103000Y-44069000D02*
G75*
G03X58801000Y-44069000I-1651000J2159000D01*
G01*
D11*
X65306163Y-46901943D02*
X65306163Y-36921743D01*
X64542263Y-36411843D02*
G75*
G02X65306163Y-36921743I127000J-636900D01*
G01*
X64542263Y-36411843D02*
X56362063Y-36411843D01*
X55598163Y-36921743D02*
G75*
G02X56362063Y-36411843I636900J-127000D01*
G01*
X55598163Y-36921743D02*
X55598163Y-46901943D01*
X56362063Y-47411843D02*
G75*
G02X55598163Y-46901943I-127000J636900D01*
G01*
X56362063Y-47411843D02*
X64542263Y-47411843D01*
X65306163Y-46901943D02*
G75*
G02X64542263Y-47411843I-636900J127000D01*
G01*
X63952163Y-41911843D02*
G75*
G03X63952163Y-41911843I-3500000J0D01*
G01*
X51760163Y-41911843D02*
G75*
G03X51760163Y-41911843I-3500000J0D01*
G01*
X53114163Y-46901943D02*
G75*
G02X52350263Y-47411843I-636900J127000D01*
G01*
X44170063Y-47411843D02*
X52350263Y-47411843D01*
X44170063Y-47411843D02*
G75*
G02X43406163Y-46901943I-127000J636900D01*
G01*
X43406163Y-36921743D02*
X43406163Y-46901943D01*
X43406163Y-36921743D02*
G75*
G02X44170063Y-36411843I636900J-127000D01*
G01*
X52350263Y-36411843D02*
X44170063Y-36411843D01*
X52350263Y-36411843D02*
G75*
G02X53114163Y-36921743I127000J-636900D01*
G01*
X53114163Y-46901943D02*
X53114163Y-36921743D01*
D10*
X49911000Y-44069000D02*
G75*
G03X46609000Y-44069000I-1651000J2159000D01*
G01*
X46609000Y-44069000D02*
X49911000Y-44069000D01*
X34417000Y-44069000D02*
X37719000Y-44069000D01*
X37719000Y-44069000D02*
G75*
G03X34417000Y-44069000I-1651000J2159000D01*
G01*
D11*
X40922163Y-46901943D02*
X40922163Y-36921743D01*
X40158263Y-36411843D02*
G75*
G02X40922163Y-36921743I127000J-636900D01*
G01*
X40158263Y-36411843D02*
X31978063Y-36411843D01*
X31214163Y-36921743D02*
G75*
G02X31978063Y-36411843I636900J-127000D01*
G01*
X31214163Y-36921743D02*
X31214163Y-46901943D01*
X31978063Y-47411843D02*
G75*
G02X31214163Y-46901943I-127000J636900D01*
G01*
X31978063Y-47411843D02*
X40158263Y-47411843D01*
X40922163Y-46901943D02*
G75*
G02X40158263Y-47411843I-636900J127000D01*
G01*
X39568163Y-41911843D02*
G75*
G03X39568163Y-41911843I-3500000J0D01*
G01*
D10*
X70993000Y-25081571D02*
X74295000Y-25081571D01*
X74295000Y-25081571D02*
G75*
G03X70993000Y-25081571I-1651000J2159000D01*
G01*
D11*
X77498163Y-27914514D02*
X77498163Y-17934314D01*
X76734263Y-17424414D02*
G75*
G02X77498163Y-17934314I127000J-636900D01*
G01*
X76734263Y-17424414D02*
X68554063Y-17424414D01*
X67790163Y-17934314D02*
G75*
G02X68554063Y-17424414I636900J-127000D01*
G01*
X67790163Y-17934314D02*
X67790163Y-27914514D01*
X68554063Y-28424414D02*
G75*
G02X67790163Y-27914514I-127000J636900D01*
G01*
X68554063Y-28424414D02*
X76734263Y-28424414D01*
X77498163Y-27914514D02*
G75*
G02X76734263Y-28424414I-636900J127000D01*
G01*
X76144163Y-22924414D02*
G75*
G03X76144163Y-22924414I-3500000J0D01*
G01*
X63952163Y-22903557D02*
G75*
G03X63952163Y-22903557I-3500000J0D01*
G01*
X65306163Y-27893657D02*
G75*
G02X64542263Y-28403557I-636900J127000D01*
G01*
X56362063Y-28403557D02*
X64542263Y-28403557D01*
X56362063Y-28403557D02*
G75*
G02X55598163Y-27893657I-127000J636900D01*
G01*
X55598163Y-17913457D02*
X55598163Y-27893657D01*
X55598163Y-17913457D02*
G75*
G02X56362063Y-17403557I636900J-127000D01*
G01*
X64542263Y-17403557D02*
X56362063Y-17403557D01*
X64542263Y-17403557D02*
G75*
G02X65306163Y-17913457I127000J-636900D01*
G01*
X65306163Y-27893657D02*
X65306163Y-17913457D01*
D10*
X62103000Y-25060714D02*
G75*
G03X58801000Y-25060714I-1651000J2159000D01*
G01*
X58801000Y-25060714D02*
X62103000Y-25060714D01*
D11*
X51760163Y-22861843D02*
G75*
G03X51760163Y-22861843I-3500000J0D01*
G01*
X53114163Y-27851943D02*
G75*
G02X52350263Y-28361843I-636900J127000D01*
G01*
X44170063Y-28361843D02*
X52350263Y-28361843D01*
X44170063Y-28361843D02*
G75*
G02X43406163Y-27851943I-127000J636900D01*
G01*
X43406163Y-17871743D02*
X43406163Y-27851943D01*
X43406163Y-17871743D02*
G75*
G02X44170063Y-17361843I636900J-127000D01*
G01*
X52350263Y-17361843D02*
X44170063Y-17361843D01*
X52350263Y-17361843D02*
G75*
G02X53114163Y-17871743I127000J-636900D01*
G01*
X53114163Y-27851943D02*
X53114163Y-17871743D01*
D10*
X49911000Y-25019000D02*
G75*
G03X46609000Y-25019000I-1651000J2159000D01*
G01*
X46609000Y-25019000D02*
X49911000Y-25019000D01*
X34417000Y-25019000D02*
X37719000Y-25019000D01*
X37719000Y-25019000D02*
G75*
G03X34417000Y-25019000I-1651000J2159000D01*
G01*
D11*
X40922163Y-27851943D02*
X40922163Y-17871743D01*
X40158263Y-17361843D02*
G75*
G02X40922163Y-17871743I127000J-636900D01*
G01*
X40158263Y-17361843D02*
X31978063Y-17361843D01*
X31214163Y-17871743D02*
G75*
G02X31978063Y-17361843I636900J-127000D01*
G01*
X31214163Y-17871743D02*
X31214163Y-27851943D01*
X31978063Y-28361843D02*
G75*
G02X31214163Y-27851943I-127000J636900D01*
G01*
X31978063Y-28361843D02*
X40158263Y-28361843D01*
X40922163Y-27851943D02*
G75*
G02X40158263Y-28361843I-636900J127000D01*
G01*
X39568163Y-22861843D02*
G75*
G03X39568163Y-22861843I-3500000J0D01*
G01*
D12*
X75914000Y-91794000D02*
X75914000Y-91464000D01*
X69374000Y-91794000D02*
X75914000Y-91794000D01*
X69374000Y-91464000D02*
X69374000Y-91794000D01*
X75914000Y-89054000D02*
X75914000Y-89384000D01*
X69374000Y-89054000D02*
X75914000Y-89054000D01*
X69374000Y-89384000D02*
X69374000Y-89054000D01*
X56928000Y-89384000D02*
X56928000Y-89054000D01*
X56928000Y-89054000D02*
X63468000Y-89054000D01*
X63468000Y-89054000D02*
X63468000Y-89384000D01*
X56928000Y-91464000D02*
X56928000Y-91794000D01*
X56928000Y-91794000D02*
X63468000Y-91794000D01*
X63468000Y-91794000D02*
X63468000Y-91464000D01*
X44990000Y-89054000D02*
X44990000Y-89384000D01*
X51530000Y-89054000D02*
X44990000Y-89054000D01*
X51530000Y-89384000D02*
X51530000Y-89054000D01*
X44990000Y-91794000D02*
X44990000Y-91464000D01*
X51530000Y-91794000D02*
X44990000Y-91794000D01*
X51530000Y-91464000D02*
X51530000Y-91794000D01*
X32798000Y-89384000D02*
X32798000Y-89054000D01*
X32798000Y-89054000D02*
X39338000Y-89054000D01*
X39338000Y-89054000D02*
X39338000Y-89384000D01*
X32798000Y-91464000D02*
X32798000Y-91794000D01*
X32798000Y-91794000D02*
X39338000Y-91794000D01*
X39338000Y-91794000D02*
X39338000Y-91464000D01*
X75914000Y-73252000D02*
X75914000Y-72922000D01*
X69374000Y-73252000D02*
X75914000Y-73252000D01*
X69374000Y-72922000D02*
X69374000Y-73252000D01*
X75914000Y-70512000D02*
X75914000Y-70842000D01*
X69374000Y-70512000D02*
X75914000Y-70512000D01*
X69374000Y-70842000D02*
X69374000Y-70512000D01*
X57182000Y-70842000D02*
X57182000Y-70512000D01*
X57182000Y-70512000D02*
X63722000Y-70512000D01*
X63722000Y-70512000D02*
X63722000Y-70842000D01*
X57182000Y-72922000D02*
X57182000Y-73252000D01*
X57182000Y-73252000D02*
X63722000Y-73252000D01*
X63722000Y-73252000D02*
X63722000Y-72922000D01*
X51784000Y-72922000D02*
X51784000Y-73252000D01*
X51784000Y-73252000D02*
X45244000Y-73252000D01*
X45244000Y-73252000D02*
X45244000Y-72922000D01*
X51784000Y-70842000D02*
X51784000Y-70512000D01*
X51784000Y-70512000D02*
X45244000Y-70512000D01*
X45244000Y-70512000D02*
X45244000Y-70842000D01*
X32683700Y-70918200D02*
X32683700Y-70588200D01*
X32683700Y-70588200D02*
X39223700Y-70588200D01*
X39223700Y-70588200D02*
X39223700Y-70918200D01*
X32683700Y-72998200D02*
X32683700Y-73328200D01*
X32683700Y-73328200D02*
X39223700Y-73328200D01*
X39223700Y-73328200D02*
X39223700Y-72998200D01*
X69374000Y-51284000D02*
X69374000Y-50954000D01*
X69374000Y-50954000D02*
X75914000Y-50954000D01*
X75914000Y-50954000D02*
X75914000Y-51284000D01*
X69374000Y-53364000D02*
X69374000Y-53694000D01*
X69374000Y-53694000D02*
X75914000Y-53694000D01*
X75914000Y-53694000D02*
X75914000Y-53364000D01*
X63722000Y-53694000D02*
X63722000Y-53364000D01*
X57182000Y-53694000D02*
X63722000Y-53694000D01*
X57182000Y-53364000D02*
X57182000Y-53694000D01*
X63722000Y-50954000D02*
X63722000Y-51284000D01*
X57182000Y-50954000D02*
X63722000Y-50954000D01*
X57182000Y-51284000D02*
X57182000Y-50954000D01*
X51784000Y-53364000D02*
X51784000Y-53694000D01*
X51784000Y-53694000D02*
X45244000Y-53694000D01*
X45244000Y-53694000D02*
X45244000Y-53364000D01*
X51784000Y-51284000D02*
X51784000Y-50954000D01*
X51784000Y-50954000D02*
X45244000Y-50954000D01*
X45244000Y-50954000D02*
X45244000Y-51284000D01*
X39338000Y-53694000D02*
X39338000Y-53364000D01*
X32798000Y-53694000D02*
X39338000Y-53694000D01*
X32798000Y-53364000D02*
X32798000Y-53694000D01*
X39338000Y-50954000D02*
X39338000Y-51284000D01*
X32798000Y-50954000D02*
X39338000Y-50954000D01*
X32798000Y-51284000D02*
X32798000Y-50954000D01*
X68866000Y-31472000D02*
X68866000Y-31142000D01*
X68866000Y-31142000D02*
X75406000Y-31142000D01*
X75406000Y-31142000D02*
X75406000Y-31472000D01*
X68866000Y-33552000D02*
X68866000Y-33882000D01*
X68866000Y-33882000D02*
X75406000Y-33882000D01*
X75406000Y-33882000D02*
X75406000Y-33552000D01*
X63976000Y-34139026D02*
X63976000Y-33809026D01*
X57436000Y-34139026D02*
X63976000Y-34139026D01*
X57436000Y-33809026D02*
X57436000Y-34139026D01*
X63976000Y-31399026D02*
X63976000Y-31729026D01*
X57436000Y-31399026D02*
X63976000Y-31399026D01*
X57436000Y-31729026D02*
X57436000Y-31399026D01*
X51784000Y-33806000D02*
X51784000Y-34136000D01*
X51784000Y-34136000D02*
X45244000Y-34136000D01*
X45244000Y-34136000D02*
X45244000Y-33806000D01*
X51784000Y-31726000D02*
X51784000Y-31396000D01*
X51784000Y-31396000D02*
X45244000Y-31396000D01*
X45244000Y-31396000D02*
X45244000Y-31726000D01*
D11*
X21299999Y-93839999D02*
G75*
G03X21554000Y-94204000I308901J-55070D01*
G01*
X21300000Y-93840000D02*
X21300000Y-89348000D01*
X21554000Y-89184000D02*
G75*
G03X21300000Y-89348000I-45000J-209000D01*
G01*
X21554000Y-89184000D02*
X29046000Y-89184000D01*
X29500000Y-89548000D02*
G75*
G03X29046000Y-89184000I-409000J-45000D01*
G01*
X29500000Y-89548000D02*
X29500000Y-94040000D01*
X29146000Y-94204001D02*
G75*
G03X29500000Y-94040000I95046J258901D01*
G01*
X29146000Y-94204000D02*
X21554000Y-94204000D01*
X27900000Y-91694000D02*
G75*
G03X27900000Y-91694000I-2500000J0D01*
G01*
X27900000Y-72390000D02*
G75*
G03X27900000Y-72390000I-2500000J0D01*
G01*
X29146000Y-74900000D02*
X21554000Y-74900000D01*
X29146000Y-74900001D02*
G75*
G03X29500000Y-74736000I95046J258901D01*
G01*
X29500000Y-70244000D02*
X29500000Y-74736000D01*
X29500000Y-70244000D02*
G75*
G03X29046000Y-69880000I-409000J-45000D01*
G01*
X21554000Y-69880000D02*
X29046000Y-69880000D01*
X21554000Y-69880000D02*
G75*
G03X21300000Y-70044000I-45000J-209000D01*
G01*
X21300000Y-74536000D02*
X21300000Y-70044000D01*
X21299999Y-74535999D02*
G75*
G03X21554000Y-74900000I308901J-55070D01*
G01*
X27900000Y-53086000D02*
G75*
G03X27900000Y-53086000I-2500000J0D01*
G01*
X29146000Y-55596000D02*
X21554000Y-55596000D01*
X29146000Y-55596001D02*
G75*
G03X29500000Y-55432000I95046J258901D01*
G01*
X29500000Y-50940000D02*
X29500000Y-55432000D01*
X29500000Y-50940000D02*
G75*
G03X29046000Y-50576000I-409000J-45000D01*
G01*
X21554000Y-50576000D02*
X29046000Y-50576000D01*
X21554000Y-50576000D02*
G75*
G03X21300000Y-50740000I-45000J-209000D01*
G01*
X21300000Y-55232000D02*
X21300000Y-50740000D01*
X21299999Y-55231999D02*
G75*
G03X21554000Y-55596000I308901J-55070D01*
G01*
X21299999Y-35927999D02*
G75*
G03X21554000Y-36292000I308901J-55070D01*
G01*
X21300000Y-35928000D02*
X21300000Y-31436000D01*
X21554000Y-31272000D02*
G75*
G03X21300000Y-31436000I-45000J-209000D01*
G01*
X21554000Y-31272000D02*
X29046000Y-31272000D01*
X29500000Y-31636000D02*
G75*
G03X29046000Y-31272000I-409000J-45000D01*
G01*
X29500000Y-31636000D02*
X29500000Y-36128000D01*
X29146000Y-36292001D02*
G75*
G03X29500000Y-36128000I95046J258901D01*
G01*
X29146000Y-36292000D02*
X21554000Y-36292000D01*
X27900000Y-33782000D02*
G75*
G03X27900000Y-33782000I-2500000J0D01*
G01*
D10*
X68144000Y-92352000D02*
X77144000Y-92352000D01*
X68144000Y-103252000D02*
X77144000Y-103252000D01*
X68144000Y-92352000D02*
X68144000Y-103252000D01*
X77144000Y-92352000D02*
X77144000Y-103252000D01*
X74444000Y-98552000D02*
G75*
G03X74444000Y-98552000I-1800000J0D01*
G01*
X72644000Y-96752000D02*
X72644000Y-100352000D01*
X70844000Y-98552000D02*
X74444000Y-98552000D01*
X58652000Y-98298000D02*
X62252000Y-98298000D01*
X60452000Y-96498000D02*
X60452000Y-100098000D01*
X62252000Y-98298000D02*
G75*
G03X62252000Y-98298000I-1800000J0D01*
G01*
X64952000Y-92098000D02*
X64952000Y-102998000D01*
X55952000Y-92098000D02*
X55952000Y-102998000D01*
X55952000Y-102998000D02*
X64952000Y-102998000D01*
X55952000Y-92098000D02*
X64952000Y-92098000D01*
X46460000Y-98298000D02*
X50060000Y-98298000D01*
X48260000Y-96498000D02*
X48260000Y-100098000D01*
X50060000Y-98298000D02*
G75*
G03X50060000Y-98298000I-1800000J0D01*
G01*
X52760000Y-92098000D02*
X52760000Y-102998000D01*
X43760000Y-92098000D02*
X43760000Y-102998000D01*
X43760000Y-102998000D02*
X52760000Y-102998000D01*
X43760000Y-92098000D02*
X52760000Y-92098000D01*
X34268000Y-98298000D02*
X37868000Y-98298000D01*
X36068000Y-96498000D02*
X36068000Y-100098000D01*
X37868000Y-98298000D02*
G75*
G03X37868000Y-98298000I-1800000J0D01*
G01*
X40568000Y-92098000D02*
X40568000Y-102998000D01*
X31568000Y-92098000D02*
X31568000Y-102998000D01*
X31568000Y-102998000D02*
X40568000Y-102998000D01*
X31568000Y-92098000D02*
X40568000Y-92098000D01*
X23600000Y-81280000D02*
X27200000Y-81280000D01*
X25400000Y-79480000D02*
X25400000Y-83080000D01*
X27200000Y-81280000D02*
G75*
G03X27200000Y-81280000I-1800000J0D01*
G01*
X29900000Y-75080000D02*
X29900000Y-85980000D01*
X20900000Y-75080000D02*
X20900000Y-85980000D01*
X20900000Y-85980000D02*
X29900000Y-85980000D01*
X20900000Y-75080000D02*
X29900000Y-75080000D01*
X20900000Y-55776000D02*
X29900000Y-55776000D01*
X20900000Y-66676000D02*
X29900000Y-66676000D01*
X20900000Y-55776000D02*
X20900000Y-66676000D01*
X29900000Y-55776000D02*
X29900000Y-66676000D01*
X27200000Y-61976000D02*
G75*
G03X27200000Y-61976000I-1800000J0D01*
G01*
X25400000Y-60176000D02*
X25400000Y-63776000D01*
X23600000Y-61976000D02*
X27200000Y-61976000D01*
X20900000Y-36472000D02*
X29900000Y-36472000D01*
X20900000Y-47372000D02*
X29900000Y-47372000D01*
X20900000Y-36472000D02*
X20900000Y-47372000D01*
X29900000Y-36472000D02*
X29900000Y-47372000D01*
X27200000Y-42672000D02*
G75*
G03X27200000Y-42672000I-1800000J0D01*
G01*
X25400000Y-40872000D02*
X25400000Y-44472000D01*
X23600000Y-42672000D02*
X27200000Y-42672000D01*
X20974000Y-17360802D02*
X29974000Y-17360802D01*
X20974000Y-28260802D02*
X29974000Y-28260802D01*
X20974000Y-17360802D02*
X20974000Y-28260802D01*
X29974000Y-17360802D02*
X29974000Y-28260802D01*
X27274000Y-23560802D02*
G75*
G03X27274000Y-23560802I-1800000J0D01*
G01*
X25474000Y-21760802D02*
X25474000Y-25360802D01*
X23674000Y-23560802D02*
X27274000Y-23560802D01*
D12*
X55356000Y-104478000D02*
G75*
G02X53356000Y-104478000I-1000000J0D01*
G01*
X57126000Y-104478000D02*
X55356000Y-104478000D01*
X57126000Y-122498000D02*
X57126000Y-104478000D01*
X51586000Y-122498000D02*
X57126000Y-122498000D01*
X51586000Y-104478000D02*
X51586000Y-122498000D01*
X53356000Y-104478000D02*
X51586000Y-104478000D01*
X65314643Y-121940440D02*
G75*
G03X67274000Y-121940236I979357J3088440D01*
G01*
X65314643Y-121940440D02*
G75*
G02X65314000Y-115763764I979357J3088440D01*
G01*
X67273357Y-121940440D02*
G75*
G03X67274000Y-115763764I-979357J3088440D01*
G01*
X66944000Y-116002000D02*
X65644000Y-116002000D01*
X66294000Y-115402000D02*
X66294000Y-116602000D01*
X66762000Y-122053000D02*
X65826000Y-122053000D01*
X66970000Y-122013000D02*
X65618000Y-122013000D01*
X67128000Y-121973000D02*
X65460000Y-121973000D01*
X67260000Y-121933000D02*
X65328000Y-121933000D01*
X67375000Y-121893000D02*
X65213000Y-121893000D01*
X67478000Y-121853000D02*
X65110000Y-121853000D01*
X67572000Y-121813000D02*
X65016000Y-121813000D01*
X67658000Y-121773000D02*
X64930000Y-121773000D01*
X67739000Y-121733000D02*
X64849000Y-121733000D01*
X67814000Y-121693000D02*
X64774000Y-121693000D01*
X67885000Y-121653000D02*
X64703000Y-121653000D01*
X67952000Y-121613000D02*
X64636000Y-121613000D01*
X68015000Y-121573000D02*
X64573000Y-121573000D01*
X68075000Y-121533000D02*
X64513000Y-121533000D01*
X68133000Y-121493000D02*
X64455000Y-121493000D01*
X68188000Y-121453000D02*
X64400000Y-121453000D01*
X68240000Y-121413000D02*
X64348000Y-121413000D01*
X68291000Y-121373000D02*
X64297000Y-121373000D01*
X68339000Y-121333000D02*
X64249000Y-121333000D01*
X68386000Y-121293000D02*
X64202000Y-121293000D01*
X68431000Y-121253000D02*
X64157000Y-121253000D01*
X68474000Y-121213000D02*
X64114000Y-121213000D01*
X68516000Y-121173000D02*
X64072000Y-121173000D01*
X68556000Y-121133000D02*
X64032000Y-121133000D01*
X68595000Y-121093000D02*
X63993000Y-121093000D01*
X65314000Y-121053000D02*
X63955000Y-121053000D01*
X68633000Y-121053000D02*
X67274000Y-121053000D01*
X65314000Y-121013000D02*
X63919000Y-121013000D01*
X68669000Y-121013000D02*
X67274000Y-121013000D01*
X65314000Y-120973000D02*
X63883000Y-120973000D01*
X68705000Y-120973000D02*
X67274000Y-120973000D01*
X65314000Y-120933000D02*
X63849000Y-120933000D01*
X68739000Y-120933000D02*
X67274000Y-120933000D01*
X65314000Y-120893000D02*
X63816000Y-120893000D01*
X68772000Y-120893000D02*
X67274000Y-120893000D01*
X65314000Y-120853000D02*
X63784000Y-120853000D01*
X68804000Y-120853000D02*
X67274000Y-120853000D01*
X65314000Y-120813000D02*
X63754000Y-120813000D01*
X68834000Y-120813000D02*
X67274000Y-120813000D01*
X65314000Y-120773000D02*
X63724000Y-120773000D01*
X68864000Y-120773000D02*
X67274000Y-120773000D01*
X65314000Y-120733000D02*
X63695000Y-120733000D01*
X68893000Y-120733000D02*
X67274000Y-120733000D01*
X65314000Y-120693000D02*
X63667000Y-120693000D01*
X68921000Y-120693000D02*
X67274000Y-120693000D01*
X65314000Y-120653000D02*
X63640000Y-120653000D01*
X68948000Y-120653000D02*
X67274000Y-120653000D01*
X65314000Y-120613000D02*
X63613000Y-120613000D01*
X68975000Y-120613000D02*
X67274000Y-120613000D01*
X65314000Y-120573000D02*
X63588000Y-120573000D01*
X69000000Y-120573000D02*
X67274000Y-120573000D01*
X65314000Y-120533000D02*
X63563000Y-120533000D01*
X69025000Y-120533000D02*
X67274000Y-120533000D01*
X65314000Y-120493000D02*
X63539000Y-120493000D01*
X69049000Y-120493000D02*
X67274000Y-120493000D01*
X65314000Y-120453000D02*
X63516000Y-120453000D01*
X69072000Y-120453000D02*
X67274000Y-120453000D01*
X65314000Y-120413000D02*
X63494000Y-120413000D01*
X69094000Y-120413000D02*
X67274000Y-120413000D01*
X65314000Y-120373000D02*
X63472000Y-120373000D01*
X69116000Y-120373000D02*
X67274000Y-120373000D01*
X65314000Y-120333000D02*
X63451000Y-120333000D01*
X69137000Y-120333000D02*
X67274000Y-120333000D01*
X65314000Y-120293000D02*
X63431000Y-120293000D01*
X69157000Y-120293000D02*
X67274000Y-120293000D01*
X65314000Y-120253000D02*
X63412000Y-120253000D01*
X69176000Y-120253000D02*
X67274000Y-120253000D01*
X65314000Y-120213000D02*
X63393000Y-120213000D01*
X69195000Y-120213000D02*
X67274000Y-120213000D01*
X65314000Y-120173000D02*
X63375000Y-120173000D01*
X69213000Y-120173000D02*
X67274000Y-120173000D01*
X65314000Y-120133000D02*
X63357000Y-120133000D01*
X69231000Y-120133000D02*
X67274000Y-120133000D01*
X65314000Y-120093000D02*
X63340000Y-120093000D01*
X69248000Y-120093000D02*
X67274000Y-120093000D01*
X65314000Y-120053000D02*
X63324000Y-120053000D01*
X69264000Y-120053000D02*
X67274000Y-120053000D01*
X65314000Y-120013000D02*
X63308000Y-120013000D01*
X69280000Y-120013000D02*
X67274000Y-120013000D01*
X65314000Y-119973000D02*
X63293000Y-119973000D01*
X69295000Y-119973000D02*
X67274000Y-119973000D01*
X65314000Y-119933000D02*
X63279000Y-119933000D01*
X69309000Y-119933000D02*
X67274000Y-119933000D01*
X65314000Y-119893000D02*
X63265000Y-119893000D01*
X69323000Y-119893000D02*
X67274000Y-119893000D01*
X65314000Y-119853000D02*
X63252000Y-119853000D01*
X69336000Y-119853000D02*
X67274000Y-119853000D01*
X65314000Y-119813000D02*
X63239000Y-119813000D01*
X69349000Y-119813000D02*
X67274000Y-119813000D01*
X65314000Y-119773000D02*
X63227000Y-119773000D01*
X69361000Y-119773000D02*
X67274000Y-119773000D01*
X65314000Y-119733000D02*
X63215000Y-119733000D01*
X69373000Y-119733000D02*
X67274000Y-119733000D01*
X65314000Y-119693000D02*
X63204000Y-119693000D01*
X69384000Y-119693000D02*
X67274000Y-119693000D01*
X65314000Y-119653000D02*
X63194000Y-119653000D01*
X69394000Y-119653000D02*
X67274000Y-119653000D01*
X65314000Y-119613000D02*
X63184000Y-119613000D01*
X69404000Y-119613000D02*
X67274000Y-119613000D01*
X65314000Y-119573000D02*
X63175000Y-119573000D01*
X69413000Y-119573000D02*
X67274000Y-119573000D01*
X65314000Y-119532000D02*
X63166000Y-119532000D01*
X69422000Y-119532000D02*
X67274000Y-119532000D01*
X65314000Y-119492000D02*
X63157000Y-119492000D01*
X69431000Y-119492000D02*
X67274000Y-119492000D01*
X65314000Y-119452000D02*
X63150000Y-119452000D01*
X69438000Y-119452000D02*
X67274000Y-119452000D01*
X65314000Y-119412000D02*
X63142000Y-119412000D01*
X69446000Y-119412000D02*
X67274000Y-119412000D01*
X65314000Y-119372000D02*
X63136000Y-119372000D01*
X69452000Y-119372000D02*
X67274000Y-119372000D01*
X65314000Y-119332000D02*
X63129000Y-119332000D01*
X69459000Y-119332000D02*
X67274000Y-119332000D01*
X65314000Y-119292000D02*
X63124000Y-119292000D01*
X69464000Y-119292000D02*
X67274000Y-119292000D01*
X65314000Y-119252000D02*
X63118000Y-119252000D01*
X69470000Y-119252000D02*
X67274000Y-119252000D01*
X65314000Y-119212000D02*
X63114000Y-119212000D01*
X69474000Y-119212000D02*
X67274000Y-119212000D01*
X65314000Y-119172000D02*
X63109000Y-119172000D01*
X69479000Y-119172000D02*
X67274000Y-119172000D01*
X65314000Y-119132000D02*
X63106000Y-119132000D01*
X69482000Y-119132000D02*
X67274000Y-119132000D01*
X69486000Y-119092000D02*
X63102000Y-119092000D01*
X69488000Y-119052000D02*
X63100000Y-119052000D01*
X69491000Y-119012000D02*
X63097000Y-119012000D01*
X69492000Y-118972000D02*
X63096000Y-118972000D01*
X69494000Y-118932000D02*
X63094000Y-118932000D01*
X69494000Y-118892000D02*
X63094000Y-118892000D01*
X69494000Y-118852000D02*
X63094000Y-118852000D01*
X40234000Y-119146000D02*
X46634000Y-119146000D01*
X40234000Y-119106000D02*
X46634000Y-119106000D01*
X40234000Y-119066000D02*
X46634000Y-119066000D01*
X40236000Y-119026000D02*
X46632000Y-119026000D01*
X40237000Y-118986000D02*
X46631000Y-118986000D01*
X40240000Y-118946000D02*
X46628000Y-118946000D01*
X40242000Y-118906000D02*
X46626000Y-118906000D01*
X40246000Y-118866000D02*
X42454000Y-118866000D01*
X44414000Y-118866000D02*
X46622000Y-118866000D01*
X40249000Y-118826000D02*
X42454000Y-118826000D01*
X44414000Y-118826000D02*
X46619000Y-118826000D01*
X40254000Y-118786000D02*
X42454000Y-118786000D01*
X44414000Y-118786000D02*
X46614000Y-118786000D01*
X40258000Y-118746000D02*
X42454000Y-118746000D01*
X44414000Y-118746000D02*
X46610000Y-118746000D01*
X40264000Y-118706000D02*
X42454000Y-118706000D01*
X44414000Y-118706000D02*
X46604000Y-118706000D01*
X40269000Y-118666000D02*
X42454000Y-118666000D01*
X44414000Y-118666000D02*
X46599000Y-118666000D01*
X40276000Y-118626000D02*
X42454000Y-118626000D01*
X44414000Y-118626000D02*
X46592000Y-118626000D01*
X40282000Y-118586000D02*
X42454000Y-118586000D01*
X44414000Y-118586000D02*
X46586000Y-118586000D01*
X40290000Y-118546000D02*
X42454000Y-118546000D01*
X44414000Y-118546000D02*
X46578000Y-118546000D01*
X40297000Y-118506000D02*
X42454000Y-118506000D01*
X44414000Y-118506000D02*
X46571000Y-118506000D01*
X40306000Y-118466000D02*
X42454000Y-118466000D01*
X44414000Y-118466000D02*
X46562000Y-118466000D01*
X40315000Y-118425000D02*
X42454000Y-118425000D01*
X44414000Y-118425000D02*
X46553000Y-118425000D01*
X40324000Y-118385000D02*
X42454000Y-118385000D01*
X44414000Y-118385000D02*
X46544000Y-118385000D01*
X40334000Y-118345000D02*
X42454000Y-118345000D01*
X44414000Y-118345000D02*
X46534000Y-118345000D01*
X40344000Y-118305000D02*
X42454000Y-118305000D01*
X44414000Y-118305000D02*
X46524000Y-118305000D01*
X40355000Y-118265000D02*
X42454000Y-118265000D01*
X44414000Y-118265000D02*
X46513000Y-118265000D01*
X40367000Y-118225000D02*
X42454000Y-118225000D01*
X44414000Y-118225000D02*
X46501000Y-118225000D01*
X40379000Y-118185000D02*
X42454000Y-118185000D01*
X44414000Y-118185000D02*
X46489000Y-118185000D01*
X40392000Y-118145000D02*
X42454000Y-118145000D01*
X44414000Y-118145000D02*
X46476000Y-118145000D01*
X40405000Y-118105000D02*
X42454000Y-118105000D01*
X44414000Y-118105000D02*
X46463000Y-118105000D01*
X40419000Y-118065000D02*
X42454000Y-118065000D01*
X44414000Y-118065000D02*
X46449000Y-118065000D01*
X40433000Y-118025000D02*
X42454000Y-118025000D01*
X44414000Y-118025000D02*
X46435000Y-118025000D01*
X40448000Y-117985000D02*
X42454000Y-117985000D01*
X44414000Y-117985000D02*
X46420000Y-117985000D01*
X40464000Y-117945000D02*
X42454000Y-117945000D01*
X44414000Y-117945000D02*
X46404000Y-117945000D01*
X40480000Y-117905000D02*
X42454000Y-117905000D01*
X44414000Y-117905000D02*
X46388000Y-117905000D01*
X40497000Y-117865000D02*
X42454000Y-117865000D01*
X44414000Y-117865000D02*
X46371000Y-117865000D01*
X40515000Y-117825000D02*
X42454000Y-117825000D01*
X44414000Y-117825000D02*
X46353000Y-117825000D01*
X40533000Y-117785000D02*
X42454000Y-117785000D01*
X44414000Y-117785000D02*
X46335000Y-117785000D01*
X40552000Y-117745000D02*
X42454000Y-117745000D01*
X44414000Y-117745000D02*
X46316000Y-117745000D01*
X40571000Y-117705000D02*
X42454000Y-117705000D01*
X44414000Y-117705000D02*
X46297000Y-117705000D01*
X40591000Y-117665000D02*
X42454000Y-117665000D01*
X44414000Y-117665000D02*
X46277000Y-117665000D01*
X40612000Y-117625000D02*
X42454000Y-117625000D01*
X44414000Y-117625000D02*
X46256000Y-117625000D01*
X40634000Y-117585000D02*
X42454000Y-117585000D01*
X44414000Y-117585000D02*
X46234000Y-117585000D01*
X40656000Y-117545000D02*
X42454000Y-117545000D01*
X44414000Y-117545000D02*
X46212000Y-117545000D01*
X40679000Y-117505000D02*
X42454000Y-117505000D01*
X44414000Y-117505000D02*
X46189000Y-117505000D01*
X40703000Y-117465000D02*
X42454000Y-117465000D01*
X44414000Y-117465000D02*
X46165000Y-117465000D01*
X40728000Y-117425000D02*
X42454000Y-117425000D01*
X44414000Y-117425000D02*
X46140000Y-117425000D01*
X40753000Y-117385000D02*
X42454000Y-117385000D01*
X44414000Y-117385000D02*
X46115000Y-117385000D01*
X40780000Y-117345000D02*
X42454000Y-117345000D01*
X44414000Y-117345000D02*
X46088000Y-117345000D01*
X40807000Y-117305000D02*
X42454000Y-117305000D01*
X44414000Y-117305000D02*
X46061000Y-117305000D01*
X40835000Y-117265000D02*
X42454000Y-117265000D01*
X44414000Y-117265000D02*
X46033000Y-117265000D01*
X40864000Y-117225000D02*
X42454000Y-117225000D01*
X44414000Y-117225000D02*
X46004000Y-117225000D01*
X40894000Y-117185000D02*
X42454000Y-117185000D01*
X44414000Y-117185000D02*
X45974000Y-117185000D01*
X40924000Y-117145000D02*
X42454000Y-117145000D01*
X44414000Y-117145000D02*
X45944000Y-117145000D01*
X40956000Y-117105000D02*
X42454000Y-117105000D01*
X44414000Y-117105000D02*
X45912000Y-117105000D01*
X40989000Y-117065000D02*
X42454000Y-117065000D01*
X44414000Y-117065000D02*
X45879000Y-117065000D01*
X41023000Y-117025000D02*
X42454000Y-117025000D01*
X44414000Y-117025000D02*
X45845000Y-117025000D01*
X41059000Y-116985000D02*
X42454000Y-116985000D01*
X44414000Y-116985000D02*
X45809000Y-116985000D01*
X41095000Y-116945000D02*
X42454000Y-116945000D01*
X44414000Y-116945000D02*
X45773000Y-116945000D01*
X41133000Y-116905000D02*
X45735000Y-116905000D01*
X41172000Y-116865000D02*
X45696000Y-116865000D01*
X41212000Y-116825000D02*
X45656000Y-116825000D01*
X41254000Y-116785000D02*
X45614000Y-116785000D01*
X41297000Y-116745000D02*
X45571000Y-116745000D01*
X41342000Y-116705000D02*
X45526000Y-116705000D01*
X41389000Y-116665000D02*
X45479000Y-116665000D01*
X41437000Y-116625000D02*
X45431000Y-116625000D01*
X41488000Y-116585000D02*
X45380000Y-116585000D01*
X41540000Y-116545000D02*
X45328000Y-116545000D01*
X41595000Y-116505000D02*
X45273000Y-116505000D01*
X41653000Y-116465000D02*
X45215000Y-116465000D01*
X41713000Y-116425000D02*
X45155000Y-116425000D01*
X41776000Y-116385000D02*
X45092000Y-116385000D01*
X41843000Y-116345000D02*
X45025000Y-116345000D01*
X41914000Y-116305000D02*
X44954000Y-116305000D01*
X41989000Y-116265000D02*
X44879000Y-116265000D01*
X42070000Y-116225000D02*
X44798000Y-116225000D01*
X42156000Y-116185000D02*
X44712000Y-116185000D01*
X42250000Y-116145000D02*
X44618000Y-116145000D01*
X42353000Y-116105000D02*
X44515000Y-116105000D01*
X42468000Y-116065000D02*
X44400000Y-116065000D01*
X42600000Y-116025000D02*
X44268000Y-116025000D01*
X42758000Y-115985000D02*
X44110000Y-115985000D01*
X42966000Y-115945000D02*
X43902000Y-115945000D01*
X43434000Y-122596000D02*
X43434000Y-121396000D01*
X42784000Y-121996000D02*
X44084000Y-121996000D01*
X42454643Y-116057560D02*
G75*
G03X42454000Y-122234236I979357J-3088440D01*
G01*
X44413357Y-116057560D02*
G75*
G02X44414000Y-122234236I-979357J-3088440D01*
G01*
X44413357Y-116057560D02*
G75*
G03X42454000Y-116057764I-979357J-3088440D01*
G01*
X34598000Y-115732000D02*
X37538000Y-115732000D01*
X34598000Y-115492000D02*
X37538000Y-115492000D01*
X34598000Y-115612000D02*
X37538000Y-115612000D01*
X36068000Y-110052000D02*
X36068000Y-111072000D01*
X36068000Y-117532000D02*
X36068000Y-116512000D01*
X34598000Y-111072000D02*
X34598000Y-116512000D01*
X37538000Y-111072000D02*
X34598000Y-111072000D01*
X37538000Y-116512000D02*
X37538000Y-111072000D01*
X34598000Y-116512000D02*
X37538000Y-116512000D01*
X72444000Y-115986000D02*
X75384000Y-115986000D01*
X72444000Y-115746000D02*
X75384000Y-115746000D01*
X72444000Y-115866000D02*
X75384000Y-115866000D01*
X73914000Y-110306000D02*
X73914000Y-111326000D01*
X73914000Y-117786000D02*
X73914000Y-116766000D01*
X72444000Y-111326000D02*
X72444000Y-116766000D01*
X75384000Y-111326000D02*
X72444000Y-111326000D01*
X75384000Y-116766000D02*
X75384000Y-111326000D01*
X72444000Y-116766000D02*
X75384000Y-116766000D01*
D13*
X21801000Y-124015500D02*
X27051000Y-124015500D01*
D12*
X21800000Y-112440000D02*
X21800000Y-122720000D01*
X21800000Y-122720000D02*
X27120000Y-122720000D01*
X27120000Y-122720000D02*
X27120000Y-109780000D01*
X27120000Y-109780000D02*
X24460000Y-109780000D01*
X24460000Y-109780000D02*
X24460000Y-112440000D01*
X24460000Y-112440000D02*
X21800000Y-112440000D01*
X21800000Y-111170000D02*
X21800000Y-109780000D01*
X21800000Y-109780000D02*
X23190000Y-109780000D01*
X39084000Y-34267539D02*
X39084000Y-33937539D01*
X32544000Y-34267539D02*
X39084000Y-34267539D01*
X32544000Y-33937539D02*
X32544000Y-34267539D01*
X39084000Y-31527539D02*
X39084000Y-31857539D01*
X32544000Y-31527539D02*
X39084000Y-31527539D01*
X32544000Y-31857539D02*
X32544000Y-31527539D01*
D14*
X70887892Y-84473747D02*
X70485725Y-83899223D01*
X70198463Y-84473747D02*
X70198463Y-83267247D01*
X70658082Y-83267247D01*
X70772987Y-83324700D01*
X70830440Y-83382152D01*
X70887892Y-83497057D01*
X70887892Y-83669414D01*
X70830440Y-83784319D01*
X70772987Y-83841771D01*
X70658082Y-83899223D01*
X70198463Y-83899223D01*
X71232606Y-83267247D02*
X71634773Y-84473747D01*
X72036940Y-83267247D01*
X73071082Y-84473747D02*
X72381654Y-84473747D01*
X72726368Y-84473747D02*
X72726368Y-83267247D01*
X72611463Y-83439604D01*
X72496559Y-83554509D01*
X72381654Y-83611961D01*
X74105225Y-83267247D02*
X73875416Y-83267247D01*
X73760511Y-83324700D01*
X73703059Y-83382152D01*
X73588154Y-83554509D01*
X73530701Y-83784319D01*
X73530701Y-84243938D01*
X73588154Y-84358842D01*
X73645606Y-84416295D01*
X73760511Y-84473747D01*
X73990320Y-84473747D01*
X74105225Y-84416295D01*
X74162678Y-84358842D01*
X74220130Y-84243938D01*
X74220130Y-83956676D01*
X74162678Y-83841771D01*
X74105225Y-83784319D01*
X73990320Y-83726866D01*
X73760511Y-83726866D01*
X73645606Y-83784319D01*
X73588154Y-83841771D01*
X73530701Y-83956676D01*
X58695892Y-84473747D02*
X58293725Y-83899223D01*
X58006463Y-84473747D02*
X58006463Y-83267247D01*
X58466082Y-83267247D01*
X58580987Y-83324700D01*
X58638440Y-83382152D01*
X58695892Y-83497057D01*
X58695892Y-83669414D01*
X58638440Y-83784319D01*
X58580987Y-83841771D01*
X58466082Y-83899223D01*
X58006463Y-83899223D01*
X59040606Y-83267247D02*
X59442773Y-84473747D01*
X59844940Y-83267247D01*
X60879082Y-84473747D02*
X60189654Y-84473747D01*
X60534368Y-84473747D02*
X60534368Y-83267247D01*
X60419463Y-83439604D01*
X60304559Y-83554509D01*
X60189654Y-83611961D01*
X61970678Y-83267247D02*
X61396154Y-83267247D01*
X61338701Y-83841771D01*
X61396154Y-83784319D01*
X61511059Y-83726866D01*
X61798320Y-83726866D01*
X61913225Y-83784319D01*
X61970678Y-83841771D01*
X62028130Y-83956676D01*
X62028130Y-84243938D01*
X61970678Y-84358842D01*
X61913225Y-84416295D01*
X61798320Y-84473747D01*
X61511059Y-84473747D01*
X61396154Y-84416295D01*
X61338701Y-84358842D01*
X46503892Y-84473747D02*
X46101725Y-83899223D01*
X45814463Y-84473747D02*
X45814463Y-83267247D01*
X46274082Y-83267247D01*
X46388987Y-83324700D01*
X46446440Y-83382152D01*
X46503892Y-83497057D01*
X46503892Y-83669414D01*
X46446440Y-83784319D01*
X46388987Y-83841771D01*
X46274082Y-83899223D01*
X45814463Y-83899223D01*
X46848606Y-83267247D02*
X47250773Y-84473747D01*
X47652940Y-83267247D01*
X48687082Y-84473747D02*
X47997654Y-84473747D01*
X48342368Y-84473747D02*
X48342368Y-83267247D01*
X48227463Y-83439604D01*
X48112559Y-83554509D01*
X47997654Y-83611961D01*
X49721225Y-83669414D02*
X49721225Y-84473747D01*
X49433963Y-83209795D02*
X49146701Y-84071580D01*
X49893582Y-84071580D01*
X34311892Y-84397547D02*
X33909725Y-83823023D01*
X33622463Y-84397547D02*
X33622463Y-83191047D01*
X34082082Y-83191047D01*
X34196987Y-83248500D01*
X34254440Y-83305952D01*
X34311892Y-83420857D01*
X34311892Y-83593214D01*
X34254440Y-83708119D01*
X34196987Y-83765571D01*
X34082082Y-83823023D01*
X33622463Y-83823023D01*
X34656606Y-83191047D02*
X35058773Y-84397547D01*
X35460940Y-83191047D01*
X36495082Y-84397547D02*
X35805654Y-84397547D01*
X36150368Y-84397547D02*
X36150368Y-83191047D01*
X36035463Y-83363404D01*
X35920559Y-83478309D01*
X35805654Y-83535761D01*
X36897249Y-83191047D02*
X37644130Y-83191047D01*
X37241963Y-83650666D01*
X37414320Y-83650666D01*
X37529225Y-83708119D01*
X37586678Y-83765571D01*
X37644130Y-83880476D01*
X37644130Y-84167738D01*
X37586678Y-84282642D01*
X37529225Y-84340095D01*
X37414320Y-84397547D01*
X37069606Y-84397547D01*
X36954701Y-84340095D01*
X36897249Y-84282642D01*
X71141892Y-65169747D02*
X70739725Y-64595223D01*
X70452463Y-65169747D02*
X70452463Y-63963247D01*
X70912082Y-63963247D01*
X71026987Y-64020700D01*
X71084440Y-64078152D01*
X71141892Y-64193057D01*
X71141892Y-64365414D01*
X71084440Y-64480319D01*
X71026987Y-64537771D01*
X70912082Y-64595223D01*
X70452463Y-64595223D01*
X71486606Y-63963247D02*
X71888773Y-65169747D01*
X72290940Y-63963247D01*
X73325082Y-65169747D02*
X72635654Y-65169747D01*
X72980368Y-65169747D02*
X72980368Y-63963247D01*
X72865463Y-64135604D01*
X72750559Y-64250509D01*
X72635654Y-64307961D01*
X73784701Y-64078152D02*
X73842154Y-64020700D01*
X73957059Y-63963247D01*
X74244320Y-63963247D01*
X74359225Y-64020700D01*
X74416678Y-64078152D01*
X74474130Y-64193057D01*
X74474130Y-64307961D01*
X74416678Y-64480319D01*
X73727249Y-65169747D01*
X74474130Y-65169747D01*
X58949892Y-65169747D02*
X58547725Y-64595223D01*
X58260463Y-65169747D02*
X58260463Y-63963247D01*
X58720082Y-63963247D01*
X58834987Y-64020700D01*
X58892440Y-64078152D01*
X58949892Y-64193057D01*
X58949892Y-64365414D01*
X58892440Y-64480319D01*
X58834987Y-64537771D01*
X58720082Y-64595223D01*
X58260463Y-64595223D01*
X59294606Y-63963247D02*
X59696773Y-65169747D01*
X60098940Y-63963247D01*
X61133082Y-65169747D02*
X60443654Y-65169747D01*
X60788368Y-65169747D02*
X60788368Y-63963247D01*
X60673463Y-64135604D01*
X60558559Y-64250509D01*
X60443654Y-64307961D01*
X62282130Y-65169747D02*
X61592701Y-65169747D01*
X61937416Y-65169747D02*
X61937416Y-63963247D01*
X61822511Y-64135604D01*
X61707606Y-64250509D01*
X61592701Y-64307961D01*
X46757892Y-65169747D02*
X46355725Y-64595223D01*
X46068463Y-65169747D02*
X46068463Y-63963247D01*
X46528082Y-63963247D01*
X46642987Y-64020700D01*
X46700440Y-64078152D01*
X46757892Y-64193057D01*
X46757892Y-64365414D01*
X46700440Y-64480319D01*
X46642987Y-64537771D01*
X46528082Y-64595223D01*
X46068463Y-64595223D01*
X47102606Y-63963247D02*
X47504773Y-65169747D01*
X47906940Y-63963247D01*
X48941082Y-65169747D02*
X48251654Y-65169747D01*
X48596368Y-65169747D02*
X48596368Y-63963247D01*
X48481463Y-64135604D01*
X48366559Y-64250509D01*
X48251654Y-64307961D01*
X49687963Y-63963247D02*
X49802868Y-63963247D01*
X49917773Y-64020700D01*
X49975225Y-64078152D01*
X50032678Y-64193057D01*
X50090130Y-64422866D01*
X50090130Y-64710128D01*
X50032678Y-64939938D01*
X49975225Y-65054842D01*
X49917773Y-65112295D01*
X49802868Y-65169747D01*
X49687963Y-65169747D01*
X49573059Y-65112295D01*
X49515606Y-65054842D01*
X49458154Y-64939938D01*
X49400701Y-64710128D01*
X49400701Y-64422866D01*
X49458154Y-64193057D01*
X49515606Y-64078152D01*
X49573059Y-64020700D01*
X49687963Y-63963247D01*
X35714940Y-65169747D02*
X35312773Y-64595223D01*
X35025511Y-65169747D02*
X35025511Y-63963247D01*
X35485130Y-63963247D01*
X35600035Y-64020700D01*
X35657487Y-64078152D01*
X35714940Y-64193057D01*
X35714940Y-64365414D01*
X35657487Y-64480319D01*
X35600035Y-64537771D01*
X35485130Y-64595223D01*
X35025511Y-64595223D01*
X36059654Y-63963247D02*
X36461820Y-65169747D01*
X36863987Y-63963247D01*
X37323606Y-65169747D02*
X37553416Y-65169747D01*
X37668320Y-65112295D01*
X37725773Y-65054842D01*
X37840678Y-64882485D01*
X37898130Y-64652676D01*
X37898130Y-64193057D01*
X37840678Y-64078152D01*
X37783225Y-64020700D01*
X37668320Y-63963247D01*
X37438511Y-63963247D01*
X37323606Y-64020700D01*
X37266154Y-64078152D01*
X37208701Y-64193057D01*
X37208701Y-64480319D01*
X37266154Y-64595223D01*
X37323606Y-64652676D01*
X37438511Y-64710128D01*
X37668320Y-64710128D01*
X37783225Y-64652676D01*
X37840678Y-64595223D01*
X37898130Y-64480319D01*
X72036940Y-45865747D02*
X71634773Y-45291223D01*
X71347511Y-45865747D02*
X71347511Y-44659247D01*
X71807130Y-44659247D01*
X71922035Y-44716700D01*
X71979487Y-44774152D01*
X72036940Y-44889057D01*
X72036940Y-45061414D01*
X71979487Y-45176319D01*
X71922035Y-45233771D01*
X71807130Y-45291223D01*
X71347511Y-45291223D01*
X72381654Y-44659247D02*
X72783820Y-45865747D01*
X73185987Y-44659247D01*
X73760511Y-45176319D02*
X73645606Y-45118866D01*
X73588154Y-45061414D01*
X73530701Y-44946509D01*
X73530701Y-44889057D01*
X73588154Y-44774152D01*
X73645606Y-44716700D01*
X73760511Y-44659247D01*
X73990320Y-44659247D01*
X74105225Y-44716700D01*
X74162678Y-44774152D01*
X74220130Y-44889057D01*
X74220130Y-44946509D01*
X74162678Y-45061414D01*
X74105225Y-45118866D01*
X73990320Y-45176319D01*
X73760511Y-45176319D01*
X73645606Y-45233771D01*
X73588154Y-45291223D01*
X73530701Y-45406128D01*
X73530701Y-45635938D01*
X73588154Y-45750842D01*
X73645606Y-45808295D01*
X73760511Y-45865747D01*
X73990320Y-45865747D01*
X74105225Y-45808295D01*
X74162678Y-45750842D01*
X74220130Y-45635938D01*
X74220130Y-45406128D01*
X74162678Y-45291223D01*
X74105225Y-45233771D01*
X73990320Y-45176319D01*
X59844940Y-45865747D02*
X59442773Y-45291223D01*
X59155511Y-45865747D02*
X59155511Y-44659247D01*
X59615130Y-44659247D01*
X59730035Y-44716700D01*
X59787487Y-44774152D01*
X59844940Y-44889057D01*
X59844940Y-45061414D01*
X59787487Y-45176319D01*
X59730035Y-45233771D01*
X59615130Y-45291223D01*
X59155511Y-45291223D01*
X60189654Y-44659247D02*
X60591820Y-45865747D01*
X60993987Y-44659247D01*
X61281249Y-44659247D02*
X62085582Y-44659247D01*
X61568511Y-45865747D01*
X47652940Y-45865747D02*
X47250773Y-45291223D01*
X46963511Y-45865747D02*
X46963511Y-44659247D01*
X47423130Y-44659247D01*
X47538035Y-44716700D01*
X47595487Y-44774152D01*
X47652940Y-44889057D01*
X47652940Y-45061414D01*
X47595487Y-45176319D01*
X47538035Y-45233771D01*
X47423130Y-45291223D01*
X46963511Y-45291223D01*
X47997654Y-44659247D02*
X48399820Y-45865747D01*
X48801987Y-44659247D01*
X49721225Y-44659247D02*
X49491416Y-44659247D01*
X49376511Y-44716700D01*
X49319059Y-44774152D01*
X49204154Y-44946509D01*
X49146701Y-45176319D01*
X49146701Y-45635938D01*
X49204154Y-45750842D01*
X49261606Y-45808295D01*
X49376511Y-45865747D01*
X49606320Y-45865747D01*
X49721225Y-45808295D01*
X49778678Y-45750842D01*
X49836130Y-45635938D01*
X49836130Y-45348676D01*
X49778678Y-45233771D01*
X49721225Y-45176319D01*
X49606320Y-45118866D01*
X49376511Y-45118866D01*
X49261606Y-45176319D01*
X49204154Y-45233771D01*
X49146701Y-45348676D01*
X35460940Y-45865747D02*
X35058773Y-45291223D01*
X34771511Y-45865747D02*
X34771511Y-44659247D01*
X35231130Y-44659247D01*
X35346035Y-44716700D01*
X35403487Y-44774152D01*
X35460940Y-44889057D01*
X35460940Y-45061414D01*
X35403487Y-45176319D01*
X35346035Y-45233771D01*
X35231130Y-45291223D01*
X34771511Y-45291223D01*
X35805654Y-44659247D02*
X36207820Y-45865747D01*
X36609987Y-44659247D01*
X37586678Y-44659247D02*
X37012154Y-44659247D01*
X36954701Y-45233771D01*
X37012154Y-45176319D01*
X37127059Y-45118866D01*
X37414320Y-45118866D01*
X37529225Y-45176319D01*
X37586678Y-45233771D01*
X37644130Y-45348676D01*
X37644130Y-45635938D01*
X37586678Y-45750842D01*
X37529225Y-45808295D01*
X37414320Y-45865747D01*
X37127059Y-45865747D01*
X37012154Y-45808295D01*
X36954701Y-45750842D01*
X72036940Y-26878318D02*
X71634773Y-26303794D01*
X71347511Y-26878318D02*
X71347511Y-25671818D01*
X71807130Y-25671818D01*
X71922035Y-25729271D01*
X71979487Y-25786723D01*
X72036940Y-25901628D01*
X72036940Y-26073985D01*
X71979487Y-26188890D01*
X71922035Y-26246342D01*
X71807130Y-26303794D01*
X71347511Y-26303794D01*
X72381654Y-25671818D02*
X72783820Y-26878318D01*
X73185987Y-25671818D01*
X74105225Y-26073985D02*
X74105225Y-26878318D01*
X73817963Y-25614366D02*
X73530701Y-26476151D01*
X74277582Y-26476151D01*
X59844940Y-26857461D02*
X59442773Y-26282937D01*
X59155511Y-26857461D02*
X59155511Y-25650961D01*
X59615130Y-25650961D01*
X59730035Y-25708414D01*
X59787487Y-25765866D01*
X59844940Y-25880771D01*
X59844940Y-26053128D01*
X59787487Y-26168033D01*
X59730035Y-26225485D01*
X59615130Y-26282937D01*
X59155511Y-26282937D01*
X60189654Y-25650961D02*
X60591820Y-26857461D01*
X60993987Y-25650961D01*
X61281249Y-25650961D02*
X62028130Y-25650961D01*
X61625963Y-26110580D01*
X61798320Y-26110580D01*
X61913225Y-26168033D01*
X61970678Y-26225485D01*
X62028130Y-26340390D01*
X62028130Y-26627652D01*
X61970678Y-26742556D01*
X61913225Y-26800009D01*
X61798320Y-26857461D01*
X61453606Y-26857461D01*
X61338701Y-26800009D01*
X61281249Y-26742556D01*
X47652940Y-26815747D02*
X47250773Y-26241223D01*
X46963511Y-26815747D02*
X46963511Y-25609247D01*
X47423130Y-25609247D01*
X47538035Y-25666700D01*
X47595487Y-25724152D01*
X47652940Y-25839057D01*
X47652940Y-26011414D01*
X47595487Y-26126319D01*
X47538035Y-26183771D01*
X47423130Y-26241223D01*
X46963511Y-26241223D01*
X47997654Y-25609247D02*
X48399820Y-26815747D01*
X48801987Y-25609247D01*
X49146701Y-25724152D02*
X49204154Y-25666700D01*
X49319059Y-25609247D01*
X49606320Y-25609247D01*
X49721225Y-25666700D01*
X49778678Y-25724152D01*
X49836130Y-25839057D01*
X49836130Y-25953961D01*
X49778678Y-26126319D01*
X49089249Y-26815747D01*
X49836130Y-26815747D01*
X35460940Y-26815747D02*
X35058773Y-26241223D01*
X34771511Y-26815747D02*
X34771511Y-25609247D01*
X35231130Y-25609247D01*
X35346035Y-25666700D01*
X35403487Y-25724152D01*
X35460940Y-25839057D01*
X35460940Y-26011414D01*
X35403487Y-26126319D01*
X35346035Y-26183771D01*
X35231130Y-26241223D01*
X34771511Y-26241223D01*
X35805654Y-25609247D02*
X36207820Y-26815747D01*
X36609987Y-25609247D01*
X37644130Y-26815747D02*
X36954701Y-26815747D01*
X37299416Y-26815747D02*
X37299416Y-25609247D01*
X37184511Y-25781604D01*
X37069606Y-25896509D01*
X36954701Y-25953961D01*
D10*
X72001142Y-90876380D02*
X71667809Y-90400190D01*
X71429714Y-90876380D02*
X71429714Y-89876380D01*
X71810666Y-89876380D01*
X71905904Y-89924000D01*
X71953523Y-89971619D01*
X72001142Y-90066857D01*
X72001142Y-90209714D01*
X71953523Y-90304952D01*
X71905904Y-90352571D01*
X71810666Y-90400190D01*
X71429714Y-90400190D01*
X72953523Y-90876380D02*
X72382095Y-90876380D01*
X72667809Y-90876380D02*
X72667809Y-89876380D01*
X72572571Y-90019238D01*
X72477333Y-90114476D01*
X72382095Y-90162095D01*
X73810666Y-89876380D02*
X73620190Y-89876380D01*
X73524952Y-89924000D01*
X73477333Y-89971619D01*
X73382095Y-90114476D01*
X73334476Y-90304952D01*
X73334476Y-90685904D01*
X73382095Y-90781142D01*
X73429714Y-90828761D01*
X73524952Y-90876380D01*
X73715428Y-90876380D01*
X73810666Y-90828761D01*
X73858285Y-90781142D01*
X73905904Y-90685904D01*
X73905904Y-90447809D01*
X73858285Y-90352571D01*
X73810666Y-90304952D01*
X73715428Y-90257333D01*
X73524952Y-90257333D01*
X73429714Y-90304952D01*
X73382095Y-90352571D01*
X73334476Y-90447809D01*
X59555142Y-90622380D02*
X59221809Y-90146190D01*
X58983714Y-90622380D02*
X58983714Y-89622380D01*
X59364666Y-89622380D01*
X59459904Y-89670000D01*
X59507523Y-89717619D01*
X59555142Y-89812857D01*
X59555142Y-89955714D01*
X59507523Y-90050952D01*
X59459904Y-90098571D01*
X59364666Y-90146190D01*
X58983714Y-90146190D01*
X60507523Y-90622380D02*
X59936095Y-90622380D01*
X60221809Y-90622380D02*
X60221809Y-89622380D01*
X60126571Y-89765238D01*
X60031333Y-89860476D01*
X59936095Y-89908095D01*
X61412285Y-89622380D02*
X60936095Y-89622380D01*
X60888476Y-90098571D01*
X60936095Y-90050952D01*
X61031333Y-90003333D01*
X61269428Y-90003333D01*
X61364666Y-90050952D01*
X61412285Y-90098571D01*
X61459904Y-90193809D01*
X61459904Y-90431904D01*
X61412285Y-90527142D01*
X61364666Y-90574761D01*
X61269428Y-90622380D01*
X61031333Y-90622380D01*
X60936095Y-90574761D01*
X60888476Y-90527142D01*
X47617142Y-90876380D02*
X47283809Y-90400190D01*
X47045714Y-90876380D02*
X47045714Y-89876380D01*
X47426666Y-89876380D01*
X47521904Y-89924000D01*
X47569523Y-89971619D01*
X47617142Y-90066857D01*
X47617142Y-90209714D01*
X47569523Y-90304952D01*
X47521904Y-90352571D01*
X47426666Y-90400190D01*
X47045714Y-90400190D01*
X48569523Y-90876380D02*
X47998095Y-90876380D01*
X48283809Y-90876380D02*
X48283809Y-89876380D01*
X48188571Y-90019238D01*
X48093333Y-90114476D01*
X47998095Y-90162095D01*
X49426666Y-90209714D02*
X49426666Y-90876380D01*
X49188571Y-89828761D02*
X48950476Y-90543047D01*
X49569523Y-90543047D01*
X35171142Y-90876380D02*
X34837809Y-90400190D01*
X34599714Y-90876380D02*
X34599714Y-89876380D01*
X34980666Y-89876380D01*
X35075904Y-89924000D01*
X35123523Y-89971619D01*
X35171142Y-90066857D01*
X35171142Y-90209714D01*
X35123523Y-90304952D01*
X35075904Y-90352571D01*
X34980666Y-90400190D01*
X34599714Y-90400190D01*
X36123523Y-90876380D02*
X35552095Y-90876380D01*
X35837809Y-90876380D02*
X35837809Y-89876380D01*
X35742571Y-90019238D01*
X35647333Y-90114476D01*
X35552095Y-90162095D01*
X36456857Y-89876380D02*
X37075904Y-89876380D01*
X36742571Y-90257333D01*
X36885428Y-90257333D01*
X36980666Y-90304952D01*
X37028285Y-90352571D01*
X37075904Y-90447809D01*
X37075904Y-90685904D01*
X37028285Y-90781142D01*
X36980666Y-90828761D01*
X36885428Y-90876380D01*
X36599714Y-90876380D01*
X36504476Y-90828761D01*
X36456857Y-90781142D01*
X72255142Y-72334380D02*
X71921809Y-71858190D01*
X71683714Y-72334380D02*
X71683714Y-71334380D01*
X72064666Y-71334380D01*
X72159904Y-71382000D01*
X72207523Y-71429619D01*
X72255142Y-71524857D01*
X72255142Y-71667714D01*
X72207523Y-71762952D01*
X72159904Y-71810571D01*
X72064666Y-71858190D01*
X71683714Y-71858190D01*
X73207523Y-72334380D02*
X72636095Y-72334380D01*
X72921809Y-72334380D02*
X72921809Y-71334380D01*
X72826571Y-71477238D01*
X72731333Y-71572476D01*
X72636095Y-71620095D01*
X73588476Y-71429619D02*
X73636095Y-71382000D01*
X73731333Y-71334380D01*
X73969428Y-71334380D01*
X74064666Y-71382000D01*
X74112285Y-71429619D01*
X74159904Y-71524857D01*
X74159904Y-71620095D01*
X74112285Y-71762952D01*
X73540857Y-72334380D01*
X74159904Y-72334380D01*
X59775541Y-72324579D02*
X59442208Y-71848389D01*
X59204113Y-72324579D02*
X59204113Y-71324579D01*
X59585065Y-71324579D01*
X59680303Y-71372199D01*
X59727922Y-71419818D01*
X59775541Y-71515056D01*
X59775541Y-71657913D01*
X59727922Y-71753151D01*
X59680303Y-71800770D01*
X59585065Y-71848389D01*
X59204113Y-71848389D01*
X60727922Y-72324579D02*
X60156494Y-72324579D01*
X60442208Y-72324579D02*
X60442208Y-71324579D01*
X60346970Y-71467437D01*
X60251732Y-71562675D01*
X60156494Y-71610294D01*
X61680303Y-72324579D02*
X61108875Y-72324579D01*
X61394589Y-72324579D02*
X61394589Y-71324579D01*
X61299351Y-71467437D01*
X61204113Y-71562675D01*
X61108875Y-71610294D01*
X47617142Y-72334380D02*
X47283809Y-71858190D01*
X47045714Y-72334380D02*
X47045714Y-71334380D01*
X47426666Y-71334380D01*
X47521904Y-71382000D01*
X47569523Y-71429619D01*
X47617142Y-71524857D01*
X47617142Y-71667714D01*
X47569523Y-71762952D01*
X47521904Y-71810571D01*
X47426666Y-71858190D01*
X47045714Y-71858190D01*
X48569523Y-72334380D02*
X47998095Y-72334380D01*
X48283809Y-72334380D02*
X48283809Y-71334380D01*
X48188571Y-71477238D01*
X48093333Y-71572476D01*
X47998095Y-71620095D01*
X49188571Y-71334380D02*
X49283809Y-71334380D01*
X49379047Y-71382000D01*
X49426666Y-71429619D01*
X49474285Y-71524857D01*
X49521904Y-71715333D01*
X49521904Y-71953428D01*
X49474285Y-72143904D01*
X49426666Y-72239142D01*
X49379047Y-72286761D01*
X49283809Y-72334380D01*
X49188571Y-72334380D01*
X49093333Y-72286761D01*
X49045714Y-72239142D01*
X48998095Y-72143904D01*
X48950476Y-71953428D01*
X48950476Y-71715333D01*
X48998095Y-71524857D01*
X49045714Y-71429619D01*
X49093333Y-71382000D01*
X49188571Y-71334380D01*
X35787033Y-72334380D02*
X35453700Y-71858190D01*
X35215604Y-72334380D02*
X35215604Y-71334380D01*
X35596557Y-71334380D01*
X35691795Y-71382000D01*
X35739414Y-71429619D01*
X35787033Y-71524857D01*
X35787033Y-71667714D01*
X35739414Y-71762952D01*
X35691795Y-71810571D01*
X35596557Y-71858190D01*
X35215604Y-71858190D01*
X36263223Y-72334380D02*
X36453700Y-72334380D01*
X36548938Y-72286761D01*
X36596557Y-72239142D01*
X36691795Y-72096285D01*
X36739414Y-71905809D01*
X36739414Y-71524857D01*
X36691795Y-71429619D01*
X36644176Y-71382000D01*
X36548938Y-71334380D01*
X36358461Y-71334380D01*
X36263223Y-71382000D01*
X36215604Y-71429619D01*
X36167985Y-71524857D01*
X36167985Y-71762952D01*
X36215604Y-71858190D01*
X36263223Y-71905809D01*
X36358461Y-71953428D01*
X36548938Y-71953428D01*
X36644176Y-71905809D01*
X36691795Y-71858190D01*
X36739414Y-71762952D01*
X72477333Y-52522380D02*
X72144000Y-52046190D01*
X71905904Y-52522380D02*
X71905904Y-51522380D01*
X72286857Y-51522380D01*
X72382095Y-51570000D01*
X72429714Y-51617619D01*
X72477333Y-51712857D01*
X72477333Y-51855714D01*
X72429714Y-51950952D01*
X72382095Y-51998571D01*
X72286857Y-52046190D01*
X71905904Y-52046190D01*
X73048761Y-51950952D02*
X72953523Y-51903333D01*
X72905904Y-51855714D01*
X72858285Y-51760476D01*
X72858285Y-51712857D01*
X72905904Y-51617619D01*
X72953523Y-51570000D01*
X73048761Y-51522380D01*
X73239238Y-51522380D01*
X73334476Y-51570000D01*
X73382095Y-51617619D01*
X73429714Y-51712857D01*
X73429714Y-51760476D01*
X73382095Y-51855714D01*
X73334476Y-51903333D01*
X73239238Y-51950952D01*
X73048761Y-51950952D01*
X72953523Y-51998571D01*
X72905904Y-52046190D01*
X72858285Y-52141428D01*
X72858285Y-52331904D01*
X72905904Y-52427142D01*
X72953523Y-52474761D01*
X73048761Y-52522380D01*
X73239238Y-52522380D01*
X73334476Y-52474761D01*
X73382095Y-52427142D01*
X73429714Y-52331904D01*
X73429714Y-52141428D01*
X73382095Y-52046190D01*
X73334476Y-51998571D01*
X73239238Y-51950952D01*
X60539333Y-52776380D02*
X60206000Y-52300190D01*
X59967904Y-52776380D02*
X59967904Y-51776380D01*
X60348857Y-51776380D01*
X60444095Y-51824000D01*
X60491714Y-51871619D01*
X60539333Y-51966857D01*
X60539333Y-52109714D01*
X60491714Y-52204952D01*
X60444095Y-52252571D01*
X60348857Y-52300190D01*
X59967904Y-52300190D01*
X60872666Y-51776380D02*
X61539333Y-51776380D01*
X61110761Y-52776380D01*
X48347333Y-52776380D02*
X48014000Y-52300190D01*
X47775904Y-52776380D02*
X47775904Y-51776380D01*
X48156857Y-51776380D01*
X48252095Y-51824000D01*
X48299714Y-51871619D01*
X48347333Y-51966857D01*
X48347333Y-52109714D01*
X48299714Y-52204952D01*
X48252095Y-52252571D01*
X48156857Y-52300190D01*
X47775904Y-52300190D01*
X49204476Y-51776380D02*
X49014000Y-51776380D01*
X48918761Y-51824000D01*
X48871142Y-51871619D01*
X48775904Y-52014476D01*
X48728285Y-52204952D01*
X48728285Y-52585904D01*
X48775904Y-52681142D01*
X48823523Y-52728761D01*
X48918761Y-52776380D01*
X49109238Y-52776380D01*
X49204476Y-52728761D01*
X49252095Y-52681142D01*
X49299714Y-52585904D01*
X49299714Y-52347809D01*
X49252095Y-52252571D01*
X49204476Y-52204952D01*
X49109238Y-52157333D01*
X48918761Y-52157333D01*
X48823523Y-52204952D01*
X48775904Y-52252571D01*
X48728285Y-52347809D01*
X35901333Y-52776380D02*
X35568000Y-52300190D01*
X35329904Y-52776380D02*
X35329904Y-51776380D01*
X35710857Y-51776380D01*
X35806095Y-51824000D01*
X35853714Y-51871619D01*
X35901333Y-51966857D01*
X35901333Y-52109714D01*
X35853714Y-52204952D01*
X35806095Y-52252571D01*
X35710857Y-52300190D01*
X35329904Y-52300190D01*
X36806095Y-51776380D02*
X36329904Y-51776380D01*
X36282285Y-52252571D01*
X36329904Y-52204952D01*
X36425142Y-52157333D01*
X36663238Y-52157333D01*
X36758476Y-52204952D01*
X36806095Y-52252571D01*
X36853714Y-52347809D01*
X36853714Y-52585904D01*
X36806095Y-52681142D01*
X36758476Y-52728761D01*
X36663238Y-52776380D01*
X36425142Y-52776380D01*
X36329904Y-52728761D01*
X36282285Y-52681142D01*
X71969333Y-32964380D02*
X71636000Y-32488190D01*
X71397904Y-32964380D02*
X71397904Y-31964380D01*
X71778857Y-31964380D01*
X71874095Y-32012000D01*
X71921714Y-32059619D01*
X71969333Y-32154857D01*
X71969333Y-32297714D01*
X71921714Y-32392952D01*
X71874095Y-32440571D01*
X71778857Y-32488190D01*
X71397904Y-32488190D01*
X72826476Y-32297714D02*
X72826476Y-32964380D01*
X72588380Y-31916761D02*
X72350285Y-32631047D01*
X72969333Y-32631047D01*
X60285333Y-33218380D02*
X59952000Y-32742190D01*
X59713904Y-33218380D02*
X59713904Y-32218380D01*
X60094857Y-32218380D01*
X60190095Y-32266000D01*
X60237714Y-32313619D01*
X60285333Y-32408857D01*
X60285333Y-32551714D01*
X60237714Y-32646952D01*
X60190095Y-32694571D01*
X60094857Y-32742190D01*
X59713904Y-32742190D01*
X60618666Y-32218380D02*
X61237714Y-32218380D01*
X60904380Y-32599333D01*
X61047238Y-32599333D01*
X61142476Y-32646952D01*
X61190095Y-32694571D01*
X61237714Y-32789809D01*
X61237714Y-33027904D01*
X61190095Y-33123142D01*
X61142476Y-33170761D01*
X61047238Y-33218380D01*
X60761523Y-33218380D01*
X60666285Y-33170761D01*
X60618666Y-33123142D01*
X48347333Y-33092893D02*
X48014000Y-32616703D01*
X47775904Y-33092893D02*
X47775904Y-32092893D01*
X48156857Y-32092893D01*
X48252095Y-32140513D01*
X48299714Y-32188132D01*
X48347333Y-32283370D01*
X48347333Y-32426227D01*
X48299714Y-32521465D01*
X48252095Y-32569084D01*
X48156857Y-32616703D01*
X47775904Y-32616703D01*
X48728285Y-32188132D02*
X48775904Y-32140513D01*
X48871142Y-32092893D01*
X49109238Y-32092893D01*
X49204476Y-32140513D01*
X49252095Y-32188132D01*
X49299714Y-32283370D01*
X49299714Y-32378608D01*
X49252095Y-32521465D01*
X48680666Y-33092893D01*
X49299714Y-33092893D01*
D14*
X21722321Y-93922547D02*
X21722321Y-92716047D01*
X22124488Y-93577833D01*
X22526655Y-92716047D01*
X22526655Y-93922547D01*
X23101179Y-92716047D02*
X23101179Y-93692738D01*
X23158631Y-93807642D01*
X23216083Y-93865095D01*
X23330988Y-93922547D01*
X23560798Y-93922547D01*
X23675702Y-93865095D01*
X23733155Y-93807642D01*
X23790607Y-93692738D01*
X23790607Y-92716047D01*
X24192774Y-92716047D02*
X24882202Y-92716047D01*
X24537488Y-93922547D02*
X24537488Y-92716047D01*
X25284369Y-93290571D02*
X25686536Y-93290571D01*
X25858893Y-93922547D02*
X25284369Y-93922547D01*
X25284369Y-92716047D01*
X25858893Y-92716047D01*
X26088702Y-94037452D02*
X27007940Y-94037452D01*
X27295202Y-93922547D02*
X27295202Y-92716047D01*
X27582464Y-92716047D01*
X27754821Y-92773500D01*
X27869726Y-92888404D01*
X27927179Y-93003309D01*
X27984631Y-93233119D01*
X27984631Y-93405476D01*
X27927179Y-93635285D01*
X27869726Y-93750190D01*
X27754821Y-93865095D01*
X27582464Y-93922547D01*
X27295202Y-93922547D01*
X29133679Y-93922547D02*
X28444250Y-93922547D01*
X28788964Y-93922547D02*
X28788964Y-92716047D01*
X28674060Y-92888404D01*
X28559155Y-93003309D01*
X28444250Y-93060761D01*
X21722321Y-74618547D02*
X21722321Y-73412047D01*
X22124488Y-74273833D01*
X22526655Y-73412047D01*
X22526655Y-74618547D01*
X23101179Y-73412047D02*
X23101179Y-74388738D01*
X23158631Y-74503642D01*
X23216083Y-74561095D01*
X23330988Y-74618547D01*
X23560798Y-74618547D01*
X23675702Y-74561095D01*
X23733155Y-74503642D01*
X23790607Y-74388738D01*
X23790607Y-73412047D01*
X24192774Y-73412047D02*
X24882202Y-73412047D01*
X24537488Y-74618547D02*
X24537488Y-73412047D01*
X25284369Y-73986571D02*
X25686536Y-73986571D01*
X25858893Y-74618547D02*
X25284369Y-74618547D01*
X25284369Y-73412047D01*
X25858893Y-73412047D01*
X26088702Y-74733452D02*
X27007940Y-74733452D01*
X27984631Y-74503642D02*
X27927179Y-74561095D01*
X27754821Y-74618547D01*
X27639917Y-74618547D01*
X27467560Y-74561095D01*
X27352655Y-74446190D01*
X27295202Y-74331285D01*
X27237750Y-74101476D01*
X27237750Y-73929119D01*
X27295202Y-73699309D01*
X27352655Y-73584404D01*
X27467560Y-73469500D01*
X27639917Y-73412047D01*
X27754821Y-73412047D01*
X27927179Y-73469500D01*
X27984631Y-73526952D01*
X29133679Y-74618547D02*
X28444250Y-74618547D01*
X28788964Y-74618547D02*
X28788964Y-73412047D01*
X28674060Y-73584404D01*
X28559155Y-73699309D01*
X28444250Y-73756761D01*
X21976321Y-55314547D02*
X21976321Y-54108047D01*
X22378488Y-54969833D01*
X22780655Y-54108047D01*
X22780655Y-55314547D01*
X23355179Y-54108047D02*
X23355179Y-55084738D01*
X23412631Y-55199642D01*
X23470083Y-55257095D01*
X23584988Y-55314547D01*
X23814798Y-55314547D01*
X23929702Y-55257095D01*
X23987155Y-55199642D01*
X24044607Y-55084738D01*
X24044607Y-54108047D01*
X24446774Y-54108047D02*
X25136202Y-54108047D01*
X24791488Y-55314547D02*
X24791488Y-54108047D01*
X25538369Y-54682571D02*
X25940536Y-54682571D01*
X26112893Y-55314547D02*
X25538369Y-55314547D01*
X25538369Y-54108047D01*
X26112893Y-54108047D01*
X26342702Y-55429452D02*
X27261940Y-55429452D01*
X27951369Y-54682571D02*
X28123726Y-54740023D01*
X28181179Y-54797476D01*
X28238631Y-54912380D01*
X28238631Y-55084738D01*
X28181179Y-55199642D01*
X28123726Y-55257095D01*
X28008821Y-55314547D01*
X27549202Y-55314547D01*
X27549202Y-54108047D01*
X27951369Y-54108047D01*
X28066274Y-54165500D01*
X28123726Y-54222952D01*
X28181179Y-54337857D01*
X28181179Y-54452761D01*
X28123726Y-54567666D01*
X28066274Y-54625119D01*
X27951369Y-54682571D01*
X27549202Y-54682571D01*
X29387679Y-55314547D02*
X28698250Y-55314547D01*
X29042964Y-55314547D02*
X29042964Y-54108047D01*
X28928060Y-54280404D01*
X28813155Y-54395309D01*
X28698250Y-54452761D01*
X21976321Y-36010547D02*
X21976321Y-34804047D01*
X22378488Y-35665833D01*
X22780655Y-34804047D01*
X22780655Y-36010547D01*
X23355179Y-34804047D02*
X23355179Y-35780738D01*
X23412631Y-35895642D01*
X23470083Y-35953095D01*
X23584988Y-36010547D01*
X23814798Y-36010547D01*
X23929702Y-35953095D01*
X23987155Y-35895642D01*
X24044607Y-35780738D01*
X24044607Y-34804047D01*
X24446774Y-34804047D02*
X25136202Y-34804047D01*
X24791488Y-36010547D02*
X24791488Y-34804047D01*
X25538369Y-35378571D02*
X25940536Y-35378571D01*
X26112893Y-36010547D02*
X25538369Y-36010547D01*
X25538369Y-34804047D01*
X26112893Y-34804047D01*
X26342702Y-36125452D02*
X27261940Y-36125452D01*
X27491750Y-35665833D02*
X28066274Y-35665833D01*
X27376845Y-36010547D02*
X27779012Y-34804047D01*
X28181179Y-36010547D01*
X29215321Y-36010547D02*
X28525893Y-36010547D01*
X28870607Y-36010547D02*
X28870607Y-34804047D01*
X28755702Y-34976404D01*
X28640798Y-35091309D01*
X28525893Y-35148761D01*
D10*
X68540380Y-102441142D02*
X68540380Y-102250666D01*
X68588000Y-102155428D01*
X68683238Y-102060190D01*
X68873714Y-102012571D01*
X69207047Y-102012571D01*
X69397523Y-102060190D01*
X69492761Y-102155428D01*
X69540380Y-102250666D01*
X69540380Y-102441142D01*
X69492761Y-102536380D01*
X69397523Y-102631619D01*
X69207047Y-102679238D01*
X68873714Y-102679238D01*
X68683238Y-102631619D01*
X68588000Y-102536380D01*
X68540380Y-102441142D01*
X68540380Y-101584000D02*
X69349904Y-101584000D01*
X69445142Y-101536380D01*
X69492761Y-101488761D01*
X69540380Y-101393523D01*
X69540380Y-101203047D01*
X69492761Y-101107809D01*
X69445142Y-101060190D01*
X69349904Y-101012571D01*
X68540380Y-101012571D01*
X68540380Y-100679238D02*
X68540380Y-100107809D01*
X69540380Y-100393523D02*
X68540380Y-100393523D01*
X69635619Y-100012571D02*
X69635619Y-99250666D01*
X68873714Y-98584000D02*
X69540380Y-98584000D01*
X68492761Y-98822095D02*
X69207047Y-99060190D01*
X69207047Y-98441142D01*
X56602380Y-102187142D02*
X56602380Y-101996666D01*
X56650000Y-101901428D01*
X56745238Y-101806190D01*
X56935714Y-101758571D01*
X57269047Y-101758571D01*
X57459523Y-101806190D01*
X57554761Y-101901428D01*
X57602380Y-101996666D01*
X57602380Y-102187142D01*
X57554761Y-102282380D01*
X57459523Y-102377619D01*
X57269047Y-102425238D01*
X56935714Y-102425238D01*
X56745238Y-102377619D01*
X56650000Y-102282380D01*
X56602380Y-102187142D01*
X56602380Y-101330000D02*
X57411904Y-101330000D01*
X57507142Y-101282380D01*
X57554761Y-101234761D01*
X57602380Y-101139523D01*
X57602380Y-100949047D01*
X57554761Y-100853809D01*
X57507142Y-100806190D01*
X57411904Y-100758571D01*
X56602380Y-100758571D01*
X56602380Y-100425238D02*
X56602380Y-99853809D01*
X57602380Y-100139523D02*
X56602380Y-100139523D01*
X57697619Y-99758571D02*
X57697619Y-98996666D01*
X56602380Y-98853809D02*
X56602380Y-98234761D01*
X56983333Y-98568095D01*
X56983333Y-98425238D01*
X57030952Y-98330000D01*
X57078571Y-98282380D01*
X57173809Y-98234761D01*
X57411904Y-98234761D01*
X57507142Y-98282380D01*
X57554761Y-98330000D01*
X57602380Y-98425238D01*
X57602380Y-98710952D01*
X57554761Y-98806190D01*
X57507142Y-98853809D01*
X44918380Y-102187142D02*
X44918380Y-101996666D01*
X44966000Y-101901428D01*
X45061238Y-101806190D01*
X45251714Y-101758571D01*
X45585047Y-101758571D01*
X45775523Y-101806190D01*
X45870761Y-101901428D01*
X45918380Y-101996666D01*
X45918380Y-102187142D01*
X45870761Y-102282380D01*
X45775523Y-102377619D01*
X45585047Y-102425238D01*
X45251714Y-102425238D01*
X45061238Y-102377619D01*
X44966000Y-102282380D01*
X44918380Y-102187142D01*
X44918380Y-101330000D02*
X45727904Y-101330000D01*
X45823142Y-101282380D01*
X45870761Y-101234761D01*
X45918380Y-101139523D01*
X45918380Y-100949047D01*
X45870761Y-100853809D01*
X45823142Y-100806190D01*
X45727904Y-100758571D01*
X44918380Y-100758571D01*
X44918380Y-100425238D02*
X44918380Y-99853809D01*
X45918380Y-100139523D02*
X44918380Y-100139523D01*
X46013619Y-99758571D02*
X46013619Y-98996666D01*
X45013619Y-98806190D02*
X44966000Y-98758571D01*
X44918380Y-98663333D01*
X44918380Y-98425238D01*
X44966000Y-98330000D01*
X45013619Y-98282380D01*
X45108857Y-98234761D01*
X45204095Y-98234761D01*
X45346952Y-98282380D01*
X45918380Y-98853809D01*
X45918380Y-98234761D01*
X32218380Y-102187142D02*
X32218380Y-101996666D01*
X32266000Y-101901428D01*
X32361238Y-101806190D01*
X32551714Y-101758571D01*
X32885047Y-101758571D01*
X33075523Y-101806190D01*
X33170761Y-101901428D01*
X33218380Y-101996666D01*
X33218380Y-102187142D01*
X33170761Y-102282380D01*
X33075523Y-102377619D01*
X32885047Y-102425238D01*
X32551714Y-102425238D01*
X32361238Y-102377619D01*
X32266000Y-102282380D01*
X32218380Y-102187142D01*
X32218380Y-101330000D02*
X33027904Y-101330000D01*
X33123142Y-101282380D01*
X33170761Y-101234761D01*
X33218380Y-101139523D01*
X33218380Y-100949047D01*
X33170761Y-100853809D01*
X33123142Y-100806190D01*
X33027904Y-100758571D01*
X32218380Y-100758571D01*
X32218380Y-100425238D02*
X32218380Y-99853809D01*
X33218380Y-100139523D02*
X32218380Y-100139523D01*
X33313619Y-99758571D02*
X33313619Y-98996666D01*
X33218380Y-98234761D02*
X33218380Y-98806190D01*
X33218380Y-98520476D02*
X32218380Y-98520476D01*
X32361238Y-98615714D01*
X32456476Y-98710952D01*
X32504095Y-98806190D01*
X22296380Y-84565714D02*
X21296380Y-84565714D01*
X22296380Y-84089523D02*
X21296380Y-84089523D01*
X22296380Y-83518095D01*
X21296380Y-83518095D01*
X22296380Y-83041904D02*
X21296380Y-83041904D01*
X21296380Y-82660952D01*
X21344000Y-82565714D01*
X21391619Y-82518095D01*
X21486857Y-82470476D01*
X21629714Y-82470476D01*
X21724952Y-82518095D01*
X21772571Y-82565714D01*
X21820190Y-82660952D01*
X21820190Y-83041904D01*
X21296380Y-82041904D02*
X22105904Y-82041904D01*
X22201142Y-81994285D01*
X22248761Y-81946666D01*
X22296380Y-81851428D01*
X22296380Y-81660952D01*
X22248761Y-81565714D01*
X22201142Y-81518095D01*
X22105904Y-81470476D01*
X21296380Y-81470476D01*
X21296380Y-81137142D02*
X21296380Y-80565714D01*
X22296380Y-80851428D02*
X21296380Y-80851428D01*
X22391619Y-80470476D02*
X22391619Y-79708571D01*
X22296380Y-79470476D02*
X21296380Y-79470476D01*
X21296380Y-79232380D01*
X21344000Y-79089523D01*
X21439238Y-78994285D01*
X21534476Y-78946666D01*
X21724952Y-78899047D01*
X21867809Y-78899047D01*
X22058285Y-78946666D01*
X22153523Y-78994285D01*
X22248761Y-79089523D01*
X22296380Y-79232380D01*
X22296380Y-79470476D01*
X22296380Y-77946666D02*
X22296380Y-78518095D01*
X22296380Y-78232380D02*
X21296380Y-78232380D01*
X21439238Y-78327619D01*
X21534476Y-78422857D01*
X21582095Y-78518095D01*
X22296380Y-65261714D02*
X21296380Y-65261714D01*
X22296380Y-64785523D02*
X21296380Y-64785523D01*
X22296380Y-64214095D01*
X21296380Y-64214095D01*
X22296380Y-63737904D02*
X21296380Y-63737904D01*
X21296380Y-63356952D01*
X21344000Y-63261714D01*
X21391619Y-63214095D01*
X21486857Y-63166476D01*
X21629714Y-63166476D01*
X21724952Y-63214095D01*
X21772571Y-63261714D01*
X21820190Y-63356952D01*
X21820190Y-63737904D01*
X21296380Y-62737904D02*
X22105904Y-62737904D01*
X22201142Y-62690285D01*
X22248761Y-62642666D01*
X22296380Y-62547428D01*
X22296380Y-62356952D01*
X22248761Y-62261714D01*
X22201142Y-62214095D01*
X22105904Y-62166476D01*
X21296380Y-62166476D01*
X21296380Y-61833142D02*
X21296380Y-61261714D01*
X22296380Y-61547428D02*
X21296380Y-61547428D01*
X22391619Y-61166476D02*
X22391619Y-60404571D01*
X22201142Y-59595047D02*
X22248761Y-59642666D01*
X22296380Y-59785523D01*
X22296380Y-59880761D01*
X22248761Y-60023619D01*
X22153523Y-60118857D01*
X22058285Y-60166476D01*
X21867809Y-60214095D01*
X21724952Y-60214095D01*
X21534476Y-60166476D01*
X21439238Y-60118857D01*
X21344000Y-60023619D01*
X21296380Y-59880761D01*
X21296380Y-59785523D01*
X21344000Y-59642666D01*
X21391619Y-59595047D01*
X22296380Y-58642666D02*
X22296380Y-59214095D01*
X22296380Y-58928380D02*
X21296380Y-58928380D01*
X21439238Y-59023619D01*
X21534476Y-59118857D01*
X21582095Y-59214095D01*
X22296380Y-45957714D02*
X21296380Y-45957714D01*
X22296380Y-45481523D02*
X21296380Y-45481523D01*
X22296380Y-44910095D01*
X21296380Y-44910095D01*
X22296380Y-44433904D02*
X21296380Y-44433904D01*
X21296380Y-44052952D01*
X21344000Y-43957714D01*
X21391619Y-43910095D01*
X21486857Y-43862476D01*
X21629714Y-43862476D01*
X21724952Y-43910095D01*
X21772571Y-43957714D01*
X21820190Y-44052952D01*
X21820190Y-44433904D01*
X21296380Y-43433904D02*
X22105904Y-43433904D01*
X22201142Y-43386285D01*
X22248761Y-43338666D01*
X22296380Y-43243428D01*
X22296380Y-43052952D01*
X22248761Y-42957714D01*
X22201142Y-42910095D01*
X22105904Y-42862476D01*
X21296380Y-42862476D01*
X21296380Y-42529142D02*
X21296380Y-41957714D01*
X22296380Y-42243428D02*
X21296380Y-42243428D01*
X22391619Y-41862476D02*
X22391619Y-41100571D01*
X21772571Y-40529142D02*
X21820190Y-40386285D01*
X21867809Y-40338666D01*
X21963047Y-40291047D01*
X22105904Y-40291047D01*
X22201142Y-40338666D01*
X22248761Y-40386285D01*
X22296380Y-40481523D01*
X22296380Y-40862476D01*
X21296380Y-40862476D01*
X21296380Y-40529142D01*
X21344000Y-40433904D01*
X21391619Y-40386285D01*
X21486857Y-40338666D01*
X21582095Y-40338666D01*
X21677333Y-40386285D01*
X21724952Y-40433904D01*
X21772571Y-40529142D01*
X21772571Y-40862476D01*
X22296380Y-39338666D02*
X22296380Y-39910095D01*
X22296380Y-39624380D02*
X21296380Y-39624380D01*
X21439238Y-39719619D01*
X21534476Y-39814857D01*
X21582095Y-39910095D01*
X22804380Y-26582285D02*
X21804380Y-26582285D01*
X22804380Y-26106095D02*
X21804380Y-26106095D01*
X22804380Y-25534666D01*
X21804380Y-25534666D01*
X22804380Y-25058476D02*
X21804380Y-25058476D01*
X21804380Y-24677523D01*
X21852000Y-24582285D01*
X21899619Y-24534666D01*
X21994857Y-24487047D01*
X22137714Y-24487047D01*
X22232952Y-24534666D01*
X22280571Y-24582285D01*
X22328190Y-24677523D01*
X22328190Y-25058476D01*
X21804380Y-24058476D02*
X22613904Y-24058476D01*
X22709142Y-24010857D01*
X22756761Y-23963238D01*
X22804380Y-23868000D01*
X22804380Y-23677523D01*
X22756761Y-23582285D01*
X22709142Y-23534666D01*
X22613904Y-23487047D01*
X21804380Y-23487047D01*
X21804380Y-23153714D02*
X21804380Y-22582285D01*
X22804380Y-22868000D02*
X21804380Y-22868000D01*
X22899619Y-22487047D02*
X22899619Y-21725142D01*
X22518666Y-21534666D02*
X22518666Y-21058476D01*
X22804380Y-21629904D02*
X21804380Y-21296571D01*
X22804380Y-20963238D01*
X22804380Y-20106095D02*
X22804380Y-20677523D01*
X22804380Y-20391809D02*
X21804380Y-20391809D01*
X21947238Y-20487047D01*
X22042476Y-20582285D01*
X22090095Y-20677523D01*
X53379809Y-103930380D02*
X53379809Y-102930380D01*
X54427428Y-103835142D02*
X54379809Y-103882761D01*
X54236952Y-103930380D01*
X54141714Y-103930380D01*
X53998857Y-103882761D01*
X53903619Y-103787523D01*
X53856000Y-103692285D01*
X53808380Y-103501809D01*
X53808380Y-103358952D01*
X53856000Y-103168476D01*
X53903619Y-103073238D01*
X53998857Y-102978000D01*
X54141714Y-102930380D01*
X54236952Y-102930380D01*
X54379809Y-102978000D01*
X54427428Y-103025619D01*
X55379809Y-103930380D02*
X54808380Y-103930380D01*
X55094095Y-103930380D02*
X55094095Y-102930380D01*
X54998857Y-103073238D01*
X54903619Y-103168476D01*
X54808380Y-103216095D01*
D15*
X68068000Y-117718666D02*
X68101333Y-117752000D01*
X68134666Y-117852000D01*
X68134666Y-117918666D01*
X68101333Y-118018666D01*
X68034666Y-118085333D01*
X67968000Y-118118666D01*
X67834666Y-118152000D01*
X67734666Y-118152000D01*
X67601333Y-118118666D01*
X67534666Y-118085333D01*
X67468000Y-118018666D01*
X67434666Y-117918666D01*
X67434666Y-117852000D01*
X67468000Y-117752000D01*
X67501333Y-117718666D01*
X67501333Y-117452000D02*
X67468000Y-117418666D01*
X67434666Y-117352000D01*
X67434666Y-117185333D01*
X67468000Y-117118666D01*
X67501333Y-117085333D01*
X67568000Y-117052000D01*
X67634666Y-117052000D01*
X67734666Y-117085333D01*
X68134666Y-117485333D01*
X68134666Y-117052000D01*
X64620000Y-118285333D02*
X65086666Y-118285333D01*
X64353333Y-118452000D02*
X64853333Y-118618666D01*
X64853333Y-118185333D01*
X65020000Y-117918666D02*
X65053333Y-117885333D01*
X65086666Y-117918666D01*
X65053333Y-117952000D01*
X65020000Y-117918666D01*
X65086666Y-117918666D01*
X64386666Y-117652000D02*
X64386666Y-117185333D01*
X65086666Y-117485333D01*
X64620000Y-116618666D02*
X65086666Y-116618666D01*
X64620000Y-116918666D02*
X64986666Y-116918666D01*
X65053333Y-116885333D01*
X65086666Y-116818666D01*
X65086666Y-116718666D01*
X65053333Y-116652000D01*
X65020000Y-116618666D01*
X42160000Y-120512666D02*
X42193333Y-120546000D01*
X42226666Y-120646000D01*
X42226666Y-120712666D01*
X42193333Y-120812666D01*
X42126666Y-120879333D01*
X42060000Y-120912666D01*
X41926666Y-120946000D01*
X41826666Y-120946000D01*
X41693333Y-120912666D01*
X41626666Y-120879333D01*
X41560000Y-120812666D01*
X41526666Y-120712666D01*
X41526666Y-120646000D01*
X41560000Y-120546000D01*
X41593333Y-120512666D01*
X42226666Y-119846000D02*
X42226666Y-120246000D01*
X42226666Y-120046000D02*
X41526666Y-120046000D01*
X41626666Y-120112666D01*
X41693333Y-120179333D01*
X41726666Y-120246000D01*
X44808000Y-121079333D02*
X45274666Y-121079333D01*
X44541333Y-121246000D02*
X45041333Y-121412666D01*
X45041333Y-120979333D01*
X45208000Y-120712666D02*
X45241333Y-120679333D01*
X45274666Y-120712666D01*
X45241333Y-120746000D01*
X45208000Y-120712666D01*
X45274666Y-120712666D01*
X44574666Y-120446000D02*
X44574666Y-119979333D01*
X45274666Y-120279333D01*
X44808000Y-119412666D02*
X45274666Y-119412666D01*
X44808000Y-119712666D02*
X45174666Y-119712666D01*
X45241333Y-119679333D01*
X45274666Y-119612666D01*
X45274666Y-119512666D01*
X45241333Y-119446000D01*
X45208000Y-119412666D01*
D10*
X32710380Y-115038095D02*
X31710380Y-115038095D01*
X31710380Y-114800000D01*
X31758000Y-114657142D01*
X31853238Y-114561904D01*
X31948476Y-114514285D01*
X32138952Y-114466666D01*
X32281809Y-114466666D01*
X32472285Y-114514285D01*
X32567523Y-114561904D01*
X32662761Y-114657142D01*
X32710380Y-114800000D01*
X32710380Y-115038095D01*
X32710380Y-113514285D02*
X32710380Y-114085714D01*
X32710380Y-113800000D02*
X31710380Y-113800000D01*
X31853238Y-113895238D01*
X31948476Y-113990476D01*
X31996095Y-114085714D01*
X34420380Y-119133904D02*
X33420380Y-119133904D01*
X34420380Y-118562476D02*
X33848952Y-118991047D01*
X33420380Y-118562476D02*
X33991809Y-119133904D01*
X70556380Y-115292095D02*
X69556380Y-115292095D01*
X69556380Y-115054000D01*
X69604000Y-114911142D01*
X69699238Y-114815904D01*
X69794476Y-114768285D01*
X69984952Y-114720666D01*
X70127809Y-114720666D01*
X70318285Y-114768285D01*
X70413523Y-114815904D01*
X70508761Y-114911142D01*
X70556380Y-115054000D01*
X70556380Y-115292095D01*
X69651619Y-114339714D02*
X69604000Y-114292095D01*
X69556380Y-114196857D01*
X69556380Y-113958761D01*
X69604000Y-113863523D01*
X69651619Y-113815904D01*
X69746857Y-113768285D01*
X69842095Y-113768285D01*
X69984952Y-113815904D01*
X70556380Y-114387333D01*
X70556380Y-113768285D01*
X72266380Y-119387904D02*
X71266380Y-119387904D01*
X72266380Y-118816476D02*
X71694952Y-119245047D01*
X71266380Y-118816476D02*
X71837809Y-119387904D01*
X27702095Y-121546928D02*
X28464000Y-121546928D01*
X29464000Y-121927880D02*
X28892571Y-121927880D01*
X29178285Y-121927880D02*
X29178285Y-120927880D01*
X29083047Y-121070738D01*
X28987809Y-121165976D01*
X28892571Y-121213595D01*
X29844952Y-121023119D02*
X29892571Y-120975500D01*
X29987809Y-120927880D01*
X30225904Y-120927880D01*
X30321142Y-120975500D01*
X30368761Y-121023119D01*
X30416380Y-121118357D01*
X30416380Y-121213595D01*
X30368761Y-121356452D01*
X29797333Y-121927880D01*
X30416380Y-121927880D01*
X30702095Y-120927880D02*
X31035428Y-121927880D01*
X31368761Y-120927880D01*
D16*
X27777428Y-124217880D02*
X27848857Y-124241690D01*
X27967904Y-124241690D01*
X28015523Y-124217880D01*
X28039333Y-124194071D01*
X28063142Y-124146452D01*
X28063142Y-124098833D01*
X28039333Y-124051214D01*
X28015523Y-124027404D01*
X27967904Y-124003595D01*
X27872666Y-123979785D01*
X27825047Y-123955976D01*
X27801238Y-123932166D01*
X27777428Y-123884547D01*
X27777428Y-123836928D01*
X27801238Y-123789309D01*
X27825047Y-123765500D01*
X27872666Y-123741690D01*
X27991714Y-123741690D01*
X28063142Y-123765500D01*
X28206000Y-123741690D02*
X28491714Y-123741690D01*
X28348857Y-124241690D02*
X28348857Y-123741690D01*
X28944095Y-124241690D02*
X28777428Y-124003595D01*
X28658380Y-124241690D02*
X28658380Y-123741690D01*
X28848857Y-123741690D01*
X28896476Y-123765500D01*
X28920285Y-123789309D01*
X28944095Y-123836928D01*
X28944095Y-123908357D01*
X28920285Y-123955976D01*
X28896476Y-123979785D01*
X28848857Y-124003595D01*
X28658380Y-124003595D01*
X29158380Y-124241690D02*
X29158380Y-123741690D01*
X29396476Y-124241690D02*
X29396476Y-123741690D01*
X29586952Y-123741690D01*
X29634571Y-123765500D01*
X29658380Y-123789309D01*
X29682190Y-123836928D01*
X29682190Y-123908357D01*
X29658380Y-123955976D01*
X29634571Y-123979785D01*
X29586952Y-124003595D01*
X29396476Y-124003595D01*
X29896476Y-123979785D02*
X30063142Y-123979785D01*
X30134571Y-124241690D02*
X29896476Y-124241690D01*
X29896476Y-123741690D01*
X30134571Y-123741690D01*
D10*
X35901333Y-33218380D02*
X35568000Y-32742190D01*
X35329904Y-33218380D02*
X35329904Y-32218380D01*
X35710857Y-32218380D01*
X35806095Y-32266000D01*
X35853714Y-32313619D01*
X35901333Y-32408857D01*
X35901333Y-32551714D01*
X35853714Y-32646952D01*
X35806095Y-32694571D01*
X35710857Y-32742190D01*
X35329904Y-32742190D01*
X36853714Y-33218380D02*
X36282285Y-33218380D01*
X36568000Y-33218380D02*
X36568000Y-32218380D01*
X36472761Y-32361238D01*
X36377523Y-32456476D01*
X36282285Y-32504095D01*
M02*
