G04 #@! TF.GenerationSoftware,KiCad,Pcbnew,(5.1.2-1)-1*
G04 #@! TF.CreationDate,2019-11-10T13:08:31+01:00*
G04 #@! TF.ProjectId,matrix-mixer,6d617472-6978-42d6-9d69-7865722e6b69,rev?*
G04 #@! TF.SameCoordinates,Original*
G04 #@! TF.FileFunction,Soldermask,Top*
G04 #@! TF.FilePolarity,Negative*
%FSLAX46Y46*%
G04 Gerber Fmt 4.6, Leading zero omitted, Abs format (unit mm)*
G04 Created by KiCad (PCBNEW (5.1.2-1)-1) date 2019-11-10 13:08:31*
%MOMM*%
%LPD*%
G04 APERTURE LIST*
%ADD10C,2.667000*%
%ADD11C,1.803400*%
%ADD12O,1.600000X1.600000*%
%ADD13C,1.600000*%
%ADD14C,1.651000*%
%ADD15C,1.800000*%
%ADD16R,1.600000X1.600000*%
%ADD17O,2.200000X2.200000*%
%ADD18R,2.200000X2.200000*%
%ADD19R,1.700000X1.700000*%
%ADD20O,1.700000X1.700000*%
G04 APERTURE END LIST*
D10*
X77038363Y-80519843D03*
X68249963Y-80519843D03*
D11*
X70104163Y-87530243D03*
X72644163Y-87530243D03*
X75184163Y-87530243D03*
X62992163Y-87530243D03*
X60452163Y-87530243D03*
X57912163Y-87530243D03*
D10*
X56057963Y-80519843D03*
X64846363Y-80519843D03*
D11*
X50800163Y-87530243D03*
X48260163Y-87530243D03*
X45720163Y-87530243D03*
D10*
X43865963Y-80519843D03*
X52654363Y-80519843D03*
X40462363Y-80443643D03*
X31673963Y-80443643D03*
D11*
X33528163Y-87454043D03*
X36068163Y-87454043D03*
X38608163Y-87454043D03*
D10*
X77292363Y-61215843D03*
X68503963Y-61215843D03*
D11*
X70358163Y-68226243D03*
X72898163Y-68226243D03*
X75438163Y-68226243D03*
X63246163Y-68226243D03*
X60706163Y-68226243D03*
X58166163Y-68226243D03*
D10*
X56311963Y-61215843D03*
X65100363Y-61215843D03*
D11*
X51054163Y-68226243D03*
X48514163Y-68226243D03*
X45974163Y-68226243D03*
D10*
X44119963Y-61215843D03*
X52908363Y-61215843D03*
X40716363Y-61215843D03*
X31927963Y-61215843D03*
D11*
X33782163Y-68226243D03*
X36322163Y-68226243D03*
X38862163Y-68226243D03*
D10*
X77038363Y-41911843D03*
X68249963Y-41911843D03*
D11*
X70104163Y-48922243D03*
X72644163Y-48922243D03*
X75184163Y-48922243D03*
X62992163Y-48922243D03*
X60452163Y-48922243D03*
X57912163Y-48922243D03*
D10*
X56057963Y-41911843D03*
X64846363Y-41911843D03*
X52654363Y-41911843D03*
X43865963Y-41911843D03*
D11*
X45720163Y-48922243D03*
X48260163Y-48922243D03*
X50800163Y-48922243D03*
X38608163Y-48922243D03*
X36068163Y-48922243D03*
X33528163Y-48922243D03*
D10*
X31673963Y-41911843D03*
X40462363Y-41911843D03*
D11*
X75184163Y-29934814D03*
X72644163Y-29934814D03*
X70104163Y-29934814D03*
D10*
X68249963Y-22924414D03*
X77038363Y-22924414D03*
X64846363Y-22903557D03*
X56057963Y-22903557D03*
D11*
X57912163Y-29913957D03*
X60452163Y-29913957D03*
X62992163Y-29913957D03*
D10*
X52654363Y-22861843D03*
X43865963Y-22861843D03*
D11*
X45720163Y-29872243D03*
X48260163Y-29872243D03*
X50800163Y-29872243D03*
X38608163Y-29872243D03*
X36068163Y-29872243D03*
X33528163Y-29872243D03*
D10*
X31673963Y-22861843D03*
X40462363Y-22861843D03*
D12*
X76454000Y-90424000D03*
D13*
X68834000Y-90424000D03*
X56388000Y-90424000D03*
D12*
X64008000Y-90424000D03*
X44450000Y-90424000D03*
D13*
X52070000Y-90424000D03*
X32258000Y-90424000D03*
D12*
X39878000Y-90424000D03*
X76454000Y-71882000D03*
D13*
X68834000Y-71882000D03*
X56642000Y-71882000D03*
D12*
X64262000Y-71882000D03*
D13*
X52324000Y-71882000D03*
D12*
X44704000Y-71882000D03*
D13*
X32143700Y-71958200D03*
D12*
X39763700Y-71958200D03*
D13*
X68834000Y-52324000D03*
D12*
X76454000Y-52324000D03*
X64262000Y-52324000D03*
D13*
X56642000Y-52324000D03*
X52324000Y-52324000D03*
D12*
X44704000Y-52324000D03*
X39878000Y-52324000D03*
D13*
X32258000Y-52324000D03*
X68326000Y-32512000D03*
D12*
X75946000Y-32512000D03*
X64516000Y-32769026D03*
D13*
X56896000Y-32769026D03*
X52324000Y-32766000D03*
D12*
X44704000Y-32766000D03*
D14*
X22860000Y-91694000D03*
X27940000Y-91694000D03*
X27940000Y-72390000D03*
X22860000Y-72390000D03*
X27940000Y-53086000D03*
X22860000Y-53086000D03*
X22860000Y-33782000D03*
X27940000Y-33782000D03*
D15*
X72644000Y-93632000D03*
X72644000Y-105032000D03*
X72644000Y-101932000D03*
X60452000Y-101678000D03*
X60452000Y-104778000D03*
X60452000Y-93378000D03*
X48260000Y-101678000D03*
X48260000Y-104778000D03*
X48260000Y-93378000D03*
X36068000Y-101678000D03*
X36068000Y-104778000D03*
X36068000Y-93378000D03*
X25400000Y-84660000D03*
X25400000Y-87760000D03*
X25400000Y-76360000D03*
X25400000Y-57056000D03*
X25400000Y-68456000D03*
X25400000Y-65356000D03*
X25400000Y-37752000D03*
X25400000Y-49152000D03*
X25400000Y-46052000D03*
X25474000Y-18640802D03*
X25474000Y-30040802D03*
X25474000Y-26940802D03*
D12*
X58166000Y-105868000D03*
X50546000Y-121108000D03*
X58166000Y-108408000D03*
X50546000Y-118568000D03*
X58166000Y-110948000D03*
X50546000Y-116028000D03*
X58166000Y-113488000D03*
X50546000Y-113488000D03*
X58166000Y-116028000D03*
X50546000Y-110948000D03*
X58166000Y-118568000D03*
X50546000Y-108408000D03*
X58166000Y-121108000D03*
D16*
X50546000Y-105868000D03*
D13*
X66294000Y-120102000D03*
D16*
X66294000Y-117602000D03*
X43434000Y-120396000D03*
D13*
X43434000Y-117896000D03*
D17*
X36068000Y-108712000D03*
D18*
X36068000Y-118872000D03*
D17*
X73914000Y-108966000D03*
D18*
X73914000Y-119126000D03*
D19*
X23190000Y-111170000D03*
D20*
X25730000Y-111170000D03*
X23190000Y-113710000D03*
X25730000Y-113710000D03*
X23190000Y-116250000D03*
X25730000Y-116250000D03*
X23190000Y-118790000D03*
X25730000Y-118790000D03*
X23190000Y-121330000D03*
X25730000Y-121330000D03*
D12*
X39624000Y-32897539D03*
D13*
X32004000Y-32897539D03*
M02*
