M48
; DRILL file {KiCad (5.1.2-1)-1} date 2019 November 10, Sunday 13:08:44
; FORMAT={-:-/ absolute / metric / decimal}
; #@! TF.CreationDate,2019-11-10T13:08:44+01:00
; #@! TF.GenerationSoftware,Kicad,Pcbnew,(5.1.2-1)-1
FMAT,2
METRIC
T1C0.800
T2C0.889
T3C1.000
T4C1.100
T5C1.600
T6C2.057
%
G90
G05
T1
X68.834Y-90.424
X76.454Y-90.424
X56.896Y-32.769
X64.516Y-32.769
X56.642Y-71.882
X64.262Y-71.882
X50.546Y-105.868
X50.546Y-108.408
X50.546Y-110.948
X50.546Y-113.488
X50.546Y-116.028
X50.546Y-118.568
X50.546Y-121.108
X58.166Y-105.868
X58.166Y-108.408
X58.166Y-110.948
X58.166Y-113.488
X58.166Y-116.028
X58.166Y-118.568
X58.166Y-121.108
X43.434Y-117.896
X43.434Y-120.396
X32.144Y-71.958
X39.764Y-71.958
X44.704Y-52.324
X52.324Y-52.324
X44.45Y-90.424
X52.07Y-90.424
X56.642Y-52.324
X64.262Y-52.324
X32.004Y-32.898
X39.624Y-32.898
X68.326Y-32.512
X75.946Y-32.512
X68.834Y-71.882
X76.454Y-71.882
X66.294Y-117.602
X66.294Y-120.102
X56.388Y-90.424
X64.008Y-90.424
X44.704Y-32.766
X52.324Y-32.766
X44.704Y-71.882
X52.324Y-71.882
X68.834Y-52.324
X76.454Y-52.324
X32.258Y-52.324
X39.878Y-52.324
X32.258Y-90.424
X39.878Y-90.424
T2
X70.104Y-29.935
X72.644Y-29.935
X75.184Y-29.935
X45.72Y-87.53
X48.26Y-87.53
X50.8Y-87.53
X70.104Y-48.922
X72.644Y-48.922
X75.184Y-48.922
X22.86Y-91.694
X27.94Y-91.694
X57.912Y-29.914
X60.452Y-29.914
X62.992Y-29.914
X70.104Y-87.53
X72.644Y-87.53
X75.184Y-87.53
X33.528Y-87.454
X36.068Y-87.454
X38.608Y-87.454
X22.86Y-53.086
X27.94Y-53.086
X70.358Y-68.226
X72.898Y-68.226
X75.438Y-68.226
X57.912Y-48.922
X60.452Y-48.922
X62.992Y-48.922
X58.166Y-68.226
X60.706Y-68.226
X63.246Y-68.226
X45.72Y-48.922
X48.26Y-48.922
X50.8Y-48.922
X45.72Y-29.872
X48.26Y-29.872
X50.8Y-29.872
X45.974Y-68.226
X48.514Y-68.226
X51.054Y-68.226
X22.86Y-72.39
X27.94Y-72.39
X33.528Y-48.922
X36.068Y-48.922
X38.608Y-48.922
X33.528Y-29.872
X36.068Y-29.872
X38.608Y-29.872
X57.912Y-87.53
X60.452Y-87.53
X62.992Y-87.53
X22.86Y-33.782
X27.94Y-33.782
X33.782Y-68.226
X36.322Y-68.226
X38.862Y-68.226
T3
X23.19Y-111.17
X23.19Y-113.71
X23.19Y-116.25
X23.19Y-118.79
X23.19Y-121.33
X25.73Y-111.17
X25.73Y-113.71
X25.73Y-116.25
X25.73Y-118.79
X25.73Y-121.33
T4
X36.068Y-108.712
X36.068Y-118.872
X73.914Y-108.966
X73.914Y-119.126
T5
X25.4Y-37.752
X25.4Y-46.052
X25.4Y-49.152
X25.474Y-18.641
X25.474Y-26.941
X25.474Y-30.041
X25.4Y-76.36
X25.4Y-84.66
X25.4Y-87.76
X25.4Y-57.056
X25.4Y-65.356
X25.4Y-68.456
X36.068Y-93.378
X36.068Y-101.678
X36.068Y-104.778
X60.452Y-93.378
X60.452Y-101.678
X60.452Y-104.778
X48.26Y-93.378
X48.26Y-101.678
X48.26Y-104.778
X72.644Y-93.632
X72.644Y-101.932
X72.644Y-105.032
T6
X68.504Y-61.216
X77.292Y-61.216
X56.058Y-41.912
X64.846Y-41.912
X56.312Y-61.216
X65.1Y-61.216
X43.866Y-41.912
X52.654Y-41.912
X43.866Y-22.862
X52.654Y-22.862
X44.12Y-61.216
X52.908Y-61.216
X31.674Y-41.912
X40.462Y-41.912
X31.674Y-22.862
X40.462Y-22.862
X56.058Y-80.52
X64.846Y-80.52
X31.928Y-61.216
X40.716Y-61.216
X68.25Y-22.924
X77.038Y-22.924
X43.866Y-80.52
X52.654Y-80.52
X68.25Y-41.912
X77.038Y-41.912
X56.058Y-22.904
X64.846Y-22.904
X68.25Y-80.52
X77.038Y-80.52
X31.674Y-80.444
X40.462Y-80.444
T0
M30
