G04 #@! TF.GenerationSoftware,KiCad,Pcbnew,(5.1.2-1)-1*
G04 #@! TF.CreationDate,2019-06-07T14:52:31+02:00*
G04 #@! TF.ProjectId,matrix-mixer-smt,6d617472-6978-42d6-9d69-7865722d736d,rev?*
G04 #@! TF.SameCoordinates,Original*
G04 #@! TF.FileFunction,Copper,L2,Bot*
G04 #@! TF.FilePolarity,Positive*
%FSLAX46Y46*%
G04 Gerber Fmt 4.6, Leading zero omitted, Abs format (unit mm)*
G04 Created by KiCad (PCBNEW (5.1.2-1)-1) date 2019-06-07 14:52:31*
%MOMM*%
%LPD*%
G04 APERTURE LIST*
%ADD10C,1.800000*%
%ADD11C,1.803400*%
%ADD12C,2.667000*%
%ADD13R,1.700000X1.700000*%
%ADD14O,1.700000X1.700000*%
%ADD15C,1.651000*%
%ADD16C,0.800000*%
%ADD17C,0.250000*%
G04 APERTURE END LIST*
D10*
X58674000Y-86012000D03*
X58674000Y-97412000D03*
X58674000Y-94312000D03*
D11*
X108712163Y-111660243D03*
X106172163Y-111660243D03*
X103632163Y-111660243D03*
D12*
X101777963Y-104649843D03*
X110566363Y-104649843D03*
X98374363Y-104649843D03*
X89585963Y-104649843D03*
D11*
X91440163Y-111660243D03*
X93980163Y-111660243D03*
X96520163Y-111660243D03*
D12*
X86182363Y-104649843D03*
X77393963Y-104649843D03*
D11*
X79248163Y-111660243D03*
X81788163Y-111660243D03*
X84328163Y-111660243D03*
X72136163Y-111584043D03*
X69596163Y-111584043D03*
X67056163Y-111584043D03*
D12*
X65201963Y-104573643D03*
X73990363Y-104573643D03*
D11*
X108712163Y-97182243D03*
X106172163Y-97182243D03*
X103632163Y-97182243D03*
D12*
X101777963Y-90171843D03*
X110566363Y-90171843D03*
X98374363Y-90171843D03*
X89585963Y-90171843D03*
D11*
X91440163Y-97182243D03*
X93980163Y-97182243D03*
X96520163Y-97182243D03*
D12*
X86182363Y-90171843D03*
X77393963Y-90171843D03*
D11*
X79248163Y-97182243D03*
X81788163Y-97182243D03*
X84328163Y-97182243D03*
X72136163Y-97182243D03*
X69596163Y-97182243D03*
X67056163Y-97182243D03*
D12*
X65201963Y-90171843D03*
X73990363Y-90171843D03*
D11*
X108458163Y-82704243D03*
X105918163Y-82704243D03*
X103378163Y-82704243D03*
D12*
X101523963Y-75693843D03*
X110312363Y-75693843D03*
X98120363Y-75693843D03*
X89331963Y-75693843D03*
D11*
X91186163Y-82704243D03*
X93726163Y-82704243D03*
X96266163Y-82704243D03*
X84074163Y-82704243D03*
X81534163Y-82704243D03*
X78994163Y-82704243D03*
D12*
X77139963Y-75693843D03*
X85928363Y-75693843D03*
X73736363Y-75693843D03*
X64947963Y-75693843D03*
D11*
X66802163Y-82704243D03*
X69342163Y-82704243D03*
X71882163Y-82704243D03*
D12*
X110312363Y-61278414D03*
X101523963Y-61278414D03*
D11*
X103378163Y-68288814D03*
X105918163Y-68288814D03*
X108458163Y-68288814D03*
X96266163Y-68288814D03*
X93726163Y-68288814D03*
X91186163Y-68288814D03*
D12*
X89331963Y-61278414D03*
X98120363Y-61278414D03*
D11*
X84074163Y-68288814D03*
X81534163Y-68288814D03*
X78994163Y-68288814D03*
D12*
X77139963Y-61278414D03*
X85928363Y-61278414D03*
X73736363Y-61278414D03*
X64947963Y-61278414D03*
D11*
X66802163Y-68288814D03*
X69342163Y-68288814D03*
X71882163Y-68288814D03*
D10*
X105918000Y-132920000D03*
X105918000Y-136020000D03*
X105918000Y-124620000D03*
X93726000Y-124366000D03*
X93726000Y-135766000D03*
X93726000Y-132666000D03*
X81534000Y-124366000D03*
X81534000Y-135766000D03*
X81534000Y-132666000D03*
X69342000Y-124366000D03*
X69342000Y-135766000D03*
X69342000Y-132666000D03*
X58928000Y-108790000D03*
X58928000Y-111890000D03*
X58928000Y-100490000D03*
X58674000Y-71534000D03*
X58674000Y-82934000D03*
X58674000Y-79834000D03*
X58748000Y-56890514D03*
X58748000Y-68290514D03*
X58748000Y-65190514D03*
D13*
X56464000Y-149524000D03*
D14*
X59004000Y-149524000D03*
X56464000Y-152064000D03*
X59004000Y-152064000D03*
X56464000Y-154604000D03*
X59004000Y-154604000D03*
X56464000Y-157144000D03*
X59004000Y-157144000D03*
X56464000Y-159684000D03*
X59004000Y-159684000D03*
D15*
X67056000Y-118872000D03*
X69596000Y-118872000D03*
X72136000Y-118872000D03*
X84328000Y-118872000D03*
X81788000Y-118872000D03*
X79248000Y-118872000D03*
X91440000Y-118872000D03*
X93980000Y-118872000D03*
X96520000Y-118872000D03*
X108712000Y-118618000D03*
X106172000Y-118618000D03*
X103632000Y-118618000D03*
D16*
X90424000Y-152908000D03*
X79502000Y-157226000D03*
X89916000Y-157226000D03*
X79502000Y-153416000D03*
X89916000Y-150622000D03*
X79502000Y-158496000D03*
X89916000Y-159766000D03*
X80264000Y-149860000D03*
D17*
X94951001Y-148380999D02*
X90424000Y-152908000D01*
X94951001Y-119843001D02*
X94951001Y-148380999D01*
X93980000Y-118872000D02*
X94951001Y-119843001D01*
X70866000Y-148590000D02*
X79502000Y-157226000D01*
X70866000Y-120142000D02*
X70866000Y-148590000D01*
X69596000Y-118872000D02*
X70866000Y-120142000D01*
X104242989Y-142899011D02*
X89916000Y-157226000D01*
X104242989Y-120547011D02*
X104242989Y-142899011D01*
X106172000Y-118618000D02*
X104242989Y-120547011D01*
X79502000Y-121158000D02*
X79502000Y-153416000D01*
X81788000Y-118872000D02*
X79502000Y-121158000D01*
X58748000Y-60234651D02*
X66802163Y-68288814D01*
X58748000Y-56890514D02*
X58748000Y-60234651D01*
X78092464Y-67387115D02*
X78994163Y-68288814D01*
X77767462Y-67062113D02*
X78092464Y-67387115D01*
X68028864Y-67062113D02*
X77767462Y-67062113D01*
X66802163Y-68288814D02*
X68028864Y-67062113D01*
X90284464Y-67387115D02*
X91186163Y-68288814D01*
X80220864Y-67062113D02*
X89959462Y-67062113D01*
X89959462Y-67062113D02*
X90284464Y-67387115D01*
X78994163Y-68288814D02*
X80220864Y-67062113D01*
X102476464Y-67387115D02*
X103378163Y-68288814D01*
X92412864Y-67062113D02*
X102151462Y-67062113D01*
X102151462Y-67062113D02*
X102476464Y-67387115D01*
X91186163Y-68288814D02*
X92412864Y-67062113D01*
X58674000Y-74576080D02*
X66802163Y-82704243D01*
X58674000Y-71534000D02*
X58674000Y-74576080D01*
X78092464Y-81802544D02*
X78994163Y-82704243D01*
X68028864Y-81477542D02*
X77767462Y-81477542D01*
X77767462Y-81477542D02*
X78092464Y-81802544D01*
X66802163Y-82704243D02*
X68028864Y-81477542D01*
X90284464Y-81802544D02*
X91186163Y-82704243D01*
X89959462Y-81477542D02*
X90284464Y-81802544D01*
X83485346Y-81477542D02*
X89959462Y-81477542D01*
X83428888Y-81534000D02*
X83485346Y-81477542D01*
X83058000Y-81534000D02*
X83428888Y-81534000D01*
X83001542Y-81477542D02*
X83058000Y-81534000D01*
X80220864Y-81477542D02*
X83001542Y-81477542D01*
X78994163Y-82704243D02*
X80220864Y-81477542D01*
X102476464Y-81802544D02*
X103378163Y-82704243D01*
X92412864Y-81477542D02*
X102151462Y-81477542D01*
X102151462Y-81477542D02*
X102476464Y-81802544D01*
X91186163Y-82704243D02*
X92412864Y-81477542D01*
X58674000Y-88800080D02*
X67056163Y-97182243D01*
X58674000Y-86012000D02*
X58674000Y-88800080D01*
X78346464Y-96280544D02*
X79248163Y-97182243D01*
X78021462Y-95955542D02*
X78346464Y-96280544D01*
X68282864Y-95955542D02*
X78021462Y-95955542D01*
X67056163Y-97182243D02*
X68282864Y-95955542D01*
X90538464Y-96280544D02*
X91440163Y-97182243D01*
X90213462Y-95955542D02*
X90538464Y-96280544D01*
X80474864Y-95955542D02*
X90213462Y-95955542D01*
X79248163Y-97182243D02*
X80474864Y-95955542D01*
X102730464Y-96280544D02*
X103632163Y-97182243D01*
X102405462Y-95955542D02*
X102730464Y-96280544D01*
X92666864Y-95955542D02*
X102405462Y-95955542D01*
X91440163Y-97182243D02*
X92666864Y-95955542D01*
X58928000Y-103455880D02*
X67056163Y-111584043D01*
X58928000Y-100490000D02*
X58928000Y-103455880D01*
X78346464Y-110758544D02*
X79248163Y-111660243D01*
X77945262Y-110357342D02*
X78346464Y-110758544D01*
X68282864Y-110357342D02*
X77945262Y-110357342D01*
X67056163Y-111584043D02*
X68282864Y-110357342D01*
X90538464Y-110758544D02*
X91440163Y-111660243D01*
X90213462Y-110433542D02*
X90538464Y-110758544D01*
X80474864Y-110433542D02*
X90213462Y-110433542D01*
X79248163Y-111660243D02*
X80474864Y-110433542D01*
X102405462Y-110433542D02*
X102730464Y-110758544D01*
X102730464Y-110758544D02*
X103632163Y-111660243D01*
X92666864Y-110433542D02*
X102405462Y-110433542D01*
X91440163Y-111660243D02*
X92666864Y-110433542D01*
X89916000Y-134662998D02*
X89916000Y-150622000D01*
X89916000Y-128176000D02*
X89916000Y-134662998D01*
X93726000Y-124366000D02*
X89916000Y-128176000D01*
X68116999Y-147110999D02*
X79502000Y-158496000D01*
X68116999Y-125591001D02*
X68116999Y-147110999D01*
X69342000Y-124366000D02*
X68116999Y-125591001D01*
X104692999Y-144989001D02*
X89916000Y-159766000D01*
X104692999Y-125845001D02*
X104692999Y-144989001D01*
X105918000Y-124620000D02*
X104692999Y-125845001D01*
X80308999Y-125591001D02*
X80308999Y-149815001D01*
X80308999Y-149815001D02*
X80264000Y-149860000D01*
X81534000Y-124366000D02*
X80308999Y-125591001D01*
M02*
