G04 #@! TF.GenerationSoftware,KiCad,Pcbnew,(5.1.2-1)-1*
G04 #@! TF.CreationDate,2019-06-06T19:27:32+02:00*
G04 #@! TF.ProjectId,matrix-mixer,6d617472-6978-42d6-9d69-7865722e6b69,rev?*
G04 #@! TF.SameCoordinates,Original*
G04 #@! TF.FileFunction,Soldermask,Bot*
G04 #@! TF.FilePolarity,Negative*
%FSLAX46Y46*%
G04 Gerber Fmt 4.6, Leading zero omitted, Abs format (unit mm)*
G04 Created by KiCad (PCBNEW (5.1.2-1)-1) date 2019-06-06 19:27:32*
%MOMM*%
%LPD*%
G04 APERTURE LIST*
%ADD10C,2.667000*%
%ADD11C,1.803400*%
%ADD12O,1.600000X1.600000*%
%ADD13C,1.600000*%
%ADD14C,1.651000*%
%ADD15C,1.800000*%
%ADD16R,1.600000X1.600000*%
%ADD17O,2.200000X2.200000*%
%ADD18R,2.200000X2.200000*%
%ADD19R,1.700000X1.700000*%
%ADD20O,1.700000X1.700000*%
G04 APERTURE END LIST*
D10*
X47066363Y-57913843D03*
X38277963Y-57913843D03*
D11*
X40132163Y-64924243D03*
X42672163Y-64924243D03*
X45212163Y-64924243D03*
X33020163Y-64924243D03*
X30480163Y-64924243D03*
X27940163Y-64924243D03*
D10*
X26085963Y-57913843D03*
X34874363Y-57913843D03*
D11*
X20828163Y-64924243D03*
X18288163Y-64924243D03*
X15748163Y-64924243D03*
D10*
X13893963Y-57913843D03*
X22682363Y-57913843D03*
X10490363Y-57837643D03*
X1701963Y-57837643D03*
D11*
X3556163Y-64848043D03*
X6096163Y-64848043D03*
X8636163Y-64848043D03*
D10*
X47320363Y-38609843D03*
X38531963Y-38609843D03*
D11*
X40386163Y-45620243D03*
X42926163Y-45620243D03*
X45466163Y-45620243D03*
X33274163Y-45620243D03*
X30734163Y-45620243D03*
X28194163Y-45620243D03*
D10*
X26339963Y-38609843D03*
X35128363Y-38609843D03*
D11*
X21082163Y-45620243D03*
X18542163Y-45620243D03*
X16002163Y-45620243D03*
D10*
X14147963Y-38609843D03*
X22936363Y-38609843D03*
X10744363Y-38609843D03*
X1955963Y-38609843D03*
D11*
X3810163Y-45620243D03*
X6350163Y-45620243D03*
X8890163Y-45620243D03*
D10*
X47066363Y-19305843D03*
X38277963Y-19305843D03*
D11*
X40132163Y-26316243D03*
X42672163Y-26316243D03*
X45212163Y-26316243D03*
X33020163Y-26316243D03*
X30480163Y-26316243D03*
X27940163Y-26316243D03*
D10*
X26085963Y-19305843D03*
X34874363Y-19305843D03*
X22682363Y-19305843D03*
X13893963Y-19305843D03*
D11*
X15748163Y-26316243D03*
X18288163Y-26316243D03*
X20828163Y-26316243D03*
X8636163Y-26316243D03*
X6096163Y-26316243D03*
X3556163Y-26316243D03*
D10*
X1701963Y-19305843D03*
X10490363Y-19305843D03*
D11*
X45212163Y-7328814D03*
X42672163Y-7328814D03*
X40132163Y-7328814D03*
D10*
X38277963Y-318414D03*
X47066363Y-318414D03*
X34874363Y-297557D03*
X26085963Y-297557D03*
D11*
X27940163Y-7307957D03*
X30480163Y-7307957D03*
X33020163Y-7307957D03*
D10*
X22682363Y-255843D03*
X13893963Y-255843D03*
D11*
X15748163Y-7266243D03*
X18288163Y-7266243D03*
X20828163Y-7266243D03*
X8636163Y-7266243D03*
X6096163Y-7266243D03*
X3556163Y-7266243D03*
D10*
X1701963Y-255843D03*
X10490363Y-255843D03*
D12*
X46482000Y-67818000D03*
D13*
X38862000Y-67818000D03*
X26416000Y-67818000D03*
D12*
X34036000Y-67818000D03*
X14478000Y-67818000D03*
D13*
X22098000Y-67818000D03*
X2286000Y-67818000D03*
D12*
X9906000Y-67818000D03*
X46482000Y-49276000D03*
D13*
X38862000Y-49276000D03*
X26670000Y-49276000D03*
D12*
X34290000Y-49276000D03*
D13*
X22352000Y-49276000D03*
D12*
X14732000Y-49276000D03*
D13*
X2171700Y-49352200D03*
D12*
X9791700Y-49352200D03*
D13*
X38862000Y-29718000D03*
D12*
X46482000Y-29718000D03*
X34290000Y-29718000D03*
D13*
X26670000Y-29718000D03*
X22352000Y-29718000D03*
D12*
X14732000Y-29718000D03*
X9906000Y-29718000D03*
D13*
X2286000Y-29718000D03*
X38354000Y-9906000D03*
D12*
X45974000Y-9906000D03*
X34544000Y-10163026D03*
D13*
X26924000Y-10163026D03*
X22352000Y-10160000D03*
D12*
X14732000Y-10160000D03*
D14*
X-7112000Y-69088000D03*
X-2032000Y-69088000D03*
X-2032000Y-49784000D03*
X-7112000Y-49784000D03*
X-2032000Y-30480000D03*
X-7112000Y-30480000D03*
X-7112000Y-11176000D03*
X-2032000Y-11176000D03*
D15*
X42672000Y-71026000D03*
X42672000Y-82426000D03*
X42672000Y-79326000D03*
X30480000Y-79072000D03*
X30480000Y-82172000D03*
X30480000Y-70772000D03*
X18288000Y-79072000D03*
X18288000Y-82172000D03*
X18288000Y-70772000D03*
X6096000Y-79072000D03*
X6096000Y-82172000D03*
X6096000Y-70772000D03*
X-4572000Y-62054000D03*
X-4572000Y-65154000D03*
X-4572000Y-53754000D03*
X-4572000Y-34450000D03*
X-4572000Y-45850000D03*
X-4572000Y-42750000D03*
X-4572000Y-15146000D03*
X-4572000Y-26546000D03*
X-4572000Y-23446000D03*
X-4498000Y3965198D03*
X-4498000Y-7434802D03*
X-4498000Y-4334802D03*
D12*
X28194000Y-83262000D03*
X20574000Y-98502000D03*
X28194000Y-85802000D03*
X20574000Y-95962000D03*
X28194000Y-88342000D03*
X20574000Y-93422000D03*
X28194000Y-90882000D03*
X20574000Y-90882000D03*
X28194000Y-93422000D03*
X20574000Y-88342000D03*
X28194000Y-95962000D03*
X20574000Y-85802000D03*
X28194000Y-98502000D03*
D16*
X20574000Y-83262000D03*
D13*
X36322000Y-97496000D03*
D16*
X36322000Y-94996000D03*
X13462000Y-97790000D03*
D13*
X13462000Y-95290000D03*
D17*
X6096000Y-86106000D03*
D18*
X6096000Y-96266000D03*
D17*
X43942000Y-86360000D03*
D18*
X43942000Y-96520000D03*
D19*
X-6782000Y-88564000D03*
D20*
X-4242000Y-88564000D03*
X-6782000Y-91104000D03*
X-4242000Y-91104000D03*
X-6782000Y-93644000D03*
X-4242000Y-93644000D03*
X-6782000Y-96184000D03*
X-4242000Y-96184000D03*
X-6782000Y-98724000D03*
X-4242000Y-98724000D03*
D12*
X9652000Y-10291539D03*
D13*
X2032000Y-10291539D03*
M02*
