M48
; DRILL file {KiCad (5.1.2-1)-1} date 2019 June 07, Friday 14:52:36
; FORMAT={-:-/ absolute / inch / decimal}
; #@! TF.CreationDate,2019-06-07T14:52:36+02:00
; #@! TF.GenerationSoftware,Kicad,Pcbnew,(5.1.2-1)-1
FMAT,2
INCH
T1C0.0157
T2C0.0350
T3C0.0394
T4C0.0630
T5C0.0810
%
G90
G05
T1
X3.13Y-6.04
X3.13Y-6.19
X3.13Y-6.24
X3.16Y-5.9
X3.54Y-5.93
X3.54Y-6.19
X3.54Y-6.29
X3.56Y-6.02
T2
X3.59Y-2.6885
X3.69Y-2.6885
X3.79Y-2.6885
X4.07Y-3.2561
X4.17Y-3.2561
X4.27Y-3.2561
X2.64Y-4.3931
X2.74Y-4.3931
X2.84Y-4.3931
X3.6Y-4.68
X3.7Y-4.68
X3.8Y-4.68
X4.08Y-4.3961
X4.18Y-4.3961
X4.28Y-4.3961
X2.64Y-4.68
X2.74Y-4.68
X2.84Y-4.68
X3.12Y-4.68
X3.22Y-4.68
X3.32Y-4.68
X4.08Y-3.8261
X4.18Y-3.8261
X4.28Y-3.8261
X3.11Y-2.6885
X3.21Y-2.6885
X3.31Y-2.6885
X3.6Y-3.8261
X3.7Y-3.8261
X3.8Y-3.8261
X4.08Y-4.67
X4.18Y-4.67
X4.28Y-4.67
X3.59Y-3.2561
X3.69Y-3.2561
X3.79Y-3.2561
X3.12Y-3.8261
X3.22Y-3.8261
X3.32Y-3.8261
X2.63Y-3.2561
X2.73Y-3.2561
X2.83Y-3.2561
X2.63Y-2.6885
X2.73Y-2.6885
X2.83Y-2.6885
X3.11Y-3.2561
X3.21Y-3.2561
X3.31Y-3.2561
X3.6Y-4.3961
X3.7Y-4.3961
X3.8Y-4.3961
X4.07Y-2.6885
X4.17Y-2.6885
X4.27Y-2.6885
X2.64Y-3.8261
X2.74Y-3.8261
X2.84Y-3.8261
X3.12Y-4.3961
X3.22Y-4.3961
X3.32Y-4.3961
T3
X2.223Y-5.8868
X2.223Y-5.9868
X2.223Y-6.0868
X2.223Y-6.1868
X2.223Y-6.2868
X2.323Y-5.8868
X2.323Y-5.9868
X2.323Y-6.0868
X2.323Y-6.1868
X2.323Y-6.2868
T4
X3.69Y-5.3451
X4.17Y-4.9063
X4.17Y-5.2331
X4.17Y-5.3551
X2.31Y-2.8163
X2.31Y-3.1431
X2.31Y-3.2651
X2.3129Y-2.2398
X2.3129Y-2.5666
X2.3129Y-2.6886
X2.32Y-3.9563
X2.31Y-3.3863
X2.31Y-3.7131
X2.31Y-3.8351
X3.69Y-4.8963
X3.69Y-5.2231
X3.21Y-4.8963
X3.21Y-5.2231
X3.21Y-5.3451
X2.73Y-4.8963
X2.73Y-5.2231
X2.73Y-5.3451
X2.32Y-4.2831
X2.32Y-4.4051
T5
X2.567Y-4.1171
X2.913Y-4.1171
X4.007Y-4.1201
X4.353Y-4.1201
X4.007Y-3.5501
X4.353Y-3.5501
X3.037Y-2.4125
X3.383Y-2.4125
X3.527Y-3.5501
X3.873Y-3.5501
X3.517Y-2.9801
X3.863Y-2.9801
X3.047Y-3.5501
X3.393Y-3.5501
X2.557Y-2.9801
X2.903Y-2.9801
X2.557Y-2.4125
X2.903Y-2.4125
X3.037Y-2.9801
X3.383Y-2.9801
X3.527Y-4.1201
X3.873Y-4.1201
X3.997Y-2.4125
X4.343Y-2.4125
X2.567Y-3.5501
X2.913Y-3.5501
X3.047Y-4.1201
X3.393Y-4.1201
X3.517Y-2.4125
X3.863Y-2.4125
X3.997Y-2.9801
X4.343Y-2.9801
T0
M30
