M48
; DRILL file {KiCad (5.1.2-1)-1} date 2019 June 06, Thursday 19:27:26
; FORMAT={-:-/ absolute / inch / decimal}
; #@! TF.CreationDate,2019-06-06T19:27:26+02:00
; #@! TF.GenerationSoftware,Kicad,Pcbnew,(5.1.2-1)-1
FMAT,2
INCH
T1C0.0315
T2C0.0350
T3C0.0394
T4C0.0433
T5C0.0630
T6C0.0810
%
G90
G05
T1
X0.81Y-3.278
X0.81Y-3.378
X0.81Y-3.478
X0.81Y-3.578
X0.81Y-3.678
X0.81Y-3.778
X0.81Y-3.878
X1.11Y-3.278
X1.11Y-3.378
X1.11Y-3.478
X1.11Y-3.578
X1.11Y-3.678
X1.11Y-3.778
X1.11Y-3.878
X0.08Y-0.4052
X0.38Y-0.4052
X0.09Y-2.67
X0.39Y-2.67
X0.58Y-1.94
X0.88Y-1.94
X1.05Y-1.17
X1.35Y-1.17
X1.51Y-0.39
X1.81Y-0.39
X1.04Y-2.67
X1.34Y-2.67
X1.43Y-3.74
X1.43Y-3.8384
X1.53Y-1.94
X1.83Y-1.94
X0.58Y-1.17
X0.88Y-1.17
X0.0855Y-1.943
X0.3855Y-1.943
X0.57Y-2.67
X0.87Y-2.67
X1.06Y-0.4001
X1.36Y-0.4001
X0.53Y-3.7516
X0.53Y-3.85
X1.53Y-1.17
X1.83Y-1.17
X0.58Y-0.4
X0.88Y-0.4
X1.05Y-1.94
X1.35Y-1.94
X1.53Y-2.67
X1.83Y-2.67
X0.09Y-1.17
X0.39Y-1.17
T2
X1.58Y-0.2885
X1.68Y-0.2885
X1.78Y-0.2885
X0.14Y-1.0361
X0.24Y-1.0361
X0.34Y-1.0361
X1.58Y-1.0361
X1.68Y-1.0361
X1.78Y-1.0361
X0.14Y-0.2861
X0.24Y-0.2861
X0.34Y-0.2861
X1.1Y-1.0361
X1.2Y-1.0361
X1.3Y-1.0361
X0.15Y-1.7961
X0.25Y-1.7961
X0.35Y-1.7961
X0.62Y-0.2861
X0.72Y-0.2861
X0.82Y-0.2861
X-0.28Y-1.2
X-0.08Y-1.2
X1.59Y-1.7961
X1.69Y-1.7961
X1.79Y-1.7961
X-0.28Y-2.72
X-0.08Y-2.72
X0.63Y-1.7961
X0.73Y-1.7961
X0.83Y-1.7961
X0.14Y-2.5531
X0.24Y-2.5531
X0.34Y-2.5531
X1.11Y-1.7961
X1.21Y-1.7961
X1.31Y-1.7961
X0.62Y-2.5561
X0.72Y-2.5561
X0.82Y-2.5561
X1.1Y-2.5561
X1.2Y-2.5561
X1.3Y-2.5561
X1.1Y-0.2877
X1.2Y-0.2877
X1.3Y-0.2877
X-0.28Y-1.96
X-0.08Y-1.96
X-0.28Y-0.44
X-0.08Y-0.44
X0.62Y-1.0361
X0.72Y-1.0361
X0.82Y-1.0361
X1.58Y-2.5561
X1.68Y-2.5561
X1.78Y-2.5561
T3
X-0.267Y-3.4868
X-0.267Y-3.5868
X-0.267Y-3.6868
X-0.267Y-3.7868
X-0.267Y-3.8868
X-0.167Y-3.4868
X-0.167Y-3.5868
X-0.167Y-3.6868
X-0.167Y-3.7868
X-0.167Y-3.8868
T4
X1.73Y-3.4
X1.73Y-3.8
X0.24Y-3.39
X0.24Y-3.79
T5
X-0.18Y-1.3563
X-0.18Y-1.6831
X-0.18Y-1.8051
X-0.18Y-2.1163
X-0.18Y-2.4431
X-0.18Y-2.5651
X-0.18Y-0.5963
X-0.18Y-0.9231
X-0.18Y-1.0451
X-0.1771Y0.1561
X-0.1771Y-0.1707
X-0.1771Y-0.2927
X0.24Y-2.7863
X0.24Y-3.1131
X0.24Y-3.2351
X1.68Y-2.7963
X1.68Y-3.1231
X1.68Y-3.2451
X1.2Y-2.7863
X1.2Y-3.1131
X1.2Y-3.2351
X0.72Y-2.7863
X0.72Y-3.1131
X0.72Y-3.2351
T6
X0.557Y-1.5201
X0.903Y-1.5201
X0.067Y-2.2771
X0.413Y-2.2771
X1.037Y-1.5201
X1.383Y-1.5201
X0.547Y-2.2801
X0.893Y-2.2801
X1.027Y-2.2801
X1.373Y-2.2801
X1.027Y-0.0117
X1.373Y-0.0117
X0.547Y-0.7601
X0.893Y-0.7601
X1.507Y-2.2801
X1.853Y-2.2801
X1.507Y-0.0125
X1.853Y-0.0125
X0.067Y-0.7601
X0.413Y-0.7601
X1.507Y-0.7601
X1.853Y-0.7601
X0.067Y-0.0101
X0.413Y-0.0101
X1.027Y-0.7601
X1.373Y-0.7601
X0.077Y-1.5201
X0.423Y-1.5201
X0.547Y-0.0101
X0.893Y-0.0101
X1.517Y-1.5201
X1.863Y-1.5201
T0
M30
