G04 #@! TF.GenerationSoftware,KiCad,Pcbnew,(5.1.2-1)-1*
G04 #@! TF.CreationDate,2020-01-19T15:05:30+01:00*
G04 #@! TF.ProjectId,matrix-mixer,6d617472-6978-42d6-9d69-7865722e6b69,rev?*
G04 #@! TF.SameCoordinates,Original*
G04 #@! TF.FileFunction,Legend,Top*
G04 #@! TF.FilePolarity,Positive*
%FSLAX46Y46*%
G04 Gerber Fmt 4.6, Leading zero omitted, Abs format (unit mm)*
G04 Created by KiCad (PCBNEW (5.1.2-1)-1) date 2020-01-19 15:05:30*
%MOMM*%
%LPD*%
G04 APERTURE LIST*
%ADD10C,0.150000*%
%ADD11C,0.120000*%
%ADD12C,0.500000*%
%ADD13C,0.127000*%
%ADD14C,0.100000*%
%ADD15C,0.152400*%
G04 APERTURE END LIST*
D10*
X23884190Y-88972380D02*
X23884190Y-87972380D01*
X24217523Y-88686666D01*
X24550857Y-87972380D01*
X24550857Y-88972380D01*
X25455619Y-88972380D02*
X25455619Y-88448571D01*
X25408000Y-88353333D01*
X25312761Y-88305714D01*
X25122285Y-88305714D01*
X25027047Y-88353333D01*
X25455619Y-88924761D02*
X25360380Y-88972380D01*
X25122285Y-88972380D01*
X25027047Y-88924761D01*
X24979428Y-88829523D01*
X24979428Y-88734285D01*
X25027047Y-88639047D01*
X25122285Y-88591428D01*
X25360380Y-88591428D01*
X25455619Y-88543809D01*
X25788952Y-88305714D02*
X26169904Y-88305714D01*
X25931809Y-87972380D02*
X25931809Y-88829523D01*
X25979428Y-88924761D01*
X26074666Y-88972380D01*
X26169904Y-88972380D01*
X26503238Y-88972380D02*
X26503238Y-88305714D01*
X26503238Y-88496190D02*
X26550857Y-88400952D01*
X26598476Y-88353333D01*
X26693714Y-88305714D01*
X26788952Y-88305714D01*
X27122285Y-88972380D02*
X27122285Y-88305714D01*
X27122285Y-87972380D02*
X27074666Y-88020000D01*
X27122285Y-88067619D01*
X27169904Y-88020000D01*
X27122285Y-87972380D01*
X27122285Y-88067619D01*
X27503238Y-88972380D02*
X28027047Y-88305714D01*
X27503238Y-88305714D02*
X28027047Y-88972380D01*
X24193714Y-90622380D02*
X24193714Y-89622380D01*
X24527047Y-90336666D01*
X24860380Y-89622380D01*
X24860380Y-90622380D01*
X25336571Y-90622380D02*
X25336571Y-89955714D01*
X25336571Y-89622380D02*
X25288952Y-89670000D01*
X25336571Y-89717619D01*
X25384190Y-89670000D01*
X25336571Y-89622380D01*
X25336571Y-89717619D01*
X25717523Y-90622380D02*
X26241333Y-89955714D01*
X25717523Y-89955714D02*
X26241333Y-90622380D01*
X27003238Y-90574761D02*
X26908000Y-90622380D01*
X26717523Y-90622380D01*
X26622285Y-90574761D01*
X26574666Y-90479523D01*
X26574666Y-90098571D01*
X26622285Y-90003333D01*
X26717523Y-89955714D01*
X26908000Y-89955714D01*
X27003238Y-90003333D01*
X27050857Y-90098571D01*
X27050857Y-90193809D01*
X26574666Y-90289047D01*
X27479428Y-90622380D02*
X27479428Y-89955714D01*
X27479428Y-90146190D02*
X27527047Y-90050952D01*
X27574666Y-90003333D01*
X27669904Y-89955714D01*
X27765142Y-89955714D01*
X24550857Y-92272380D02*
X24550857Y-91605714D01*
X24550857Y-91796190D02*
X24598476Y-91700952D01*
X24646095Y-91653333D01*
X24741333Y-91605714D01*
X24836571Y-91605714D01*
X25550857Y-92224761D02*
X25455619Y-92272380D01*
X25265142Y-92272380D01*
X25169904Y-92224761D01*
X25122285Y-92129523D01*
X25122285Y-91748571D01*
X25169904Y-91653333D01*
X25265142Y-91605714D01*
X25455619Y-91605714D01*
X25550857Y-91653333D01*
X25598476Y-91748571D01*
X25598476Y-91843809D01*
X25122285Y-91939047D01*
X25931809Y-91605714D02*
X26169904Y-92272380D01*
X26408000Y-91605714D01*
X26741333Y-91367619D02*
X26788952Y-91320000D01*
X26884190Y-91272380D01*
X27122285Y-91272380D01*
X27217523Y-91320000D01*
X27265142Y-91367619D01*
X27312761Y-91462857D01*
X27312761Y-91558095D01*
X27265142Y-91700952D01*
X26693714Y-92272380D01*
X27312761Y-92272380D01*
X21598476Y-86558380D02*
X21598476Y-85558380D01*
X21979428Y-85558380D01*
X22074666Y-85606000D01*
X22122285Y-85653619D01*
X22169904Y-85748857D01*
X22169904Y-85891714D01*
X22122285Y-85986952D01*
X22074666Y-86034571D01*
X21979428Y-86082190D01*
X21598476Y-86082190D01*
X23027047Y-86558380D02*
X23027047Y-86034571D01*
X22979428Y-85939333D01*
X22884190Y-85891714D01*
X22693714Y-85891714D01*
X22598476Y-85939333D01*
X23027047Y-86510761D02*
X22931809Y-86558380D01*
X22693714Y-86558380D01*
X22598476Y-86510761D01*
X22550857Y-86415523D01*
X22550857Y-86320285D01*
X22598476Y-86225047D01*
X22693714Y-86177428D01*
X22931809Y-86177428D01*
X23027047Y-86129809D01*
X23931809Y-85891714D02*
X23931809Y-86558380D01*
X23503238Y-85891714D02*
X23503238Y-86415523D01*
X23550857Y-86510761D01*
X23646095Y-86558380D01*
X23788952Y-86558380D01*
X23884190Y-86510761D01*
X23931809Y-86463142D01*
X24550857Y-86558380D02*
X24455619Y-86510761D01*
X24408000Y-86415523D01*
X24408000Y-85558380D01*
X25646095Y-86272666D02*
X26122285Y-86272666D01*
X25550857Y-86558380D02*
X25884190Y-85558380D01*
X26217523Y-86558380D01*
X26979428Y-86558380D02*
X26979428Y-85558380D01*
X26979428Y-86510761D02*
X26884190Y-86558380D01*
X26693714Y-86558380D01*
X26598476Y-86510761D01*
X26550857Y-86463142D01*
X26503238Y-86367904D01*
X26503238Y-86082190D01*
X26550857Y-85986952D01*
X26598476Y-85939333D01*
X26693714Y-85891714D01*
X26884190Y-85891714D01*
X26979428Y-85939333D01*
X27836571Y-86510761D02*
X27741333Y-86558380D01*
X27550857Y-86558380D01*
X27455619Y-86510761D01*
X27408000Y-86415523D01*
X27408000Y-86034571D01*
X27455619Y-85939333D01*
X27550857Y-85891714D01*
X27741333Y-85891714D01*
X27836571Y-85939333D01*
X27884190Y-86034571D01*
X27884190Y-86129809D01*
X27408000Y-86225047D01*
X28312761Y-85891714D02*
X28312761Y-86558380D01*
X28312761Y-85986952D02*
X28360380Y-85939333D01*
X28455619Y-85891714D01*
X28598476Y-85891714D01*
X28693714Y-85939333D01*
X28741333Y-86034571D01*
X28741333Y-86558380D01*
X29360380Y-86558380D02*
X29265142Y-86510761D01*
X29217523Y-86463142D01*
X29169904Y-86367904D01*
X29169904Y-86082190D01*
X29217523Y-85986952D01*
X29265142Y-85939333D01*
X29360380Y-85891714D01*
X29503238Y-85891714D01*
X29598476Y-85939333D01*
X29646095Y-85986952D01*
X29693714Y-86082190D01*
X29693714Y-86367904D01*
X29646095Y-86463142D01*
X29598476Y-86510761D01*
X29503238Y-86558380D01*
X29360380Y-86558380D01*
X29979428Y-85891714D02*
X30360380Y-85891714D01*
X30122285Y-85558380D02*
X30122285Y-86415523D01*
X30169904Y-86510761D01*
X30265142Y-86558380D01*
X30360380Y-86558380D01*
D11*
X39338000Y-35406000D02*
X39338000Y-35076000D01*
X32798000Y-35406000D02*
X39338000Y-35406000D01*
X32798000Y-35076000D02*
X32798000Y-35406000D01*
X39338000Y-32666000D02*
X39338000Y-32996000D01*
X32798000Y-32666000D02*
X39338000Y-32666000D01*
X32798000Y-32996000D02*
X32798000Y-32666000D01*
X21546000Y-105970000D02*
X22936000Y-105970000D01*
X21546000Y-107360000D02*
X21546000Y-105970000D01*
X24206000Y-108630000D02*
X21546000Y-108630000D01*
X24206000Y-105970000D02*
X24206000Y-108630000D01*
X26866000Y-105970000D02*
X24206000Y-105970000D01*
X26866000Y-118910000D02*
X26866000Y-105970000D01*
X21546000Y-118910000D02*
X26866000Y-118910000D01*
X21546000Y-108630000D02*
X21546000Y-118910000D01*
D12*
X21547000Y-120205500D02*
X26797000Y-120205500D01*
D11*
X26000000Y-120958000D02*
X26000000Y-123898000D01*
X26240000Y-120958000D02*
X26240000Y-123898000D01*
X26120000Y-120958000D02*
X26120000Y-123898000D01*
X31680000Y-122428000D02*
X30660000Y-122428000D01*
X24200000Y-122428000D02*
X25220000Y-122428000D01*
X30660000Y-120958000D02*
X25220000Y-120958000D01*
X30660000Y-123898000D02*
X30660000Y-120958000D01*
X25220000Y-123898000D02*
X30660000Y-123898000D01*
X25220000Y-120958000D02*
X25220000Y-123898000D01*
X29880000Y-105356000D02*
X29880000Y-102416000D01*
X29640000Y-105356000D02*
X29640000Y-102416000D01*
X29760000Y-105356000D02*
X29760000Y-102416000D01*
X24200000Y-103886000D02*
X25220000Y-103886000D01*
X31680000Y-103886000D02*
X30660000Y-103886000D01*
X25220000Y-105356000D02*
X30660000Y-105356000D01*
X25220000Y-102416000D02*
X25220000Y-105356000D01*
X30660000Y-102416000D02*
X25220000Y-102416000D01*
X30660000Y-105356000D02*
X30660000Y-102416000D01*
X21823560Y-97318643D02*
G75*
G03X21823764Y-99278000I3088440J-979357D01*
G01*
X21823560Y-97318643D02*
G75*
G02X28000236Y-97318000I3088440J-979357D01*
G01*
X21823560Y-99277357D02*
G75*
G03X28000236Y-99278000I3088440J979357D01*
G01*
X27762000Y-98948000D02*
X27762000Y-97648000D01*
X28362000Y-98298000D02*
X27162000Y-98298000D01*
X21711000Y-98766000D02*
X21711000Y-97830000D01*
X21751000Y-98974000D02*
X21751000Y-97622000D01*
X21791000Y-99132000D02*
X21791000Y-97464000D01*
X21831000Y-99264000D02*
X21831000Y-97332000D01*
X21871000Y-99379000D02*
X21871000Y-97217000D01*
X21911000Y-99482000D02*
X21911000Y-97114000D01*
X21951000Y-99576000D02*
X21951000Y-97020000D01*
X21991000Y-99662000D02*
X21991000Y-96934000D01*
X22031000Y-99743000D02*
X22031000Y-96853000D01*
X22071000Y-99818000D02*
X22071000Y-96778000D01*
X22111000Y-99889000D02*
X22111000Y-96707000D01*
X22151000Y-99956000D02*
X22151000Y-96640000D01*
X22191000Y-100019000D02*
X22191000Y-96577000D01*
X22231000Y-100079000D02*
X22231000Y-96517000D01*
X22271000Y-100137000D02*
X22271000Y-96459000D01*
X22311000Y-100192000D02*
X22311000Y-96404000D01*
X22351000Y-100244000D02*
X22351000Y-96352000D01*
X22391000Y-100295000D02*
X22391000Y-96301000D01*
X22431000Y-100343000D02*
X22431000Y-96253000D01*
X22471000Y-100390000D02*
X22471000Y-96206000D01*
X22511000Y-100435000D02*
X22511000Y-96161000D01*
X22551000Y-100478000D02*
X22551000Y-96118000D01*
X22591000Y-100520000D02*
X22591000Y-96076000D01*
X22631000Y-100560000D02*
X22631000Y-96036000D01*
X22671000Y-100599000D02*
X22671000Y-95997000D01*
X22711000Y-97318000D02*
X22711000Y-95959000D01*
X22711000Y-100637000D02*
X22711000Y-99278000D01*
X22751000Y-97318000D02*
X22751000Y-95923000D01*
X22751000Y-100673000D02*
X22751000Y-99278000D01*
X22791000Y-97318000D02*
X22791000Y-95887000D01*
X22791000Y-100709000D02*
X22791000Y-99278000D01*
X22831000Y-97318000D02*
X22831000Y-95853000D01*
X22831000Y-100743000D02*
X22831000Y-99278000D01*
X22871000Y-97318000D02*
X22871000Y-95820000D01*
X22871000Y-100776000D02*
X22871000Y-99278000D01*
X22911000Y-97318000D02*
X22911000Y-95788000D01*
X22911000Y-100808000D02*
X22911000Y-99278000D01*
X22951000Y-97318000D02*
X22951000Y-95758000D01*
X22951000Y-100838000D02*
X22951000Y-99278000D01*
X22991000Y-97318000D02*
X22991000Y-95728000D01*
X22991000Y-100868000D02*
X22991000Y-99278000D01*
X23031000Y-97318000D02*
X23031000Y-95699000D01*
X23031000Y-100897000D02*
X23031000Y-99278000D01*
X23071000Y-97318000D02*
X23071000Y-95671000D01*
X23071000Y-100925000D02*
X23071000Y-99278000D01*
X23111000Y-97318000D02*
X23111000Y-95644000D01*
X23111000Y-100952000D02*
X23111000Y-99278000D01*
X23151000Y-97318000D02*
X23151000Y-95617000D01*
X23151000Y-100979000D02*
X23151000Y-99278000D01*
X23191000Y-97318000D02*
X23191000Y-95592000D01*
X23191000Y-101004000D02*
X23191000Y-99278000D01*
X23231000Y-97318000D02*
X23231000Y-95567000D01*
X23231000Y-101029000D02*
X23231000Y-99278000D01*
X23271000Y-97318000D02*
X23271000Y-95543000D01*
X23271000Y-101053000D02*
X23271000Y-99278000D01*
X23311000Y-97318000D02*
X23311000Y-95520000D01*
X23311000Y-101076000D02*
X23311000Y-99278000D01*
X23351000Y-97318000D02*
X23351000Y-95498000D01*
X23351000Y-101098000D02*
X23351000Y-99278000D01*
X23391000Y-97318000D02*
X23391000Y-95476000D01*
X23391000Y-101120000D02*
X23391000Y-99278000D01*
X23431000Y-97318000D02*
X23431000Y-95455000D01*
X23431000Y-101141000D02*
X23431000Y-99278000D01*
X23471000Y-97318000D02*
X23471000Y-95435000D01*
X23471000Y-101161000D02*
X23471000Y-99278000D01*
X23511000Y-97318000D02*
X23511000Y-95416000D01*
X23511000Y-101180000D02*
X23511000Y-99278000D01*
X23551000Y-97318000D02*
X23551000Y-95397000D01*
X23551000Y-101199000D02*
X23551000Y-99278000D01*
X23591000Y-97318000D02*
X23591000Y-95379000D01*
X23591000Y-101217000D02*
X23591000Y-99278000D01*
X23631000Y-97318000D02*
X23631000Y-95361000D01*
X23631000Y-101235000D02*
X23631000Y-99278000D01*
X23671000Y-97318000D02*
X23671000Y-95344000D01*
X23671000Y-101252000D02*
X23671000Y-99278000D01*
X23711000Y-97318000D02*
X23711000Y-95328000D01*
X23711000Y-101268000D02*
X23711000Y-99278000D01*
X23751000Y-97318000D02*
X23751000Y-95312000D01*
X23751000Y-101284000D02*
X23751000Y-99278000D01*
X23791000Y-97318000D02*
X23791000Y-95297000D01*
X23791000Y-101299000D02*
X23791000Y-99278000D01*
X23831000Y-97318000D02*
X23831000Y-95283000D01*
X23831000Y-101313000D02*
X23831000Y-99278000D01*
X23871000Y-97318000D02*
X23871000Y-95269000D01*
X23871000Y-101327000D02*
X23871000Y-99278000D01*
X23911000Y-97318000D02*
X23911000Y-95256000D01*
X23911000Y-101340000D02*
X23911000Y-99278000D01*
X23951000Y-97318000D02*
X23951000Y-95243000D01*
X23951000Y-101353000D02*
X23951000Y-99278000D01*
X23991000Y-97318000D02*
X23991000Y-95231000D01*
X23991000Y-101365000D02*
X23991000Y-99278000D01*
X24031000Y-97318000D02*
X24031000Y-95219000D01*
X24031000Y-101377000D02*
X24031000Y-99278000D01*
X24071000Y-97318000D02*
X24071000Y-95208000D01*
X24071000Y-101388000D02*
X24071000Y-99278000D01*
X24111000Y-97318000D02*
X24111000Y-95198000D01*
X24111000Y-101398000D02*
X24111000Y-99278000D01*
X24151000Y-97318000D02*
X24151000Y-95188000D01*
X24151000Y-101408000D02*
X24151000Y-99278000D01*
X24191000Y-97318000D02*
X24191000Y-95179000D01*
X24191000Y-101417000D02*
X24191000Y-99278000D01*
X24232000Y-97318000D02*
X24232000Y-95170000D01*
X24232000Y-101426000D02*
X24232000Y-99278000D01*
X24272000Y-97318000D02*
X24272000Y-95161000D01*
X24272000Y-101435000D02*
X24272000Y-99278000D01*
X24312000Y-97318000D02*
X24312000Y-95154000D01*
X24312000Y-101442000D02*
X24312000Y-99278000D01*
X24352000Y-97318000D02*
X24352000Y-95146000D01*
X24352000Y-101450000D02*
X24352000Y-99278000D01*
X24392000Y-97318000D02*
X24392000Y-95140000D01*
X24392000Y-101456000D02*
X24392000Y-99278000D01*
X24432000Y-97318000D02*
X24432000Y-95133000D01*
X24432000Y-101463000D02*
X24432000Y-99278000D01*
X24472000Y-97318000D02*
X24472000Y-95128000D01*
X24472000Y-101468000D02*
X24472000Y-99278000D01*
X24512000Y-97318000D02*
X24512000Y-95122000D01*
X24512000Y-101474000D02*
X24512000Y-99278000D01*
X24552000Y-97318000D02*
X24552000Y-95118000D01*
X24552000Y-101478000D02*
X24552000Y-99278000D01*
X24592000Y-97318000D02*
X24592000Y-95113000D01*
X24592000Y-101483000D02*
X24592000Y-99278000D01*
X24632000Y-97318000D02*
X24632000Y-95110000D01*
X24632000Y-101486000D02*
X24632000Y-99278000D01*
X24672000Y-101490000D02*
X24672000Y-95106000D01*
X24712000Y-101492000D02*
X24712000Y-95104000D01*
X24752000Y-101495000D02*
X24752000Y-95101000D01*
X24792000Y-101496000D02*
X24792000Y-95100000D01*
X24832000Y-101498000D02*
X24832000Y-95098000D01*
X24872000Y-101498000D02*
X24872000Y-95098000D01*
X24912000Y-101498000D02*
X24912000Y-95098000D01*
X34056440Y-118073357D02*
G75*
G03X34056236Y-116114000I-3088440J979357D01*
G01*
X34056440Y-118073357D02*
G75*
G02X27879764Y-118074000I-3088440J979357D01*
G01*
X34056440Y-116114643D02*
G75*
G03X27879764Y-116114000I-3088440J-979357D01*
G01*
X28118000Y-116444000D02*
X28118000Y-117744000D01*
X27518000Y-117094000D02*
X28718000Y-117094000D01*
X34169000Y-116626000D02*
X34169000Y-117562000D01*
X34129000Y-116418000D02*
X34129000Y-117770000D01*
X34089000Y-116260000D02*
X34089000Y-117928000D01*
X34049000Y-116128000D02*
X34049000Y-118060000D01*
X34009000Y-116013000D02*
X34009000Y-118175000D01*
X33969000Y-115910000D02*
X33969000Y-118278000D01*
X33929000Y-115816000D02*
X33929000Y-118372000D01*
X33889000Y-115730000D02*
X33889000Y-118458000D01*
X33849000Y-115649000D02*
X33849000Y-118539000D01*
X33809000Y-115574000D02*
X33809000Y-118614000D01*
X33769000Y-115503000D02*
X33769000Y-118685000D01*
X33729000Y-115436000D02*
X33729000Y-118752000D01*
X33689000Y-115373000D02*
X33689000Y-118815000D01*
X33649000Y-115313000D02*
X33649000Y-118875000D01*
X33609000Y-115255000D02*
X33609000Y-118933000D01*
X33569000Y-115200000D02*
X33569000Y-118988000D01*
X33529000Y-115148000D02*
X33529000Y-119040000D01*
X33489000Y-115097000D02*
X33489000Y-119091000D01*
X33449000Y-115049000D02*
X33449000Y-119139000D01*
X33409000Y-115002000D02*
X33409000Y-119186000D01*
X33369000Y-114957000D02*
X33369000Y-119231000D01*
X33329000Y-114914000D02*
X33329000Y-119274000D01*
X33289000Y-114872000D02*
X33289000Y-119316000D01*
X33249000Y-114832000D02*
X33249000Y-119356000D01*
X33209000Y-114793000D02*
X33209000Y-119395000D01*
X33169000Y-118074000D02*
X33169000Y-119433000D01*
X33169000Y-114755000D02*
X33169000Y-116114000D01*
X33129000Y-118074000D02*
X33129000Y-119469000D01*
X33129000Y-114719000D02*
X33129000Y-116114000D01*
X33089000Y-118074000D02*
X33089000Y-119505000D01*
X33089000Y-114683000D02*
X33089000Y-116114000D01*
X33049000Y-118074000D02*
X33049000Y-119539000D01*
X33049000Y-114649000D02*
X33049000Y-116114000D01*
X33009000Y-118074000D02*
X33009000Y-119572000D01*
X33009000Y-114616000D02*
X33009000Y-116114000D01*
X32969000Y-118074000D02*
X32969000Y-119604000D01*
X32969000Y-114584000D02*
X32969000Y-116114000D01*
X32929000Y-118074000D02*
X32929000Y-119634000D01*
X32929000Y-114554000D02*
X32929000Y-116114000D01*
X32889000Y-118074000D02*
X32889000Y-119664000D01*
X32889000Y-114524000D02*
X32889000Y-116114000D01*
X32849000Y-118074000D02*
X32849000Y-119693000D01*
X32849000Y-114495000D02*
X32849000Y-116114000D01*
X32809000Y-118074000D02*
X32809000Y-119721000D01*
X32809000Y-114467000D02*
X32809000Y-116114000D01*
X32769000Y-118074000D02*
X32769000Y-119748000D01*
X32769000Y-114440000D02*
X32769000Y-116114000D01*
X32729000Y-118074000D02*
X32729000Y-119775000D01*
X32729000Y-114413000D02*
X32729000Y-116114000D01*
X32689000Y-118074000D02*
X32689000Y-119800000D01*
X32689000Y-114388000D02*
X32689000Y-116114000D01*
X32649000Y-118074000D02*
X32649000Y-119825000D01*
X32649000Y-114363000D02*
X32649000Y-116114000D01*
X32609000Y-118074000D02*
X32609000Y-119849000D01*
X32609000Y-114339000D02*
X32609000Y-116114000D01*
X32569000Y-118074000D02*
X32569000Y-119872000D01*
X32569000Y-114316000D02*
X32569000Y-116114000D01*
X32529000Y-118074000D02*
X32529000Y-119894000D01*
X32529000Y-114294000D02*
X32529000Y-116114000D01*
X32489000Y-118074000D02*
X32489000Y-119916000D01*
X32489000Y-114272000D02*
X32489000Y-116114000D01*
X32449000Y-118074000D02*
X32449000Y-119937000D01*
X32449000Y-114251000D02*
X32449000Y-116114000D01*
X32409000Y-118074000D02*
X32409000Y-119957000D01*
X32409000Y-114231000D02*
X32409000Y-116114000D01*
X32369000Y-118074000D02*
X32369000Y-119976000D01*
X32369000Y-114212000D02*
X32369000Y-116114000D01*
X32329000Y-118074000D02*
X32329000Y-119995000D01*
X32329000Y-114193000D02*
X32329000Y-116114000D01*
X32289000Y-118074000D02*
X32289000Y-120013000D01*
X32289000Y-114175000D02*
X32289000Y-116114000D01*
X32249000Y-118074000D02*
X32249000Y-120031000D01*
X32249000Y-114157000D02*
X32249000Y-116114000D01*
X32209000Y-118074000D02*
X32209000Y-120048000D01*
X32209000Y-114140000D02*
X32209000Y-116114000D01*
X32169000Y-118074000D02*
X32169000Y-120064000D01*
X32169000Y-114124000D02*
X32169000Y-116114000D01*
X32129000Y-118074000D02*
X32129000Y-120080000D01*
X32129000Y-114108000D02*
X32129000Y-116114000D01*
X32089000Y-118074000D02*
X32089000Y-120095000D01*
X32089000Y-114093000D02*
X32089000Y-116114000D01*
X32049000Y-118074000D02*
X32049000Y-120109000D01*
X32049000Y-114079000D02*
X32049000Y-116114000D01*
X32009000Y-118074000D02*
X32009000Y-120123000D01*
X32009000Y-114065000D02*
X32009000Y-116114000D01*
X31969000Y-118074000D02*
X31969000Y-120136000D01*
X31969000Y-114052000D02*
X31969000Y-116114000D01*
X31929000Y-118074000D02*
X31929000Y-120149000D01*
X31929000Y-114039000D02*
X31929000Y-116114000D01*
X31889000Y-118074000D02*
X31889000Y-120161000D01*
X31889000Y-114027000D02*
X31889000Y-116114000D01*
X31849000Y-118074000D02*
X31849000Y-120173000D01*
X31849000Y-114015000D02*
X31849000Y-116114000D01*
X31809000Y-118074000D02*
X31809000Y-120184000D01*
X31809000Y-114004000D02*
X31809000Y-116114000D01*
X31769000Y-118074000D02*
X31769000Y-120194000D01*
X31769000Y-113994000D02*
X31769000Y-116114000D01*
X31729000Y-118074000D02*
X31729000Y-120204000D01*
X31729000Y-113984000D02*
X31729000Y-116114000D01*
X31689000Y-118074000D02*
X31689000Y-120213000D01*
X31689000Y-113975000D02*
X31689000Y-116114000D01*
X31648000Y-118074000D02*
X31648000Y-120222000D01*
X31648000Y-113966000D02*
X31648000Y-116114000D01*
X31608000Y-118074000D02*
X31608000Y-120231000D01*
X31608000Y-113957000D02*
X31608000Y-116114000D01*
X31568000Y-118074000D02*
X31568000Y-120238000D01*
X31568000Y-113950000D02*
X31568000Y-116114000D01*
X31528000Y-118074000D02*
X31528000Y-120246000D01*
X31528000Y-113942000D02*
X31528000Y-116114000D01*
X31488000Y-118074000D02*
X31488000Y-120252000D01*
X31488000Y-113936000D02*
X31488000Y-116114000D01*
X31448000Y-118074000D02*
X31448000Y-120259000D01*
X31448000Y-113929000D02*
X31448000Y-116114000D01*
X31408000Y-118074000D02*
X31408000Y-120264000D01*
X31408000Y-113924000D02*
X31408000Y-116114000D01*
X31368000Y-118074000D02*
X31368000Y-120270000D01*
X31368000Y-113918000D02*
X31368000Y-116114000D01*
X31328000Y-118074000D02*
X31328000Y-120274000D01*
X31328000Y-113914000D02*
X31328000Y-116114000D01*
X31288000Y-118074000D02*
X31288000Y-120279000D01*
X31288000Y-113909000D02*
X31288000Y-116114000D01*
X31248000Y-118074000D02*
X31248000Y-120282000D01*
X31248000Y-113906000D02*
X31248000Y-116114000D01*
X31208000Y-113902000D02*
X31208000Y-120286000D01*
X31168000Y-113900000D02*
X31168000Y-120288000D01*
X31128000Y-113897000D02*
X31128000Y-120291000D01*
X31088000Y-113896000D02*
X31088000Y-120292000D01*
X31048000Y-113894000D02*
X31048000Y-120294000D01*
X31008000Y-113894000D02*
X31008000Y-120294000D01*
X30968000Y-113894000D02*
X30968000Y-120294000D01*
X51530000Y-35406000D02*
X51530000Y-35076000D01*
X44990000Y-35406000D02*
X51530000Y-35406000D01*
X44990000Y-35076000D02*
X44990000Y-35406000D01*
X51530000Y-32666000D02*
X51530000Y-32996000D01*
X44990000Y-32666000D02*
X51530000Y-32666000D01*
X44990000Y-32996000D02*
X44990000Y-32666000D01*
X63976000Y-35409026D02*
X63976000Y-35079026D01*
X57436000Y-35409026D02*
X63976000Y-35409026D01*
X57436000Y-35079026D02*
X57436000Y-35409026D01*
X63976000Y-32669026D02*
X63976000Y-32999026D01*
X57436000Y-32669026D02*
X63976000Y-32669026D01*
X57436000Y-32999026D02*
X57436000Y-32669026D01*
X75914000Y-35406000D02*
X75914000Y-35076000D01*
X69374000Y-35406000D02*
X75914000Y-35406000D01*
X69374000Y-35076000D02*
X69374000Y-35406000D01*
X75914000Y-32666000D02*
X75914000Y-32996000D01*
X69374000Y-32666000D02*
X75914000Y-32666000D01*
X69374000Y-32996000D02*
X69374000Y-32666000D01*
X39592000Y-52678000D02*
X39592000Y-52348000D01*
X33052000Y-52678000D02*
X39592000Y-52678000D01*
X33052000Y-52348000D02*
X33052000Y-52678000D01*
X39592000Y-49938000D02*
X39592000Y-50268000D01*
X33052000Y-49938000D02*
X39592000Y-49938000D01*
X33052000Y-50268000D02*
X33052000Y-49938000D01*
X51530000Y-52678000D02*
X51530000Y-52348000D01*
X44990000Y-52678000D02*
X51530000Y-52678000D01*
X44990000Y-52348000D02*
X44990000Y-52678000D01*
X51530000Y-49938000D02*
X51530000Y-50268000D01*
X44990000Y-49938000D02*
X51530000Y-49938000D01*
X44990000Y-50268000D02*
X44990000Y-49938000D01*
X63722000Y-52678000D02*
X63722000Y-52348000D01*
X57182000Y-52678000D02*
X63722000Y-52678000D01*
X57182000Y-52348000D02*
X57182000Y-52678000D01*
X63722000Y-49938000D02*
X63722000Y-50268000D01*
X57182000Y-49938000D02*
X63722000Y-49938000D01*
X57182000Y-50268000D02*
X57182000Y-49938000D01*
X75914000Y-52424000D02*
X75914000Y-52094000D01*
X69374000Y-52424000D02*
X75914000Y-52424000D01*
X69374000Y-52094000D02*
X69374000Y-52424000D01*
X75914000Y-49684000D02*
X75914000Y-50014000D01*
X69374000Y-49684000D02*
X75914000Y-49684000D01*
X69374000Y-50014000D02*
X69374000Y-49684000D01*
X39592000Y-69950000D02*
X39592000Y-69620000D01*
X33052000Y-69950000D02*
X39592000Y-69950000D01*
X33052000Y-69620000D02*
X33052000Y-69950000D01*
X39592000Y-67210000D02*
X39592000Y-67540000D01*
X33052000Y-67210000D02*
X39592000Y-67210000D01*
X33052000Y-67540000D02*
X33052000Y-67210000D01*
X51784000Y-69950000D02*
X51784000Y-69620000D01*
X45244000Y-69950000D02*
X51784000Y-69950000D01*
X45244000Y-69620000D02*
X45244000Y-69950000D01*
X51784000Y-67210000D02*
X51784000Y-67540000D01*
X45244000Y-67210000D02*
X51784000Y-67210000D01*
X45244000Y-67540000D02*
X45244000Y-67210000D01*
X63722000Y-70204000D02*
X63722000Y-69874000D01*
X57182000Y-70204000D02*
X63722000Y-70204000D01*
X57182000Y-69874000D02*
X57182000Y-70204000D01*
X63722000Y-67464000D02*
X63722000Y-67794000D01*
X57182000Y-67464000D02*
X63722000Y-67464000D01*
X57182000Y-67794000D02*
X57182000Y-67464000D01*
X75914000Y-70204000D02*
X75914000Y-69874000D01*
X69374000Y-70204000D02*
X75914000Y-70204000D01*
X69374000Y-69874000D02*
X69374000Y-70204000D01*
X75914000Y-67464000D02*
X75914000Y-67794000D01*
X69374000Y-67464000D02*
X75914000Y-67464000D01*
X69374000Y-67794000D02*
X69374000Y-67464000D01*
X39592000Y-87222000D02*
X39592000Y-86892000D01*
X33052000Y-87222000D02*
X39592000Y-87222000D01*
X33052000Y-86892000D02*
X33052000Y-87222000D01*
X39592000Y-84482000D02*
X39592000Y-84812000D01*
X33052000Y-84482000D02*
X39592000Y-84482000D01*
X33052000Y-84812000D02*
X33052000Y-84482000D01*
X51530000Y-87222000D02*
X51530000Y-86892000D01*
X44990000Y-87222000D02*
X51530000Y-87222000D01*
X44990000Y-86892000D02*
X44990000Y-87222000D01*
X51530000Y-84482000D02*
X51530000Y-84812000D01*
X44990000Y-84482000D02*
X51530000Y-84482000D01*
X44990000Y-84812000D02*
X44990000Y-84482000D01*
X63722000Y-87222000D02*
X63722000Y-86892000D01*
X57182000Y-87222000D02*
X63722000Y-87222000D01*
X57182000Y-86892000D02*
X57182000Y-87222000D01*
X63722000Y-84482000D02*
X63722000Y-84812000D01*
X57182000Y-84482000D02*
X63722000Y-84482000D01*
X57182000Y-84812000D02*
X57182000Y-84482000D01*
X75914000Y-87476000D02*
X75914000Y-87146000D01*
X69374000Y-87476000D02*
X75914000Y-87476000D01*
X69374000Y-87146000D02*
X69374000Y-87476000D01*
X75914000Y-84736000D02*
X75914000Y-85066000D01*
X69374000Y-84736000D02*
X75914000Y-84736000D01*
X69374000Y-85066000D02*
X69374000Y-84736000D01*
D10*
X34671000Y-26289000D02*
X37973000Y-26289000D01*
X37973000Y-26289000D02*
G75*
G03X34671000Y-26289000I-1651000J2159000D01*
G01*
D13*
X41176163Y-29121943D02*
X41176163Y-19141743D01*
X40412263Y-18631843D02*
G75*
G02X41176163Y-19141743I127000J-636900D01*
G01*
X40412263Y-18631843D02*
X32232063Y-18631843D01*
X31468163Y-19141743D02*
G75*
G02X32232063Y-18631843I636900J-127000D01*
G01*
X31468163Y-19141743D02*
X31468163Y-29121943D01*
X32232063Y-29631843D02*
G75*
G02X31468163Y-29121943I-127000J636900D01*
G01*
X32232063Y-29631843D02*
X40412263Y-29631843D01*
X41176163Y-29121943D02*
G75*
G02X40412263Y-29631843I-636900J127000D01*
G01*
X39822163Y-24131843D02*
G75*
G03X39822163Y-24131843I-3500000J0D01*
G01*
D10*
X46609000Y-26289000D02*
X49911000Y-26289000D01*
X49911000Y-26289000D02*
G75*
G03X46609000Y-26289000I-1651000J2159000D01*
G01*
D13*
X53114163Y-29121943D02*
X53114163Y-19141743D01*
X52350263Y-18631843D02*
G75*
G02X53114163Y-19141743I127000J-636900D01*
G01*
X52350263Y-18631843D02*
X44170063Y-18631843D01*
X43406163Y-19141743D02*
G75*
G02X44170063Y-18631843I636900J-127000D01*
G01*
X43406163Y-19141743D02*
X43406163Y-29121943D01*
X44170063Y-29631843D02*
G75*
G02X43406163Y-29121943I-127000J636900D01*
G01*
X44170063Y-29631843D02*
X52350263Y-29631843D01*
X53114163Y-29121943D02*
G75*
G02X52350263Y-29631843I-636900J127000D01*
G01*
X51760163Y-24131843D02*
G75*
G03X51760163Y-24131843I-3500000J0D01*
G01*
D10*
X58801000Y-26330714D02*
X62103000Y-26330714D01*
X62103000Y-26330714D02*
G75*
G03X58801000Y-26330714I-1651000J2159000D01*
G01*
D13*
X65306163Y-29163657D02*
X65306163Y-19183457D01*
X64542263Y-18673557D02*
G75*
G02X65306163Y-19183457I127000J-636900D01*
G01*
X64542263Y-18673557D02*
X56362063Y-18673557D01*
X55598163Y-19183457D02*
G75*
G02X56362063Y-18673557I636900J-127000D01*
G01*
X55598163Y-19183457D02*
X55598163Y-29163657D01*
X56362063Y-29673557D02*
G75*
G02X55598163Y-29163657I-127000J636900D01*
G01*
X56362063Y-29673557D02*
X64542263Y-29673557D01*
X65306163Y-29163657D02*
G75*
G02X64542263Y-29673557I-636900J127000D01*
G01*
X63952163Y-24173557D02*
G75*
G03X63952163Y-24173557I-3500000J0D01*
G01*
D10*
X70993000Y-26351571D02*
X74295000Y-26351571D01*
X74295000Y-26351571D02*
G75*
G03X70993000Y-26351571I-1651000J2159000D01*
G01*
D13*
X77498163Y-29184514D02*
X77498163Y-19204314D01*
X76734263Y-18694414D02*
G75*
G02X77498163Y-19204314I127000J-636900D01*
G01*
X76734263Y-18694414D02*
X68554063Y-18694414D01*
X67790163Y-19204314D02*
G75*
G02X68554063Y-18694414I636900J-127000D01*
G01*
X67790163Y-19204314D02*
X67790163Y-29184514D01*
X68554063Y-29694414D02*
G75*
G02X67790163Y-29184514I-127000J636900D01*
G01*
X68554063Y-29694414D02*
X76734263Y-29694414D01*
X77498163Y-29184514D02*
G75*
G02X76734263Y-29694414I-636900J127000D01*
G01*
X76144163Y-24194414D02*
G75*
G03X76144163Y-24194414I-3500000J0D01*
G01*
D10*
X34671000Y-43561000D02*
X37973000Y-43561000D01*
X37973000Y-43561000D02*
G75*
G03X34671000Y-43561000I-1651000J2159000D01*
G01*
D13*
X41176163Y-46393943D02*
X41176163Y-36413743D01*
X40412263Y-35903843D02*
G75*
G02X41176163Y-36413743I127000J-636900D01*
G01*
X40412263Y-35903843D02*
X32232063Y-35903843D01*
X31468163Y-36413743D02*
G75*
G02X32232063Y-35903843I636900J-127000D01*
G01*
X31468163Y-36413743D02*
X31468163Y-46393943D01*
X32232063Y-46903843D02*
G75*
G02X31468163Y-46393943I-127000J636900D01*
G01*
X32232063Y-46903843D02*
X40412263Y-46903843D01*
X41176163Y-46393943D02*
G75*
G02X40412263Y-46903843I-636900J127000D01*
G01*
X39822163Y-41403843D02*
G75*
G03X39822163Y-41403843I-3500000J0D01*
G01*
D10*
X46609000Y-43561000D02*
X49911000Y-43561000D01*
X49911000Y-43561000D02*
G75*
G03X46609000Y-43561000I-1651000J2159000D01*
G01*
D13*
X53114163Y-46393943D02*
X53114163Y-36413743D01*
X52350263Y-35903843D02*
G75*
G02X53114163Y-36413743I127000J-636900D01*
G01*
X52350263Y-35903843D02*
X44170063Y-35903843D01*
X43406163Y-36413743D02*
G75*
G02X44170063Y-35903843I636900J-127000D01*
G01*
X43406163Y-36413743D02*
X43406163Y-46393943D01*
X44170063Y-46903843D02*
G75*
G02X43406163Y-46393943I-127000J636900D01*
G01*
X44170063Y-46903843D02*
X52350263Y-46903843D01*
X53114163Y-46393943D02*
G75*
G02X52350263Y-46903843I-636900J127000D01*
G01*
X51760163Y-41403843D02*
G75*
G03X51760163Y-41403843I-3500000J0D01*
G01*
D10*
X58801000Y-43561000D02*
X62103000Y-43561000D01*
X62103000Y-43561000D02*
G75*
G03X58801000Y-43561000I-1651000J2159000D01*
G01*
D13*
X65306163Y-46393943D02*
X65306163Y-36413743D01*
X64542263Y-35903843D02*
G75*
G02X65306163Y-36413743I127000J-636900D01*
G01*
X64542263Y-35903843D02*
X56362063Y-35903843D01*
X55598163Y-36413743D02*
G75*
G02X56362063Y-35903843I636900J-127000D01*
G01*
X55598163Y-36413743D02*
X55598163Y-46393943D01*
X56362063Y-46903843D02*
G75*
G02X55598163Y-46393943I-127000J636900D01*
G01*
X56362063Y-46903843D02*
X64542263Y-46903843D01*
X65306163Y-46393943D02*
G75*
G02X64542263Y-46903843I-636900J127000D01*
G01*
X63952163Y-41403843D02*
G75*
G03X63952163Y-41403843I-3500000J0D01*
G01*
D10*
X70993000Y-43561000D02*
X74295000Y-43561000D01*
X74295000Y-43561000D02*
G75*
G03X70993000Y-43561000I-1651000J2159000D01*
G01*
D13*
X77498163Y-46393943D02*
X77498163Y-36413743D01*
X76734263Y-35903843D02*
G75*
G02X77498163Y-36413743I127000J-636900D01*
G01*
X76734263Y-35903843D02*
X68554063Y-35903843D01*
X67790163Y-36413743D02*
G75*
G02X68554063Y-35903843I636900J-127000D01*
G01*
X67790163Y-36413743D02*
X67790163Y-46393943D01*
X68554063Y-46903843D02*
G75*
G02X67790163Y-46393943I-127000J636900D01*
G01*
X68554063Y-46903843D02*
X76734263Y-46903843D01*
X77498163Y-46393943D02*
G75*
G02X76734263Y-46903843I-636900J127000D01*
G01*
X76144163Y-41403843D02*
G75*
G03X76144163Y-41403843I-3500000J0D01*
G01*
D10*
X34671000Y-60833000D02*
X37973000Y-60833000D01*
X37973000Y-60833000D02*
G75*
G03X34671000Y-60833000I-1651000J2159000D01*
G01*
D13*
X41176163Y-63665943D02*
X41176163Y-53685743D01*
X40412263Y-53175843D02*
G75*
G02X41176163Y-53685743I127000J-636900D01*
G01*
X40412263Y-53175843D02*
X32232063Y-53175843D01*
X31468163Y-53685743D02*
G75*
G02X32232063Y-53175843I636900J-127000D01*
G01*
X31468163Y-53685743D02*
X31468163Y-63665943D01*
X32232063Y-64175843D02*
G75*
G02X31468163Y-63665943I-127000J636900D01*
G01*
X32232063Y-64175843D02*
X40412263Y-64175843D01*
X41176163Y-63665943D02*
G75*
G02X40412263Y-64175843I-636900J127000D01*
G01*
X39822163Y-58675843D02*
G75*
G03X39822163Y-58675843I-3500000J0D01*
G01*
D10*
X46609000Y-60833000D02*
X49911000Y-60833000D01*
X49911000Y-60833000D02*
G75*
G03X46609000Y-60833000I-1651000J2159000D01*
G01*
D13*
X53114163Y-63665943D02*
X53114163Y-53685743D01*
X52350263Y-53175843D02*
G75*
G02X53114163Y-53685743I127000J-636900D01*
G01*
X52350263Y-53175843D02*
X44170063Y-53175843D01*
X43406163Y-53685743D02*
G75*
G02X44170063Y-53175843I636900J-127000D01*
G01*
X43406163Y-53685743D02*
X43406163Y-63665943D01*
X44170063Y-64175843D02*
G75*
G02X43406163Y-63665943I-127000J636900D01*
G01*
X44170063Y-64175843D02*
X52350263Y-64175843D01*
X53114163Y-63665943D02*
G75*
G02X52350263Y-64175843I-636900J127000D01*
G01*
X51760163Y-58675843D02*
G75*
G03X51760163Y-58675843I-3500000J0D01*
G01*
D10*
X58801000Y-60833000D02*
X62103000Y-60833000D01*
X62103000Y-60833000D02*
G75*
G03X58801000Y-60833000I-1651000J2159000D01*
G01*
D13*
X65306163Y-63665943D02*
X65306163Y-53685743D01*
X64542263Y-53175843D02*
G75*
G02X65306163Y-53685743I127000J-636900D01*
G01*
X64542263Y-53175843D02*
X56362063Y-53175843D01*
X55598163Y-53685743D02*
G75*
G02X56362063Y-53175843I636900J-127000D01*
G01*
X55598163Y-53685743D02*
X55598163Y-63665943D01*
X56362063Y-64175843D02*
G75*
G02X55598163Y-63665943I-127000J636900D01*
G01*
X56362063Y-64175843D02*
X64542263Y-64175843D01*
X65306163Y-63665943D02*
G75*
G02X64542263Y-64175843I-636900J127000D01*
G01*
X63952163Y-58675843D02*
G75*
G03X63952163Y-58675843I-3500000J0D01*
G01*
D10*
X70993000Y-60579000D02*
X74295000Y-60579000D01*
X74295000Y-60579000D02*
G75*
G03X70993000Y-60579000I-1651000J2159000D01*
G01*
D13*
X77498163Y-63411943D02*
X77498163Y-53431743D01*
X76734263Y-52921843D02*
G75*
G02X77498163Y-53431743I127000J-636900D01*
G01*
X76734263Y-52921843D02*
X68554063Y-52921843D01*
X67790163Y-53431743D02*
G75*
G02X68554063Y-52921843I636900J-127000D01*
G01*
X67790163Y-53431743D02*
X67790163Y-63411943D01*
X68554063Y-63921843D02*
G75*
G02X67790163Y-63411943I-127000J636900D01*
G01*
X68554063Y-63921843D02*
X76734263Y-63921843D01*
X77498163Y-63411943D02*
G75*
G02X76734263Y-63921843I-636900J127000D01*
G01*
X76144163Y-58421843D02*
G75*
G03X76144163Y-58421843I-3500000J0D01*
G01*
D10*
X34671000Y-78028800D02*
X37973000Y-78028800D01*
X37973000Y-78028800D02*
G75*
G03X34671000Y-78028800I-1651000J2159000D01*
G01*
D13*
X41176163Y-80861743D02*
X41176163Y-70881543D01*
X40412263Y-70371643D02*
G75*
G02X41176163Y-70881543I127000J-636900D01*
G01*
X40412263Y-70371643D02*
X32232063Y-70371643D01*
X31468163Y-70881543D02*
G75*
G02X32232063Y-70371643I636900J-127000D01*
G01*
X31468163Y-70881543D02*
X31468163Y-80861743D01*
X32232063Y-81371643D02*
G75*
G02X31468163Y-80861743I-127000J636900D01*
G01*
X32232063Y-81371643D02*
X40412263Y-81371643D01*
X41176163Y-80861743D02*
G75*
G02X40412263Y-81371643I-636900J127000D01*
G01*
X39822163Y-75871643D02*
G75*
G03X39822163Y-75871643I-3500000J0D01*
G01*
D10*
X46609000Y-78105000D02*
X49911000Y-78105000D01*
X49911000Y-78105000D02*
G75*
G03X46609000Y-78105000I-1651000J2159000D01*
G01*
D13*
X53114163Y-80937943D02*
X53114163Y-70957743D01*
X52350263Y-70447843D02*
G75*
G02X53114163Y-70957743I127000J-636900D01*
G01*
X52350263Y-70447843D02*
X44170063Y-70447843D01*
X43406163Y-70957743D02*
G75*
G02X44170063Y-70447843I636900J-127000D01*
G01*
X43406163Y-70957743D02*
X43406163Y-80937943D01*
X44170063Y-81447843D02*
G75*
G02X43406163Y-80937943I-127000J636900D01*
G01*
X44170063Y-81447843D02*
X52350263Y-81447843D01*
X53114163Y-80937943D02*
G75*
G02X52350263Y-81447843I-636900J127000D01*
G01*
X51760163Y-75947843D02*
G75*
G03X51760163Y-75947843I-3500000J0D01*
G01*
D10*
X58801000Y-78105000D02*
X62103000Y-78105000D01*
X62103000Y-78105000D02*
G75*
G03X58801000Y-78105000I-1651000J2159000D01*
G01*
D13*
X65306163Y-80937943D02*
X65306163Y-70957743D01*
X64542263Y-70447843D02*
G75*
G02X65306163Y-70957743I127000J-636900D01*
G01*
X64542263Y-70447843D02*
X56362063Y-70447843D01*
X55598163Y-70957743D02*
G75*
G02X56362063Y-70447843I636900J-127000D01*
G01*
X55598163Y-70957743D02*
X55598163Y-80937943D01*
X56362063Y-81447843D02*
G75*
G02X55598163Y-80937943I-127000J636900D01*
G01*
X56362063Y-81447843D02*
X64542263Y-81447843D01*
X65306163Y-80937943D02*
G75*
G02X64542263Y-81447843I-636900J127000D01*
G01*
X63952163Y-75947843D02*
G75*
G03X63952163Y-75947843I-3500000J0D01*
G01*
D10*
X70993000Y-77851000D02*
X74295000Y-77851000D01*
X74295000Y-77851000D02*
G75*
G03X70993000Y-77851000I-1651000J2159000D01*
G01*
D13*
X77498163Y-80683943D02*
X77498163Y-70703743D01*
X76734263Y-70193843D02*
G75*
G02X77498163Y-70703743I127000J-636900D01*
G01*
X76734263Y-70193843D02*
X68554063Y-70193843D01*
X67790163Y-70703743D02*
G75*
G02X68554063Y-70193843I636900J-127000D01*
G01*
X67790163Y-70703743D02*
X67790163Y-80683943D01*
X68554063Y-81193843D02*
G75*
G02X67790163Y-80683943I-127000J636900D01*
G01*
X68554063Y-81193843D02*
X76734263Y-81193843D01*
X77498163Y-80683943D02*
G75*
G02X76734263Y-81193843I-636900J127000D01*
G01*
X76144163Y-75693843D02*
G75*
G03X76144163Y-75693843I-3500000J0D01*
G01*
D11*
X44212000Y-102446000D02*
X42442000Y-102446000D01*
X42442000Y-102446000D02*
X42442000Y-120466000D01*
X42442000Y-120466000D02*
X47982000Y-120466000D01*
X47982000Y-120466000D02*
X47982000Y-102446000D01*
X47982000Y-102446000D02*
X46212000Y-102446000D01*
X46212000Y-102446000D02*
G75*
G02X44212000Y-102446000I-1000000J0D01*
G01*
D10*
X37862000Y-121110000D02*
X39862000Y-121110000D01*
X37862000Y-115110000D02*
X37862000Y-121110000D01*
X39862000Y-115110000D02*
X37862000Y-115110000D01*
X39862000Y-121110000D02*
X39862000Y-115110000D01*
X37068000Y-115110000D02*
X35068000Y-115110000D01*
X37068000Y-121110000D02*
X37068000Y-115110000D01*
X35068000Y-121110000D02*
X37068000Y-121110000D01*
X35068000Y-115110000D02*
X35068000Y-121110000D01*
X39608000Y-104696000D02*
X37608000Y-104696000D01*
X39608000Y-110696000D02*
X39608000Y-104696000D01*
X37608000Y-110696000D02*
X39608000Y-110696000D01*
X37608000Y-104696000D02*
X37608000Y-110696000D01*
X50816000Y-121110000D02*
X52816000Y-121110000D01*
X50816000Y-115110000D02*
X50816000Y-121110000D01*
X52816000Y-115110000D02*
X50816000Y-115110000D01*
X52816000Y-121110000D02*
X52816000Y-115110000D01*
X55610000Y-115110000D02*
X53610000Y-115110000D01*
X55610000Y-121110000D02*
X55610000Y-115110000D01*
X53610000Y-121110000D02*
X55610000Y-121110000D01*
X53610000Y-115110000D02*
X53610000Y-121110000D01*
X52816000Y-104696000D02*
X50816000Y-104696000D01*
X52816000Y-110696000D02*
X52816000Y-104696000D01*
X50816000Y-110696000D02*
X52816000Y-110696000D01*
X50816000Y-104696000D02*
X50816000Y-110696000D01*
X60722000Y-121110000D02*
X62722000Y-121110000D01*
X60722000Y-115110000D02*
X60722000Y-121110000D01*
X62722000Y-115110000D02*
X60722000Y-115110000D01*
X62722000Y-121110000D02*
X62722000Y-115110000D01*
X60182000Y-115110000D02*
X58182000Y-115110000D01*
X60182000Y-121110000D02*
X60182000Y-115110000D01*
X58182000Y-121110000D02*
X60182000Y-121110000D01*
X58182000Y-115110000D02*
X58182000Y-121110000D01*
X62722000Y-104696000D02*
X60722000Y-104696000D01*
X62722000Y-110696000D02*
X62722000Y-104696000D01*
X60722000Y-110696000D02*
X62722000Y-110696000D01*
X60722000Y-104696000D02*
X60722000Y-110696000D01*
X73422000Y-120856000D02*
X75422000Y-120856000D01*
X73422000Y-114856000D02*
X73422000Y-120856000D01*
X75422000Y-114856000D02*
X73422000Y-114856000D01*
X75422000Y-120856000D02*
X75422000Y-114856000D01*
X77962000Y-114856000D02*
X75962000Y-114856000D01*
X77962000Y-120856000D02*
X77962000Y-114856000D01*
X75962000Y-120856000D02*
X77962000Y-120856000D01*
X75962000Y-114856000D02*
X75962000Y-120856000D01*
X75422000Y-104442000D02*
X73422000Y-104442000D01*
X75422000Y-110442000D02*
X75422000Y-104442000D01*
X73422000Y-110442000D02*
X75422000Y-110442000D01*
X73422000Y-104442000D02*
X73422000Y-110442000D01*
D11*
X67072000Y-102446000D02*
X65302000Y-102446000D01*
X65302000Y-102446000D02*
X65302000Y-120466000D01*
X65302000Y-120466000D02*
X70842000Y-120466000D01*
X70842000Y-120466000D02*
X70842000Y-102446000D01*
X70842000Y-102446000D02*
X69072000Y-102446000D01*
X69072000Y-102446000D02*
G75*
G02X67072000Y-102446000I-1000000J0D01*
G01*
X27222000Y-31988000D02*
X26362000Y-31988000D01*
X27222000Y-31988000D02*
X27222000Y-31188000D01*
X27962000Y-24508000D02*
G75*
G03X27962000Y-24508000I-1800000J0D01*
G01*
X26512000Y-29008000D02*
X30662000Y-29008000D01*
X21662000Y-29008000D02*
X25812000Y-29008000D01*
X26662000Y-18508000D02*
X30662000Y-18508000D01*
X21662000Y-18508000D02*
X25662000Y-18508000D01*
X21662000Y-29008000D02*
X21662000Y-18508000D01*
X30662000Y-29008000D02*
X30662000Y-18508000D01*
X26968000Y-49006000D02*
X26108000Y-49006000D01*
X26968000Y-49006000D02*
X26968000Y-48206000D01*
X27708000Y-41526000D02*
G75*
G03X27708000Y-41526000I-1800000J0D01*
G01*
X26258000Y-46026000D02*
X30408000Y-46026000D01*
X21408000Y-46026000D02*
X25558000Y-46026000D01*
X26408000Y-35526000D02*
X30408000Y-35526000D01*
X21408000Y-35526000D02*
X25408000Y-35526000D01*
X21408000Y-46026000D02*
X21408000Y-35526000D01*
X30408000Y-46026000D02*
X30408000Y-35526000D01*
X26968000Y-66278000D02*
X26108000Y-66278000D01*
X26968000Y-66278000D02*
X26968000Y-65478000D01*
X27708000Y-58798000D02*
G75*
G03X27708000Y-58798000I-1800000J0D01*
G01*
X26258000Y-63298000D02*
X30408000Y-63298000D01*
X21408000Y-63298000D02*
X25558000Y-63298000D01*
X26408000Y-52798000D02*
X30408000Y-52798000D01*
X21408000Y-52798000D02*
X25408000Y-52798000D01*
X21408000Y-63298000D02*
X21408000Y-52798000D01*
X30408000Y-63298000D02*
X30408000Y-52798000D01*
X26714000Y-83550000D02*
X25854000Y-83550000D01*
X26714000Y-83550000D02*
X26714000Y-82750000D01*
X27454000Y-76070000D02*
G75*
G03X27454000Y-76070000I-1800000J0D01*
G01*
X26004000Y-80570000D02*
X30154000Y-80570000D01*
X21154000Y-80570000D02*
X25304000Y-80570000D01*
X26154000Y-70070000D02*
X30154000Y-70070000D01*
X21154000Y-70070000D02*
X25154000Y-70070000D01*
X21154000Y-80570000D02*
X21154000Y-70070000D01*
X30154000Y-80570000D02*
X30154000Y-70070000D01*
X35390000Y-87856000D02*
X36250000Y-87856000D01*
X35390000Y-87856000D02*
X35390000Y-88656000D01*
X38250000Y-95336000D02*
G75*
G03X38250000Y-95336000I-1800000J0D01*
G01*
X36100000Y-90836000D02*
X31950000Y-90836000D01*
X40950000Y-90836000D02*
X36800000Y-90836000D01*
X35950000Y-101336000D02*
X31950000Y-101336000D01*
X40950000Y-101336000D02*
X36950000Y-101336000D01*
X40950000Y-90836000D02*
X40950000Y-101336000D01*
X31950000Y-90836000D02*
X31950000Y-101336000D01*
X47200000Y-87856000D02*
X48060000Y-87856000D01*
X47200000Y-87856000D02*
X47200000Y-88656000D01*
X50060000Y-95336000D02*
G75*
G03X50060000Y-95336000I-1800000J0D01*
G01*
X47910000Y-90836000D02*
X43760000Y-90836000D01*
X52760000Y-90836000D02*
X48610000Y-90836000D01*
X47760000Y-101336000D02*
X43760000Y-101336000D01*
X52760000Y-101336000D02*
X48760000Y-101336000D01*
X52760000Y-90836000D02*
X52760000Y-101336000D01*
X43760000Y-90836000D02*
X43760000Y-101336000D01*
X59392000Y-87900000D02*
X60252000Y-87900000D01*
X59392000Y-87900000D02*
X59392000Y-88700000D01*
X62252000Y-95380000D02*
G75*
G03X62252000Y-95380000I-1800000J0D01*
G01*
X60102000Y-90880000D02*
X55952000Y-90880000D01*
X64952000Y-90880000D02*
X60802000Y-90880000D01*
X59952000Y-101380000D02*
X55952000Y-101380000D01*
X64952000Y-101380000D02*
X60952000Y-101380000D01*
X64952000Y-90880000D02*
X64952000Y-101380000D01*
X55952000Y-90880000D02*
X55952000Y-101380000D01*
X71584000Y-88154000D02*
X72444000Y-88154000D01*
X71584000Y-88154000D02*
X71584000Y-88954000D01*
X74444000Y-95634000D02*
G75*
G03X74444000Y-95634000I-1800000J0D01*
G01*
X72294000Y-91134000D02*
X68144000Y-91134000D01*
X77144000Y-91134000D02*
X72994000Y-91134000D01*
X72144000Y-101634000D02*
X68144000Y-101634000D01*
X77144000Y-101634000D02*
X73144000Y-101634000D01*
X77144000Y-91134000D02*
X77144000Y-101634000D01*
X68144000Y-91134000D02*
X68144000Y-101634000D01*
D10*
X35250571Y-34488380D02*
X34679142Y-34488380D01*
X34964857Y-34488380D02*
X34964857Y-33488380D01*
X34869619Y-33631238D01*
X34774380Y-33726476D01*
X34679142Y-33774095D01*
X35869619Y-33488380D02*
X35964857Y-33488380D01*
X36060095Y-33536000D01*
X36107714Y-33583619D01*
X36155333Y-33678857D01*
X36202952Y-33869333D01*
X36202952Y-34107428D01*
X36155333Y-34297904D01*
X36107714Y-34393142D01*
X36060095Y-34440761D01*
X35964857Y-34488380D01*
X35869619Y-34488380D01*
X35774380Y-34440761D01*
X35726761Y-34393142D01*
X35679142Y-34297904D01*
X35631523Y-34107428D01*
X35631523Y-33869333D01*
X35679142Y-33678857D01*
X35726761Y-33583619D01*
X35774380Y-33536000D01*
X35869619Y-33488380D01*
X36822000Y-33488380D02*
X36917238Y-33488380D01*
X37012476Y-33536000D01*
X37060095Y-33583619D01*
X37107714Y-33678857D01*
X37155333Y-33869333D01*
X37155333Y-34107428D01*
X37107714Y-34297904D01*
X37060095Y-34393142D01*
X37012476Y-34440761D01*
X36917238Y-34488380D01*
X36822000Y-34488380D01*
X36726761Y-34440761D01*
X36679142Y-34393142D01*
X36631523Y-34297904D01*
X36583904Y-34107428D01*
X36583904Y-33869333D01*
X36631523Y-33678857D01*
X36679142Y-33583619D01*
X36726761Y-33536000D01*
X36822000Y-33488380D01*
X37583904Y-34488380D02*
X37583904Y-33488380D01*
X37679142Y-34107428D02*
X37964857Y-34488380D01*
X37964857Y-33821714D02*
X37583904Y-34202666D01*
X27455904Y-123134380D02*
X27455904Y-122134380D01*
X27694000Y-122134380D01*
X27836857Y-122182000D01*
X27932095Y-122277238D01*
X27979714Y-122372476D01*
X28027333Y-122562952D01*
X28027333Y-122705809D01*
X27979714Y-122896285D01*
X27932095Y-122991523D01*
X27836857Y-123086761D01*
X27694000Y-123134380D01*
X27455904Y-123134380D01*
X28408285Y-122229619D02*
X28455904Y-122182000D01*
X28551142Y-122134380D01*
X28789238Y-122134380D01*
X28884476Y-122182000D01*
X28932095Y-122229619D01*
X28979714Y-122324857D01*
X28979714Y-122420095D01*
X28932095Y-122562952D01*
X28360666Y-123134380D01*
X28979714Y-123134380D01*
X26947904Y-104338380D02*
X26947904Y-103338380D01*
X27186000Y-103338380D01*
X27328857Y-103386000D01*
X27424095Y-103481238D01*
X27471714Y-103576476D01*
X27519333Y-103766952D01*
X27519333Y-103909809D01*
X27471714Y-104100285D01*
X27424095Y-104195523D01*
X27328857Y-104290761D01*
X27186000Y-104338380D01*
X26947904Y-104338380D01*
X28471714Y-104338380D02*
X27900285Y-104338380D01*
X28186000Y-104338380D02*
X28186000Y-103338380D01*
X28090761Y-103481238D01*
X27995523Y-103576476D01*
X27900285Y-103624095D01*
D14*
X26045333Y-100072000D02*
X26012000Y-100105333D01*
X25912000Y-100138666D01*
X25845333Y-100138666D01*
X25745333Y-100105333D01*
X25678666Y-100038666D01*
X25645333Y-99972000D01*
X25612000Y-99838666D01*
X25612000Y-99738666D01*
X25645333Y-99605333D01*
X25678666Y-99538666D01*
X25745333Y-99472000D01*
X25845333Y-99438666D01*
X25912000Y-99438666D01*
X26012000Y-99472000D01*
X26045333Y-99505333D01*
X26712000Y-100138666D02*
X26312000Y-100138666D01*
X26512000Y-100138666D02*
X26512000Y-99438666D01*
X26445333Y-99538666D01*
X26378666Y-99605333D01*
X26312000Y-99638666D01*
X25478666Y-96624000D02*
X25478666Y-97090666D01*
X25312000Y-96357333D02*
X25145333Y-96857333D01*
X25578666Y-96857333D01*
X25845333Y-97024000D02*
X25878666Y-97057333D01*
X25845333Y-97090666D01*
X25812000Y-97057333D01*
X25845333Y-97024000D01*
X25845333Y-97090666D01*
X26112000Y-96390666D02*
X26578666Y-96390666D01*
X26278666Y-97090666D01*
X27145333Y-96624000D02*
X27145333Y-97090666D01*
X26845333Y-96624000D02*
X26845333Y-96990666D01*
X26878666Y-97057333D01*
X26945333Y-97090666D01*
X27045333Y-97090666D01*
X27112000Y-97057333D01*
X27145333Y-97024000D01*
X29601333Y-115820000D02*
X29568000Y-115853333D01*
X29468000Y-115886666D01*
X29401333Y-115886666D01*
X29301333Y-115853333D01*
X29234666Y-115786666D01*
X29201333Y-115720000D01*
X29168000Y-115586666D01*
X29168000Y-115486666D01*
X29201333Y-115353333D01*
X29234666Y-115286666D01*
X29301333Y-115220000D01*
X29401333Y-115186666D01*
X29468000Y-115186666D01*
X29568000Y-115220000D01*
X29601333Y-115253333D01*
X29868000Y-115253333D02*
X29901333Y-115220000D01*
X29968000Y-115186666D01*
X30134666Y-115186666D01*
X30201333Y-115220000D01*
X30234666Y-115253333D01*
X30268000Y-115320000D01*
X30268000Y-115386666D01*
X30234666Y-115486666D01*
X29834666Y-115886666D01*
X30268000Y-115886666D01*
X29034666Y-118468000D02*
X29034666Y-118934666D01*
X28868000Y-118201333D02*
X28701333Y-118701333D01*
X29134666Y-118701333D01*
X29401333Y-118868000D02*
X29434666Y-118901333D01*
X29401333Y-118934666D01*
X29368000Y-118901333D01*
X29401333Y-118868000D01*
X29401333Y-118934666D01*
X29668000Y-118234666D02*
X30134666Y-118234666D01*
X29834666Y-118934666D01*
X30701333Y-118468000D02*
X30701333Y-118934666D01*
X30401333Y-118468000D02*
X30401333Y-118834666D01*
X30434666Y-118901333D01*
X30501333Y-118934666D01*
X30601333Y-118934666D01*
X30668000Y-118901333D01*
X30701333Y-118868000D01*
D10*
X47188571Y-34488380D02*
X46617142Y-34488380D01*
X46902857Y-34488380D02*
X46902857Y-33488380D01*
X46807619Y-33631238D01*
X46712380Y-33726476D01*
X46617142Y-33774095D01*
X47807619Y-33488380D02*
X47902857Y-33488380D01*
X47998095Y-33536000D01*
X48045714Y-33583619D01*
X48093333Y-33678857D01*
X48140952Y-33869333D01*
X48140952Y-34107428D01*
X48093333Y-34297904D01*
X48045714Y-34393142D01*
X47998095Y-34440761D01*
X47902857Y-34488380D01*
X47807619Y-34488380D01*
X47712380Y-34440761D01*
X47664761Y-34393142D01*
X47617142Y-34297904D01*
X47569523Y-34107428D01*
X47569523Y-33869333D01*
X47617142Y-33678857D01*
X47664761Y-33583619D01*
X47712380Y-33536000D01*
X47807619Y-33488380D01*
X48760000Y-33488380D02*
X48855238Y-33488380D01*
X48950476Y-33536000D01*
X48998095Y-33583619D01*
X49045714Y-33678857D01*
X49093333Y-33869333D01*
X49093333Y-34107428D01*
X49045714Y-34297904D01*
X48998095Y-34393142D01*
X48950476Y-34440761D01*
X48855238Y-34488380D01*
X48760000Y-34488380D01*
X48664761Y-34440761D01*
X48617142Y-34393142D01*
X48569523Y-34297904D01*
X48521904Y-34107428D01*
X48521904Y-33869333D01*
X48569523Y-33678857D01*
X48617142Y-33583619D01*
X48664761Y-33536000D01*
X48760000Y-33488380D01*
X49521904Y-34488380D02*
X49521904Y-33488380D01*
X49617142Y-34107428D02*
X49902857Y-34488380D01*
X49902857Y-33821714D02*
X49521904Y-34202666D01*
X59634571Y-34488380D02*
X59063142Y-34488380D01*
X59348857Y-34488380D02*
X59348857Y-33488380D01*
X59253619Y-33631238D01*
X59158380Y-33726476D01*
X59063142Y-33774095D01*
X60253619Y-33488380D02*
X60348857Y-33488380D01*
X60444095Y-33536000D01*
X60491714Y-33583619D01*
X60539333Y-33678857D01*
X60586952Y-33869333D01*
X60586952Y-34107428D01*
X60539333Y-34297904D01*
X60491714Y-34393142D01*
X60444095Y-34440761D01*
X60348857Y-34488380D01*
X60253619Y-34488380D01*
X60158380Y-34440761D01*
X60110761Y-34393142D01*
X60063142Y-34297904D01*
X60015523Y-34107428D01*
X60015523Y-33869333D01*
X60063142Y-33678857D01*
X60110761Y-33583619D01*
X60158380Y-33536000D01*
X60253619Y-33488380D01*
X61206000Y-33488380D02*
X61301238Y-33488380D01*
X61396476Y-33536000D01*
X61444095Y-33583619D01*
X61491714Y-33678857D01*
X61539333Y-33869333D01*
X61539333Y-34107428D01*
X61491714Y-34297904D01*
X61444095Y-34393142D01*
X61396476Y-34440761D01*
X61301238Y-34488380D01*
X61206000Y-34488380D01*
X61110761Y-34440761D01*
X61063142Y-34393142D01*
X61015523Y-34297904D01*
X60967904Y-34107428D01*
X60967904Y-33869333D01*
X61015523Y-33678857D01*
X61063142Y-33583619D01*
X61110761Y-33536000D01*
X61206000Y-33488380D01*
X61967904Y-34488380D02*
X61967904Y-33488380D01*
X62063142Y-34107428D02*
X62348857Y-34488380D01*
X62348857Y-33821714D02*
X61967904Y-34202666D01*
X71572571Y-34488380D02*
X71001142Y-34488380D01*
X71286857Y-34488380D02*
X71286857Y-33488380D01*
X71191619Y-33631238D01*
X71096380Y-33726476D01*
X71001142Y-33774095D01*
X72191619Y-33488380D02*
X72286857Y-33488380D01*
X72382095Y-33536000D01*
X72429714Y-33583619D01*
X72477333Y-33678857D01*
X72524952Y-33869333D01*
X72524952Y-34107428D01*
X72477333Y-34297904D01*
X72429714Y-34393142D01*
X72382095Y-34440761D01*
X72286857Y-34488380D01*
X72191619Y-34488380D01*
X72096380Y-34440761D01*
X72048761Y-34393142D01*
X72001142Y-34297904D01*
X71953523Y-34107428D01*
X71953523Y-33869333D01*
X72001142Y-33678857D01*
X72048761Y-33583619D01*
X72096380Y-33536000D01*
X72191619Y-33488380D01*
X73144000Y-33488380D02*
X73239238Y-33488380D01*
X73334476Y-33536000D01*
X73382095Y-33583619D01*
X73429714Y-33678857D01*
X73477333Y-33869333D01*
X73477333Y-34107428D01*
X73429714Y-34297904D01*
X73382095Y-34393142D01*
X73334476Y-34440761D01*
X73239238Y-34488380D01*
X73144000Y-34488380D01*
X73048761Y-34440761D01*
X73001142Y-34393142D01*
X72953523Y-34297904D01*
X72905904Y-34107428D01*
X72905904Y-33869333D01*
X72953523Y-33678857D01*
X73001142Y-33583619D01*
X73048761Y-33536000D01*
X73144000Y-33488380D01*
X73905904Y-34488380D02*
X73905904Y-33488380D01*
X74001142Y-34107428D02*
X74286857Y-34488380D01*
X74286857Y-33821714D02*
X73905904Y-34202666D01*
X35250571Y-51760380D02*
X34679142Y-51760380D01*
X34964857Y-51760380D02*
X34964857Y-50760380D01*
X34869619Y-50903238D01*
X34774380Y-50998476D01*
X34679142Y-51046095D01*
X35869619Y-50760380D02*
X35964857Y-50760380D01*
X36060095Y-50808000D01*
X36107714Y-50855619D01*
X36155333Y-50950857D01*
X36202952Y-51141333D01*
X36202952Y-51379428D01*
X36155333Y-51569904D01*
X36107714Y-51665142D01*
X36060095Y-51712761D01*
X35964857Y-51760380D01*
X35869619Y-51760380D01*
X35774380Y-51712761D01*
X35726761Y-51665142D01*
X35679142Y-51569904D01*
X35631523Y-51379428D01*
X35631523Y-51141333D01*
X35679142Y-50950857D01*
X35726761Y-50855619D01*
X35774380Y-50808000D01*
X35869619Y-50760380D01*
X36822000Y-50760380D02*
X36917238Y-50760380D01*
X37012476Y-50808000D01*
X37060095Y-50855619D01*
X37107714Y-50950857D01*
X37155333Y-51141333D01*
X37155333Y-51379428D01*
X37107714Y-51569904D01*
X37060095Y-51665142D01*
X37012476Y-51712761D01*
X36917238Y-51760380D01*
X36822000Y-51760380D01*
X36726761Y-51712761D01*
X36679142Y-51665142D01*
X36631523Y-51569904D01*
X36583904Y-51379428D01*
X36583904Y-51141333D01*
X36631523Y-50950857D01*
X36679142Y-50855619D01*
X36726761Y-50808000D01*
X36822000Y-50760380D01*
X37583904Y-51760380D02*
X37583904Y-50760380D01*
X37679142Y-51379428D02*
X37964857Y-51760380D01*
X37964857Y-51093714D02*
X37583904Y-51474666D01*
X47188571Y-51760380D02*
X46617142Y-51760380D01*
X46902857Y-51760380D02*
X46902857Y-50760380D01*
X46807619Y-50903238D01*
X46712380Y-50998476D01*
X46617142Y-51046095D01*
X47807619Y-50760380D02*
X47902857Y-50760380D01*
X47998095Y-50808000D01*
X48045714Y-50855619D01*
X48093333Y-50950857D01*
X48140952Y-51141333D01*
X48140952Y-51379428D01*
X48093333Y-51569904D01*
X48045714Y-51665142D01*
X47998095Y-51712761D01*
X47902857Y-51760380D01*
X47807619Y-51760380D01*
X47712380Y-51712761D01*
X47664761Y-51665142D01*
X47617142Y-51569904D01*
X47569523Y-51379428D01*
X47569523Y-51141333D01*
X47617142Y-50950857D01*
X47664761Y-50855619D01*
X47712380Y-50808000D01*
X47807619Y-50760380D01*
X48760000Y-50760380D02*
X48855238Y-50760380D01*
X48950476Y-50808000D01*
X48998095Y-50855619D01*
X49045714Y-50950857D01*
X49093333Y-51141333D01*
X49093333Y-51379428D01*
X49045714Y-51569904D01*
X48998095Y-51665142D01*
X48950476Y-51712761D01*
X48855238Y-51760380D01*
X48760000Y-51760380D01*
X48664761Y-51712761D01*
X48617142Y-51665142D01*
X48569523Y-51569904D01*
X48521904Y-51379428D01*
X48521904Y-51141333D01*
X48569523Y-50950857D01*
X48617142Y-50855619D01*
X48664761Y-50808000D01*
X48760000Y-50760380D01*
X49521904Y-51760380D02*
X49521904Y-50760380D01*
X49617142Y-51379428D02*
X49902857Y-51760380D01*
X49902857Y-51093714D02*
X49521904Y-51474666D01*
X59380571Y-51760380D02*
X58809142Y-51760380D01*
X59094857Y-51760380D02*
X59094857Y-50760380D01*
X58999619Y-50903238D01*
X58904380Y-50998476D01*
X58809142Y-51046095D01*
X59999619Y-50760380D02*
X60094857Y-50760380D01*
X60190095Y-50808000D01*
X60237714Y-50855619D01*
X60285333Y-50950857D01*
X60332952Y-51141333D01*
X60332952Y-51379428D01*
X60285333Y-51569904D01*
X60237714Y-51665142D01*
X60190095Y-51712761D01*
X60094857Y-51760380D01*
X59999619Y-51760380D01*
X59904380Y-51712761D01*
X59856761Y-51665142D01*
X59809142Y-51569904D01*
X59761523Y-51379428D01*
X59761523Y-51141333D01*
X59809142Y-50950857D01*
X59856761Y-50855619D01*
X59904380Y-50808000D01*
X59999619Y-50760380D01*
X60952000Y-50760380D02*
X61047238Y-50760380D01*
X61142476Y-50808000D01*
X61190095Y-50855619D01*
X61237714Y-50950857D01*
X61285333Y-51141333D01*
X61285333Y-51379428D01*
X61237714Y-51569904D01*
X61190095Y-51665142D01*
X61142476Y-51712761D01*
X61047238Y-51760380D01*
X60952000Y-51760380D01*
X60856761Y-51712761D01*
X60809142Y-51665142D01*
X60761523Y-51569904D01*
X60713904Y-51379428D01*
X60713904Y-51141333D01*
X60761523Y-50950857D01*
X60809142Y-50855619D01*
X60856761Y-50808000D01*
X60952000Y-50760380D01*
X61713904Y-51760380D02*
X61713904Y-50760380D01*
X61809142Y-51379428D02*
X62094857Y-51760380D01*
X62094857Y-51093714D02*
X61713904Y-51474666D01*
X71572571Y-51506380D02*
X71001142Y-51506380D01*
X71286857Y-51506380D02*
X71286857Y-50506380D01*
X71191619Y-50649238D01*
X71096380Y-50744476D01*
X71001142Y-50792095D01*
X72191619Y-50506380D02*
X72286857Y-50506380D01*
X72382095Y-50554000D01*
X72429714Y-50601619D01*
X72477333Y-50696857D01*
X72524952Y-50887333D01*
X72524952Y-51125428D01*
X72477333Y-51315904D01*
X72429714Y-51411142D01*
X72382095Y-51458761D01*
X72286857Y-51506380D01*
X72191619Y-51506380D01*
X72096380Y-51458761D01*
X72048761Y-51411142D01*
X72001142Y-51315904D01*
X71953523Y-51125428D01*
X71953523Y-50887333D01*
X72001142Y-50696857D01*
X72048761Y-50601619D01*
X72096380Y-50554000D01*
X72191619Y-50506380D01*
X73144000Y-50506380D02*
X73239238Y-50506380D01*
X73334476Y-50554000D01*
X73382095Y-50601619D01*
X73429714Y-50696857D01*
X73477333Y-50887333D01*
X73477333Y-51125428D01*
X73429714Y-51315904D01*
X73382095Y-51411142D01*
X73334476Y-51458761D01*
X73239238Y-51506380D01*
X73144000Y-51506380D01*
X73048761Y-51458761D01*
X73001142Y-51411142D01*
X72953523Y-51315904D01*
X72905904Y-51125428D01*
X72905904Y-50887333D01*
X72953523Y-50696857D01*
X73001142Y-50601619D01*
X73048761Y-50554000D01*
X73144000Y-50506380D01*
X73905904Y-51506380D02*
X73905904Y-50506380D01*
X74001142Y-51125428D02*
X74286857Y-51506380D01*
X74286857Y-50839714D02*
X73905904Y-51220666D01*
X35250571Y-69032380D02*
X34679142Y-69032380D01*
X34964857Y-69032380D02*
X34964857Y-68032380D01*
X34869619Y-68175238D01*
X34774380Y-68270476D01*
X34679142Y-68318095D01*
X35869619Y-68032380D02*
X35964857Y-68032380D01*
X36060095Y-68080000D01*
X36107714Y-68127619D01*
X36155333Y-68222857D01*
X36202952Y-68413333D01*
X36202952Y-68651428D01*
X36155333Y-68841904D01*
X36107714Y-68937142D01*
X36060095Y-68984761D01*
X35964857Y-69032380D01*
X35869619Y-69032380D01*
X35774380Y-68984761D01*
X35726761Y-68937142D01*
X35679142Y-68841904D01*
X35631523Y-68651428D01*
X35631523Y-68413333D01*
X35679142Y-68222857D01*
X35726761Y-68127619D01*
X35774380Y-68080000D01*
X35869619Y-68032380D01*
X36822000Y-68032380D02*
X36917238Y-68032380D01*
X37012476Y-68080000D01*
X37060095Y-68127619D01*
X37107714Y-68222857D01*
X37155333Y-68413333D01*
X37155333Y-68651428D01*
X37107714Y-68841904D01*
X37060095Y-68937142D01*
X37012476Y-68984761D01*
X36917238Y-69032380D01*
X36822000Y-69032380D01*
X36726761Y-68984761D01*
X36679142Y-68937142D01*
X36631523Y-68841904D01*
X36583904Y-68651428D01*
X36583904Y-68413333D01*
X36631523Y-68222857D01*
X36679142Y-68127619D01*
X36726761Y-68080000D01*
X36822000Y-68032380D01*
X37583904Y-69032380D02*
X37583904Y-68032380D01*
X37679142Y-68651428D02*
X37964857Y-69032380D01*
X37964857Y-68365714D02*
X37583904Y-68746666D01*
X47442571Y-69032380D02*
X46871142Y-69032380D01*
X47156857Y-69032380D02*
X47156857Y-68032380D01*
X47061619Y-68175238D01*
X46966380Y-68270476D01*
X46871142Y-68318095D01*
X48061619Y-68032380D02*
X48156857Y-68032380D01*
X48252095Y-68080000D01*
X48299714Y-68127619D01*
X48347333Y-68222857D01*
X48394952Y-68413333D01*
X48394952Y-68651428D01*
X48347333Y-68841904D01*
X48299714Y-68937142D01*
X48252095Y-68984761D01*
X48156857Y-69032380D01*
X48061619Y-69032380D01*
X47966380Y-68984761D01*
X47918761Y-68937142D01*
X47871142Y-68841904D01*
X47823523Y-68651428D01*
X47823523Y-68413333D01*
X47871142Y-68222857D01*
X47918761Y-68127619D01*
X47966380Y-68080000D01*
X48061619Y-68032380D01*
X49014000Y-68032380D02*
X49109238Y-68032380D01*
X49204476Y-68080000D01*
X49252095Y-68127619D01*
X49299714Y-68222857D01*
X49347333Y-68413333D01*
X49347333Y-68651428D01*
X49299714Y-68841904D01*
X49252095Y-68937142D01*
X49204476Y-68984761D01*
X49109238Y-69032380D01*
X49014000Y-69032380D01*
X48918761Y-68984761D01*
X48871142Y-68937142D01*
X48823523Y-68841904D01*
X48775904Y-68651428D01*
X48775904Y-68413333D01*
X48823523Y-68222857D01*
X48871142Y-68127619D01*
X48918761Y-68080000D01*
X49014000Y-68032380D01*
X49775904Y-69032380D02*
X49775904Y-68032380D01*
X49871142Y-68651428D02*
X50156857Y-69032380D01*
X50156857Y-68365714D02*
X49775904Y-68746666D01*
X59380571Y-69286380D02*
X58809142Y-69286380D01*
X59094857Y-69286380D02*
X59094857Y-68286380D01*
X58999619Y-68429238D01*
X58904380Y-68524476D01*
X58809142Y-68572095D01*
X59999619Y-68286380D02*
X60094857Y-68286380D01*
X60190095Y-68334000D01*
X60237714Y-68381619D01*
X60285333Y-68476857D01*
X60332952Y-68667333D01*
X60332952Y-68905428D01*
X60285333Y-69095904D01*
X60237714Y-69191142D01*
X60190095Y-69238761D01*
X60094857Y-69286380D01*
X59999619Y-69286380D01*
X59904380Y-69238761D01*
X59856761Y-69191142D01*
X59809142Y-69095904D01*
X59761523Y-68905428D01*
X59761523Y-68667333D01*
X59809142Y-68476857D01*
X59856761Y-68381619D01*
X59904380Y-68334000D01*
X59999619Y-68286380D01*
X60952000Y-68286380D02*
X61047238Y-68286380D01*
X61142476Y-68334000D01*
X61190095Y-68381619D01*
X61237714Y-68476857D01*
X61285333Y-68667333D01*
X61285333Y-68905428D01*
X61237714Y-69095904D01*
X61190095Y-69191142D01*
X61142476Y-69238761D01*
X61047238Y-69286380D01*
X60952000Y-69286380D01*
X60856761Y-69238761D01*
X60809142Y-69191142D01*
X60761523Y-69095904D01*
X60713904Y-68905428D01*
X60713904Y-68667333D01*
X60761523Y-68476857D01*
X60809142Y-68381619D01*
X60856761Y-68334000D01*
X60952000Y-68286380D01*
X61713904Y-69286380D02*
X61713904Y-68286380D01*
X61809142Y-68905428D02*
X62094857Y-69286380D01*
X62094857Y-68619714D02*
X61713904Y-69000666D01*
X71572571Y-69286380D02*
X71001142Y-69286380D01*
X71286857Y-69286380D02*
X71286857Y-68286380D01*
X71191619Y-68429238D01*
X71096380Y-68524476D01*
X71001142Y-68572095D01*
X72191619Y-68286380D02*
X72286857Y-68286380D01*
X72382095Y-68334000D01*
X72429714Y-68381619D01*
X72477333Y-68476857D01*
X72524952Y-68667333D01*
X72524952Y-68905428D01*
X72477333Y-69095904D01*
X72429714Y-69191142D01*
X72382095Y-69238761D01*
X72286857Y-69286380D01*
X72191619Y-69286380D01*
X72096380Y-69238761D01*
X72048761Y-69191142D01*
X72001142Y-69095904D01*
X71953523Y-68905428D01*
X71953523Y-68667333D01*
X72001142Y-68476857D01*
X72048761Y-68381619D01*
X72096380Y-68334000D01*
X72191619Y-68286380D01*
X73144000Y-68286380D02*
X73239238Y-68286380D01*
X73334476Y-68334000D01*
X73382095Y-68381619D01*
X73429714Y-68476857D01*
X73477333Y-68667333D01*
X73477333Y-68905428D01*
X73429714Y-69095904D01*
X73382095Y-69191142D01*
X73334476Y-69238761D01*
X73239238Y-69286380D01*
X73144000Y-69286380D01*
X73048761Y-69238761D01*
X73001142Y-69191142D01*
X72953523Y-69095904D01*
X72905904Y-68905428D01*
X72905904Y-68667333D01*
X72953523Y-68476857D01*
X73001142Y-68381619D01*
X73048761Y-68334000D01*
X73144000Y-68286380D01*
X73905904Y-69286380D02*
X73905904Y-68286380D01*
X74001142Y-68905428D02*
X74286857Y-69286380D01*
X74286857Y-68619714D02*
X73905904Y-69000666D01*
X35250571Y-86304380D02*
X34679142Y-86304380D01*
X34964857Y-86304380D02*
X34964857Y-85304380D01*
X34869619Y-85447238D01*
X34774380Y-85542476D01*
X34679142Y-85590095D01*
X35869619Y-85304380D02*
X35964857Y-85304380D01*
X36060095Y-85352000D01*
X36107714Y-85399619D01*
X36155333Y-85494857D01*
X36202952Y-85685333D01*
X36202952Y-85923428D01*
X36155333Y-86113904D01*
X36107714Y-86209142D01*
X36060095Y-86256761D01*
X35964857Y-86304380D01*
X35869619Y-86304380D01*
X35774380Y-86256761D01*
X35726761Y-86209142D01*
X35679142Y-86113904D01*
X35631523Y-85923428D01*
X35631523Y-85685333D01*
X35679142Y-85494857D01*
X35726761Y-85399619D01*
X35774380Y-85352000D01*
X35869619Y-85304380D01*
X36822000Y-85304380D02*
X36917238Y-85304380D01*
X37012476Y-85352000D01*
X37060095Y-85399619D01*
X37107714Y-85494857D01*
X37155333Y-85685333D01*
X37155333Y-85923428D01*
X37107714Y-86113904D01*
X37060095Y-86209142D01*
X37012476Y-86256761D01*
X36917238Y-86304380D01*
X36822000Y-86304380D01*
X36726761Y-86256761D01*
X36679142Y-86209142D01*
X36631523Y-86113904D01*
X36583904Y-85923428D01*
X36583904Y-85685333D01*
X36631523Y-85494857D01*
X36679142Y-85399619D01*
X36726761Y-85352000D01*
X36822000Y-85304380D01*
X37583904Y-86304380D02*
X37583904Y-85304380D01*
X37679142Y-85923428D02*
X37964857Y-86304380D01*
X37964857Y-85637714D02*
X37583904Y-86018666D01*
X47442571Y-86304380D02*
X46871142Y-86304380D01*
X47156857Y-86304380D02*
X47156857Y-85304380D01*
X47061619Y-85447238D01*
X46966380Y-85542476D01*
X46871142Y-85590095D01*
X48061619Y-85304380D02*
X48156857Y-85304380D01*
X48252095Y-85352000D01*
X48299714Y-85399619D01*
X48347333Y-85494857D01*
X48394952Y-85685333D01*
X48394952Y-85923428D01*
X48347333Y-86113904D01*
X48299714Y-86209142D01*
X48252095Y-86256761D01*
X48156857Y-86304380D01*
X48061619Y-86304380D01*
X47966380Y-86256761D01*
X47918761Y-86209142D01*
X47871142Y-86113904D01*
X47823523Y-85923428D01*
X47823523Y-85685333D01*
X47871142Y-85494857D01*
X47918761Y-85399619D01*
X47966380Y-85352000D01*
X48061619Y-85304380D01*
X49014000Y-85304380D02*
X49109238Y-85304380D01*
X49204476Y-85352000D01*
X49252095Y-85399619D01*
X49299714Y-85494857D01*
X49347333Y-85685333D01*
X49347333Y-85923428D01*
X49299714Y-86113904D01*
X49252095Y-86209142D01*
X49204476Y-86256761D01*
X49109238Y-86304380D01*
X49014000Y-86304380D01*
X48918761Y-86256761D01*
X48871142Y-86209142D01*
X48823523Y-86113904D01*
X48775904Y-85923428D01*
X48775904Y-85685333D01*
X48823523Y-85494857D01*
X48871142Y-85399619D01*
X48918761Y-85352000D01*
X49014000Y-85304380D01*
X49775904Y-86304380D02*
X49775904Y-85304380D01*
X49871142Y-85923428D02*
X50156857Y-86304380D01*
X50156857Y-85637714D02*
X49775904Y-86018666D01*
X59380571Y-86304380D02*
X58809142Y-86304380D01*
X59094857Y-86304380D02*
X59094857Y-85304380D01*
X58999619Y-85447238D01*
X58904380Y-85542476D01*
X58809142Y-85590095D01*
X59999619Y-85304380D02*
X60094857Y-85304380D01*
X60190095Y-85352000D01*
X60237714Y-85399619D01*
X60285333Y-85494857D01*
X60332952Y-85685333D01*
X60332952Y-85923428D01*
X60285333Y-86113904D01*
X60237714Y-86209142D01*
X60190095Y-86256761D01*
X60094857Y-86304380D01*
X59999619Y-86304380D01*
X59904380Y-86256761D01*
X59856761Y-86209142D01*
X59809142Y-86113904D01*
X59761523Y-85923428D01*
X59761523Y-85685333D01*
X59809142Y-85494857D01*
X59856761Y-85399619D01*
X59904380Y-85352000D01*
X59999619Y-85304380D01*
X60952000Y-85304380D02*
X61047238Y-85304380D01*
X61142476Y-85352000D01*
X61190095Y-85399619D01*
X61237714Y-85494857D01*
X61285333Y-85685333D01*
X61285333Y-85923428D01*
X61237714Y-86113904D01*
X61190095Y-86209142D01*
X61142476Y-86256761D01*
X61047238Y-86304380D01*
X60952000Y-86304380D01*
X60856761Y-86256761D01*
X60809142Y-86209142D01*
X60761523Y-86113904D01*
X60713904Y-85923428D01*
X60713904Y-85685333D01*
X60761523Y-85494857D01*
X60809142Y-85399619D01*
X60856761Y-85352000D01*
X60952000Y-85304380D01*
X61713904Y-86304380D02*
X61713904Y-85304380D01*
X61809142Y-85923428D02*
X62094857Y-86304380D01*
X62094857Y-85637714D02*
X61713904Y-86018666D01*
X71572571Y-86558380D02*
X71001142Y-86558380D01*
X71286857Y-86558380D02*
X71286857Y-85558380D01*
X71191619Y-85701238D01*
X71096380Y-85796476D01*
X71001142Y-85844095D01*
X72191619Y-85558380D02*
X72286857Y-85558380D01*
X72382095Y-85606000D01*
X72429714Y-85653619D01*
X72477333Y-85748857D01*
X72524952Y-85939333D01*
X72524952Y-86177428D01*
X72477333Y-86367904D01*
X72429714Y-86463142D01*
X72382095Y-86510761D01*
X72286857Y-86558380D01*
X72191619Y-86558380D01*
X72096380Y-86510761D01*
X72048761Y-86463142D01*
X72001142Y-86367904D01*
X71953523Y-86177428D01*
X71953523Y-85939333D01*
X72001142Y-85748857D01*
X72048761Y-85653619D01*
X72096380Y-85606000D01*
X72191619Y-85558380D01*
X73144000Y-85558380D02*
X73239238Y-85558380D01*
X73334476Y-85606000D01*
X73382095Y-85653619D01*
X73429714Y-85748857D01*
X73477333Y-85939333D01*
X73477333Y-86177428D01*
X73429714Y-86367904D01*
X73382095Y-86463142D01*
X73334476Y-86510761D01*
X73239238Y-86558380D01*
X73144000Y-86558380D01*
X73048761Y-86510761D01*
X73001142Y-86463142D01*
X72953523Y-86367904D01*
X72905904Y-86177428D01*
X72905904Y-85939333D01*
X72953523Y-85748857D01*
X73001142Y-85653619D01*
X73048761Y-85606000D01*
X73144000Y-85558380D01*
X73905904Y-86558380D02*
X73905904Y-85558380D01*
X74001142Y-86177428D02*
X74286857Y-86558380D01*
X74286857Y-85891714D02*
X73905904Y-86272666D01*
X44235809Y-104846380D02*
X44235809Y-103846380D01*
X45283428Y-104751142D02*
X45235809Y-104798761D01*
X45092952Y-104846380D01*
X44997714Y-104846380D01*
X44854857Y-104798761D01*
X44759619Y-104703523D01*
X44712000Y-104608285D01*
X44664380Y-104417809D01*
X44664380Y-104274952D01*
X44712000Y-104084476D01*
X44759619Y-103989238D01*
X44854857Y-103894000D01*
X44997714Y-103846380D01*
X45092952Y-103846380D01*
X45235809Y-103894000D01*
X45283428Y-103941619D01*
X46235809Y-104846380D02*
X45664380Y-104846380D01*
X45950095Y-104846380D02*
X45950095Y-103846380D01*
X45854857Y-103989238D01*
X45759619Y-104084476D01*
X45664380Y-104132095D01*
D15*
X39224857Y-119440476D02*
X39273238Y-119392095D01*
X39321619Y-119440476D01*
X39273238Y-119488857D01*
X39224857Y-119440476D01*
X39321619Y-119440476D01*
X38354000Y-119634000D02*
X38305619Y-119537238D01*
X38305619Y-119295333D01*
X38354000Y-119198571D01*
X38450761Y-119150190D01*
X38547523Y-119150190D01*
X38644285Y-119198571D01*
X38692666Y-119246952D01*
X38741047Y-119343714D01*
X38789428Y-119392095D01*
X38886190Y-119440476D01*
X38934571Y-119440476D01*
X39224857Y-118569619D02*
X39273238Y-118521238D01*
X39321619Y-118569619D01*
X39273238Y-118618000D01*
X39224857Y-118569619D01*
X39321619Y-118569619D01*
X38354000Y-118763142D02*
X38305619Y-118666380D01*
X38305619Y-118424476D01*
X38354000Y-118327714D01*
X38450761Y-118279333D01*
X38547523Y-118279333D01*
X38644285Y-118327714D01*
X38692666Y-118376095D01*
X38741047Y-118472857D01*
X38789428Y-118521238D01*
X38886190Y-118569619D01*
X38934571Y-118569619D01*
X39224857Y-117698761D02*
X39273238Y-117650380D01*
X39321619Y-117698761D01*
X39273238Y-117747142D01*
X39224857Y-117698761D01*
X39321619Y-117698761D01*
X38354000Y-117892285D02*
X38305619Y-117795523D01*
X38305619Y-117553619D01*
X38354000Y-117456857D01*
X38450761Y-117408476D01*
X38547523Y-117408476D01*
X38644285Y-117456857D01*
X38692666Y-117505238D01*
X38741047Y-117602000D01*
X38789428Y-117650380D01*
X38886190Y-117698761D01*
X38934571Y-117698761D01*
X39321619Y-116973047D02*
X38305619Y-116973047D01*
X38934571Y-116876285D02*
X39321619Y-116586000D01*
X38644285Y-116586000D02*
X39031333Y-116973047D01*
X36527619Y-119198571D02*
X36527619Y-119779142D01*
X36527619Y-119488857D02*
X35511619Y-119488857D01*
X35656761Y-119585619D01*
X35753523Y-119682380D01*
X35801904Y-119779142D01*
X35511619Y-118569619D02*
X35511619Y-118472857D01*
X35560000Y-118376095D01*
X35608380Y-118327714D01*
X35705142Y-118279333D01*
X35898666Y-118230952D01*
X36140571Y-118230952D01*
X36334095Y-118279333D01*
X36430857Y-118327714D01*
X36479238Y-118376095D01*
X36527619Y-118472857D01*
X36527619Y-118569619D01*
X36479238Y-118666380D01*
X36430857Y-118714761D01*
X36334095Y-118763142D01*
X36140571Y-118811523D01*
X35898666Y-118811523D01*
X35705142Y-118763142D01*
X35608380Y-118714761D01*
X35560000Y-118666380D01*
X35511619Y-118569619D01*
X35511619Y-117602000D02*
X35511619Y-117505238D01*
X35560000Y-117408476D01*
X35608380Y-117360095D01*
X35705142Y-117311714D01*
X35898666Y-117263333D01*
X36140571Y-117263333D01*
X36334095Y-117311714D01*
X36430857Y-117360095D01*
X36479238Y-117408476D01*
X36527619Y-117505238D01*
X36527619Y-117602000D01*
X36479238Y-117698761D01*
X36430857Y-117747142D01*
X36334095Y-117795523D01*
X36140571Y-117843904D01*
X35898666Y-117843904D01*
X35705142Y-117795523D01*
X35608380Y-117747142D01*
X35560000Y-117698761D01*
X35511619Y-117602000D01*
X36527619Y-116827904D02*
X35511619Y-116827904D01*
X36140571Y-116731142D02*
X36527619Y-116440857D01*
X35850285Y-116440857D02*
X36237333Y-116827904D01*
X39067619Y-108784571D02*
X39067619Y-109365142D01*
X39067619Y-109074857D02*
X38051619Y-109074857D01*
X38196761Y-109171619D01*
X38293523Y-109268380D01*
X38341904Y-109365142D01*
X38051619Y-108155619D02*
X38051619Y-108058857D01*
X38100000Y-107962095D01*
X38148380Y-107913714D01*
X38245142Y-107865333D01*
X38438666Y-107816952D01*
X38680571Y-107816952D01*
X38874095Y-107865333D01*
X38970857Y-107913714D01*
X39019238Y-107962095D01*
X39067619Y-108058857D01*
X39067619Y-108155619D01*
X39019238Y-108252380D01*
X38970857Y-108300761D01*
X38874095Y-108349142D01*
X38680571Y-108397523D01*
X38438666Y-108397523D01*
X38245142Y-108349142D01*
X38148380Y-108300761D01*
X38100000Y-108252380D01*
X38051619Y-108155619D01*
X38051619Y-107188000D02*
X38051619Y-107091238D01*
X38100000Y-106994476D01*
X38148380Y-106946095D01*
X38245142Y-106897714D01*
X38438666Y-106849333D01*
X38680571Y-106849333D01*
X38874095Y-106897714D01*
X38970857Y-106946095D01*
X39019238Y-106994476D01*
X39067619Y-107091238D01*
X39067619Y-107188000D01*
X39019238Y-107284761D01*
X38970857Y-107333142D01*
X38874095Y-107381523D01*
X38680571Y-107429904D01*
X38438666Y-107429904D01*
X38245142Y-107381523D01*
X38148380Y-107333142D01*
X38100000Y-107284761D01*
X38051619Y-107188000D01*
X39067619Y-106413904D02*
X38051619Y-106413904D01*
X38680571Y-106317142D02*
X39067619Y-106026857D01*
X38390285Y-106026857D02*
X38777333Y-106413904D01*
X52178857Y-119440476D02*
X52227238Y-119392095D01*
X52275619Y-119440476D01*
X52227238Y-119488857D01*
X52178857Y-119440476D01*
X52275619Y-119440476D01*
X51308000Y-119634000D02*
X51259619Y-119537238D01*
X51259619Y-119295333D01*
X51308000Y-119198571D01*
X51404761Y-119150190D01*
X51501523Y-119150190D01*
X51598285Y-119198571D01*
X51646666Y-119246952D01*
X51695047Y-119343714D01*
X51743428Y-119392095D01*
X51840190Y-119440476D01*
X51888571Y-119440476D01*
X52178857Y-118569619D02*
X52227238Y-118521238D01*
X52275619Y-118569619D01*
X52227238Y-118618000D01*
X52178857Y-118569619D01*
X52275619Y-118569619D01*
X51308000Y-118763142D02*
X51259619Y-118666380D01*
X51259619Y-118424476D01*
X51308000Y-118327714D01*
X51404761Y-118279333D01*
X51501523Y-118279333D01*
X51598285Y-118327714D01*
X51646666Y-118376095D01*
X51695047Y-118472857D01*
X51743428Y-118521238D01*
X51840190Y-118569619D01*
X51888571Y-118569619D01*
X52178857Y-117698761D02*
X52227238Y-117650380D01*
X52275619Y-117698761D01*
X52227238Y-117747142D01*
X52178857Y-117698761D01*
X52275619Y-117698761D01*
X51308000Y-117892285D02*
X51259619Y-117795523D01*
X51259619Y-117553619D01*
X51308000Y-117456857D01*
X51404761Y-117408476D01*
X51501523Y-117408476D01*
X51598285Y-117456857D01*
X51646666Y-117505238D01*
X51695047Y-117602000D01*
X51743428Y-117650380D01*
X51840190Y-117698761D01*
X51888571Y-117698761D01*
X52275619Y-116973047D02*
X51259619Y-116973047D01*
X51888571Y-116876285D02*
X52275619Y-116586000D01*
X51598285Y-116586000D02*
X51985333Y-116973047D01*
X55069619Y-119198571D02*
X55069619Y-119779142D01*
X55069619Y-119488857D02*
X54053619Y-119488857D01*
X54198761Y-119585619D01*
X54295523Y-119682380D01*
X54343904Y-119779142D01*
X54053619Y-118569619D02*
X54053619Y-118472857D01*
X54102000Y-118376095D01*
X54150380Y-118327714D01*
X54247142Y-118279333D01*
X54440666Y-118230952D01*
X54682571Y-118230952D01*
X54876095Y-118279333D01*
X54972857Y-118327714D01*
X55021238Y-118376095D01*
X55069619Y-118472857D01*
X55069619Y-118569619D01*
X55021238Y-118666380D01*
X54972857Y-118714761D01*
X54876095Y-118763142D01*
X54682571Y-118811523D01*
X54440666Y-118811523D01*
X54247142Y-118763142D01*
X54150380Y-118714761D01*
X54102000Y-118666380D01*
X54053619Y-118569619D01*
X54053619Y-117602000D02*
X54053619Y-117505238D01*
X54102000Y-117408476D01*
X54150380Y-117360095D01*
X54247142Y-117311714D01*
X54440666Y-117263333D01*
X54682571Y-117263333D01*
X54876095Y-117311714D01*
X54972857Y-117360095D01*
X55021238Y-117408476D01*
X55069619Y-117505238D01*
X55069619Y-117602000D01*
X55021238Y-117698761D01*
X54972857Y-117747142D01*
X54876095Y-117795523D01*
X54682571Y-117843904D01*
X54440666Y-117843904D01*
X54247142Y-117795523D01*
X54150380Y-117747142D01*
X54102000Y-117698761D01*
X54053619Y-117602000D01*
X55069619Y-116827904D02*
X54053619Y-116827904D01*
X54682571Y-116731142D02*
X55069619Y-116440857D01*
X54392285Y-116440857D02*
X54779333Y-116827904D01*
X52275619Y-108784571D02*
X52275619Y-109365142D01*
X52275619Y-109074857D02*
X51259619Y-109074857D01*
X51404761Y-109171619D01*
X51501523Y-109268380D01*
X51549904Y-109365142D01*
X51259619Y-108155619D02*
X51259619Y-108058857D01*
X51308000Y-107962095D01*
X51356380Y-107913714D01*
X51453142Y-107865333D01*
X51646666Y-107816952D01*
X51888571Y-107816952D01*
X52082095Y-107865333D01*
X52178857Y-107913714D01*
X52227238Y-107962095D01*
X52275619Y-108058857D01*
X52275619Y-108155619D01*
X52227238Y-108252380D01*
X52178857Y-108300761D01*
X52082095Y-108349142D01*
X51888571Y-108397523D01*
X51646666Y-108397523D01*
X51453142Y-108349142D01*
X51356380Y-108300761D01*
X51308000Y-108252380D01*
X51259619Y-108155619D01*
X51259619Y-107188000D02*
X51259619Y-107091238D01*
X51308000Y-106994476D01*
X51356380Y-106946095D01*
X51453142Y-106897714D01*
X51646666Y-106849333D01*
X51888571Y-106849333D01*
X52082095Y-106897714D01*
X52178857Y-106946095D01*
X52227238Y-106994476D01*
X52275619Y-107091238D01*
X52275619Y-107188000D01*
X52227238Y-107284761D01*
X52178857Y-107333142D01*
X52082095Y-107381523D01*
X51888571Y-107429904D01*
X51646666Y-107429904D01*
X51453142Y-107381523D01*
X51356380Y-107333142D01*
X51308000Y-107284761D01*
X51259619Y-107188000D01*
X52275619Y-106413904D02*
X51259619Y-106413904D01*
X51888571Y-106317142D02*
X52275619Y-106026857D01*
X51598285Y-106026857D02*
X51985333Y-106413904D01*
X62084857Y-119440476D02*
X62133238Y-119392095D01*
X62181619Y-119440476D01*
X62133238Y-119488857D01*
X62084857Y-119440476D01*
X62181619Y-119440476D01*
X61214000Y-119634000D02*
X61165619Y-119537238D01*
X61165619Y-119295333D01*
X61214000Y-119198571D01*
X61310761Y-119150190D01*
X61407523Y-119150190D01*
X61504285Y-119198571D01*
X61552666Y-119246952D01*
X61601047Y-119343714D01*
X61649428Y-119392095D01*
X61746190Y-119440476D01*
X61794571Y-119440476D01*
X62084857Y-118569619D02*
X62133238Y-118521238D01*
X62181619Y-118569619D01*
X62133238Y-118618000D01*
X62084857Y-118569619D01*
X62181619Y-118569619D01*
X61214000Y-118763142D02*
X61165619Y-118666380D01*
X61165619Y-118424476D01*
X61214000Y-118327714D01*
X61310761Y-118279333D01*
X61407523Y-118279333D01*
X61504285Y-118327714D01*
X61552666Y-118376095D01*
X61601047Y-118472857D01*
X61649428Y-118521238D01*
X61746190Y-118569619D01*
X61794571Y-118569619D01*
X62084857Y-117698761D02*
X62133238Y-117650380D01*
X62181619Y-117698761D01*
X62133238Y-117747142D01*
X62084857Y-117698761D01*
X62181619Y-117698761D01*
X61214000Y-117892285D02*
X61165619Y-117795523D01*
X61165619Y-117553619D01*
X61214000Y-117456857D01*
X61310761Y-117408476D01*
X61407523Y-117408476D01*
X61504285Y-117456857D01*
X61552666Y-117505238D01*
X61601047Y-117602000D01*
X61649428Y-117650380D01*
X61746190Y-117698761D01*
X61794571Y-117698761D01*
X62181619Y-116973047D02*
X61165619Y-116973047D01*
X61794571Y-116876285D02*
X62181619Y-116586000D01*
X61504285Y-116586000D02*
X61891333Y-116973047D01*
X59641619Y-119198571D02*
X59641619Y-119779142D01*
X59641619Y-119488857D02*
X58625619Y-119488857D01*
X58770761Y-119585619D01*
X58867523Y-119682380D01*
X58915904Y-119779142D01*
X58625619Y-118569619D02*
X58625619Y-118472857D01*
X58674000Y-118376095D01*
X58722380Y-118327714D01*
X58819142Y-118279333D01*
X59012666Y-118230952D01*
X59254571Y-118230952D01*
X59448095Y-118279333D01*
X59544857Y-118327714D01*
X59593238Y-118376095D01*
X59641619Y-118472857D01*
X59641619Y-118569619D01*
X59593238Y-118666380D01*
X59544857Y-118714761D01*
X59448095Y-118763142D01*
X59254571Y-118811523D01*
X59012666Y-118811523D01*
X58819142Y-118763142D01*
X58722380Y-118714761D01*
X58674000Y-118666380D01*
X58625619Y-118569619D01*
X58625619Y-117602000D02*
X58625619Y-117505238D01*
X58674000Y-117408476D01*
X58722380Y-117360095D01*
X58819142Y-117311714D01*
X59012666Y-117263333D01*
X59254571Y-117263333D01*
X59448095Y-117311714D01*
X59544857Y-117360095D01*
X59593238Y-117408476D01*
X59641619Y-117505238D01*
X59641619Y-117602000D01*
X59593238Y-117698761D01*
X59544857Y-117747142D01*
X59448095Y-117795523D01*
X59254571Y-117843904D01*
X59012666Y-117843904D01*
X58819142Y-117795523D01*
X58722380Y-117747142D01*
X58674000Y-117698761D01*
X58625619Y-117602000D01*
X59641619Y-116827904D02*
X58625619Y-116827904D01*
X59254571Y-116731142D02*
X59641619Y-116440857D01*
X58964285Y-116440857D02*
X59351333Y-116827904D01*
X62181619Y-108784571D02*
X62181619Y-109365142D01*
X62181619Y-109074857D02*
X61165619Y-109074857D01*
X61310761Y-109171619D01*
X61407523Y-109268380D01*
X61455904Y-109365142D01*
X61165619Y-108155619D02*
X61165619Y-108058857D01*
X61214000Y-107962095D01*
X61262380Y-107913714D01*
X61359142Y-107865333D01*
X61552666Y-107816952D01*
X61794571Y-107816952D01*
X61988095Y-107865333D01*
X62084857Y-107913714D01*
X62133238Y-107962095D01*
X62181619Y-108058857D01*
X62181619Y-108155619D01*
X62133238Y-108252380D01*
X62084857Y-108300761D01*
X61988095Y-108349142D01*
X61794571Y-108397523D01*
X61552666Y-108397523D01*
X61359142Y-108349142D01*
X61262380Y-108300761D01*
X61214000Y-108252380D01*
X61165619Y-108155619D01*
X61165619Y-107188000D02*
X61165619Y-107091238D01*
X61214000Y-106994476D01*
X61262380Y-106946095D01*
X61359142Y-106897714D01*
X61552666Y-106849333D01*
X61794571Y-106849333D01*
X61988095Y-106897714D01*
X62084857Y-106946095D01*
X62133238Y-106994476D01*
X62181619Y-107091238D01*
X62181619Y-107188000D01*
X62133238Y-107284761D01*
X62084857Y-107333142D01*
X61988095Y-107381523D01*
X61794571Y-107429904D01*
X61552666Y-107429904D01*
X61359142Y-107381523D01*
X61262380Y-107333142D01*
X61214000Y-107284761D01*
X61165619Y-107188000D01*
X62181619Y-106413904D02*
X61165619Y-106413904D01*
X61794571Y-106317142D02*
X62181619Y-106026857D01*
X61504285Y-106026857D02*
X61891333Y-106413904D01*
X74784857Y-119186476D02*
X74833238Y-119138095D01*
X74881619Y-119186476D01*
X74833238Y-119234857D01*
X74784857Y-119186476D01*
X74881619Y-119186476D01*
X73914000Y-119380000D02*
X73865619Y-119283238D01*
X73865619Y-119041333D01*
X73914000Y-118944571D01*
X74010761Y-118896190D01*
X74107523Y-118896190D01*
X74204285Y-118944571D01*
X74252666Y-118992952D01*
X74301047Y-119089714D01*
X74349428Y-119138095D01*
X74446190Y-119186476D01*
X74494571Y-119186476D01*
X74784857Y-118315619D02*
X74833238Y-118267238D01*
X74881619Y-118315619D01*
X74833238Y-118364000D01*
X74784857Y-118315619D01*
X74881619Y-118315619D01*
X73914000Y-118509142D02*
X73865619Y-118412380D01*
X73865619Y-118170476D01*
X73914000Y-118073714D01*
X74010761Y-118025333D01*
X74107523Y-118025333D01*
X74204285Y-118073714D01*
X74252666Y-118122095D01*
X74301047Y-118218857D01*
X74349428Y-118267238D01*
X74446190Y-118315619D01*
X74494571Y-118315619D01*
X74784857Y-117444761D02*
X74833238Y-117396380D01*
X74881619Y-117444761D01*
X74833238Y-117493142D01*
X74784857Y-117444761D01*
X74881619Y-117444761D01*
X73914000Y-117638285D02*
X73865619Y-117541523D01*
X73865619Y-117299619D01*
X73914000Y-117202857D01*
X74010761Y-117154476D01*
X74107523Y-117154476D01*
X74204285Y-117202857D01*
X74252666Y-117251238D01*
X74301047Y-117348000D01*
X74349428Y-117396380D01*
X74446190Y-117444761D01*
X74494571Y-117444761D01*
X74881619Y-116719047D02*
X73865619Y-116719047D01*
X74494571Y-116622285D02*
X74881619Y-116332000D01*
X74204285Y-116332000D02*
X74591333Y-116719047D01*
X77421619Y-118690571D02*
X77421619Y-119271142D01*
X77421619Y-118980857D02*
X76405619Y-118980857D01*
X76550761Y-119077619D01*
X76647523Y-119174380D01*
X76695904Y-119271142D01*
X76405619Y-118061619D02*
X76405619Y-117964857D01*
X76454000Y-117868095D01*
X76502380Y-117819714D01*
X76599142Y-117771333D01*
X76792666Y-117722952D01*
X77034571Y-117722952D01*
X77228095Y-117771333D01*
X77324857Y-117819714D01*
X77373238Y-117868095D01*
X77421619Y-117964857D01*
X77421619Y-118061619D01*
X77373238Y-118158380D01*
X77324857Y-118206761D01*
X77228095Y-118255142D01*
X77034571Y-118303523D01*
X76792666Y-118303523D01*
X76599142Y-118255142D01*
X76502380Y-118206761D01*
X76454000Y-118158380D01*
X76405619Y-118061619D01*
X76405619Y-117094000D02*
X76405619Y-116997238D01*
X76454000Y-116900476D01*
X76502380Y-116852095D01*
X76599142Y-116803714D01*
X76792666Y-116755333D01*
X77034571Y-116755333D01*
X77228095Y-116803714D01*
X77324857Y-116852095D01*
X77373238Y-116900476D01*
X77421619Y-116997238D01*
X77421619Y-117094000D01*
X77373238Y-117190761D01*
X77324857Y-117239142D01*
X77228095Y-117287523D01*
X77034571Y-117335904D01*
X76792666Y-117335904D01*
X76599142Y-117287523D01*
X76502380Y-117239142D01*
X76454000Y-117190761D01*
X76405619Y-117094000D01*
X77421619Y-116319904D02*
X76405619Y-116319904D01*
X77034571Y-116223142D02*
X77421619Y-115932857D01*
X76744285Y-115932857D02*
X77131333Y-116319904D01*
X74881619Y-108530571D02*
X74881619Y-109111142D01*
X74881619Y-108820857D02*
X73865619Y-108820857D01*
X74010761Y-108917619D01*
X74107523Y-109014380D01*
X74155904Y-109111142D01*
X73865619Y-107901619D02*
X73865619Y-107804857D01*
X73914000Y-107708095D01*
X73962380Y-107659714D01*
X74059142Y-107611333D01*
X74252666Y-107562952D01*
X74494571Y-107562952D01*
X74688095Y-107611333D01*
X74784857Y-107659714D01*
X74833238Y-107708095D01*
X74881619Y-107804857D01*
X74881619Y-107901619D01*
X74833238Y-107998380D01*
X74784857Y-108046761D01*
X74688095Y-108095142D01*
X74494571Y-108143523D01*
X74252666Y-108143523D01*
X74059142Y-108095142D01*
X73962380Y-108046761D01*
X73914000Y-107998380D01*
X73865619Y-107901619D01*
X73865619Y-106934000D02*
X73865619Y-106837238D01*
X73914000Y-106740476D01*
X73962380Y-106692095D01*
X74059142Y-106643714D01*
X74252666Y-106595333D01*
X74494571Y-106595333D01*
X74688095Y-106643714D01*
X74784857Y-106692095D01*
X74833238Y-106740476D01*
X74881619Y-106837238D01*
X74881619Y-106934000D01*
X74833238Y-107030761D01*
X74784857Y-107079142D01*
X74688095Y-107127523D01*
X74494571Y-107175904D01*
X74252666Y-107175904D01*
X74059142Y-107127523D01*
X73962380Y-107079142D01*
X73914000Y-107030761D01*
X73865619Y-106934000D01*
X74881619Y-106159904D02*
X73865619Y-106159904D01*
X74494571Y-106063142D02*
X74881619Y-105772857D01*
X74204285Y-105772857D02*
X74591333Y-106159904D01*
D10*
X67095809Y-104846380D02*
X67095809Y-103846380D01*
X68143428Y-104751142D02*
X68095809Y-104798761D01*
X67952952Y-104846380D01*
X67857714Y-104846380D01*
X67714857Y-104798761D01*
X67619619Y-104703523D01*
X67572000Y-104608285D01*
X67524380Y-104417809D01*
X67524380Y-104274952D01*
X67572000Y-104084476D01*
X67619619Y-103989238D01*
X67714857Y-103894000D01*
X67857714Y-103846380D01*
X67952952Y-103846380D01*
X68095809Y-103894000D01*
X68143428Y-103941619D01*
X68524380Y-103941619D02*
X68572000Y-103894000D01*
X68667238Y-103846380D01*
X68905333Y-103846380D01*
X69000571Y-103894000D01*
X69048190Y-103941619D01*
X69095809Y-104036857D01*
X69095809Y-104132095D01*
X69048190Y-104274952D01*
X68476761Y-104846380D01*
X69095809Y-104846380D01*
X23058380Y-24836095D02*
X22058380Y-24836095D01*
X23058380Y-24359904D02*
X22058380Y-24359904D01*
X23058380Y-23788476D01*
X22058380Y-23788476D01*
X23058380Y-23312285D02*
X22058380Y-23312285D01*
X22058380Y-22931333D01*
X22106000Y-22836095D01*
X22153619Y-22788476D01*
X22248857Y-22740857D01*
X22391714Y-22740857D01*
X22486952Y-22788476D01*
X22534571Y-22836095D01*
X22582190Y-22931333D01*
X22582190Y-23312285D01*
X22058380Y-22312285D02*
X22867904Y-22312285D01*
X22963142Y-22264666D01*
X23010761Y-22217047D01*
X23058380Y-22121809D01*
X23058380Y-21931333D01*
X23010761Y-21836095D01*
X22963142Y-21788476D01*
X22867904Y-21740857D01*
X22058380Y-21740857D01*
X22058380Y-21407523D02*
X22058380Y-20836095D01*
X23058380Y-21121809D02*
X22058380Y-21121809D01*
X23153619Y-20740857D02*
X23153619Y-19978952D01*
X22772666Y-19788476D02*
X22772666Y-19312285D01*
X23058380Y-19883714D02*
X22058380Y-19550380D01*
X23058380Y-19217047D01*
X22804380Y-41925523D02*
X21804380Y-41925523D01*
X22804380Y-41449333D02*
X21804380Y-41449333D01*
X22804380Y-40877904D01*
X21804380Y-40877904D01*
X22804380Y-40401714D02*
X21804380Y-40401714D01*
X21804380Y-40020761D01*
X21852000Y-39925523D01*
X21899619Y-39877904D01*
X21994857Y-39830285D01*
X22137714Y-39830285D01*
X22232952Y-39877904D01*
X22280571Y-39925523D01*
X22328190Y-40020761D01*
X22328190Y-40401714D01*
X21804380Y-39401714D02*
X22613904Y-39401714D01*
X22709142Y-39354095D01*
X22756761Y-39306476D01*
X22804380Y-39211238D01*
X22804380Y-39020761D01*
X22756761Y-38925523D01*
X22709142Y-38877904D01*
X22613904Y-38830285D01*
X21804380Y-38830285D01*
X21804380Y-38496952D02*
X21804380Y-37925523D01*
X22804380Y-38211238D02*
X21804380Y-38211238D01*
X22899619Y-37830285D02*
X22899619Y-37068380D01*
X22280571Y-36496952D02*
X22328190Y-36354095D01*
X22375809Y-36306476D01*
X22471047Y-36258857D01*
X22613904Y-36258857D01*
X22709142Y-36306476D01*
X22756761Y-36354095D01*
X22804380Y-36449333D01*
X22804380Y-36830285D01*
X21804380Y-36830285D01*
X21804380Y-36496952D01*
X21852000Y-36401714D01*
X21899619Y-36354095D01*
X21994857Y-36306476D01*
X22090095Y-36306476D01*
X22185333Y-36354095D01*
X22232952Y-36401714D01*
X22280571Y-36496952D01*
X22280571Y-36830285D01*
X22804380Y-59197523D02*
X21804380Y-59197523D01*
X22804380Y-58721333D02*
X21804380Y-58721333D01*
X22804380Y-58149904D01*
X21804380Y-58149904D01*
X22804380Y-57673714D02*
X21804380Y-57673714D01*
X21804380Y-57292761D01*
X21852000Y-57197523D01*
X21899619Y-57149904D01*
X21994857Y-57102285D01*
X22137714Y-57102285D01*
X22232952Y-57149904D01*
X22280571Y-57197523D01*
X22328190Y-57292761D01*
X22328190Y-57673714D01*
X21804380Y-56673714D02*
X22613904Y-56673714D01*
X22709142Y-56626095D01*
X22756761Y-56578476D01*
X22804380Y-56483238D01*
X22804380Y-56292761D01*
X22756761Y-56197523D01*
X22709142Y-56149904D01*
X22613904Y-56102285D01*
X21804380Y-56102285D01*
X21804380Y-55768952D02*
X21804380Y-55197523D01*
X22804380Y-55483238D02*
X21804380Y-55483238D01*
X22899619Y-55102285D02*
X22899619Y-54340380D01*
X22709142Y-53530857D02*
X22756761Y-53578476D01*
X22804380Y-53721333D01*
X22804380Y-53816571D01*
X22756761Y-53959428D01*
X22661523Y-54054666D01*
X22566285Y-54102285D01*
X22375809Y-54149904D01*
X22232952Y-54149904D01*
X22042476Y-54102285D01*
X21947238Y-54054666D01*
X21852000Y-53959428D01*
X21804380Y-53816571D01*
X21804380Y-53721333D01*
X21852000Y-53578476D01*
X21899619Y-53530857D01*
X22550380Y-76469523D02*
X21550380Y-76469523D01*
X22550380Y-75993333D02*
X21550380Y-75993333D01*
X22550380Y-75421904D01*
X21550380Y-75421904D01*
X22550380Y-74945714D02*
X21550380Y-74945714D01*
X21550380Y-74564761D01*
X21598000Y-74469523D01*
X21645619Y-74421904D01*
X21740857Y-74374285D01*
X21883714Y-74374285D01*
X21978952Y-74421904D01*
X22026571Y-74469523D01*
X22074190Y-74564761D01*
X22074190Y-74945714D01*
X21550380Y-73945714D02*
X22359904Y-73945714D01*
X22455142Y-73898095D01*
X22502761Y-73850476D01*
X22550380Y-73755238D01*
X22550380Y-73564761D01*
X22502761Y-73469523D01*
X22455142Y-73421904D01*
X22359904Y-73374285D01*
X21550380Y-73374285D01*
X21550380Y-73040952D02*
X21550380Y-72469523D01*
X22550380Y-72755238D02*
X21550380Y-72755238D01*
X22645619Y-72374285D02*
X22645619Y-71612380D01*
X22550380Y-71374285D02*
X21550380Y-71374285D01*
X21550380Y-71136190D01*
X21598000Y-70993333D01*
X21693238Y-70898095D01*
X21788476Y-70850476D01*
X21978952Y-70802857D01*
X22121809Y-70802857D01*
X22312285Y-70850476D01*
X22407523Y-70898095D01*
X22502761Y-70993333D01*
X22550380Y-71136190D01*
X22550380Y-71374285D01*
X39584380Y-100242285D02*
X39584380Y-100051809D01*
X39632000Y-99956571D01*
X39727238Y-99861333D01*
X39917714Y-99813714D01*
X40251047Y-99813714D01*
X40441523Y-99861333D01*
X40536761Y-99956571D01*
X40584380Y-100051809D01*
X40584380Y-100242285D01*
X40536761Y-100337523D01*
X40441523Y-100432761D01*
X40251047Y-100480380D01*
X39917714Y-100480380D01*
X39727238Y-100432761D01*
X39632000Y-100337523D01*
X39584380Y-100242285D01*
X39584380Y-99385142D02*
X40393904Y-99385142D01*
X40489142Y-99337523D01*
X40536761Y-99289904D01*
X40584380Y-99194666D01*
X40584380Y-99004190D01*
X40536761Y-98908952D01*
X40489142Y-98861333D01*
X40393904Y-98813714D01*
X39584380Y-98813714D01*
X39584380Y-98480380D02*
X39584380Y-97908952D01*
X40584380Y-98194666D02*
X39584380Y-98194666D01*
X40584380Y-97575619D02*
X39584380Y-97575619D01*
X39584380Y-97194666D01*
X39632000Y-97099428D01*
X39679619Y-97051809D01*
X39774857Y-97004190D01*
X39917714Y-97004190D01*
X40012952Y-97051809D01*
X40060571Y-97099428D01*
X40108190Y-97194666D01*
X40108190Y-97575619D01*
X39584380Y-96575619D02*
X40393904Y-96575619D01*
X40489142Y-96528000D01*
X40536761Y-96480380D01*
X40584380Y-96385142D01*
X40584380Y-96194666D01*
X40536761Y-96099428D01*
X40489142Y-96051809D01*
X40393904Y-96004190D01*
X39584380Y-96004190D01*
X39584380Y-95670857D02*
X39584380Y-95099428D01*
X40584380Y-95385142D02*
X39584380Y-95385142D01*
X40679619Y-95004190D02*
X40679619Y-94242285D01*
X40298666Y-94051809D02*
X40298666Y-93575619D01*
X40584380Y-94147047D02*
X39584380Y-93813714D01*
X40584380Y-93480380D01*
X51268380Y-100313714D02*
X51268380Y-100123238D01*
X51316000Y-100028000D01*
X51411238Y-99932761D01*
X51601714Y-99885142D01*
X51935047Y-99885142D01*
X52125523Y-99932761D01*
X52220761Y-100028000D01*
X52268380Y-100123238D01*
X52268380Y-100313714D01*
X52220761Y-100408952D01*
X52125523Y-100504190D01*
X51935047Y-100551809D01*
X51601714Y-100551809D01*
X51411238Y-100504190D01*
X51316000Y-100408952D01*
X51268380Y-100313714D01*
X51268380Y-99456571D02*
X52077904Y-99456571D01*
X52173142Y-99408952D01*
X52220761Y-99361333D01*
X52268380Y-99266095D01*
X52268380Y-99075619D01*
X52220761Y-98980380D01*
X52173142Y-98932761D01*
X52077904Y-98885142D01*
X51268380Y-98885142D01*
X51268380Y-98551809D02*
X51268380Y-97980380D01*
X52268380Y-98266095D02*
X51268380Y-98266095D01*
X52268380Y-97647047D02*
X51268380Y-97647047D01*
X51268380Y-97266095D01*
X51316000Y-97170857D01*
X51363619Y-97123238D01*
X51458857Y-97075619D01*
X51601714Y-97075619D01*
X51696952Y-97123238D01*
X51744571Y-97170857D01*
X51792190Y-97266095D01*
X51792190Y-97647047D01*
X51268380Y-96647047D02*
X52077904Y-96647047D01*
X52173142Y-96599428D01*
X52220761Y-96551809D01*
X52268380Y-96456571D01*
X52268380Y-96266095D01*
X52220761Y-96170857D01*
X52173142Y-96123238D01*
X52077904Y-96075619D01*
X51268380Y-96075619D01*
X51268380Y-95742285D02*
X51268380Y-95170857D01*
X52268380Y-95456571D02*
X51268380Y-95456571D01*
X52363619Y-95075619D02*
X52363619Y-94313714D01*
X51744571Y-93742285D02*
X51792190Y-93599428D01*
X51839809Y-93551809D01*
X51935047Y-93504190D01*
X52077904Y-93504190D01*
X52173142Y-93551809D01*
X52220761Y-93599428D01*
X52268380Y-93694666D01*
X52268380Y-94075619D01*
X51268380Y-94075619D01*
X51268380Y-93742285D01*
X51316000Y-93647047D01*
X51363619Y-93599428D01*
X51458857Y-93551809D01*
X51554095Y-93551809D01*
X51649333Y-93599428D01*
X51696952Y-93647047D01*
X51744571Y-93742285D01*
X51744571Y-94075619D01*
X63460380Y-100313714D02*
X63460380Y-100123238D01*
X63508000Y-100028000D01*
X63603238Y-99932761D01*
X63793714Y-99885142D01*
X64127047Y-99885142D01*
X64317523Y-99932761D01*
X64412761Y-100028000D01*
X64460380Y-100123238D01*
X64460380Y-100313714D01*
X64412761Y-100408952D01*
X64317523Y-100504190D01*
X64127047Y-100551809D01*
X63793714Y-100551809D01*
X63603238Y-100504190D01*
X63508000Y-100408952D01*
X63460380Y-100313714D01*
X63460380Y-99456571D02*
X64269904Y-99456571D01*
X64365142Y-99408952D01*
X64412761Y-99361333D01*
X64460380Y-99266095D01*
X64460380Y-99075619D01*
X64412761Y-98980380D01*
X64365142Y-98932761D01*
X64269904Y-98885142D01*
X63460380Y-98885142D01*
X63460380Y-98551809D02*
X63460380Y-97980380D01*
X64460380Y-98266095D02*
X63460380Y-98266095D01*
X64460380Y-97647047D02*
X63460380Y-97647047D01*
X63460380Y-97266095D01*
X63508000Y-97170857D01*
X63555619Y-97123238D01*
X63650857Y-97075619D01*
X63793714Y-97075619D01*
X63888952Y-97123238D01*
X63936571Y-97170857D01*
X63984190Y-97266095D01*
X63984190Y-97647047D01*
X63460380Y-96647047D02*
X64269904Y-96647047D01*
X64365142Y-96599428D01*
X64412761Y-96551809D01*
X64460380Y-96456571D01*
X64460380Y-96266095D01*
X64412761Y-96170857D01*
X64365142Y-96123238D01*
X64269904Y-96075619D01*
X63460380Y-96075619D01*
X63460380Y-95742285D02*
X63460380Y-95170857D01*
X64460380Y-95456571D02*
X63460380Y-95456571D01*
X64555619Y-95075619D02*
X64555619Y-94313714D01*
X64365142Y-93504190D02*
X64412761Y-93551809D01*
X64460380Y-93694666D01*
X64460380Y-93789904D01*
X64412761Y-93932761D01*
X64317523Y-94028000D01*
X64222285Y-94075619D01*
X64031809Y-94123238D01*
X63888952Y-94123238D01*
X63698476Y-94075619D01*
X63603238Y-94028000D01*
X63508000Y-93932761D01*
X63460380Y-93789904D01*
X63460380Y-93694666D01*
X63508000Y-93551809D01*
X63555619Y-93504190D01*
X75652380Y-100567714D02*
X75652380Y-100377238D01*
X75700000Y-100282000D01*
X75795238Y-100186761D01*
X75985714Y-100139142D01*
X76319047Y-100139142D01*
X76509523Y-100186761D01*
X76604761Y-100282000D01*
X76652380Y-100377238D01*
X76652380Y-100567714D01*
X76604761Y-100662952D01*
X76509523Y-100758190D01*
X76319047Y-100805809D01*
X75985714Y-100805809D01*
X75795238Y-100758190D01*
X75700000Y-100662952D01*
X75652380Y-100567714D01*
X75652380Y-99710571D02*
X76461904Y-99710571D01*
X76557142Y-99662952D01*
X76604761Y-99615333D01*
X76652380Y-99520095D01*
X76652380Y-99329619D01*
X76604761Y-99234380D01*
X76557142Y-99186761D01*
X76461904Y-99139142D01*
X75652380Y-99139142D01*
X75652380Y-98805809D02*
X75652380Y-98234380D01*
X76652380Y-98520095D02*
X75652380Y-98520095D01*
X76652380Y-97901047D02*
X75652380Y-97901047D01*
X75652380Y-97520095D01*
X75700000Y-97424857D01*
X75747619Y-97377238D01*
X75842857Y-97329619D01*
X75985714Y-97329619D01*
X76080952Y-97377238D01*
X76128571Y-97424857D01*
X76176190Y-97520095D01*
X76176190Y-97901047D01*
X75652380Y-96901047D02*
X76461904Y-96901047D01*
X76557142Y-96853428D01*
X76604761Y-96805809D01*
X76652380Y-96710571D01*
X76652380Y-96520095D01*
X76604761Y-96424857D01*
X76557142Y-96377238D01*
X76461904Y-96329619D01*
X75652380Y-96329619D01*
X75652380Y-95996285D02*
X75652380Y-95424857D01*
X76652380Y-95710571D02*
X75652380Y-95710571D01*
X76747619Y-95329619D02*
X76747619Y-94567714D01*
X76652380Y-94329619D02*
X75652380Y-94329619D01*
X75652380Y-94091523D01*
X75700000Y-93948666D01*
X75795238Y-93853428D01*
X75890476Y-93805809D01*
X76080952Y-93758190D01*
X76223809Y-93758190D01*
X76414285Y-93805809D01*
X76509523Y-93853428D01*
X76604761Y-93948666D01*
X76652380Y-94091523D01*
X76652380Y-94329619D01*
M02*
