G04 #@! TF.GenerationSoftware,KiCad,Pcbnew,(5.1.2-1)-1*
G04 #@! TF.CreationDate,2020-01-19T15:05:30+01:00*
G04 #@! TF.ProjectId,matrix-mixer,6d617472-6978-42d6-9d69-7865722e6b69,rev?*
G04 #@! TF.SameCoordinates,Original*
G04 #@! TF.FileFunction,Copper,L2,Bot*
G04 #@! TF.FilePolarity,Positive*
%FSLAX46Y46*%
G04 Gerber Fmt 4.6, Leading zero omitted, Abs format (unit mm)*
G04 Created by KiCad (PCBNEW (5.1.2-1)-1) date 2020-01-19 15:05:30*
%MOMM*%
%LPD*%
G04 APERTURE LIST*
%ADD10O,1.600000X1.600000*%
%ADD11C,1.600000*%
%ADD12O,1.700000X1.700000*%
%ADD13R,1.700000X1.700000*%
%ADD14O,2.200000X2.200000*%
%ADD15R,2.200000X2.200000*%
%ADD16R,1.600000X1.600000*%
%ADD17C,1.803400*%
%ADD18C,2.667000*%
%ADD19C,1.397000*%
%ADD20C,2.130000*%
%ADD21R,1.930000X1.830000*%
%ADD22C,0.250000*%
G04 APERTURE END LIST*
D10*
X39878000Y-34036000D03*
D11*
X32258000Y-34036000D03*
D12*
X25476000Y-117520000D03*
X22936000Y-117520000D03*
X25476000Y-114980000D03*
X22936000Y-114980000D03*
X25476000Y-112440000D03*
X22936000Y-112440000D03*
X25476000Y-109900000D03*
X22936000Y-109900000D03*
X25476000Y-107360000D03*
D13*
X22936000Y-107360000D03*
D14*
X33020000Y-122428000D03*
D15*
X22860000Y-122428000D03*
D14*
X22860000Y-103886000D03*
D15*
X33020000Y-103886000D03*
D11*
X23662000Y-98298000D03*
D16*
X26162000Y-98298000D03*
D11*
X32218000Y-117094000D03*
D16*
X29718000Y-117094000D03*
D10*
X52070000Y-34036000D03*
D11*
X44450000Y-34036000D03*
D10*
X64516000Y-34039026D03*
D11*
X56896000Y-34039026D03*
D10*
X76454000Y-34036000D03*
D11*
X68834000Y-34036000D03*
D10*
X40132000Y-51308000D03*
D11*
X32512000Y-51308000D03*
D10*
X52070000Y-51308000D03*
D11*
X44450000Y-51308000D03*
D10*
X64262000Y-51308000D03*
D11*
X56642000Y-51308000D03*
D10*
X76454000Y-51054000D03*
D11*
X68834000Y-51054000D03*
D10*
X40132000Y-68580000D03*
D11*
X32512000Y-68580000D03*
D10*
X52324000Y-68580000D03*
D11*
X44704000Y-68580000D03*
D10*
X64262000Y-68834000D03*
D11*
X56642000Y-68834000D03*
D10*
X76454000Y-68834000D03*
D11*
X68834000Y-68834000D03*
D10*
X40132000Y-85852000D03*
D11*
X32512000Y-85852000D03*
D10*
X52070000Y-85852000D03*
D11*
X44450000Y-85852000D03*
D10*
X64262000Y-85852000D03*
D11*
X56642000Y-85852000D03*
D10*
X76454000Y-86106000D03*
D11*
X68834000Y-86106000D03*
D17*
X38862163Y-31142243D03*
X36322163Y-31142243D03*
X33782163Y-31142243D03*
D18*
X31927963Y-24131843D03*
X40716363Y-24131843D03*
D17*
X50800163Y-31142243D03*
X48260163Y-31142243D03*
X45720163Y-31142243D03*
D18*
X43865963Y-24131843D03*
X52654363Y-24131843D03*
D17*
X62992163Y-31183957D03*
X60452163Y-31183957D03*
X57912163Y-31183957D03*
D18*
X56057963Y-24173557D03*
X64846363Y-24173557D03*
D17*
X75184163Y-31204814D03*
X72644163Y-31204814D03*
X70104163Y-31204814D03*
D18*
X68249963Y-24194414D03*
X77038363Y-24194414D03*
D17*
X38862163Y-48414243D03*
X36322163Y-48414243D03*
X33782163Y-48414243D03*
D18*
X31927963Y-41403843D03*
X40716363Y-41403843D03*
D17*
X50800163Y-48414243D03*
X48260163Y-48414243D03*
X45720163Y-48414243D03*
D18*
X43865963Y-41403843D03*
X52654363Y-41403843D03*
D17*
X62992163Y-48414243D03*
X60452163Y-48414243D03*
X57912163Y-48414243D03*
D18*
X56057963Y-41403843D03*
X64846363Y-41403843D03*
D17*
X75184163Y-48414243D03*
X72644163Y-48414243D03*
X70104163Y-48414243D03*
D18*
X68249963Y-41403843D03*
X77038363Y-41403843D03*
D17*
X38862163Y-65686243D03*
X36322163Y-65686243D03*
X33782163Y-65686243D03*
D18*
X31927963Y-58675843D03*
X40716363Y-58675843D03*
D17*
X50800163Y-65686243D03*
X48260163Y-65686243D03*
X45720163Y-65686243D03*
D18*
X43865963Y-58675843D03*
X52654363Y-58675843D03*
D17*
X62992163Y-65686243D03*
X60452163Y-65686243D03*
X57912163Y-65686243D03*
D18*
X56057963Y-58675843D03*
X64846363Y-58675843D03*
D17*
X75184163Y-65432243D03*
X72644163Y-65432243D03*
X70104163Y-65432243D03*
D18*
X68249963Y-58421843D03*
X77038363Y-58421843D03*
D17*
X38862163Y-82882043D03*
X36322163Y-82882043D03*
X33782163Y-82882043D03*
D18*
X31927963Y-75871643D03*
X40716363Y-75871643D03*
D17*
X50800163Y-82958243D03*
X48260163Y-82958243D03*
X45720163Y-82958243D03*
D18*
X43865963Y-75947843D03*
X52654363Y-75947843D03*
D17*
X62992163Y-82958243D03*
X60452163Y-82958243D03*
X57912163Y-82958243D03*
D18*
X56057963Y-75947843D03*
X64846363Y-75947843D03*
D17*
X75184163Y-82704243D03*
X72644163Y-82704243D03*
X70104163Y-82704243D03*
D18*
X68249963Y-75693843D03*
X77038363Y-75693843D03*
D16*
X41402000Y-103836000D03*
D10*
X49022000Y-119076000D03*
X41402000Y-106376000D03*
X49022000Y-116536000D03*
X41402000Y-108916000D03*
X49022000Y-113996000D03*
X41402000Y-111456000D03*
X49022000Y-111456000D03*
X41402000Y-113996000D03*
X49022000Y-108916000D03*
X41402000Y-116536000D03*
X49022000Y-106376000D03*
X41402000Y-119076000D03*
X49022000Y-103836000D03*
D19*
X38862000Y-121920000D03*
X38862000Y-114300000D03*
X36068000Y-114300000D03*
X36068000Y-121920000D03*
X38608000Y-103886000D03*
X38608000Y-111506000D03*
X51816000Y-121920000D03*
X51816000Y-114300000D03*
X54610000Y-114300000D03*
X54610000Y-121920000D03*
X51816000Y-103886000D03*
X51816000Y-111506000D03*
X61722000Y-121920000D03*
X61722000Y-114300000D03*
X59182000Y-114300000D03*
X59182000Y-121920000D03*
X61722000Y-103886000D03*
X61722000Y-111506000D03*
X74422000Y-121666000D03*
X74422000Y-114046000D03*
X76962000Y-114046000D03*
X76962000Y-121666000D03*
X74422000Y-103632000D03*
X74422000Y-111252000D03*
D16*
X64262000Y-103836000D03*
D10*
X71882000Y-119076000D03*
X64262000Y-106376000D03*
X71882000Y-116536000D03*
X64262000Y-108916000D03*
X71882000Y-113996000D03*
X64262000Y-111456000D03*
X71882000Y-111456000D03*
X64262000Y-113996000D03*
X71882000Y-108916000D03*
X64262000Y-116536000D03*
X71882000Y-106376000D03*
X64262000Y-119076000D03*
X71882000Y-103836000D03*
D20*
X26162000Y-19588000D03*
D21*
X26162000Y-30988000D03*
D20*
X26162000Y-27888000D03*
X25908000Y-36606000D03*
D21*
X25908000Y-48006000D03*
D20*
X25908000Y-44906000D03*
X25908000Y-53878000D03*
D21*
X25908000Y-65278000D03*
D20*
X25908000Y-62178000D03*
X25654000Y-71150000D03*
D21*
X25654000Y-82550000D03*
D20*
X25654000Y-79450000D03*
X36450000Y-100256000D03*
D21*
X36450000Y-88856000D03*
D20*
X36450000Y-91956000D03*
X48260000Y-100256000D03*
D21*
X48260000Y-88856000D03*
D20*
X48260000Y-91956000D03*
X60452000Y-100300000D03*
D21*
X60452000Y-88900000D03*
D20*
X60452000Y-92000000D03*
X72644000Y-100554000D03*
D21*
X72644000Y-89154000D03*
D20*
X72644000Y-92254000D03*
D22*
X33832000Y-103886000D02*
X33020000Y-103886000D01*
X41402000Y-111456000D02*
X33832000Y-103886000D01*
X63462001Y-110656001D02*
X64262000Y-111456000D01*
X63136999Y-110330999D02*
X63462001Y-110656001D01*
X42527001Y-110330999D02*
X63136999Y-110330999D01*
X41402000Y-111456000D02*
X42527001Y-110330999D01*
X42533370Y-108916000D02*
X49022000Y-108916000D01*
X41402000Y-108916000D02*
X42533370Y-108916000D01*
X64262000Y-108916000D02*
X71882000Y-108916000D01*
X64262000Y-113996000D02*
X71882000Y-113996000D01*
X41402000Y-113996000D02*
X49022000Y-113996000D01*
X71082001Y-112255999D02*
X71882000Y-111456000D01*
X70756999Y-112581001D02*
X71082001Y-112255999D01*
X50147001Y-112581001D02*
X70756999Y-112581001D01*
X34119999Y-123527999D02*
X38768783Y-123527999D01*
X33020000Y-122428000D02*
X34119999Y-123527999D01*
X49821999Y-112255999D02*
X49022000Y-111456000D01*
X50147001Y-112581001D02*
X49821999Y-112255999D01*
X50147001Y-117076001D02*
X50147001Y-112581001D01*
X49562001Y-117661001D02*
X50147001Y-117076001D01*
X44635781Y-117661001D02*
X49562001Y-117661001D01*
X38768783Y-123527999D02*
X44635781Y-117661001D01*
X40132000Y-47868562D02*
X40132000Y-50176630D01*
X40132000Y-50176630D02*
X40132000Y-51308000D01*
X39057862Y-46794424D02*
X40132000Y-47868562D01*
X39057862Y-34856138D02*
X39057862Y-46794424D01*
X39878000Y-34036000D02*
X39057862Y-34856138D01*
X40132000Y-65140562D02*
X40132000Y-67448630D01*
X39057862Y-64066424D02*
X40132000Y-65140562D01*
X40132000Y-67448630D02*
X40132000Y-68580000D01*
X39057862Y-52382138D02*
X39057862Y-64066424D01*
X40132000Y-51308000D02*
X39057862Y-52382138D01*
X40132000Y-84720630D02*
X40132000Y-85852000D01*
X40132000Y-82336362D02*
X40132000Y-84720630D01*
X39057862Y-69654138D02*
X39057862Y-81262224D01*
X39057862Y-81262224D02*
X40132000Y-82336362D01*
X40132000Y-68580000D02*
X39057862Y-69654138D01*
X52070000Y-50176630D02*
X52070000Y-51308000D01*
X52070000Y-47868562D02*
X52070000Y-50176630D01*
X50995862Y-35110138D02*
X50995862Y-46794424D01*
X50995862Y-46794424D02*
X52070000Y-47868562D01*
X52070000Y-34036000D02*
X50995862Y-35110138D01*
X52324000Y-67448630D02*
X52324000Y-68580000D01*
X52324000Y-65394562D02*
X52324000Y-67448630D01*
X50995862Y-64066424D02*
X52324000Y-65394562D01*
X50995862Y-52382138D02*
X50995862Y-64066424D01*
X52070000Y-51308000D02*
X50995862Y-52382138D01*
X52070000Y-84720630D02*
X52070000Y-85852000D01*
X52070000Y-82412562D02*
X52070000Y-84720630D01*
X50995862Y-81338424D02*
X52070000Y-82412562D01*
X50995862Y-69908138D02*
X50995862Y-81338424D01*
X52324000Y-68580000D02*
X50995862Y-69908138D01*
X76454000Y-49922630D02*
X76454000Y-51054000D01*
X76454000Y-47868562D02*
X76454000Y-49922630D01*
X75379862Y-46794424D02*
X76454000Y-47868562D01*
X75379862Y-35110138D02*
X75379862Y-46794424D01*
X76454000Y-34036000D02*
X75379862Y-35110138D01*
X76454000Y-67702630D02*
X76454000Y-68834000D01*
X76454000Y-64886562D02*
X76454000Y-67702630D01*
X75379862Y-63812424D02*
X76454000Y-64886562D01*
X75379862Y-52128138D02*
X75379862Y-63812424D01*
X76454000Y-51054000D02*
X75379862Y-52128138D01*
X76454000Y-84974630D02*
X76454000Y-86106000D01*
X76454000Y-82158562D02*
X76454000Y-84974630D01*
X75379862Y-69908138D02*
X75379862Y-81084424D01*
X75379862Y-81084424D02*
X76454000Y-82158562D01*
X76454000Y-68834000D02*
X75379862Y-69908138D01*
X64262000Y-50176630D02*
X64262000Y-51308000D01*
X63187862Y-46794424D02*
X64262000Y-47868562D01*
X64262000Y-47868562D02*
X64262000Y-50176630D01*
X63187862Y-35367164D02*
X63187862Y-46794424D01*
X64516000Y-34039026D02*
X63187862Y-35367164D01*
X64262000Y-67702630D02*
X64262000Y-68834000D01*
X63187862Y-64066424D02*
X64262000Y-65140562D01*
X64262000Y-65140562D02*
X64262000Y-67702630D01*
X63187862Y-52382138D02*
X63187862Y-64066424D01*
X64262000Y-51308000D02*
X63187862Y-52382138D01*
X64262000Y-84720630D02*
X64262000Y-85852000D01*
X64262000Y-82412562D02*
X64262000Y-84720630D01*
X63187862Y-81338424D02*
X64262000Y-82412562D01*
X63187862Y-69908138D02*
X63187862Y-81338424D01*
X64262000Y-68834000D02*
X63187862Y-69908138D01*
M02*
