<?xml version="1.0" encoding="UTF-8" standalone="no"?>
<svg
   viewBox="0 0 793.7007874015749 1122.5196850393702"
   width="793.7007874015749"
   height="1122.5196850393702"
   version="1.1"
   id="svg222"
   sodipodi:docname="stereo-mix-panel-center.svg"
   inkscape:version="1.1-beta1 (77e7b44d, 2021-03-28)"
   xmlns:inkscape="http://www.inkscape.org/namespaces/inkscape"
   xmlns:sodipodi="http://sodipodi.sourceforge.net/DTD/sodipodi-0.dtd"
   xmlns="http://www.w3.org/2000/svg"
   xmlns:svg="http://www.w3.org/2000/svg">
  <sodipodi:namedview
     id="namedview224"
     pagecolor="#ffffff"
     bordercolor="#666666"
     borderopacity="1.0"
     objecttolerance="10.0"
     gridtolerance="10.0"
     guidetolerance="10.0"
     inkscape:pageshadow="2"
     inkscape:pageopacity="0.0"
     inkscape:pagecheckerboard="0"
     showgrid="false"
     inkscape:snap-object-midpoints="true"
     inkscape:zoom="1.5554293"
     inkscape:cx="609.15657"
     inkscape:cy="601.44166"
     inkscape:window-width="2560"
     inkscape:window-height="1387"
     inkscape:window-x="0"
     inkscape:window-y="26"
     inkscape:window-maximized="0"
     inkscape:current-layer="g218" />
  <defs
     id="defs178">
    <marker
       id="DistanceX"
       orient="auto"
       refX="0.0"
       refY="0.0"
       style="overflow:visible">
      <path
         d="M 3,-3 L -3,3 M 0,-5 L  0,5"
         style="stroke:#000000; stroke-width:0.5"
         id="path166" />
    </marker>
    <pattern
       id="Hatch"
       patternUnits="userSpaceOnUse"
       width="8"
       height="8"
       x="0"
       y="0">
      <path
         d="M8 4 l-4,4"
         stroke="#000000"
         stroke-width="0.25"
         linecap="square"
         id="path169" />
      <path
         d="M6 2 l-4,4"
         stroke="#000000"
         stroke-width="0.25"
         linecap="square"
         id="path171" />
      <path
         d="M4 0 l-4,4"
         stroke="#000000"
         stroke-width="0.25"
         linecap="square"
         id="path173" />
    </pattern>
    <symbol
       id="*Model_Space" />
    <symbol
       id="*Paper_Space" />
  </defs>
  <g
     inkscape:groupmode="layer"
     inkscape:label="0"
     id="g218">
    <path
       d="M 91.293122,864.07014 H 667.29312 V 714.21187 H 91.293122 Z"
       style="fill:none;stroke:#000000;stroke-width:0.8;stroke-linecap:round;stroke-miterlimit:4;stroke-dasharray:none"
       id="path180" />
    <path
       d="m 125.68682,852.73156 a 6.047244,6.047244 0 1 0 -12.09449,0 6.047244,6.047244 0 1 0 12.09449,0 z"
       style="fill:none;stroke:#000000;stroke-width:0.8;stroke-linecap:round;stroke-miterlimit:4;stroke-dasharray:none"
       id="path182" />
    <path
       d="m 125.68682,725.55046 a 6.047244,6.047244 0 1 0 -12.09449,0 6.047244,6.047244 0 1 0 12.09449,0 z"
       style="fill:none;stroke:#000000;stroke-width:0.8;stroke-linecap:round;stroke-miterlimit:4;stroke-dasharray:none"
       id="path184" />
    <path
       d="m 644.61596,852.73156 a 6.0472445,6.0472445 0 1 0 -12.09449,0 6.0472445,6.0472445 0 1 0 12.09449,0 z"
       style="fill:none;stroke:#000000;stroke-width:0.8;stroke-linecap:round;stroke-miterlimit:4;stroke-dasharray:none"
       id="path186" />
    <path
       d="m 644.61596,725.55046 a 6.0472445,6.0472445 0 1 0 -12.09449,0 6.0472445,6.0472445 0 1 0 12.09449,0 z"
       style="fill:none;stroke:#000000;stroke-width:0.8;stroke-linecap:round;stroke-miterlimit:4;stroke-dasharray:none"
       id="path188" />
    <path
       d="m 136.2506,806.43235 a 11.338583,11.338583 0 1 0 -22.67716,0 11.338583,11.338583 0 1 0 22.67716,0 z"
       style="fill:none;stroke:#000000;stroke-width:0.8;stroke-linecap:round;stroke-miterlimit:4;stroke-dasharray:none"
       id="path190" />
    <path
       d="m 136.2506,770.90479 a 11.338583,11.338583 0 1 0 -22.67716,0 11.338583,11.338583 0 1 0 22.67716,0 z"
       style="fill:none;stroke:#000000;stroke-width:0.8;stroke-linecap:round;stroke-miterlimit:4;stroke-dasharray:none"
       id="path192" />
    <path
       d="m 238.94037,806.43235 a 11.338583,11.338583 0 1 0 -22.67717,0 11.338583,11.338583 0 1 0 22.67717,0 z"
       style="fill:none;stroke:#000000;stroke-width:0.8;stroke-linecap:round;stroke-miterlimit:4;stroke-dasharray:none"
       id="path194" />
    <path
       d="m 238.94037,770.90479 a 11.338583,11.338583 0 1 0 -22.67717,0 11.338583,11.338583 0 1 0 22.67717,0 z"
       style="fill:none;stroke:#000000;stroke-width:0.8;stroke-linecap:round;stroke-miterlimit:4;stroke-dasharray:none"
       id="path196" />
    <path
       d="m 343.59548,806.43235 a 11.338583,11.338583 0 1 0 -22.67716,0 11.338583,11.338583 0 1 0 22.67716,0 z"
       style="fill:none;stroke:#000000;stroke-width:0.8;stroke-linecap:round;stroke-miterlimit:4;stroke-dasharray:none"
       id="path198" />
    <path
       d="m 343.59548,770.90479 a 11.338583,11.338583 0 1 0 -22.67716,0 11.338583,11.338583 0 1 0 22.67716,0 z"
       style="fill:none;stroke:#000000;stroke-width:0.8;stroke-linecap:round;stroke-miterlimit:4;stroke-dasharray:none"
       id="path200" />
    <path
       d="m 447.26792,806.43235 a 11.338583,11.338583 0 1 0 -22.67716,0 11.338583,11.338583 0 1 0 22.67716,0 z"
       style="fill:none;stroke:#000000;stroke-width:0.8;stroke-linecap:round;stroke-miterlimit:4;stroke-dasharray:none"
       id="path202" />
    <path
       d="m 447.26792,770.90479 a 11.338583,11.338583 0 1 0 -22.67716,0 11.338583,11.338583 0 1 0 22.67716,0 z"
       style="fill:none;stroke:#000000;stroke-width:0.8;stroke-linecap:round;stroke-miterlimit:4;stroke-dasharray:none"
       id="path204" />
    <path
       d="m 612.39548,806.43235 a 11.338583,11.338583 0 1 0 -22.67716,0 11.338583,11.338583 0 1 0 22.67716,0 z"
       style="fill:none;stroke:#000000;stroke-width:0.8;stroke-linecap:round;stroke-miterlimit:4;stroke-dasharray:none"
       id="path206" />
    <path
       d="m 612.39548,770.90479 a 11.338583,11.338583 0 1 0 -22.67716,0 11.338583,11.338583 0 1 0 22.67716,0 z"
       style="fill:none;stroke:#000000;stroke-width:0.8;stroke-linecap:round;stroke-miterlimit:4;stroke-dasharray:none"
       id="path208" />
    <path
       d="m 182.98446,781.44967 a 12,12 0 1 0 -24,0 12,12 0 1 0 24,0 z"
       style="fill:none;stroke:#000000;stroke-width:0.8;stroke-linecap:round;stroke-miterlimit:4;stroke-dasharray:none"
       id="path210" />
    <path
       d="m 286.6569,781.44967 a 12,12 0 1 0 -24,0 12,12 0 1 0 24,0 z"
       style="fill:none;stroke:#000000;stroke-width:0.8;stroke-linecap:round;stroke-miterlimit:4;stroke-dasharray:none"
       id="path212" />
    <path
       d="m 390.32934,781.44967 a 12,12 0 1 0 -24,0 12,12 0 1 0 24,0 z"
       style="fill:none;stroke:#000000;stroke-width:0.8;stroke-linecap:round;stroke-miterlimit:4;stroke-dasharray:none"
       id="path214" />
    <path
       d="m 494.56871,781.44967 a 12,12 0 1 0 -24,0 12,12 0 1 0 24,0 z"
       style="fill:none;stroke:#000000;stroke-width:0.8;stroke-linecap:round;stroke-miterlimit:4;stroke-dasharray:none"
       id="path216" />
    <path
       sodipodi:type="star"
       style="fill:none;stroke:#000000;stroke-width:0.08;stroke-miterlimit:4;stroke-dasharray:none;stroke-opacity:1"
       id="path316"
       inkscape:flatsided="false"
       sodipodi:sides="4"
       sodipodi:cx="124.91202"
       sodipodi:cy="770.90471"
       sodipodi:r1="3.9759765"
       sodipodi:r2="0.039759766"
       sodipodi:arg1="1.0814947"
       sodipodi:arg2="1.8668929"
       inkscape:rounded="0"
       inkscape:randomized="0"
       d="m 126.78076,774.41416 -1.88034,-3.47141 -3.49784,1.83072 3.47141,-1.88035 -1.83072,-3.49784 1.88035,3.47141 3.49784,-1.83071 -3.47141,1.88035 z" />
    <path
       sodipodi:type="star"
       style="fill:none;stroke:#000000;stroke-width:0.08;stroke-miterlimit:4;stroke-dasharray:none;stroke-opacity:1"
       id="path1205"
       inkscape:flatsided="false"
       sodipodi:sides="4"
       sodipodi:cx="124.91202"
       sodipodi:cy="806.43242"
       sodipodi:r1="4.1565018"
       sodipodi:r2="0.041565016"
       sodipodi:arg1="0.88387263"
       sodipodi:arg2="1.6692708"
       inkscape:rounded="0"
       inkscape:randomized="0"
       d="m 127.54791,809.64624 -2.63998,-3.17244 -3.20972,2.59453 3.17244,-2.63998 -2.59453,-3.20973 2.63998,3.17245 3.20973,-2.59453 -3.17245,2.63998 z" />
    <path
       sodipodi:type="star"
       style="fill:none;stroke:#000000;stroke-width:0.08;stroke-miterlimit:4;stroke-dasharray:none;stroke-opacity:1"
       id="path1207"
       inkscape:flatsided="false"
       sodipodi:sides="4"
       sodipodi:cx="119.63958"
       sodipodi:cy="725.55046"
       sodipodi:r1="2.7171614"
       sodipodi:r2="0.027171616"
       sodipodi:arg1="0.91471733"
       sodipodi:arg2="1.7001155"
       inkscape:rounded="0"
       inkscape:randomized="0"
       d="m 121.29709,727.70353 -1.66101,-2.12611 -2.14955,1.63056 2.12611,-1.66101 -1.63057,-2.14955 1.66101,2.12611 2.14955,-1.63056 -2.12611,1.66101 z" />
    <path
       sodipodi:type="star"
       style="fill:none;stroke:#000000;stroke-width:0.08;stroke-miterlimit:4;stroke-dasharray:none;stroke-opacity:1"
       id="path1209"
       inkscape:flatsided="false"
       sodipodi:sides="4"
       sodipodi:cx="170.98446"
       sodipodi:cy="781.44963"
       sodipodi:r1="5.1341281"
       sodipodi:r2="0.05134128"
       sodipodi:arg1="1.0920857"
       sodipodi:arg2="1.8774839"
       inkscape:rounded="0"
       inkscape:randomized="0"
       d="m 173.34943,786.00664 -2.38046,-4.50805 -4.5415,2.31602 4.50805,-2.38046 -2.31601,-4.5415 2.38046,4.50805 4.5415,-2.31601 -4.50806,2.38046 z" />
    <path
       sodipodi:type="star"
       style="fill:none;stroke:#000000;stroke-width:0.08;stroke-miterlimit:4;stroke-dasharray:none;stroke-opacity:1"
       id="path1211"
       inkscape:flatsided="false"
       sodipodi:sides="4"
       sodipodi:cx="119.63958"
       sodipodi:cy="852.73161"
       sodipodi:r1="3.8445916"
       sodipodi:r2="0.038445916"
       sodipodi:arg1="1.0241662"
       sodipodi:arg2="1.8095644"
       inkscape:rounded="0"
       inkscape:randomized="0"
       d="m 121.63804,856.01599 -2.00755,-3.24701 -3.27527,1.96111 3.247,-2.00755 -1.9611,-3.27527 2.00755,3.247 3.27527,-1.9611 -3.24701,2.00755 z" />
    <path
       sodipodi:type="star"
       style="fill:none;stroke:#000000;stroke-width:0.08;stroke-miterlimit:4;stroke-dasharray:none;stroke-opacity:1"
       id="path1213"
       inkscape:flatsided="false"
       sodipodi:sides="4"
       sodipodi:cx="227.60178"
       sodipodi:cy="806.43242"
       sodipodi:r1="4.9842587"
       sodipodi:r2="0.049842589"
       sodipodi:arg1="0.9741211"
       sodipodi:arg2="1.7595193"
       inkscape:rounded="0"
       inkscape:randomized="0"
       d="m 230.40241,810.55545 -2.80998,-4.07406 -4.11367,2.75168 4.07406,-2.80999 -2.75168,-4.11367 2.80999,4.07407 4.11367,-2.75168 -4.07407,2.80998 z" />
    <path
       sodipodi:type="star"
       style="fill:none;stroke:#000000;stroke-width:0.08;stroke-miterlimit:4;stroke-dasharray:none;stroke-opacity:1"
       id="path1215"
       inkscape:flatsided="false"
       sodipodi:sides="4"
       sodipodi:cx="227.60178"
       sodipodi:cy="770.90471"
       sodipodi:r1="4.1662641"
       sodipodi:r2="0.041662641"
       sodipodi:arg1="0.67399852"
       sodipodi:arg2="1.4593967"
       inkscape:rounded="0"
       inkscape:randomized="0"
       d="m 230.85701,773.50495 -3.2506,-2.55882 -2.60486,3.21383 2.55882,-3.2506 -3.21383,-2.60486 3.2506,2.55882 2.60486,-3.21383 -2.55882,3.2506 z" />
    <path
       sodipodi:type="star"
       style="fill:none;stroke:#000000;stroke-width:0.08;stroke-miterlimit:4;stroke-dasharray:none;stroke-opacity:1"
       id="path1217"
       inkscape:flatsided="false"
       sodipodi:sides="4"
       sodipodi:cx="274.65691"
       sodipodi:cy="781.44963"
       sodipodi:r1="4.5281353"
       sodipodi:r2="0.045281351"
       sodipodi:arg1="1.0270579"
       sodipodi:arg2="1.8124561"
       inkscape:rounded="0"
       inkscape:randomized="0"
       d="m 276.9995,785.32474 -2.35342,-3.83113 -3.86425,2.29862 3.83113,-2.35342 -2.29862,-3.86425 2.35342,3.83112 3.86425,-2.29861 -3.83112,2.35341 z" />
    <path
       sodipodi:type="star"
       style="fill:none;stroke:#000000;stroke-width:0.08;stroke-miterlimit:4;stroke-dasharray:none;stroke-opacity:1"
       id="path1223"
       inkscape:flatsided="false"
       sodipodi:sides="4"
       sodipodi:cx="332.2569"
       sodipodi:cy="770.90471"
       sodipodi:r1="6.4352164"
       sodipodi:r2="0.064352162"
       sodipodi:arg1="1.0777715"
       sodipodi:arg2="1.8631697"
       inkscape:rounded="0"
       inkscape:randomized="0"
       d="m 335.30264,776.57354 -3.06429,-5.60719 -5.65027,2.98411 5.6072,-3.06428 -2.98412,-5.65027 3.06428,5.60719 5.65027,-2.98412 -5.60719,3.06429 z" />
    <path
       sodipodi:type="star"
       style="fill:none;stroke:#000000;stroke-width:0.08;stroke-miterlimit:4;stroke-dasharray:none;stroke-opacity:1"
       id="path1225"
       inkscape:flatsided="false"
       sodipodi:sides="4"
       sodipodi:cx="332.2569"
       sodipodi:cy="806.43242"
       sodipodi:r1="7.6420336"
       sodipodi:r2="0.076420337"
       sodipodi:arg1="0.99169768"
       sodipodi:arg2="1.7770958"
       inkscape:rounded="0"
       inkscape:randomized="0"
       d="m 336.43915,812.82848 -4.19791,-6.32125 -6.38039,4.10746 6.32125,-4.19791 -4.10746,-6.38039 4.19791,6.32124 6.38039,-4.10745 -6.32124,4.19791 z" />
    <path
       sodipodi:type="star"
       style="fill:none;stroke:#000000;stroke-width:0.08;stroke-miterlimit:4;stroke-dasharray:none;stroke-opacity:1"
       id="path1227"
       inkscape:flatsided="false"
       sodipodi:sides="4"
       sodipodi:cx="378.32935"
       sodipodi:cy="781.44963"
       sodipodi:r1="6.0578337"
       sodipodi:r2="0.060578339"
       sodipodi:arg1="1.0085395"
       sodipodi:arg2="1.7939377"
       inkscape:rounded="0"
       inkscape:randomized="0"
       d="m 381.55876,786.5749 -3.24282,-5.06618 -5.11185,3.17034 5.06618,-3.24282 -3.17034,-5.11185 3.24282,5.06618 5.11185,-3.17034 -5.06618,3.24282 z" />
    <path
       sodipodi:type="star"
       style="fill:none;stroke:#000000;stroke-width:0.08;stroke-miterlimit:4;stroke-dasharray:none;stroke-opacity:1"
       id="path1231"
       inkscape:flatsided="false"
       sodipodi:sides="4"
       sodipodi:cx="435.92935"
       sodipodi:cy="770.90471"
       sodipodi:r1="6.9867663"
       sodipodi:r2="0.069867663"
       sodipodi:arg1="1.0684004"
       sodipodi:arg2="1.8537986"
       inkscape:rounded="0"
       inkscape:randomized="0"
       d="m 439.29367,777.02815 -3.38383,-6.05634 -6.10391,3.29723 6.05633,-3.38383 -3.29722,-6.10391 3.38382,6.05634 6.10391,-3.29723 -6.05633,3.38382 z" />
    <path
       sodipodi:type="star"
       style="fill:none;stroke:#000000;stroke-width:0.08;stroke-miterlimit:4;stroke-dasharray:none;stroke-opacity:1"
       id="path1233"
       inkscape:flatsided="false"
       sodipodi:sides="4"
       sodipodi:cx="435.92935"
       sodipodi:cy="806.43242"
       sodipodi:r1="4.8624096"
       sodipodi:r2="0.048624095"
       sodipodi:arg1="0.92928253"
       sodipodi:arg2="1.7146807"
       inkscape:rounded="0"
       inkscape:randomized="0"
       d="m 438.83906,810.32815 -2.91668,-3.84759 -3.88875,2.86158 3.8476,-2.91668 -2.86159,-3.88874 2.91668,3.84759 3.88875,-2.86159 -3.8476,2.91669 z" />
    <path
       sodipodi:type="star"
       style="fill:none;stroke:#000000;stroke-width:0.08;stroke-miterlimit:4;stroke-dasharray:none;stroke-opacity:1"
       id="path1235"
       inkscape:flatsided="false"
       sodipodi:sides="4"
       sodipodi:cx="482.56873"
       sodipodi:cy="781.44963"
       sodipodi:r1="8.8203764"
       sodipodi:r2="0.088203765"
       sodipodi:arg1="1.0704722"
       sodipodi:arg2="1.8558703"
       inkscape:rounded="0"
       inkscape:randomized="0"
       d="m 486.79995,789.18888 -4.25603,-7.65459 -7.71443,4.14658 7.65459,-4.25603 -4.14658,-7.71443 4.25603,7.65459 7.71443,-4.14658 -7.65459,4.25603 z" />
    <path
       sodipodi:type="star"
       style="fill:none;stroke:#000000;stroke-width:0.08;stroke-miterlimit:4;stroke-dasharray:none;stroke-opacity:1"
       id="path1345"
       inkscape:flatsided="false"
       sodipodi:sides="4"
       sodipodi:cx="601.05692"
       sodipodi:cy="770.90471"
       sodipodi:r1="5.3374128"
       sodipodi:r2="0.053374127"
       sodipodi:arg1="0.98375468"
       sodipodi:arg2="1.7691528"
       inkscape:rounded="0"
       inkscape:randomized="0"
       d="m 604.01334,775.34856 -2.96691,-4.39151 -4.43332,2.90407 4.39151,-2.96691 -2.90407,-4.43332 2.96691,4.39151 4.43332,-2.90407 -4.39151,2.96691 z" />
    <path
       sodipodi:type="star"
       style="fill:none;stroke:#000000;stroke-width:0.08;stroke-miterlimit:4;stroke-dasharray:none;stroke-opacity:1"
       id="path1347"
       inkscape:flatsided="false"
       sodipodi:sides="4"
       sodipodi:cx="601.05692"
       sodipodi:cy="806.43242"
       sodipodi:r1="6.1546717"
       sodipodi:r2="0.061546717"
       sodipodi:arg1="1.1283845"
       sodipodi:arg2="1.9137826"
       inkscape:rounded="0"
       inkscape:randomized="0"
       d="m 603.69189,811.99454 -2.65564,-5.50414 -5.54141,2.57697 5.50414,-2.65563 -2.57697,-5.54142 2.65563,5.50415 5.54142,-2.57698 -5.50415,2.65564 z" />
    <path
       sodipodi:type="star"
       style="fill:none;stroke:#000000;stroke-width:0.08;stroke-miterlimit:4;stroke-dasharray:none;stroke-opacity:1"
       id="path1349"
       inkscape:flatsided="false"
       sodipodi:sides="4"
       sodipodi:cx="638.5687"
       sodipodi:cy="852.73161"
       sodipodi:r1="3.4888999"
       sodipodi:r2="0.034889001"
       sodipodi:arg1="1.2421603"
       sodipodi:arg2="2.0275585"
       inkscape:rounded="0"
       inkscape:randomized="0"
       d="m 639.69478,856.03381 -1.14144,-3.27087 -3.2868,1.09474 3.27087,-1.14144 -1.09474,-3.2868 1.14144,3.27088 3.2868,-1.09474 -3.27087,1.14144 z" />
    <path
       sodipodi:type="star"
       style="fill:#000000;stroke:#000000;stroke-width:0.8;stroke-miterlimit:4;stroke-dasharray:none;stroke-opacity:1"
       id="path1765"
       inkscape:flatsided="false"
       sodipodi:sides="4"
       sodipodi:cx="638.56873"
       sodipodi:cy="725.55048"
       sodipodi:r1="2.8408451"
       sodipodi:r2="0.028408453"
       sodipodi:arg1="0.89862417"
       sodipodi:arg2="1.6840223"
       inkscape:rounded="0"
       inkscape:randomized="0"
       d="m 640.33768,727.77335 -1.77216,-2.19465 -2.21967,1.74073 2.19465,-1.77216 -1.74073,-2.21967 1.77217,2.19465 2.21966,-1.74073 -2.19465,1.77217 z" />
  </g>
  <desc
     id="desc220">stereo-mix-panel.dxf - scale = 1.000000, origin = (0.000000, 0.000000), method = manual</desc>
</svg>
