999
"DXF R12 Output" (www.mydxf.blogspot.com)
 0 
SECTION
 2 
HEADER
 9 
$ACADVER
 1 
AC1009
 9 
$EXTMIN
 10 
 0 
 20 
 0 
 9 
$EXTMAX
 10 
 8.5 
 20 
 11 
 0 
ENDSEC
 0 
SECTION
 2 
ENTITIES
0
LINE
8
Layer 1
10
0.846666
20
317.647000
11
-0.846666
21
315.953000
0
LINE
8
Layer 1
10
0.000000
20
318.211000
11
0.000000
21
315.389000
0
LINE
8
Layer 1
10
2.257780
20
315.671000
11
1.128890
21
314.542110
0
LINE
8
Layer 1
10
1.693330
20
316.236000
11
0.564440
21
315.107110
0
LINE
8
Layer 1
10
1.128890
20
316.800000
11
0.000000
21
315.671110
0
LINE
8
0
10
0.000000
20
0.000249
11
162.560000
21
0.000249
0
LINE
8
0
10
162.560000
20
0.000249
11
162.560000
21
42.293500
0
LINE
8
0
10
162.560000
20
42.293500
11
0.000000
21
42.293500
0
LINE
8
0
10
0.000000
20
42.293500
11
0.000000
21
0.000249
0
LINE
8
0
10
0.000000
20
0.000249
11
0.000000
21
0.000249
0
LINE
8
0
10
9.706660
20
3.200250
11
9.479390
21
4.055330
0
LINE
8
0
10
9.479390
20
4.055330
11
8.854522
21
4.681712
0
LINE
8
0
10
8.854522
20
4.681712
11
7.999995
21
4.911051
0
LINE
8
0
10
7.999995
20
4.911051
11
7.145468
21
4.681712
0
LINE
8
0
10
7.145468
20
4.681712
11
6.520600
21
4.055330
0
LINE
8
0
10
6.520600
20
4.055330
11
6.293330
21
3.200250
0
LINE
8
0
10
6.293330
20
3.200250
11
6.520600
21
2.345170
0
LINE
8
0
10
6.520600
20
2.345170
11
7.145468
21
1.718788
0
LINE
8
0
10
7.145468
20
1.718788
11
7.999995
21
1.489449
0
LINE
8
0
10
7.999995
20
1.489449
11
8.854522
21
1.718788
0
LINE
8
0
10
8.854522
20
1.718788
11
9.479390
21
2.345170
0
LINE
8
0
10
9.479390
20
2.345170
11
9.706660
21
3.200250
0
LINE
8
0
10
9.706660
20
3.200250
11
9.706660
21
3.200250
0
LINE
8
0
10
9.706660
20
39.093600
11
9.479390
21
39.948680
0
LINE
8
0
10
9.479390
20
39.948680
11
8.854522
21
40.575062
0
LINE
8
0
10
8.854522
20
40.575062
11
7.999995
21
40.804401
0
LINE
8
0
10
7.999995
20
40.804401
11
7.145468
21
40.575062
0
LINE
8
0
10
7.145468
20
40.575062
11
6.520600
21
39.948680
0
LINE
8
0
10
6.520600
20
39.948680
11
6.293330
21
39.093600
0
LINE
8
0
10
6.293330
20
39.093600
11
6.520600
21
38.238520
0
LINE
8
0
10
6.520600
20
38.238520
11
7.145468
21
37.612138
0
LINE
8
0
10
7.145468
20
37.612138
11
7.999995
21
37.382799
0
LINE
8
0
10
7.999995
20
37.382799
11
8.854522
21
37.612138
0
LINE
8
0
10
8.854522
20
37.612138
11
9.479390
21
38.238520
0
LINE
8
0
10
9.479390
20
38.238520
11
9.706660
21
39.093600
0
LINE
8
0
10
9.706660
20
39.093600
11
9.706660
21
39.093600
0
LINE
8
0
10
156.160000
20
3.200250
11
155.939484
21
4.063728
0
LINE
8
0
10
155.939484
20
4.063728
11
155.313779
21
4.698327
0
LINE
8
0
10
155.313779
20
4.698327
11
154.453500
21
4.931008
0
LINE
8
0
10
154.453500
20
4.931008
11
153.593221
21
4.698327
0
LINE
8
0
10
153.593221
20
4.698327
11
152.967516
21
4.063728
0
LINE
8
0
10
152.967516
20
4.063728
11
152.747000
21
3.200250
0
LINE
8
0
10
152.747000
20
3.200250
11
152.967516
21
2.336772
0
LINE
8
0
10
152.967516
20
2.336772
11
153.593221
21
1.702173
0
LINE
8
0
10
153.593221
20
1.702173
11
154.453500
21
1.469492
0
LINE
8
0
10
154.453500
20
1.469492
11
155.313779
21
1.702173
0
LINE
8
0
10
155.313779
20
1.702173
11
155.939484
21
2.336772
0
LINE
8
0
10
155.939484
20
2.336772
11
156.160000
21
3.200250
0
LINE
8
0
10
156.160000
20
3.200250
11
156.160000
21
3.200250
0
LINE
8
0
10
156.160000
20
39.093600
11
155.939484
21
39.957078
0
LINE
8
0
10
155.939484
20
39.957078
11
155.313779
21
40.591677
0
LINE
8
0
10
155.313779
20
40.591677
11
154.453500
21
40.824358
0
LINE
8
0
10
154.453500
20
40.824358
11
153.593221
21
40.591677
0
LINE
8
0
10
153.593221
20
40.591677
11
152.967516
21
39.957078
0
LINE
8
0
10
152.967516
20
39.957078
11
152.747000
21
39.093600
0
LINE
8
0
10
152.747000
20
39.093600
11
152.967516
21
38.230122
0
LINE
8
0
10
152.967516
20
38.230122
11
153.593221
21
37.595523
0
LINE
8
0
10
153.593221
20
37.595523
11
154.453500
21
37.362842
0
LINE
8
0
10
154.453500
20
37.362842
11
155.313779
21
37.595523
0
LINE
8
0
10
155.313779
20
37.595523
11
155.939484
21
38.230122
0
LINE
8
0
10
155.939484
20
38.230122
11
156.160000
21
39.093600
0
LINE
8
0
10
156.160000
20
39.093600
11
156.160000
21
39.093600
0
LINE
8
0
10
12.688000
20
16.266900
11
12.577230
21
17.101836
0
LINE
8
0
10
12.577230
20
17.101836
11
12.259281
21
17.866900
0
LINE
8
0
10
12.259281
20
17.866900
11
11.755691
21
18.524784
0
LINE
8
0
10
11.755691
20
18.524784
11
11.088000
21
19.038181
0
LINE
8
0
10
11.088000
20
19.038181
11
10.309539
21
19.359720
0
LINE
8
0
10
10.309539
20
19.359720
11
9.488000
21
19.466900
0
LINE
8
0
10
9.488000
20
19.466900
11
8.666461
21
19.359720
0
LINE
8
0
10
8.666461
20
19.359720
11
7.888000
21
19.038181
0
LINE
8
0
10
7.888000
20
19.038181
11
7.220309
21
18.524784
0
LINE
8
0
10
7.220309
20
18.524784
11
6.716719
21
17.866900
0
LINE
8
0
10
6.716719
20
17.866900
11
6.398770
21
17.101836
0
LINE
8
0
10
6.398770
20
17.101836
11
6.288000
21
16.266900
0
LINE
8
0
10
6.288000
20
16.266900
11
6.398770
21
15.431964
0
LINE
8
0
10
6.398770
20
15.431964
11
6.716719
21
14.666900
0
LINE
8
0
10
6.716719
20
14.666900
11
7.220309
21
14.009016
0
LINE
8
0
10
7.220309
20
14.009016
11
7.888000
21
13.495619
0
LINE
8
0
10
7.888000
20
13.495619
11
8.666461
21
13.174080
0
LINE
8
0
10
8.666461
20
13.174080
11
9.488000
21
13.066900
0
LINE
8
0
10
9.488000
20
13.066900
11
10.309539
21
13.174080
0
LINE
8
0
10
10.309539
20
13.174080
11
11.088000
21
13.495619
0
LINE
8
0
10
11.088000
20
13.495619
11
11.755691
21
14.009016
0
LINE
8
0
10
11.755691
20
14.009016
11
12.259281
21
14.666900
0
LINE
8
0
10
12.259281
20
14.666900
11
12.577230
21
15.431964
0
LINE
8
0
10
12.577230
20
15.431964
11
12.688000
21
16.266900
0
LINE
8
0
10
12.688000
20
16.266900
11
12.688000
21
16.266900
0
LINE
8
0
10
12.688000
20
26.293600
11
12.577230
21
27.128536
0
LINE
8
0
10
12.577230
20
27.128536
11
12.259281
21
27.893600
0
LINE
8
0
10
12.259281
20
27.893600
11
11.755691
21
28.551484
0
LINE
8
0
10
11.755691
20
28.551484
11
11.088000
21
29.064881
0
LINE
8
0
10
11.088000
20
29.064881
11
10.309539
21
29.386420
0
LINE
8
0
10
10.309539
20
29.386420
11
9.488000
21
29.493600
0
LINE
8
0
10
9.488000
20
29.493600
11
8.666461
21
29.386420
0
LINE
8
0
10
8.666461
20
29.386420
11
7.888000
21
29.064881
0
LINE
8
0
10
7.888000
20
29.064881
11
7.220309
21
28.551484
0
LINE
8
0
10
7.220309
20
28.551484
11
6.716719
21
27.893600
0
LINE
8
0
10
6.716719
20
27.893600
11
6.398770
21
27.128536
0
LINE
8
0
10
6.398770
20
27.128536
11
6.288000
21
26.293600
0
LINE
8
0
10
6.288000
20
26.293600
11
6.398770
21
25.458664
0
LINE
8
0
10
6.398770
20
25.458664
11
6.716719
21
24.693600
0
LINE
8
0
10
6.716719
20
24.693600
11
7.220309
21
24.035716
0
LINE
8
0
10
7.220309
20
24.035716
11
7.888000
21
23.522319
0
LINE
8
0
10
7.888000
20
23.522319
11
8.666461
21
23.200780
0
LINE
8
0
10
8.666461
20
23.200780
11
9.488000
21
23.093600
0
LINE
8
0
10
9.488000
20
23.093600
11
10.309539
21
23.200780
0
LINE
8
0
10
10.309539
20
23.200780
11
11.088000
21
23.522319
0
LINE
8
0
10
11.088000
20
23.522319
11
11.755691
21
24.035716
0
LINE
8
0
10
11.755691
20
24.035716
11
12.259281
21
24.693600
0
LINE
8
0
10
12.259281
20
24.693600
11
12.577230
21
25.458664
0
LINE
8
0
10
12.577230
20
25.458664
11
12.688000
21
26.293600
0
LINE
8
0
10
12.688000
20
26.293600
11
12.688000
21
26.293600
0
LINE
8
0
10
41.669300
20
16.266900
11
41.558530
21
17.101836
0
LINE
8
0
10
41.558530
20
17.101836
11
41.240581
21
17.866900
0
LINE
8
0
10
41.240581
20
17.866900
11
40.736991
21
18.524784
0
LINE
8
0
10
40.736991
20
18.524784
11
40.069300
21
19.038181
0
LINE
8
0
10
40.069300
20
19.038181
11
39.290839
21
19.359720
0
LINE
8
0
10
39.290839
20
19.359720
11
38.469300
21
19.466900
0
LINE
8
0
10
38.469300
20
19.466900
11
37.647761
21
19.359720
0
LINE
8
0
10
37.647761
20
19.359720
11
36.869300
21
19.038181
0
LINE
8
0
10
36.869300
20
19.038181
11
36.201609
21
18.524784
0
LINE
8
0
10
36.201609
20
18.524784
11
35.698019
21
17.866900
0
LINE
8
0
10
35.698019
20
17.866900
11
35.380070
21
17.101836
0
LINE
8
0
10
35.380070
20
17.101836
11
35.269300
21
16.266900
0
LINE
8
0
10
35.269300
20
16.266900
11
35.380070
21
15.431964
0
LINE
8
0
10
35.380070
20
15.431964
11
35.698019
21
14.666900
0
LINE
8
0
10
35.698019
20
14.666900
11
36.201609
21
14.009016
0
LINE
8
0
10
36.201609
20
14.009016
11
36.869300
21
13.495619
0
LINE
8
0
10
36.869300
20
13.495619
11
37.647761
21
13.174080
0
LINE
8
0
10
37.647761
20
13.174080
11
38.469300
21
13.066900
0
LINE
8
0
10
38.469300
20
13.066900
11
39.290839
21
13.174080
0
LINE
8
0
10
39.290839
20
13.174080
11
40.069300
21
13.495619
0
LINE
8
0
10
40.069300
20
13.495619
11
40.736991
21
14.009016
0
LINE
8
0
10
40.736991
20
14.009016
11
41.240581
21
14.666900
0
LINE
8
0
10
41.240581
20
14.666900
11
41.558530
21
15.431964
0
LINE
8
0
10
41.558530
20
15.431964
11
41.669300
21
16.266900
0
LINE
8
0
10
41.669300
20
16.266900
11
41.669300
21
16.266900
0
LINE
8
0
10
41.669300
20
26.293600
11
41.558530
21
27.128536
0
LINE
8
0
10
41.558530
20
27.128536
11
41.240581
21
27.893600
0
LINE
8
0
10
41.240581
20
27.893600
11
40.736991
21
28.551484
0
LINE
8
0
10
40.736991
20
28.551484
11
40.069300
21
29.064881
0
LINE
8
0
10
40.069300
20
29.064881
11
39.290839
21
29.386420
0
LINE
8
0
10
39.290839
20
29.386420
11
38.469300
21
29.493600
0
LINE
8
0
10
38.469300
20
29.493600
11
37.647761
21
29.386420
0
LINE
8
0
10
37.647761
20
29.386420
11
36.869300
21
29.064881
0
LINE
8
0
10
36.869300
20
29.064881
11
36.201609
21
28.551484
0
LINE
8
0
10
36.201609
20
28.551484
11
35.698019
21
27.893600
0
LINE
8
0
10
35.698019
20
27.893600
11
35.380070
21
27.128536
0
LINE
8
0
10
35.380070
20
27.128536
11
35.269300
21
26.293600
0
LINE
8
0
10
35.269300
20
26.293600
11
35.380070
21
25.458664
0
LINE
8
0
10
35.380070
20
25.458664
11
35.698019
21
24.693600
0
LINE
8
0
10
35.698019
20
24.693600
11
36.201609
21
24.035716
0
LINE
8
0
10
36.201609
20
24.035716
11
36.869300
21
23.522319
0
LINE
8
0
10
36.869300
20
23.522319
11
37.647761
21
23.200780
0
LINE
8
0
10
37.647761
20
23.200780
11
38.469300
21
23.093600
0
LINE
8
0
10
38.469300
20
23.093600
11
39.290839
21
23.200780
0
LINE
8
0
10
39.290839
20
23.200780
11
40.069300
21
23.522319
0
LINE
8
0
10
40.069300
20
23.522319
11
40.736991
21
24.035716
0
LINE
8
0
10
40.736991
20
24.035716
11
41.240581
21
24.693600
0
LINE
8
0
10
41.240581
20
24.693600
11
41.558530
21
25.458664
0
LINE
8
0
10
41.558530
20
25.458664
11
41.669300
21
26.293600
0
LINE
8
0
10
41.669300
20
26.293600
11
41.669300
21
26.293600
0
LINE
8
0
10
71.205300
20
16.266900
11
71.094531
21
17.101837
0
LINE
8
0
10
71.094531
20
17.101837
11
70.776581
21
17.866900
0
LINE
8
0
10
70.776581
20
17.866900
11
70.272992
21
18.524784
0
LINE
8
0
10
70.272992
20
18.524784
11
69.605300
21
19.038181
0
LINE
8
0
10
69.605300
20
19.038181
11
68.826839
21
19.359721
0
LINE
8
0
10
68.826839
20
19.359721
11
68.005300
21
19.466900
0
LINE
8
0
10
68.005300
20
19.466900
11
67.183761
21
19.359721
0
LINE
8
0
10
67.183761
20
19.359721
11
66.405300
21
19.038181
0
LINE
8
0
10
66.405300
20
19.038181
11
65.737608
21
18.524784
0
LINE
8
0
10
65.737608
20
18.524784
11
65.234019
21
17.866900
0
LINE
8
0
10
65.234019
20
17.866900
11
64.916069
21
17.101837
0
LINE
8
0
10
64.916069
20
17.101837
11
64.805300
21
16.266900
0
LINE
8
0
10
64.805300
20
16.266900
11
64.916070
21
15.431964
0
LINE
8
0
10
64.916070
20
15.431964
11
65.234019
21
14.666900
0
LINE
8
0
10
65.234019
20
14.666900
11
65.737609
21
14.009016
0
LINE
8
0
10
65.737609
20
14.009016
11
66.405300
21
13.495619
0
LINE
8
0
10
66.405300
20
13.495619
11
67.183761
21
13.174080
0
LINE
8
0
10
67.183761
20
13.174080
11
68.005300
21
13.066900
0
LINE
8
0
10
68.005300
20
13.066900
11
68.826839
21
13.174080
0
LINE
8
0
10
68.826839
20
13.174080
11
69.605300
21
13.495619
0
LINE
8
0
10
69.605300
20
13.495619
11
70.272991
21
14.009016
0
LINE
8
0
10
70.272991
20
14.009016
11
70.776581
21
14.666900
0
LINE
8
0
10
70.776581
20
14.666900
11
71.094530
21
15.431964
0
LINE
8
0
10
71.094530
20
15.431964
11
71.205300
21
16.266900
0
LINE
8
0
10
71.205300
20
16.266900
11
71.205300
21
16.266900
0
LINE
8
0
10
71.205300
20
26.293600
11
71.094531
21
27.128537
0
LINE
8
0
10
71.094531
20
27.128537
11
70.776581
21
27.893600
0
LINE
8
0
10
70.776581
20
27.893600
11
70.272992
21
28.551484
0
LINE
8
0
10
70.272992
20
28.551484
11
69.605300
21
29.064881
0
LINE
8
0
10
69.605300
20
29.064881
11
68.826839
21
29.386421
0
LINE
8
0
10
68.826839
20
29.386421
11
68.005300
21
29.493600
0
LINE
8
0
10
68.005300
20
29.493600
11
67.183761
21
29.386421
0
LINE
8
0
10
67.183761
20
29.386421
11
66.405300
21
29.064881
0
LINE
8
0
10
66.405300
20
29.064881
11
65.737608
21
28.551484
0
LINE
8
0
10
65.737608
20
28.551484
11
65.234019
21
27.893600
0
LINE
8
0
10
65.234019
20
27.893600
11
64.916069
21
27.128537
0
LINE
8
0
10
64.916069
20
27.128537
11
64.805300
21
26.293600
0
LINE
8
0
10
64.805300
20
26.293600
11
64.916070
21
25.458664
0
LINE
8
0
10
64.916070
20
25.458664
11
65.234019
21
24.693600
0
LINE
8
0
10
65.234019
20
24.693600
11
65.737609
21
24.035716
0
LINE
8
0
10
65.737609
20
24.035716
11
66.405300
21
23.522319
0
LINE
8
0
10
66.405300
20
23.522319
11
67.183761
21
23.200780
0
LINE
8
0
10
67.183761
20
23.200780
11
68.005300
21
23.093600
0
LINE
8
0
10
68.005300
20
23.093600
11
68.826839
21
23.200780
0
LINE
8
0
10
68.826839
20
23.200780
11
69.605300
21
23.522319
0
LINE
8
0
10
69.605300
20
23.522319
11
70.272991
21
24.035716
0
LINE
8
0
10
70.272991
20
24.035716
11
70.776581
21
24.693600
0
LINE
8
0
10
70.776581
20
24.693600
11
71.094530
21
25.458664
0
LINE
8
0
10
71.094530
20
25.458664
11
71.205300
21
26.293600
0
LINE
8
0
10
71.205300
20
26.293600
11
71.205300
21
26.293600
0
LINE
8
0
10
100.464000
20
16.266900
11
100.353202
21
17.101836
0
LINE
8
0
10
100.353202
20
17.101836
11
100.035238
21
17.866900
0
LINE
8
0
10
100.035238
20
17.866900
11
99.531642
21
18.524784
0
LINE
8
0
10
99.531642
20
18.524784
11
98.863950
21
19.038181
0
LINE
8
0
10
98.863950
20
19.038181
11
98.085489
21
19.359720
0
LINE
8
0
10
98.085489
20
19.359720
11
97.263950
21
19.466900
0
LINE
8
0
10
97.263950
20
19.466900
11
96.442411
21
19.359720
0
LINE
8
0
10
96.442411
20
19.359720
11
95.663950
21
19.038181
0
LINE
8
0
10
95.663950
20
19.038181
11
94.996259
21
18.524784
0
LINE
8
0
10
94.996259
20
18.524784
11
94.492669
21
17.866900
0
LINE
8
0
10
94.492669
20
17.866900
11
94.174720
21
17.101836
0
LINE
8
0
10
94.174720
20
17.101836
11
94.063950
21
16.266900
0
LINE
8
0
10
94.063950
20
16.266900
11
94.174734
21
15.431964
0
LINE
8
0
10
94.174734
20
15.431964
11
94.492691
21
14.666900
0
LINE
8
0
10
94.492691
20
14.666900
11
94.996283
21
14.009016
0
LINE
8
0
10
94.996283
20
14.009016
11
95.663975
21
13.495619
0
LINE
8
0
10
95.663975
20
13.495619
11
96.442436
21
13.174080
0
LINE
8
0
10
96.442436
20
13.174080
11
97.263975
21
13.066900
0
LINE
8
0
10
97.263975
20
13.066900
11
98.085514
21
13.174080
0
LINE
8
0
10
98.085514
20
13.174080
11
98.863975
21
13.495619
0
LINE
8
0
10
98.863975
20
13.495619
11
99.531666
21
14.009016
0
LINE
8
0
10
99.531666
20
14.009016
11
100.035256
21
14.666900
0
LINE
8
0
10
100.035256
20
14.666900
11
100.353205
21
15.431964
0
LINE
8
0
10
100.353205
20
15.431964
11
100.463975
21
16.266900
0
LINE
8
0
10
100.463975
20
16.266900
11
100.464000
21
16.266900
0
LINE
8
0
10
100.464000
20
26.293600
11
100.353202
21
27.128536
0
LINE
8
0
10
100.353202
20
27.128536
11
100.035238
21
27.893600
0
LINE
8
0
10
100.035238
20
27.893600
11
99.531642
21
28.551484
0
LINE
8
0
10
99.531642
20
28.551484
11
98.863950
21
29.064881
0
LINE
8
0
10
98.863950
20
29.064881
11
98.085489
21
29.386420
0
LINE
8
0
10
98.085489
20
29.386420
11
97.263950
21
29.493600
0
LINE
8
0
10
97.263950
20
29.493600
11
96.442411
21
29.386420
0
LINE
8
0
10
96.442411
20
29.386420
11
95.663950
21
29.064881
0
LINE
8
0
10
95.663950
20
29.064881
11
94.996259
21
28.551484
0
LINE
8
0
10
94.996259
20
28.551484
11
94.492669
21
27.893600
0
LINE
8
0
10
94.492669
20
27.893600
11
94.174720
21
27.128536
0
LINE
8
0
10
94.174720
20
27.128536
11
94.063950
21
26.293600
0
LINE
8
0
10
94.063950
20
26.293600
11
94.174734
21
25.458664
0
LINE
8
0
10
94.174734
20
25.458664
11
94.492691
21
24.693600
0
LINE
8
0
10
94.492691
20
24.693600
11
94.996283
21
24.035716
0
LINE
8
0
10
94.996283
20
24.035716
11
95.663975
21
23.522319
0
LINE
8
0
10
95.663975
20
23.522319
11
96.442436
21
23.200780
0
LINE
8
0
10
96.442436
20
23.200780
11
97.263975
21
23.093600
0
LINE
8
0
10
97.263975
20
23.093600
11
98.085514
21
23.200780
0
LINE
8
0
10
98.085514
20
23.200780
11
98.863975
21
23.522319
0
LINE
8
0
10
98.863975
20
23.522319
11
99.531666
21
24.035716
0
LINE
8
0
10
99.531666
20
24.035716
11
100.035256
21
24.693600
0
LINE
8
0
10
100.035256
20
24.693600
11
100.353205
21
25.458664
0
LINE
8
0
10
100.353205
20
25.458664
11
100.463975
21
26.293600
0
LINE
8
0
10
100.463975
20
26.293600
11
100.464000
21
26.293600
0
LINE
8
0
10
147.067000
20
16.266900
11
146.956230
21
17.101836
0
LINE
8
0
10
146.956230
20
17.101836
11
146.638281
21
17.866900
0
LINE
8
0
10
146.638281
20
17.866900
11
146.134691
21
18.524784
0
LINE
8
0
10
146.134691
20
18.524784
11
145.467000
21
19.038181
0
LINE
8
0
10
145.467000
20
19.038181
11
144.688539
21
19.359720
0
LINE
8
0
10
144.688539
20
19.359720
11
143.867000
21
19.466900
0
LINE
8
0
10
143.867000
20
19.466900
11
143.045461
21
19.359720
0
LINE
8
0
10
143.045461
20
19.359720
11
142.267000
21
19.038181
0
LINE
8
0
10
142.267000
20
19.038181
11
141.599309
21
18.524784
0
LINE
8
0
10
141.599309
20
18.524784
11
141.095719
21
17.866900
0
LINE
8
0
10
141.095719
20
17.866900
11
140.777770
21
17.101836
0
LINE
8
0
10
140.777770
20
17.101836
11
140.667000
21
16.266900
0
LINE
8
0
10
140.667000
20
16.266900
11
140.777770
21
15.431964
0
LINE
8
0
10
140.777770
20
15.431964
11
141.095719
21
14.666900
0
LINE
8
0
10
141.095719
20
14.666900
11
141.599309
21
14.009016
0
LINE
8
0
10
141.599309
20
14.009016
11
142.267000
21
13.495619
0
LINE
8
0
10
142.267000
20
13.495619
11
143.045461
21
13.174080
0
LINE
8
0
10
143.045461
20
13.174080
11
143.867000
21
13.066900
0
LINE
8
0
10
143.867000
20
13.066900
11
144.688539
21
13.174080
0
LINE
8
0
10
144.688539
20
13.174080
11
145.467000
21
13.495619
0
LINE
8
0
10
145.467000
20
13.495619
11
146.134691
21
14.009016
0
LINE
8
0
10
146.134691
20
14.009016
11
146.638281
21
14.666900
0
LINE
8
0
10
146.638281
20
14.666900
11
146.956230
21
15.431964
0
LINE
8
0
10
146.956230
20
15.431964
11
147.067000
21
16.266900
0
LINE
8
0
10
147.067000
20
16.266900
11
147.067000
21
16.266900
0
LINE
8
0
10
147.067000
20
26.293600
11
146.956230
21
27.128536
0
LINE
8
0
10
146.956230
20
27.128536
11
146.638281
21
27.893600
0
LINE
8
0
10
146.638281
20
27.893600
11
146.134691
21
28.551484
0
LINE
8
0
10
146.134691
20
28.551484
11
145.467000
21
29.064881
0
LINE
8
0
10
145.467000
20
29.064881
11
144.688539
21
29.386420
0
LINE
8
0
10
144.688539
20
29.386420
11
143.867000
21
29.493600
0
LINE
8
0
10
143.867000
20
29.493600
11
143.045461
21
29.386420
0
LINE
8
0
10
143.045461
20
29.386420
11
142.267000
21
29.064881
0
LINE
8
0
10
142.267000
20
29.064881
11
141.599309
21
28.551484
0
LINE
8
0
10
141.599309
20
28.551484
11
141.095719
21
27.893600
0
LINE
8
0
10
141.095719
20
27.893600
11
140.777770
21
27.128536
0
LINE
8
0
10
140.777770
20
27.128536
11
140.667000
21
26.293600
0
LINE
8
0
10
140.667000
20
26.293600
11
140.777770
21
25.458664
0
LINE
8
0
10
140.777770
20
25.458664
11
141.095719
21
24.693600
0
LINE
8
0
10
141.095719
20
24.693600
11
141.599309
21
24.035716
0
LINE
8
0
10
141.599309
20
24.035716
11
142.267000
21
23.522319
0
LINE
8
0
10
142.267000
20
23.522319
11
143.045461
21
23.200780
0
LINE
8
0
10
143.045461
20
23.200780
11
143.867000
21
23.093600
0
LINE
8
0
10
143.867000
20
23.093600
11
144.688539
21
23.200780
0
LINE
8
0
10
144.688539
20
23.200780
11
145.467000
21
23.522319
0
LINE
8
0
10
145.467000
20
23.522319
11
146.134691
21
24.035716
0
LINE
8
0
10
146.134691
20
24.035716
11
146.638281
21
24.693600
0
LINE
8
0
10
146.638281
20
24.693600
11
146.956230
21
25.458664
0
LINE
8
0
10
146.956230
20
25.458664
11
147.067000
21
26.293600
0
LINE
8
0
10
147.067000
20
26.293600
11
147.067000
21
26.293600
0
LINE
8
0
10
25.877300
20
23.317600
11
25.761854
21
24.202879
0
LINE
8
0
10
25.761854
20
24.202879
11
25.426323
21
25.014406
0
LINE
8
0
10
25.426323
20
25.014406
11
24.893544
21
25.712478
0
LINE
8
0
10
24.893544
20
25.712478
11
24.186355
21
26.257391
0
LINE
8
0
10
24.186355
20
26.257391
11
23.361404
21
26.598715
0
LINE
8
0
10
23.361404
20
26.598715
11
22.490650
21
26.712490
0
LINE
8
0
10
22.490650
20
26.712490
11
21.619896
21
26.598715
0
LINE
8
0
10
21.619896
20
26.598715
11
20.794945
21
26.257391
0
LINE
8
0
10
20.794945
20
26.257391
11
20.087756
21
25.712478
0
LINE
8
0
10
20.087756
20
25.712478
11
19.554977
21
25.014406
0
LINE
8
0
10
19.554977
20
25.014406
11
19.219446
21
24.202879
0
LINE
8
0
10
19.219446
20
24.202879
11
19.104000
21
23.317600
0
LINE
8
0
10
19.104000
20
23.317600
11
19.219446
21
22.432321
0
LINE
8
0
10
19.219446
20
22.432321
11
19.554977
21
21.620794
0
LINE
8
0
10
19.554977
20
21.620794
11
20.087756
21
20.922722
0
LINE
8
0
10
20.087756
20
20.922722
11
20.794945
21
20.377809
0
LINE
8
0
10
20.794945
20
20.377809
11
21.619896
21
20.036485
0
LINE
8
0
10
21.619896
20
20.036485
11
22.490650
21
19.922710
0
LINE
8
0
10
22.490650
20
19.922710
11
23.361404
21
20.036485
0
LINE
8
0
10
23.361404
20
20.036485
11
24.186355
21
20.377809
0
LINE
8
0
10
24.186355
20
20.377809
11
24.893544
21
20.922722
0
LINE
8
0
10
24.893544
20
20.922722
11
25.426323
21
21.620794
0
LINE
8
0
10
25.426323
20
21.620794
11
25.761854
21
22.432321
0
LINE
8
0
10
25.761854
20
22.432321
11
25.877300
21
23.317600
0
LINE
8
0
10
25.877300
20
23.317600
11
25.877300
21
23.317600
0
LINE
8
0
10
55.136000
20
23.317600
11
55.018746
21
24.201239
0
LINE
8
0
10
55.018746
20
24.201239
11
54.682239
21
25.010930
0
LINE
8
0
10
54.682239
20
25.010930
11
54.149269
21
25.707189
0
LINE
8
0
10
54.149269
20
25.707189
11
53.442630
21
26.250534
0
LINE
8
0
10
53.442630
20
26.250534
11
52.618760
21
26.590828
0
LINE
8
0
10
52.618760
20
26.590828
11
51.749300
21
26.704260
0
LINE
8
0
10
51.749300
20
26.704260
11
50.879840
21
26.590828
0
LINE
8
0
10
50.879840
20
26.590828
11
50.055970
21
26.250534
0
LINE
8
0
10
50.055970
20
26.250534
11
49.349331
21
25.707189
0
LINE
8
0
10
49.349331
20
25.707189
11
48.816366
21
25.010930
0
LINE
8
0
10
48.816366
20
25.010930
11
48.479871
21
24.201239
0
LINE
8
0
10
48.479871
20
24.201239
11
48.362640
21
23.317600
0
LINE
8
0
10
48.362640
20
23.317600
11
48.479882
21
22.433961
0
LINE
8
0
10
48.479882
20
22.433961
11
48.816384
21
21.624270
0
LINE
8
0
10
48.816384
20
21.624270
11
49.349351
21
20.928011
0
LINE
8
0
10
49.349351
20
20.928011
11
50.055990
21
20.384666
0
LINE
8
0
10
50.055990
20
20.384666
11
50.879860
21
20.044372
0
LINE
8
0
10
50.879860
20
20.044372
11
51.749320
21
19.930940
0
LINE
8
0
10
51.749320
20
19.930940
11
52.618780
21
20.044372
0
LINE
8
0
10
52.618780
20
20.044372
11
53.442650
21
20.384666
0
LINE
8
0
10
53.442650
20
20.384666
11
54.149289
21
20.928011
0
LINE
8
0
10
54.149289
20
20.928011
11
54.682254
21
21.624270
0
LINE
8
0
10
54.682254
20
21.624270
11
55.018749
21
22.433961
0
LINE
8
0
10
55.018749
20
22.433961
11
55.135980
21
23.317600
0
LINE
8
0
10
55.135980
20
23.317600
11
55.136000
21
23.317600
0
LINE
8
0
10
84.394600
20
23.317600
11
84.279154
21
24.202879
0
LINE
8
0
10
84.279154
20
24.202879
11
83.943623
21
25.014406
0
LINE
8
0
10
83.943623
20
25.014406
11
83.410844
21
25.712478
0
LINE
8
0
10
83.410844
20
25.712478
11
82.703655
21
26.257391
0
LINE
8
0
10
82.703655
20
26.257391
11
81.878704
21
26.598715
0
LINE
8
0
10
81.878704
20
26.598715
11
81.007950
21
26.712490
0
LINE
8
0
10
81.007950
20
26.712490
11
80.137196
21
26.598715
0
LINE
8
0
10
80.137196
20
26.598715
11
79.312245
21
26.257391
0
LINE
8
0
10
79.312245
20
26.257391
11
78.605056
21
25.712478
0
LINE
8
0
10
78.605056
20
25.712478
11
78.072277
21
25.014406
0
LINE
8
0
10
78.072277
20
25.014406
11
77.736746
21
24.202879
0
LINE
8
0
10
77.736746
20
24.202879
11
77.621300
21
23.317600
0
LINE
8
0
10
77.621300
20
23.317600
11
77.736746
21
22.432321
0
LINE
8
0
10
77.736746
20
22.432321
11
78.072277
21
21.620794
0
LINE
8
0
10
78.072277
20
21.620794
11
78.605056
21
20.922722
0
LINE
8
0
10
78.605056
20
20.922722
11
79.312245
21
20.377809
0
LINE
8
0
10
79.312245
20
20.377809
11
80.137196
21
20.036485
0
LINE
8
0
10
80.137196
20
20.036485
11
81.007950
21
19.922710
0
LINE
8
0
10
81.007950
20
19.922710
11
81.878704
21
20.036485
0
LINE
8
0
10
81.878704
20
20.036485
11
82.703655
21
20.377809
0
LINE
8
0
10
82.703655
20
20.377809
11
83.410844
21
20.922722
0
LINE
8
0
10
83.410844
20
20.922722
11
83.943623
21
21.620794
0
LINE
8
0
10
83.943623
20
21.620794
11
84.279154
21
22.432321
0
LINE
8
0
10
84.279154
20
22.432321
11
84.394600
21
23.317600
0
LINE
8
0
10
84.394600
20
23.317600
11
84.394600
21
23.317600
0
LINE
8
0
10
113.813000
20
23.317600
11
113.702949
21
24.207777
0
LINE
8
0
10
113.702949
20
24.207777
11
113.370345
21
25.024808
0
LINE
8
0
10
113.370345
20
25.024808
11
112.838150
21
25.728323
0
LINE
8
0
10
112.838150
20
25.728323
11
112.129324
21
26.277951
0
LINE
8
0
10
112.129324
20
26.277951
11
111.301134
21
26.622373
0
LINE
8
0
10
111.301134
20
26.622373
11
110.426500
21
26.737180
0
LINE
8
0
10
110.426500
20
26.737180
11
109.551866
21
26.622373
0
LINE
8
0
10
109.551866
20
26.622373
11
108.723676
21
26.277951
0
LINE
8
0
10
108.723676
20
26.277951
11
108.014850
21
25.728323
0
LINE
8
0
10
108.014850
20
25.728323
11
107.482655
21
25.024808
0
LINE
8
0
10
107.482655
20
25.024808
11
107.150051
21
24.207777
0
LINE
8
0
10
107.150051
20
24.207777
11
107.040000
21
23.317600
0
LINE
8
0
10
107.040000
20
23.317600
11
107.150051
21
22.427423
0
LINE
8
0
10
107.150051
20
22.427423
11
107.482655
21
21.610392
0
LINE
8
0
10
107.482655
20
21.610392
11
108.014850
21
20.906877
0
LINE
8
0
10
108.014850
20
20.906877
11
108.723676
21
20.357249
0
LINE
8
0
10
108.723676
20
20.357249
11
109.551866
21
20.012827
0
LINE
8
0
10
109.551866
20
20.012827
11
110.426500
21
19.898020
0
LINE
8
0
10
110.426500
20
19.898020
11
111.301134
21
20.012827
0
LINE
8
0
10
111.301134
20
20.012827
11
112.129324
21
20.357249
0
LINE
8
0
10
112.129324
20
20.357249
11
112.838150
21
20.906877
0
LINE
8
0
10
112.838150
20
20.906877
11
113.370345
21
21.610392
0
LINE
8
0
10
113.370345
20
21.610392
11
113.702949
21
22.427423
0
LINE
8
0
10
113.702949
20
22.427423
11
113.813000
21
23.317600
0
LINE
8
0
10
113.813000
20
23.317600
11
113.813000
21
23.317600
0
LINE
8
0
10
10.015400
20
25.303100
11
9.484724
21
26.282805
0
LINE
8
0
10
9.484724
20
26.282805
11
8.497557
21
25.766141
0
LINE
8
0
10
8.497557
20
25.766141
11
9.477266
21
26.296831
0
LINE
8
0
10
9.477266
20
26.296831
11
8.960597
21
27.283987
0
LINE
8
0
10
8.960597
20
27.283987
11
9.491273
21
26.304282
0
LINE
8
0
10
9.491273
20
26.304282
11
10.478440
21
26.820946
0
LINE
8
0
10
10.478440
20
26.820946
11
9.498731
21
26.290284
0
LINE
8
0
10
9.498731
20
26.290284
11
10.015400
21
25.303100
0
LINE
8
0
10
10.231900
20
15.359900
11
9.486840
21
16.255249
0
LINE
8
0
10
9.486840
20
16.255249
11
8.580986
21
15.522996
0
LINE
8
0
10
8.580986
20
15.522996
11
9.476320
21
16.268062
0
LINE
8
0
10
9.476320
20
16.268062
11
8.744087
21
17.173938
0
LINE
8
0
10
8.744087
20
17.173938
11
9.489147
21
16.278589
0
LINE
8
0
10
9.489147
20
16.278589
11
10.395001
21
17.010814
0
LINE
8
0
10
10.395001
20
17.010814
11
9.499667
21
16.265776
0
LINE
8
0
10
9.499667
20
16.265776
11
10.231900
21
15.359900
0
LINE
8
0
10
8.467780
20
38.485900
11
7.999006
21
39.085935
0
LINE
8
0
10
7.999006
20
39.085935
11
7.392356
21
38.625752
0
LINE
8
0
10
7.392356
20
38.625752
11
7.992390
21
39.094526
0
LINE
8
0
10
7.992390
20
39.094526
11
7.532209
21
39.701176
0
LINE
8
0
10
7.532209
20
39.701176
11
8.000983
21
39.101141
0
LINE
8
0
10
8.000983
20
39.101141
11
8.607633
21
39.561324
0
LINE
8
0
10
8.607633
20
39.561324
11
8.007599
21
39.092550
0
LINE
8
0
10
8.007599
20
39.092550
11
8.467780
21
38.485900
0
LINE
8
0
10
23.158100
20
22.031500
11
22.486282
21
23.303780
0
LINE
8
0
10
22.486282
20
23.303780
11
21.204572
21
22.650154
0
LINE
8
0
10
21.204572
20
22.650154
11
22.476842
21
23.321955
0
LINE
8
0
10
22.476842
20
23.321955
11
21.823212
21
24.603665
0
LINE
8
0
10
21.823212
20
24.603665
11
22.495030
21
23.331405
0
LINE
8
0
10
22.495030
20
23.331405
11
23.776740
21
23.985031
0
LINE
8
0
10
23.776740
20
23.985031
11
22.504470
21
23.313202
0
LINE
8
0
10
22.504470
20
23.313202
11
23.158100
21
22.031500
0
LINE
8
0
10
8.564000
20
2.273320
11
7.997424
21
3.189695
0
LINE
8
0
10
7.997424
20
3.189695
11
7.073071
21
2.636229
0
LINE
8
0
10
7.073071
20
2.636229
11
7.989448
21
3.202790
0
LINE
8
0
10
7.989448
20
3.202790
11
7.435980
21
4.127152
0
LINE
8
0
10
7.435980
20
4.127152
11
8.002556
21
3.210777
0
LINE
8
0
10
8.002556
20
3.210777
11
8.926909
21
3.764243
0
LINE
8
0
10
8.926909
20
3.764243
11
8.010532
21
3.197682
0
LINE
8
0
10
8.010532
20
3.197682
11
8.564000
21
2.273320
0
LINE
8
0
10
39.259700
20
15.103300
11
38.466659
21
16.253100
0
LINE
8
0
10
38.466659
20
16.253100
11
37.305689
21
15.476510
0
LINE
8
0
10
37.305689
20
15.476510
11
38.455479
21
16.269554
0
LINE
8
0
10
38.455479
20
16.269554
11
37.678894
21
17.430534
0
LINE
8
0
10
37.678894
20
17.430534
11
38.471935
21
16.280734
0
LINE
8
0
10
38.471935
20
16.280734
11
39.632905
21
17.057324
0
LINE
8
0
10
39.632905
20
17.057324
11
38.483115
21
16.264280
0
LINE
8
0
10
38.483115
20
16.264280
11
39.259700
21
15.103300
0
LINE
8
0
10
39.388000
20
25.559700
11
38.470609
21
26.281850
0
LINE
8
0
10
38.470609
20
26.281850
11
37.735460
21
25.374845
0
LINE
8
0
10
37.735460
20
25.374845
11
38.457615
21
26.292236
0
LINE
8
0
10
38.457615
20
26.292236
11
37.550601
21
27.027396
0
LINE
8
0
10
37.550601
20
27.027396
11
38.467992
21
26.305246
0
LINE
8
0
10
38.467992
20
26.305246
11
39.203141
21
27.212251
0
LINE
8
0
10
39.203141
20
27.212251
11
38.480986
21
26.294860
0
LINE
8
0
10
38.480986
20
26.294860
11
39.388000
21
25.559700
0
LINE
8
0
10
52.410400
20
22.223900
11
51.746213
21
23.305150
0
LINE
8
0
10
51.746213
20
23.305150
11
50.655633
21
22.656406
0
LINE
8
0
10
50.655633
20
22.656406
11
51.736863
21
23.320615
0
LINE
8
0
10
51.736863
20
23.320615
11
51.088142
21
24.411175
0
LINE
8
0
10
51.088142
20
24.411175
11
51.752329
21
23.329955
0
LINE
8
0
10
51.752329
20
23.329955
11
52.842909
21
23.978670
0
LINE
8
0
10
52.842909
20
23.978670
11
51.761679
21
23.314489
0
LINE
8
0
10
51.761679
20
23.314489
11
52.410400
21
22.223900
0
LINE
8
0
10
68.864900
20
24.693700
11
68.000090
21
26.276180
0
LINE
8
0
10
68.000090
20
26.276180
11
66.405460
21
25.434001
0
LINE
8
0
10
66.405460
20
25.434001
11
67.987930
21
26.298814
0
LINE
8
0
10
67.987930
20
26.298814
11
67.145749
21
27.893454
0
LINE
8
0
10
67.145749
20
27.893454
11
68.010556
21
26.310974
0
LINE
8
0
10
68.010556
20
26.310974
11
69.605186
21
27.153153
0
LINE
8
0
10
69.605186
20
27.153153
11
68.022716
21
26.288340
0
LINE
8
0
10
68.022716
20
26.288340
11
68.864900
21
24.693700
0
LINE
8
0
10
69.185600
20
14.461800
11
68.000860
21
16.245780
0
LINE
8
0
10
68.000860
20
16.245780
11
66.200170
21
15.086580
0
LINE
8
0
10
66.200170
20
15.086580
11
67.984170
21
16.271320
0
LINE
8
0
10
67.984170
20
16.271320
11
66.824950
21
18.072010
0
LINE
8
0
10
66.824950
20
18.072010
11
68.009690
21
16.288000
0
LINE
8
0
10
68.009690
20
16.288000
11
69.810380
21
17.447230
0
LINE
8
0
10
69.810380
20
17.447230
11
68.026390
21
16.262490
0
LINE
8
0
10
68.026390
20
16.262490
11
69.185600
21
14.461800
0
LINE
8
0
10
81.919300
20
21.871100
11
81.004105
21
23.300890
0
LINE
8
0
10
81.004105
20
23.300890
11
79.561425
21
22.406133
0
LINE
8
0
10
79.561425
20
22.406133
11
80.991215
21
23.321323
0
LINE
8
0
10
80.991215
20
23.321323
11
80.096475
21
24.764013
0
LINE
8
0
10
80.096475
20
24.764013
11
81.011670
21
23.334223
0
LINE
8
0
10
81.011670
20
23.334223
11
82.454350
21
24.228951
0
LINE
8
0
10
82.454350
20
24.228951
11
81.024560
21
23.313761
0
LINE
8
0
10
81.024560
20
23.313761
11
81.919300
21
21.871100
0
LINE
8
0
10
98.213400
20
24.565400
11
97.258409
21
26.274650
0
LINE
8
0
10
97.258409
20
26.274650
11
95.535749
21
25.344079
0
LINE
8
0
10
95.535749
20
25.344079
11
97.244979
21
26.299090
0
LINE
8
0
10
97.244979
20
26.299090
11
96.314431
21
28.021740
0
LINE
8
0
10
96.314431
20
28.021740
11
97.269419
21
26.312490
0
LINE
8
0
10
97.269419
20
26.312490
11
98.992079
21
27.243061
0
LINE
8
0
10
98.992079
20
27.243061
11
97.282849
21
26.288050
0
LINE
8
0
10
97.282849
20
26.288050
11
98.213400
21
24.565400
0
LINE
8
0
10
98.085100
20
15.167400
11
97.261949
21
16.253280
0
LINE
8
0
10
97.261949
20
16.253280
11
96.164459
21
15.445674
0
LINE
8
0
10
96.164459
20
15.445674
11
97.250339
21
16.268831
0
LINE
8
0
10
97.250339
20
16.268831
11
96.442735
21
17.366331
0
LINE
8
0
10
96.442735
20
17.366331
11
97.265886
21
16.280451
0
LINE
8
0
10
97.265886
20
16.280451
11
98.363376
21
17.088057
0
LINE
8
0
10
98.363376
20
17.088057
11
97.277496
21
16.264900
0
LINE
8
0
10
97.277496
20
16.264900
11
98.085100
21
15.167400
0
LINE
8
0
10
111.621000
20
21.133400
11
110.419850
21
23.293700
0
LINE
8
0
10
110.419850
20
23.293700
11
108.242670
21
22.123440
0
LINE
8
0
10
108.242670
20
22.123440
11
110.402960
21
23.324580
0
LINE
8
0
10
110.402960
20
23.324580
11
109.232700
21
25.501780
0
LINE
8
0
10
109.232700
20
25.501780
11
110.433850
21
23.341480
0
LINE
8
0
10
110.433850
20
23.341480
11
112.611030
21
24.511740
0
LINE
8
0
10
112.611030
20
24.511740
11
110.450740
21
23.310570
0
LINE
8
0
10
110.450740
20
23.310570
11
111.621000
21
21.133400
0
LINE
8
0
10
144.701000
20
25.039400
11
143.863673
21
26.278780
0
LINE
8
0
10
143.863673
20
26.278780
11
142.612493
21
25.459207
0
LINE
8
0
10
142.612493
20
25.459207
11
143.851873
21
26.296531
0
LINE
8
0
10
143.851873
20
26.296531
11
143.032281
21
27.547701
0
LINE
8
0
10
143.032281
20
27.547701
11
143.869608
21
26.308321
0
LINE
8
0
10
143.869608
20
26.308321
11
145.120788
21
27.127894
0
LINE
8
0
10
145.120788
20
27.127894
11
143.881408
21
26.290570
0
LINE
8
0
10
143.881408
20
26.290570
11
144.701000
21
25.039400
0
LINE
8
0
10
144.610000
20
14.697100
11
143.860523
21
16.250510
0
LINE
8
0
10
143.860523
20
16.250510
11
142.296613
21
15.523224
0
LINE
8
0
10
142.296613
20
15.523224
11
143.850003
21
16.272693
0
LINE
8
0
10
143.850003
20
16.272693
11
143.122723
21
17.836623
0
LINE
8
0
10
143.122723
20
17.836623
11
143.872203
21
16.283213
0
LINE
8
0
10
143.872203
20
16.283213
11
145.436113
21
17.010499
0
LINE
8
0
10
145.436113
20
17.010499
11
143.882723
21
16.261002
0
LINE
8
0
10
143.882723
20
16.261002
11
144.610000
21
14.697100
0
LINE
8
0
10
154.771000
20
2.268290
11
154.448863
21
3.191382
0
LINE
8
0
10
154.448863
20
3.191382
11
153.521256
21
2.882434
0
LINE
8
0
10
153.521256
20
2.882434
11
154.444367
21
3.204562
0
LINE
8
0
10
154.444367
20
3.204562
11
154.135407
21
4.132169
0
LINE
8
0
10
154.135407
20
4.132169
11
154.457546
21
3.209077
0
LINE
8
0
10
154.457546
20
3.209077
11
155.385153
21
3.518025
0
LINE
8
0
10
155.385153
20
3.518025
11
154.462042
21
3.195897
0
LINE
8
0
10
154.462042
20
3.195897
11
154.771000
21
2.268290
 0 
ENDSEC
 0 
EOF