M48
;GenerationSoftware,Autodesk,EAGLE,9.1.0*%
;CreationDate,2018-10-14T09:45:25Z*%
FMAT,2
ICI,OFF
METRIC,TZ,000.000
T4C0.813
T3C1.016
T2C1.100
T1C2.100
%
G90
M71
T1
X78922Y13208
X69922Y13208
X42490Y13208
X51490Y13208
X107116Y13208
X98116Y13208
X15058Y13208
X24058Y13208
T2
X139700Y20320
X139700Y2032
X17058Y6208
X19558Y6208
X22058Y6208
X139850Y16002
X136850Y16002
X17058Y3668
X19558Y3668
X22058Y3668
X2366Y16002
X10866Y16002
X13866Y16002
X2366Y6604
X10866Y6604
X13866Y6604
X147320Y2032
X96162Y6604
X93162Y6604
X84662Y6604
X96162Y16002
X93162Y16002
X84662Y16002
X105116Y3668
X102616Y3668
X100116Y3668
X128350Y16002
X139850Y6604
X105116Y6208
X102616Y6208
X44490Y6208
X46990Y6208
X49490Y6208
X136850Y6604
X128350Y6604
X44490Y3668
X46990Y3668
X49490Y3668
X29544Y16510
X38044Y16510
X41044Y16510
X29544Y7112
X38044Y7112
X41044Y7112
X71922Y6208
X74422Y6208
X76922Y6208
X100116Y6208
X147320Y20320
X71922Y3668
X74422Y3668
X76922Y3668
X57230Y16002
X65730Y16002
X68730Y16002
X57230Y6604
X65730Y6604
X68730Y6604
T3
X143256Y17272
X143256Y14732
X143256Y12192
X143256Y9652
X143256Y7112
X145796Y17272
X145796Y14732
X145796Y12192
X145796Y9652
X145796Y7112
T4
X121412Y8636
X113792Y18796
X121412Y18796
X121412Y6096
X121412Y3556
X125222Y19812
X125222Y12192
X125222Y10414
X26924Y2032
X26924Y9652
X26924Y20574
X26924Y12954
X54610Y2032
X54610Y9652
X54610Y20574
X54610Y12954
X82042Y2032
X82042Y9652
X82042Y20574
X82042Y12954
X110236Y2032
X110236Y9652
X110236Y20574
X110236Y12954
X121412Y11176
X121412Y16256
X121412Y13716
X113792Y16256
X113792Y13716
X113792Y11176
X113792Y8636
X113792Y6096
X113792Y3556
X125222Y2794
M30