G04 EAGLE Gerber X2 export*
%TF.Part,Single*%
%TF.FileFunction,Soldermask,Bot,1*%
%TF.FilePolarity,Negative*%
%TF.GenerationSoftware,Autodesk,EAGLE,9.1.0*%
%TF.CreationDate,2018-10-14T09:45:26Z*%
G75*
%MOMM*%
%FSLAX34Y34*%
%LPD*%
%AMOC8*
5,1,8,0,0,1.08239X$1,22.5*%
G01*
%ADD10P,1.649562X8X112.500000*%
%ADD11C,1.853200*%
%ADD12R,1.853200X1.853200*%
%ADD13P,2.005885X8X292.500000*%
%ADD14C,3.319200*%
%ADD15C,1.524000*%
%ADD16C,1.903200*%
%ADD17P,1.649562X8X292.500000*%
%ADD18P,1.869504X8X112.500000*%


D10*
X1252220Y27940D03*
X1252220Y104140D03*
D11*
X1283500Y66040D03*
X1368500Y66040D03*
X1398500Y66040D03*
X1283500Y160020D03*
X1368500Y160020D03*
X1398500Y160020D03*
D10*
X1252220Y121920D03*
X1252220Y198120D03*
D12*
X170580Y62080D03*
D13*
X195580Y62080D03*
X220580Y62080D03*
D14*
X240580Y132080D03*
X150580Y132080D03*
D12*
X170580Y36680D03*
D13*
X195580Y36680D03*
X220580Y36680D03*
D11*
X23660Y160020D03*
X108660Y160020D03*
X138660Y160020D03*
X23660Y66040D03*
X108660Y66040D03*
X138660Y66040D03*
D15*
X1207516Y35560D02*
X1220724Y35560D01*
X1220724Y60960D02*
X1207516Y60960D01*
X1207516Y187960D02*
X1220724Y187960D01*
X1144524Y187960D02*
X1131316Y187960D01*
X1207516Y86360D02*
X1220724Y86360D01*
X1220724Y111760D02*
X1207516Y111760D01*
X1207516Y162560D02*
X1220724Y162560D01*
X1220724Y137160D02*
X1207516Y137160D01*
X1144524Y162560D02*
X1131316Y162560D01*
X1131316Y137160D02*
X1144524Y137160D01*
X1144524Y111760D02*
X1131316Y111760D01*
X1131316Y86360D02*
X1144524Y86360D01*
X1144524Y60960D02*
X1131316Y60960D01*
X1131316Y35560D02*
X1144524Y35560D01*
D12*
X444900Y62080D03*
D13*
X469900Y62080D03*
X494900Y62080D03*
D14*
X514900Y132080D03*
X424900Y132080D03*
D12*
X444900Y36680D03*
D13*
X469900Y36680D03*
X494900Y36680D03*
D11*
X295440Y165100D03*
X380440Y165100D03*
X410440Y165100D03*
X295440Y71120D03*
X380440Y71120D03*
X410440Y71120D03*
D12*
X719220Y62080D03*
D13*
X744220Y62080D03*
X769220Y62080D03*
D14*
X789220Y132080D03*
X699220Y132080D03*
D12*
X719220Y36680D03*
D13*
X744220Y36680D03*
X769220Y36680D03*
D11*
X572300Y160020D03*
X657300Y160020D03*
X687300Y160020D03*
X572300Y66040D03*
X657300Y66040D03*
X687300Y66040D03*
D12*
X1001160Y62080D03*
D13*
X1026160Y62080D03*
X1051160Y62080D03*
D14*
X1071160Y132080D03*
X981160Y132080D03*
D12*
X1001160Y36680D03*
D13*
X1026160Y36680D03*
X1051160Y36680D03*
D11*
X846620Y160020D03*
X931620Y160020D03*
X961620Y160020D03*
X846620Y66040D03*
X931620Y66040D03*
X961620Y66040D03*
D16*
X1473200Y20320D03*
X1397000Y20320D03*
X1397000Y203200D03*
X1473200Y203200D03*
D10*
X269240Y20320D03*
X269240Y96520D03*
D17*
X269240Y205740D03*
X269240Y129540D03*
D10*
X546100Y20320D03*
X546100Y96520D03*
D17*
X546100Y205740D03*
X546100Y129540D03*
D10*
X820420Y20320D03*
X820420Y96520D03*
D17*
X820420Y205740D03*
X820420Y129540D03*
D10*
X1102360Y20320D03*
X1102360Y96520D03*
D17*
X1102360Y205740D03*
X1102360Y129540D03*
D18*
X1457960Y71120D03*
X1457960Y96520D03*
X1457960Y121920D03*
X1457960Y147320D03*
X1457960Y172720D03*
X1432560Y71120D03*
X1432560Y96520D03*
X1432560Y121920D03*
X1432560Y147320D03*
X1432560Y172720D03*
M02*
