G04 #@! TF.GenerationSoftware,KiCad,Pcbnew,(5.1.2-1)-1*
G04 #@! TF.CreationDate,2019-06-07T14:53:30+02:00*
G04 #@! TF.ProjectId,matrix-mixer-smt,6d617472-6978-42d6-9d69-7865722d736d,rev?*
G04 #@! TF.SameCoordinates,Original*
G04 #@! TF.FileFunction,Soldermask,Top*
G04 #@! TF.FilePolarity,Negative*
%FSLAX46Y46*%
G04 Gerber Fmt 4.6, Leading zero omitted, Abs format (unit mm)*
G04 Created by KiCad (PCBNEW (5.1.2-1)-1) date 2019-06-07 14:53:30*
%MOMM*%
%LPD*%
G04 APERTURE LIST*
%ADD10C,1.800000*%
%ADD11C,1.803400*%
%ADD12C,2.667000*%
%ADD13R,1.700000X1.700000*%
%ADD14O,1.700000X1.700000*%
%ADD15R,2.500000X2.550000*%
%ADD16R,1.500000X0.600000*%
%ADD17C,0.100000*%
%ADD18C,0.875000*%
%ADD19R,1.000000X1.000000*%
%ADD20R,0.600000X0.450000*%
%ADD21C,1.651000*%
G04 APERTURE END LIST*
D10*
X58674000Y-86012000D03*
X58674000Y-97412000D03*
X58674000Y-94312000D03*
D11*
X108712163Y-111660243D03*
X106172163Y-111660243D03*
X103632163Y-111660243D03*
D12*
X101777963Y-104649843D03*
X110566363Y-104649843D03*
X98374363Y-104649843D03*
X89585963Y-104649843D03*
D11*
X91440163Y-111660243D03*
X93980163Y-111660243D03*
X96520163Y-111660243D03*
D12*
X86182363Y-104649843D03*
X77393963Y-104649843D03*
D11*
X79248163Y-111660243D03*
X81788163Y-111660243D03*
X84328163Y-111660243D03*
X72136163Y-111584043D03*
X69596163Y-111584043D03*
X67056163Y-111584043D03*
D12*
X65201963Y-104573643D03*
X73990363Y-104573643D03*
D11*
X108712163Y-97182243D03*
X106172163Y-97182243D03*
X103632163Y-97182243D03*
D12*
X101777963Y-90171843D03*
X110566363Y-90171843D03*
X98374363Y-90171843D03*
X89585963Y-90171843D03*
D11*
X91440163Y-97182243D03*
X93980163Y-97182243D03*
X96520163Y-97182243D03*
D12*
X86182363Y-90171843D03*
X77393963Y-90171843D03*
D11*
X79248163Y-97182243D03*
X81788163Y-97182243D03*
X84328163Y-97182243D03*
X72136163Y-97182243D03*
X69596163Y-97182243D03*
X67056163Y-97182243D03*
D12*
X65201963Y-90171843D03*
X73990363Y-90171843D03*
D11*
X108458163Y-82704243D03*
X105918163Y-82704243D03*
X103378163Y-82704243D03*
D12*
X101523963Y-75693843D03*
X110312363Y-75693843D03*
X98120363Y-75693843D03*
X89331963Y-75693843D03*
D11*
X91186163Y-82704243D03*
X93726163Y-82704243D03*
X96266163Y-82704243D03*
X84074163Y-82704243D03*
X81534163Y-82704243D03*
X78994163Y-82704243D03*
D12*
X77139963Y-75693843D03*
X85928363Y-75693843D03*
X73736363Y-75693843D03*
X64947963Y-75693843D03*
D11*
X66802163Y-82704243D03*
X69342163Y-82704243D03*
X71882163Y-82704243D03*
D12*
X110312363Y-61278414D03*
X101523963Y-61278414D03*
D11*
X103378163Y-68288814D03*
X105918163Y-68288814D03*
X108458163Y-68288814D03*
X96266163Y-68288814D03*
X93726163Y-68288814D03*
X91186163Y-68288814D03*
D12*
X89331963Y-61278414D03*
X98120363Y-61278414D03*
D11*
X84074163Y-68288814D03*
X81534163Y-68288814D03*
X78994163Y-68288814D03*
D12*
X77139963Y-61278414D03*
X85928363Y-61278414D03*
X73736363Y-61278414D03*
X64947963Y-61278414D03*
D11*
X66802163Y-68288814D03*
X69342163Y-68288814D03*
X71882163Y-68288814D03*
D10*
X105918000Y-132920000D03*
X105918000Y-136020000D03*
X105918000Y-124620000D03*
X93726000Y-124366000D03*
X93726000Y-135766000D03*
X93726000Y-132666000D03*
X81534000Y-124366000D03*
X81534000Y-135766000D03*
X81534000Y-132666000D03*
X69342000Y-124366000D03*
X69342000Y-135766000D03*
X69342000Y-132666000D03*
X58928000Y-108790000D03*
X58928000Y-111890000D03*
X58928000Y-100490000D03*
X58674000Y-71534000D03*
X58674000Y-82934000D03*
X58674000Y-79834000D03*
X58748000Y-56890514D03*
X58748000Y-68290514D03*
X58748000Y-65190514D03*
D13*
X56464000Y-149524000D03*
D14*
X59004000Y-149524000D03*
X56464000Y-152064000D03*
X59004000Y-152064000D03*
X56464000Y-154604000D03*
X59004000Y-154604000D03*
X56464000Y-157144000D03*
X59004000Y-157144000D03*
X56464000Y-159684000D03*
X59004000Y-159684000D03*
D15*
X75692000Y-158481000D03*
X75692000Y-153431000D03*
X95758000Y-153431000D03*
X95758000Y-158481000D03*
D16*
X87780000Y-152139000D03*
X87780000Y-153409000D03*
X87780000Y-154679000D03*
X87780000Y-155949000D03*
X87780000Y-157219000D03*
X87780000Y-158489000D03*
X87780000Y-159759000D03*
X82380000Y-159759000D03*
X82380000Y-158489000D03*
X82380000Y-157219000D03*
X82380000Y-155949000D03*
X82380000Y-154679000D03*
X82380000Y-153409000D03*
X82380000Y-152139000D03*
D17*
G36*
X63460691Y-67598053D02*
G01*
X63481926Y-67601203D01*
X63502750Y-67606419D01*
X63522962Y-67613651D01*
X63542368Y-67622830D01*
X63560781Y-67633866D01*
X63578024Y-67646654D01*
X63593930Y-67661070D01*
X63608346Y-67676976D01*
X63621134Y-67694219D01*
X63632170Y-67712632D01*
X63641349Y-67732038D01*
X63648581Y-67752250D01*
X63653797Y-67773074D01*
X63656947Y-67794309D01*
X63658000Y-67815750D01*
X63658000Y-68328250D01*
X63656947Y-68349691D01*
X63653797Y-68370926D01*
X63648581Y-68391750D01*
X63641349Y-68411962D01*
X63632170Y-68431368D01*
X63621134Y-68449781D01*
X63608346Y-68467024D01*
X63593930Y-68482930D01*
X63578024Y-68497346D01*
X63560781Y-68510134D01*
X63542368Y-68521170D01*
X63522962Y-68530349D01*
X63502750Y-68537581D01*
X63481926Y-68542797D01*
X63460691Y-68545947D01*
X63439250Y-68547000D01*
X63001750Y-68547000D01*
X62980309Y-68545947D01*
X62959074Y-68542797D01*
X62938250Y-68537581D01*
X62918038Y-68530349D01*
X62898632Y-68521170D01*
X62880219Y-68510134D01*
X62862976Y-68497346D01*
X62847070Y-68482930D01*
X62832654Y-68467024D01*
X62819866Y-68449781D01*
X62808830Y-68431368D01*
X62799651Y-68411962D01*
X62792419Y-68391750D01*
X62787203Y-68370926D01*
X62784053Y-68349691D01*
X62783000Y-68328250D01*
X62783000Y-67815750D01*
X62784053Y-67794309D01*
X62787203Y-67773074D01*
X62792419Y-67752250D01*
X62799651Y-67732038D01*
X62808830Y-67712632D01*
X62819866Y-67694219D01*
X62832654Y-67676976D01*
X62847070Y-67661070D01*
X62862976Y-67646654D01*
X62880219Y-67633866D01*
X62898632Y-67622830D01*
X62918038Y-67613651D01*
X62938250Y-67606419D01*
X62959074Y-67601203D01*
X62980309Y-67598053D01*
X63001750Y-67597000D01*
X63439250Y-67597000D01*
X63460691Y-67598053D01*
X63460691Y-67598053D01*
G37*
D18*
X63220500Y-68072000D03*
D17*
G36*
X65035691Y-67598053D02*
G01*
X65056926Y-67601203D01*
X65077750Y-67606419D01*
X65097962Y-67613651D01*
X65117368Y-67622830D01*
X65135781Y-67633866D01*
X65153024Y-67646654D01*
X65168930Y-67661070D01*
X65183346Y-67676976D01*
X65196134Y-67694219D01*
X65207170Y-67712632D01*
X65216349Y-67732038D01*
X65223581Y-67752250D01*
X65228797Y-67773074D01*
X65231947Y-67794309D01*
X65233000Y-67815750D01*
X65233000Y-68328250D01*
X65231947Y-68349691D01*
X65228797Y-68370926D01*
X65223581Y-68391750D01*
X65216349Y-68411962D01*
X65207170Y-68431368D01*
X65196134Y-68449781D01*
X65183346Y-68467024D01*
X65168930Y-68482930D01*
X65153024Y-68497346D01*
X65135781Y-68510134D01*
X65117368Y-68521170D01*
X65097962Y-68530349D01*
X65077750Y-68537581D01*
X65056926Y-68542797D01*
X65035691Y-68545947D01*
X65014250Y-68547000D01*
X64576750Y-68547000D01*
X64555309Y-68545947D01*
X64534074Y-68542797D01*
X64513250Y-68537581D01*
X64493038Y-68530349D01*
X64473632Y-68521170D01*
X64455219Y-68510134D01*
X64437976Y-68497346D01*
X64422070Y-68482930D01*
X64407654Y-68467024D01*
X64394866Y-68449781D01*
X64383830Y-68431368D01*
X64374651Y-68411962D01*
X64367419Y-68391750D01*
X64362203Y-68370926D01*
X64359053Y-68349691D01*
X64358000Y-68328250D01*
X64358000Y-67815750D01*
X64359053Y-67794309D01*
X64362203Y-67773074D01*
X64367419Y-67752250D01*
X64374651Y-67732038D01*
X64383830Y-67712632D01*
X64394866Y-67694219D01*
X64407654Y-67676976D01*
X64422070Y-67661070D01*
X64437976Y-67646654D01*
X64455219Y-67633866D01*
X64473632Y-67622830D01*
X64493038Y-67613651D01*
X64513250Y-67606419D01*
X64534074Y-67601203D01*
X64555309Y-67598053D01*
X64576750Y-67597000D01*
X65014250Y-67597000D01*
X65035691Y-67598053D01*
X65035691Y-67598053D01*
G37*
D18*
X64795500Y-68072000D03*
D17*
G36*
X76465691Y-67598053D02*
G01*
X76486926Y-67601203D01*
X76507750Y-67606419D01*
X76527962Y-67613651D01*
X76547368Y-67622830D01*
X76565781Y-67633866D01*
X76583024Y-67646654D01*
X76598930Y-67661070D01*
X76613346Y-67676976D01*
X76626134Y-67694219D01*
X76637170Y-67712632D01*
X76646349Y-67732038D01*
X76653581Y-67752250D01*
X76658797Y-67773074D01*
X76661947Y-67794309D01*
X76663000Y-67815750D01*
X76663000Y-68328250D01*
X76661947Y-68349691D01*
X76658797Y-68370926D01*
X76653581Y-68391750D01*
X76646349Y-68411962D01*
X76637170Y-68431368D01*
X76626134Y-68449781D01*
X76613346Y-68467024D01*
X76598930Y-68482930D01*
X76583024Y-68497346D01*
X76565781Y-68510134D01*
X76547368Y-68521170D01*
X76527962Y-68530349D01*
X76507750Y-68537581D01*
X76486926Y-68542797D01*
X76465691Y-68545947D01*
X76444250Y-68547000D01*
X76006750Y-68547000D01*
X75985309Y-68545947D01*
X75964074Y-68542797D01*
X75943250Y-68537581D01*
X75923038Y-68530349D01*
X75903632Y-68521170D01*
X75885219Y-68510134D01*
X75867976Y-68497346D01*
X75852070Y-68482930D01*
X75837654Y-68467024D01*
X75824866Y-68449781D01*
X75813830Y-68431368D01*
X75804651Y-68411962D01*
X75797419Y-68391750D01*
X75792203Y-68370926D01*
X75789053Y-68349691D01*
X75788000Y-68328250D01*
X75788000Y-67815750D01*
X75789053Y-67794309D01*
X75792203Y-67773074D01*
X75797419Y-67752250D01*
X75804651Y-67732038D01*
X75813830Y-67712632D01*
X75824866Y-67694219D01*
X75837654Y-67676976D01*
X75852070Y-67661070D01*
X75867976Y-67646654D01*
X75885219Y-67633866D01*
X75903632Y-67622830D01*
X75923038Y-67613651D01*
X75943250Y-67606419D01*
X75964074Y-67601203D01*
X75985309Y-67598053D01*
X76006750Y-67597000D01*
X76444250Y-67597000D01*
X76465691Y-67598053D01*
X76465691Y-67598053D01*
G37*
D18*
X76225500Y-68072000D03*
D17*
G36*
X74890691Y-67598053D02*
G01*
X74911926Y-67601203D01*
X74932750Y-67606419D01*
X74952962Y-67613651D01*
X74972368Y-67622830D01*
X74990781Y-67633866D01*
X75008024Y-67646654D01*
X75023930Y-67661070D01*
X75038346Y-67676976D01*
X75051134Y-67694219D01*
X75062170Y-67712632D01*
X75071349Y-67732038D01*
X75078581Y-67752250D01*
X75083797Y-67773074D01*
X75086947Y-67794309D01*
X75088000Y-67815750D01*
X75088000Y-68328250D01*
X75086947Y-68349691D01*
X75083797Y-68370926D01*
X75078581Y-68391750D01*
X75071349Y-68411962D01*
X75062170Y-68431368D01*
X75051134Y-68449781D01*
X75038346Y-68467024D01*
X75023930Y-68482930D01*
X75008024Y-68497346D01*
X74990781Y-68510134D01*
X74972368Y-68521170D01*
X74952962Y-68530349D01*
X74932750Y-68537581D01*
X74911926Y-68542797D01*
X74890691Y-68545947D01*
X74869250Y-68547000D01*
X74431750Y-68547000D01*
X74410309Y-68545947D01*
X74389074Y-68542797D01*
X74368250Y-68537581D01*
X74348038Y-68530349D01*
X74328632Y-68521170D01*
X74310219Y-68510134D01*
X74292976Y-68497346D01*
X74277070Y-68482930D01*
X74262654Y-68467024D01*
X74249866Y-68449781D01*
X74238830Y-68431368D01*
X74229651Y-68411962D01*
X74222419Y-68391750D01*
X74217203Y-68370926D01*
X74214053Y-68349691D01*
X74213000Y-68328250D01*
X74213000Y-67815750D01*
X74214053Y-67794309D01*
X74217203Y-67773074D01*
X74222419Y-67752250D01*
X74229651Y-67732038D01*
X74238830Y-67712632D01*
X74249866Y-67694219D01*
X74262654Y-67676976D01*
X74277070Y-67661070D01*
X74292976Y-67646654D01*
X74310219Y-67633866D01*
X74328632Y-67622830D01*
X74348038Y-67613651D01*
X74368250Y-67606419D01*
X74389074Y-67601203D01*
X74410309Y-67598053D01*
X74431750Y-67597000D01*
X74869250Y-67597000D01*
X74890691Y-67598053D01*
X74890691Y-67598053D01*
G37*
D18*
X74650500Y-68072000D03*
D17*
G36*
X87082691Y-67598053D02*
G01*
X87103926Y-67601203D01*
X87124750Y-67606419D01*
X87144962Y-67613651D01*
X87164368Y-67622830D01*
X87182781Y-67633866D01*
X87200024Y-67646654D01*
X87215930Y-67661070D01*
X87230346Y-67676976D01*
X87243134Y-67694219D01*
X87254170Y-67712632D01*
X87263349Y-67732038D01*
X87270581Y-67752250D01*
X87275797Y-67773074D01*
X87278947Y-67794309D01*
X87280000Y-67815750D01*
X87280000Y-68328250D01*
X87278947Y-68349691D01*
X87275797Y-68370926D01*
X87270581Y-68391750D01*
X87263349Y-68411962D01*
X87254170Y-68431368D01*
X87243134Y-68449781D01*
X87230346Y-68467024D01*
X87215930Y-68482930D01*
X87200024Y-68497346D01*
X87182781Y-68510134D01*
X87164368Y-68521170D01*
X87144962Y-68530349D01*
X87124750Y-68537581D01*
X87103926Y-68542797D01*
X87082691Y-68545947D01*
X87061250Y-68547000D01*
X86623750Y-68547000D01*
X86602309Y-68545947D01*
X86581074Y-68542797D01*
X86560250Y-68537581D01*
X86540038Y-68530349D01*
X86520632Y-68521170D01*
X86502219Y-68510134D01*
X86484976Y-68497346D01*
X86469070Y-68482930D01*
X86454654Y-68467024D01*
X86441866Y-68449781D01*
X86430830Y-68431368D01*
X86421651Y-68411962D01*
X86414419Y-68391750D01*
X86409203Y-68370926D01*
X86406053Y-68349691D01*
X86405000Y-68328250D01*
X86405000Y-67815750D01*
X86406053Y-67794309D01*
X86409203Y-67773074D01*
X86414419Y-67752250D01*
X86421651Y-67732038D01*
X86430830Y-67712632D01*
X86441866Y-67694219D01*
X86454654Y-67676976D01*
X86469070Y-67661070D01*
X86484976Y-67646654D01*
X86502219Y-67633866D01*
X86520632Y-67622830D01*
X86540038Y-67613651D01*
X86560250Y-67606419D01*
X86581074Y-67601203D01*
X86602309Y-67598053D01*
X86623750Y-67597000D01*
X87061250Y-67597000D01*
X87082691Y-67598053D01*
X87082691Y-67598053D01*
G37*
D18*
X86842500Y-68072000D03*
D17*
G36*
X88657691Y-67598053D02*
G01*
X88678926Y-67601203D01*
X88699750Y-67606419D01*
X88719962Y-67613651D01*
X88739368Y-67622830D01*
X88757781Y-67633866D01*
X88775024Y-67646654D01*
X88790930Y-67661070D01*
X88805346Y-67676976D01*
X88818134Y-67694219D01*
X88829170Y-67712632D01*
X88838349Y-67732038D01*
X88845581Y-67752250D01*
X88850797Y-67773074D01*
X88853947Y-67794309D01*
X88855000Y-67815750D01*
X88855000Y-68328250D01*
X88853947Y-68349691D01*
X88850797Y-68370926D01*
X88845581Y-68391750D01*
X88838349Y-68411962D01*
X88829170Y-68431368D01*
X88818134Y-68449781D01*
X88805346Y-68467024D01*
X88790930Y-68482930D01*
X88775024Y-68497346D01*
X88757781Y-68510134D01*
X88739368Y-68521170D01*
X88719962Y-68530349D01*
X88699750Y-68537581D01*
X88678926Y-68542797D01*
X88657691Y-68545947D01*
X88636250Y-68547000D01*
X88198750Y-68547000D01*
X88177309Y-68545947D01*
X88156074Y-68542797D01*
X88135250Y-68537581D01*
X88115038Y-68530349D01*
X88095632Y-68521170D01*
X88077219Y-68510134D01*
X88059976Y-68497346D01*
X88044070Y-68482930D01*
X88029654Y-68467024D01*
X88016866Y-68449781D01*
X88005830Y-68431368D01*
X87996651Y-68411962D01*
X87989419Y-68391750D01*
X87984203Y-68370926D01*
X87981053Y-68349691D01*
X87980000Y-68328250D01*
X87980000Y-67815750D01*
X87981053Y-67794309D01*
X87984203Y-67773074D01*
X87989419Y-67752250D01*
X87996651Y-67732038D01*
X88005830Y-67712632D01*
X88016866Y-67694219D01*
X88029654Y-67676976D01*
X88044070Y-67661070D01*
X88059976Y-67646654D01*
X88077219Y-67633866D01*
X88095632Y-67622830D01*
X88115038Y-67613651D01*
X88135250Y-67606419D01*
X88156074Y-67601203D01*
X88177309Y-67598053D01*
X88198750Y-67597000D01*
X88636250Y-67597000D01*
X88657691Y-67598053D01*
X88657691Y-67598053D01*
G37*
D18*
X88417500Y-68072000D03*
D17*
G36*
X101357691Y-67598053D02*
G01*
X101378926Y-67601203D01*
X101399750Y-67606419D01*
X101419962Y-67613651D01*
X101439368Y-67622830D01*
X101457781Y-67633866D01*
X101475024Y-67646654D01*
X101490930Y-67661070D01*
X101505346Y-67676976D01*
X101518134Y-67694219D01*
X101529170Y-67712632D01*
X101538349Y-67732038D01*
X101545581Y-67752250D01*
X101550797Y-67773074D01*
X101553947Y-67794309D01*
X101555000Y-67815750D01*
X101555000Y-68328250D01*
X101553947Y-68349691D01*
X101550797Y-68370926D01*
X101545581Y-68391750D01*
X101538349Y-68411962D01*
X101529170Y-68431368D01*
X101518134Y-68449781D01*
X101505346Y-68467024D01*
X101490930Y-68482930D01*
X101475024Y-68497346D01*
X101457781Y-68510134D01*
X101439368Y-68521170D01*
X101419962Y-68530349D01*
X101399750Y-68537581D01*
X101378926Y-68542797D01*
X101357691Y-68545947D01*
X101336250Y-68547000D01*
X100898750Y-68547000D01*
X100877309Y-68545947D01*
X100856074Y-68542797D01*
X100835250Y-68537581D01*
X100815038Y-68530349D01*
X100795632Y-68521170D01*
X100777219Y-68510134D01*
X100759976Y-68497346D01*
X100744070Y-68482930D01*
X100729654Y-68467024D01*
X100716866Y-68449781D01*
X100705830Y-68431368D01*
X100696651Y-68411962D01*
X100689419Y-68391750D01*
X100684203Y-68370926D01*
X100681053Y-68349691D01*
X100680000Y-68328250D01*
X100680000Y-67815750D01*
X100681053Y-67794309D01*
X100684203Y-67773074D01*
X100689419Y-67752250D01*
X100696651Y-67732038D01*
X100705830Y-67712632D01*
X100716866Y-67694219D01*
X100729654Y-67676976D01*
X100744070Y-67661070D01*
X100759976Y-67646654D01*
X100777219Y-67633866D01*
X100795632Y-67622830D01*
X100815038Y-67613651D01*
X100835250Y-67606419D01*
X100856074Y-67601203D01*
X100877309Y-67598053D01*
X100898750Y-67597000D01*
X101336250Y-67597000D01*
X101357691Y-67598053D01*
X101357691Y-67598053D01*
G37*
D18*
X101117500Y-68072000D03*
D17*
G36*
X99782691Y-67598053D02*
G01*
X99803926Y-67601203D01*
X99824750Y-67606419D01*
X99844962Y-67613651D01*
X99864368Y-67622830D01*
X99882781Y-67633866D01*
X99900024Y-67646654D01*
X99915930Y-67661070D01*
X99930346Y-67676976D01*
X99943134Y-67694219D01*
X99954170Y-67712632D01*
X99963349Y-67732038D01*
X99970581Y-67752250D01*
X99975797Y-67773074D01*
X99978947Y-67794309D01*
X99980000Y-67815750D01*
X99980000Y-68328250D01*
X99978947Y-68349691D01*
X99975797Y-68370926D01*
X99970581Y-68391750D01*
X99963349Y-68411962D01*
X99954170Y-68431368D01*
X99943134Y-68449781D01*
X99930346Y-68467024D01*
X99915930Y-68482930D01*
X99900024Y-68497346D01*
X99882781Y-68510134D01*
X99864368Y-68521170D01*
X99844962Y-68530349D01*
X99824750Y-68537581D01*
X99803926Y-68542797D01*
X99782691Y-68545947D01*
X99761250Y-68547000D01*
X99323750Y-68547000D01*
X99302309Y-68545947D01*
X99281074Y-68542797D01*
X99260250Y-68537581D01*
X99240038Y-68530349D01*
X99220632Y-68521170D01*
X99202219Y-68510134D01*
X99184976Y-68497346D01*
X99169070Y-68482930D01*
X99154654Y-68467024D01*
X99141866Y-68449781D01*
X99130830Y-68431368D01*
X99121651Y-68411962D01*
X99114419Y-68391750D01*
X99109203Y-68370926D01*
X99106053Y-68349691D01*
X99105000Y-68328250D01*
X99105000Y-67815750D01*
X99106053Y-67794309D01*
X99109203Y-67773074D01*
X99114419Y-67752250D01*
X99121651Y-67732038D01*
X99130830Y-67712632D01*
X99141866Y-67694219D01*
X99154654Y-67676976D01*
X99169070Y-67661070D01*
X99184976Y-67646654D01*
X99202219Y-67633866D01*
X99220632Y-67622830D01*
X99240038Y-67613651D01*
X99260250Y-67606419D01*
X99281074Y-67601203D01*
X99302309Y-67598053D01*
X99323750Y-67597000D01*
X99761250Y-67597000D01*
X99782691Y-67598053D01*
X99782691Y-67598053D01*
G37*
D18*
X99542500Y-68072000D03*
D17*
G36*
X65035691Y-82330053D02*
G01*
X65056926Y-82333203D01*
X65077750Y-82338419D01*
X65097962Y-82345651D01*
X65117368Y-82354830D01*
X65135781Y-82365866D01*
X65153024Y-82378654D01*
X65168930Y-82393070D01*
X65183346Y-82408976D01*
X65196134Y-82426219D01*
X65207170Y-82444632D01*
X65216349Y-82464038D01*
X65223581Y-82484250D01*
X65228797Y-82505074D01*
X65231947Y-82526309D01*
X65233000Y-82547750D01*
X65233000Y-83060250D01*
X65231947Y-83081691D01*
X65228797Y-83102926D01*
X65223581Y-83123750D01*
X65216349Y-83143962D01*
X65207170Y-83163368D01*
X65196134Y-83181781D01*
X65183346Y-83199024D01*
X65168930Y-83214930D01*
X65153024Y-83229346D01*
X65135781Y-83242134D01*
X65117368Y-83253170D01*
X65097962Y-83262349D01*
X65077750Y-83269581D01*
X65056926Y-83274797D01*
X65035691Y-83277947D01*
X65014250Y-83279000D01*
X64576750Y-83279000D01*
X64555309Y-83277947D01*
X64534074Y-83274797D01*
X64513250Y-83269581D01*
X64493038Y-83262349D01*
X64473632Y-83253170D01*
X64455219Y-83242134D01*
X64437976Y-83229346D01*
X64422070Y-83214930D01*
X64407654Y-83199024D01*
X64394866Y-83181781D01*
X64383830Y-83163368D01*
X64374651Y-83143962D01*
X64367419Y-83123750D01*
X64362203Y-83102926D01*
X64359053Y-83081691D01*
X64358000Y-83060250D01*
X64358000Y-82547750D01*
X64359053Y-82526309D01*
X64362203Y-82505074D01*
X64367419Y-82484250D01*
X64374651Y-82464038D01*
X64383830Y-82444632D01*
X64394866Y-82426219D01*
X64407654Y-82408976D01*
X64422070Y-82393070D01*
X64437976Y-82378654D01*
X64455219Y-82365866D01*
X64473632Y-82354830D01*
X64493038Y-82345651D01*
X64513250Y-82338419D01*
X64534074Y-82333203D01*
X64555309Y-82330053D01*
X64576750Y-82329000D01*
X65014250Y-82329000D01*
X65035691Y-82330053D01*
X65035691Y-82330053D01*
G37*
D18*
X64795500Y-82804000D03*
D17*
G36*
X63460691Y-82330053D02*
G01*
X63481926Y-82333203D01*
X63502750Y-82338419D01*
X63522962Y-82345651D01*
X63542368Y-82354830D01*
X63560781Y-82365866D01*
X63578024Y-82378654D01*
X63593930Y-82393070D01*
X63608346Y-82408976D01*
X63621134Y-82426219D01*
X63632170Y-82444632D01*
X63641349Y-82464038D01*
X63648581Y-82484250D01*
X63653797Y-82505074D01*
X63656947Y-82526309D01*
X63658000Y-82547750D01*
X63658000Y-83060250D01*
X63656947Y-83081691D01*
X63653797Y-83102926D01*
X63648581Y-83123750D01*
X63641349Y-83143962D01*
X63632170Y-83163368D01*
X63621134Y-83181781D01*
X63608346Y-83199024D01*
X63593930Y-83214930D01*
X63578024Y-83229346D01*
X63560781Y-83242134D01*
X63542368Y-83253170D01*
X63522962Y-83262349D01*
X63502750Y-83269581D01*
X63481926Y-83274797D01*
X63460691Y-83277947D01*
X63439250Y-83279000D01*
X63001750Y-83279000D01*
X62980309Y-83277947D01*
X62959074Y-83274797D01*
X62938250Y-83269581D01*
X62918038Y-83262349D01*
X62898632Y-83253170D01*
X62880219Y-83242134D01*
X62862976Y-83229346D01*
X62847070Y-83214930D01*
X62832654Y-83199024D01*
X62819866Y-83181781D01*
X62808830Y-83163368D01*
X62799651Y-83143962D01*
X62792419Y-83123750D01*
X62787203Y-83102926D01*
X62784053Y-83081691D01*
X62783000Y-83060250D01*
X62783000Y-82547750D01*
X62784053Y-82526309D01*
X62787203Y-82505074D01*
X62792419Y-82484250D01*
X62799651Y-82464038D01*
X62808830Y-82444632D01*
X62819866Y-82426219D01*
X62832654Y-82408976D01*
X62847070Y-82393070D01*
X62862976Y-82378654D01*
X62880219Y-82365866D01*
X62898632Y-82354830D01*
X62918038Y-82345651D01*
X62938250Y-82338419D01*
X62959074Y-82333203D01*
X62980309Y-82330053D01*
X63001750Y-82329000D01*
X63439250Y-82329000D01*
X63460691Y-82330053D01*
X63460691Y-82330053D01*
G37*
D18*
X63220500Y-82804000D03*
D17*
G36*
X74890691Y-82330053D02*
G01*
X74911926Y-82333203D01*
X74932750Y-82338419D01*
X74952962Y-82345651D01*
X74972368Y-82354830D01*
X74990781Y-82365866D01*
X75008024Y-82378654D01*
X75023930Y-82393070D01*
X75038346Y-82408976D01*
X75051134Y-82426219D01*
X75062170Y-82444632D01*
X75071349Y-82464038D01*
X75078581Y-82484250D01*
X75083797Y-82505074D01*
X75086947Y-82526309D01*
X75088000Y-82547750D01*
X75088000Y-83060250D01*
X75086947Y-83081691D01*
X75083797Y-83102926D01*
X75078581Y-83123750D01*
X75071349Y-83143962D01*
X75062170Y-83163368D01*
X75051134Y-83181781D01*
X75038346Y-83199024D01*
X75023930Y-83214930D01*
X75008024Y-83229346D01*
X74990781Y-83242134D01*
X74972368Y-83253170D01*
X74952962Y-83262349D01*
X74932750Y-83269581D01*
X74911926Y-83274797D01*
X74890691Y-83277947D01*
X74869250Y-83279000D01*
X74431750Y-83279000D01*
X74410309Y-83277947D01*
X74389074Y-83274797D01*
X74368250Y-83269581D01*
X74348038Y-83262349D01*
X74328632Y-83253170D01*
X74310219Y-83242134D01*
X74292976Y-83229346D01*
X74277070Y-83214930D01*
X74262654Y-83199024D01*
X74249866Y-83181781D01*
X74238830Y-83163368D01*
X74229651Y-83143962D01*
X74222419Y-83123750D01*
X74217203Y-83102926D01*
X74214053Y-83081691D01*
X74213000Y-83060250D01*
X74213000Y-82547750D01*
X74214053Y-82526309D01*
X74217203Y-82505074D01*
X74222419Y-82484250D01*
X74229651Y-82464038D01*
X74238830Y-82444632D01*
X74249866Y-82426219D01*
X74262654Y-82408976D01*
X74277070Y-82393070D01*
X74292976Y-82378654D01*
X74310219Y-82365866D01*
X74328632Y-82354830D01*
X74348038Y-82345651D01*
X74368250Y-82338419D01*
X74389074Y-82333203D01*
X74410309Y-82330053D01*
X74431750Y-82329000D01*
X74869250Y-82329000D01*
X74890691Y-82330053D01*
X74890691Y-82330053D01*
G37*
D18*
X74650500Y-82804000D03*
D17*
G36*
X76465691Y-82330053D02*
G01*
X76486926Y-82333203D01*
X76507750Y-82338419D01*
X76527962Y-82345651D01*
X76547368Y-82354830D01*
X76565781Y-82365866D01*
X76583024Y-82378654D01*
X76598930Y-82393070D01*
X76613346Y-82408976D01*
X76626134Y-82426219D01*
X76637170Y-82444632D01*
X76646349Y-82464038D01*
X76653581Y-82484250D01*
X76658797Y-82505074D01*
X76661947Y-82526309D01*
X76663000Y-82547750D01*
X76663000Y-83060250D01*
X76661947Y-83081691D01*
X76658797Y-83102926D01*
X76653581Y-83123750D01*
X76646349Y-83143962D01*
X76637170Y-83163368D01*
X76626134Y-83181781D01*
X76613346Y-83199024D01*
X76598930Y-83214930D01*
X76583024Y-83229346D01*
X76565781Y-83242134D01*
X76547368Y-83253170D01*
X76527962Y-83262349D01*
X76507750Y-83269581D01*
X76486926Y-83274797D01*
X76465691Y-83277947D01*
X76444250Y-83279000D01*
X76006750Y-83279000D01*
X75985309Y-83277947D01*
X75964074Y-83274797D01*
X75943250Y-83269581D01*
X75923038Y-83262349D01*
X75903632Y-83253170D01*
X75885219Y-83242134D01*
X75867976Y-83229346D01*
X75852070Y-83214930D01*
X75837654Y-83199024D01*
X75824866Y-83181781D01*
X75813830Y-83163368D01*
X75804651Y-83143962D01*
X75797419Y-83123750D01*
X75792203Y-83102926D01*
X75789053Y-83081691D01*
X75788000Y-83060250D01*
X75788000Y-82547750D01*
X75789053Y-82526309D01*
X75792203Y-82505074D01*
X75797419Y-82484250D01*
X75804651Y-82464038D01*
X75813830Y-82444632D01*
X75824866Y-82426219D01*
X75837654Y-82408976D01*
X75852070Y-82393070D01*
X75867976Y-82378654D01*
X75885219Y-82365866D01*
X75903632Y-82354830D01*
X75923038Y-82345651D01*
X75943250Y-82338419D01*
X75964074Y-82333203D01*
X75985309Y-82330053D01*
X76006750Y-82329000D01*
X76444250Y-82329000D01*
X76465691Y-82330053D01*
X76465691Y-82330053D01*
G37*
D18*
X76225500Y-82804000D03*
D17*
G36*
X87082691Y-82330053D02*
G01*
X87103926Y-82333203D01*
X87124750Y-82338419D01*
X87144962Y-82345651D01*
X87164368Y-82354830D01*
X87182781Y-82365866D01*
X87200024Y-82378654D01*
X87215930Y-82393070D01*
X87230346Y-82408976D01*
X87243134Y-82426219D01*
X87254170Y-82444632D01*
X87263349Y-82464038D01*
X87270581Y-82484250D01*
X87275797Y-82505074D01*
X87278947Y-82526309D01*
X87280000Y-82547750D01*
X87280000Y-83060250D01*
X87278947Y-83081691D01*
X87275797Y-83102926D01*
X87270581Y-83123750D01*
X87263349Y-83143962D01*
X87254170Y-83163368D01*
X87243134Y-83181781D01*
X87230346Y-83199024D01*
X87215930Y-83214930D01*
X87200024Y-83229346D01*
X87182781Y-83242134D01*
X87164368Y-83253170D01*
X87144962Y-83262349D01*
X87124750Y-83269581D01*
X87103926Y-83274797D01*
X87082691Y-83277947D01*
X87061250Y-83279000D01*
X86623750Y-83279000D01*
X86602309Y-83277947D01*
X86581074Y-83274797D01*
X86560250Y-83269581D01*
X86540038Y-83262349D01*
X86520632Y-83253170D01*
X86502219Y-83242134D01*
X86484976Y-83229346D01*
X86469070Y-83214930D01*
X86454654Y-83199024D01*
X86441866Y-83181781D01*
X86430830Y-83163368D01*
X86421651Y-83143962D01*
X86414419Y-83123750D01*
X86409203Y-83102926D01*
X86406053Y-83081691D01*
X86405000Y-83060250D01*
X86405000Y-82547750D01*
X86406053Y-82526309D01*
X86409203Y-82505074D01*
X86414419Y-82484250D01*
X86421651Y-82464038D01*
X86430830Y-82444632D01*
X86441866Y-82426219D01*
X86454654Y-82408976D01*
X86469070Y-82393070D01*
X86484976Y-82378654D01*
X86502219Y-82365866D01*
X86520632Y-82354830D01*
X86540038Y-82345651D01*
X86560250Y-82338419D01*
X86581074Y-82333203D01*
X86602309Y-82330053D01*
X86623750Y-82329000D01*
X87061250Y-82329000D01*
X87082691Y-82330053D01*
X87082691Y-82330053D01*
G37*
D18*
X86842500Y-82804000D03*
D17*
G36*
X88657691Y-82330053D02*
G01*
X88678926Y-82333203D01*
X88699750Y-82338419D01*
X88719962Y-82345651D01*
X88739368Y-82354830D01*
X88757781Y-82365866D01*
X88775024Y-82378654D01*
X88790930Y-82393070D01*
X88805346Y-82408976D01*
X88818134Y-82426219D01*
X88829170Y-82444632D01*
X88838349Y-82464038D01*
X88845581Y-82484250D01*
X88850797Y-82505074D01*
X88853947Y-82526309D01*
X88855000Y-82547750D01*
X88855000Y-83060250D01*
X88853947Y-83081691D01*
X88850797Y-83102926D01*
X88845581Y-83123750D01*
X88838349Y-83143962D01*
X88829170Y-83163368D01*
X88818134Y-83181781D01*
X88805346Y-83199024D01*
X88790930Y-83214930D01*
X88775024Y-83229346D01*
X88757781Y-83242134D01*
X88739368Y-83253170D01*
X88719962Y-83262349D01*
X88699750Y-83269581D01*
X88678926Y-83274797D01*
X88657691Y-83277947D01*
X88636250Y-83279000D01*
X88198750Y-83279000D01*
X88177309Y-83277947D01*
X88156074Y-83274797D01*
X88135250Y-83269581D01*
X88115038Y-83262349D01*
X88095632Y-83253170D01*
X88077219Y-83242134D01*
X88059976Y-83229346D01*
X88044070Y-83214930D01*
X88029654Y-83199024D01*
X88016866Y-83181781D01*
X88005830Y-83163368D01*
X87996651Y-83143962D01*
X87989419Y-83123750D01*
X87984203Y-83102926D01*
X87981053Y-83081691D01*
X87980000Y-83060250D01*
X87980000Y-82547750D01*
X87981053Y-82526309D01*
X87984203Y-82505074D01*
X87989419Y-82484250D01*
X87996651Y-82464038D01*
X88005830Y-82444632D01*
X88016866Y-82426219D01*
X88029654Y-82408976D01*
X88044070Y-82393070D01*
X88059976Y-82378654D01*
X88077219Y-82365866D01*
X88095632Y-82354830D01*
X88115038Y-82345651D01*
X88135250Y-82338419D01*
X88156074Y-82333203D01*
X88177309Y-82330053D01*
X88198750Y-82329000D01*
X88636250Y-82329000D01*
X88657691Y-82330053D01*
X88657691Y-82330053D01*
G37*
D18*
X88417500Y-82804000D03*
D17*
G36*
X101357691Y-82330053D02*
G01*
X101378926Y-82333203D01*
X101399750Y-82338419D01*
X101419962Y-82345651D01*
X101439368Y-82354830D01*
X101457781Y-82365866D01*
X101475024Y-82378654D01*
X101490930Y-82393070D01*
X101505346Y-82408976D01*
X101518134Y-82426219D01*
X101529170Y-82444632D01*
X101538349Y-82464038D01*
X101545581Y-82484250D01*
X101550797Y-82505074D01*
X101553947Y-82526309D01*
X101555000Y-82547750D01*
X101555000Y-83060250D01*
X101553947Y-83081691D01*
X101550797Y-83102926D01*
X101545581Y-83123750D01*
X101538349Y-83143962D01*
X101529170Y-83163368D01*
X101518134Y-83181781D01*
X101505346Y-83199024D01*
X101490930Y-83214930D01*
X101475024Y-83229346D01*
X101457781Y-83242134D01*
X101439368Y-83253170D01*
X101419962Y-83262349D01*
X101399750Y-83269581D01*
X101378926Y-83274797D01*
X101357691Y-83277947D01*
X101336250Y-83279000D01*
X100898750Y-83279000D01*
X100877309Y-83277947D01*
X100856074Y-83274797D01*
X100835250Y-83269581D01*
X100815038Y-83262349D01*
X100795632Y-83253170D01*
X100777219Y-83242134D01*
X100759976Y-83229346D01*
X100744070Y-83214930D01*
X100729654Y-83199024D01*
X100716866Y-83181781D01*
X100705830Y-83163368D01*
X100696651Y-83143962D01*
X100689419Y-83123750D01*
X100684203Y-83102926D01*
X100681053Y-83081691D01*
X100680000Y-83060250D01*
X100680000Y-82547750D01*
X100681053Y-82526309D01*
X100684203Y-82505074D01*
X100689419Y-82484250D01*
X100696651Y-82464038D01*
X100705830Y-82444632D01*
X100716866Y-82426219D01*
X100729654Y-82408976D01*
X100744070Y-82393070D01*
X100759976Y-82378654D01*
X100777219Y-82365866D01*
X100795632Y-82354830D01*
X100815038Y-82345651D01*
X100835250Y-82338419D01*
X100856074Y-82333203D01*
X100877309Y-82330053D01*
X100898750Y-82329000D01*
X101336250Y-82329000D01*
X101357691Y-82330053D01*
X101357691Y-82330053D01*
G37*
D18*
X101117500Y-82804000D03*
D17*
G36*
X99782691Y-82330053D02*
G01*
X99803926Y-82333203D01*
X99824750Y-82338419D01*
X99844962Y-82345651D01*
X99864368Y-82354830D01*
X99882781Y-82365866D01*
X99900024Y-82378654D01*
X99915930Y-82393070D01*
X99930346Y-82408976D01*
X99943134Y-82426219D01*
X99954170Y-82444632D01*
X99963349Y-82464038D01*
X99970581Y-82484250D01*
X99975797Y-82505074D01*
X99978947Y-82526309D01*
X99980000Y-82547750D01*
X99980000Y-83060250D01*
X99978947Y-83081691D01*
X99975797Y-83102926D01*
X99970581Y-83123750D01*
X99963349Y-83143962D01*
X99954170Y-83163368D01*
X99943134Y-83181781D01*
X99930346Y-83199024D01*
X99915930Y-83214930D01*
X99900024Y-83229346D01*
X99882781Y-83242134D01*
X99864368Y-83253170D01*
X99844962Y-83262349D01*
X99824750Y-83269581D01*
X99803926Y-83274797D01*
X99782691Y-83277947D01*
X99761250Y-83279000D01*
X99323750Y-83279000D01*
X99302309Y-83277947D01*
X99281074Y-83274797D01*
X99260250Y-83269581D01*
X99240038Y-83262349D01*
X99220632Y-83253170D01*
X99202219Y-83242134D01*
X99184976Y-83229346D01*
X99169070Y-83214930D01*
X99154654Y-83199024D01*
X99141866Y-83181781D01*
X99130830Y-83163368D01*
X99121651Y-83143962D01*
X99114419Y-83123750D01*
X99109203Y-83102926D01*
X99106053Y-83081691D01*
X99105000Y-83060250D01*
X99105000Y-82547750D01*
X99106053Y-82526309D01*
X99109203Y-82505074D01*
X99114419Y-82484250D01*
X99121651Y-82464038D01*
X99130830Y-82444632D01*
X99141866Y-82426219D01*
X99154654Y-82408976D01*
X99169070Y-82393070D01*
X99184976Y-82378654D01*
X99202219Y-82365866D01*
X99220632Y-82354830D01*
X99240038Y-82345651D01*
X99260250Y-82338419D01*
X99281074Y-82333203D01*
X99302309Y-82330053D01*
X99323750Y-82329000D01*
X99761250Y-82329000D01*
X99782691Y-82330053D01*
X99782691Y-82330053D01*
G37*
D18*
X99542500Y-82804000D03*
D17*
G36*
X63460691Y-96808053D02*
G01*
X63481926Y-96811203D01*
X63502750Y-96816419D01*
X63522962Y-96823651D01*
X63542368Y-96832830D01*
X63560781Y-96843866D01*
X63578024Y-96856654D01*
X63593930Y-96871070D01*
X63608346Y-96886976D01*
X63621134Y-96904219D01*
X63632170Y-96922632D01*
X63641349Y-96942038D01*
X63648581Y-96962250D01*
X63653797Y-96983074D01*
X63656947Y-97004309D01*
X63658000Y-97025750D01*
X63658000Y-97538250D01*
X63656947Y-97559691D01*
X63653797Y-97580926D01*
X63648581Y-97601750D01*
X63641349Y-97621962D01*
X63632170Y-97641368D01*
X63621134Y-97659781D01*
X63608346Y-97677024D01*
X63593930Y-97692930D01*
X63578024Y-97707346D01*
X63560781Y-97720134D01*
X63542368Y-97731170D01*
X63522962Y-97740349D01*
X63502750Y-97747581D01*
X63481926Y-97752797D01*
X63460691Y-97755947D01*
X63439250Y-97757000D01*
X63001750Y-97757000D01*
X62980309Y-97755947D01*
X62959074Y-97752797D01*
X62938250Y-97747581D01*
X62918038Y-97740349D01*
X62898632Y-97731170D01*
X62880219Y-97720134D01*
X62862976Y-97707346D01*
X62847070Y-97692930D01*
X62832654Y-97677024D01*
X62819866Y-97659781D01*
X62808830Y-97641368D01*
X62799651Y-97621962D01*
X62792419Y-97601750D01*
X62787203Y-97580926D01*
X62784053Y-97559691D01*
X62783000Y-97538250D01*
X62783000Y-97025750D01*
X62784053Y-97004309D01*
X62787203Y-96983074D01*
X62792419Y-96962250D01*
X62799651Y-96942038D01*
X62808830Y-96922632D01*
X62819866Y-96904219D01*
X62832654Y-96886976D01*
X62847070Y-96871070D01*
X62862976Y-96856654D01*
X62880219Y-96843866D01*
X62898632Y-96832830D01*
X62918038Y-96823651D01*
X62938250Y-96816419D01*
X62959074Y-96811203D01*
X62980309Y-96808053D01*
X63001750Y-96807000D01*
X63439250Y-96807000D01*
X63460691Y-96808053D01*
X63460691Y-96808053D01*
G37*
D18*
X63220500Y-97282000D03*
D17*
G36*
X65035691Y-96808053D02*
G01*
X65056926Y-96811203D01*
X65077750Y-96816419D01*
X65097962Y-96823651D01*
X65117368Y-96832830D01*
X65135781Y-96843866D01*
X65153024Y-96856654D01*
X65168930Y-96871070D01*
X65183346Y-96886976D01*
X65196134Y-96904219D01*
X65207170Y-96922632D01*
X65216349Y-96942038D01*
X65223581Y-96962250D01*
X65228797Y-96983074D01*
X65231947Y-97004309D01*
X65233000Y-97025750D01*
X65233000Y-97538250D01*
X65231947Y-97559691D01*
X65228797Y-97580926D01*
X65223581Y-97601750D01*
X65216349Y-97621962D01*
X65207170Y-97641368D01*
X65196134Y-97659781D01*
X65183346Y-97677024D01*
X65168930Y-97692930D01*
X65153024Y-97707346D01*
X65135781Y-97720134D01*
X65117368Y-97731170D01*
X65097962Y-97740349D01*
X65077750Y-97747581D01*
X65056926Y-97752797D01*
X65035691Y-97755947D01*
X65014250Y-97757000D01*
X64576750Y-97757000D01*
X64555309Y-97755947D01*
X64534074Y-97752797D01*
X64513250Y-97747581D01*
X64493038Y-97740349D01*
X64473632Y-97731170D01*
X64455219Y-97720134D01*
X64437976Y-97707346D01*
X64422070Y-97692930D01*
X64407654Y-97677024D01*
X64394866Y-97659781D01*
X64383830Y-97641368D01*
X64374651Y-97621962D01*
X64367419Y-97601750D01*
X64362203Y-97580926D01*
X64359053Y-97559691D01*
X64358000Y-97538250D01*
X64358000Y-97025750D01*
X64359053Y-97004309D01*
X64362203Y-96983074D01*
X64367419Y-96962250D01*
X64374651Y-96942038D01*
X64383830Y-96922632D01*
X64394866Y-96904219D01*
X64407654Y-96886976D01*
X64422070Y-96871070D01*
X64437976Y-96856654D01*
X64455219Y-96843866D01*
X64473632Y-96832830D01*
X64493038Y-96823651D01*
X64513250Y-96816419D01*
X64534074Y-96811203D01*
X64555309Y-96808053D01*
X64576750Y-96807000D01*
X65014250Y-96807000D01*
X65035691Y-96808053D01*
X65035691Y-96808053D01*
G37*
D18*
X64795500Y-97282000D03*
D17*
G36*
X76719691Y-96808053D02*
G01*
X76740926Y-96811203D01*
X76761750Y-96816419D01*
X76781962Y-96823651D01*
X76801368Y-96832830D01*
X76819781Y-96843866D01*
X76837024Y-96856654D01*
X76852930Y-96871070D01*
X76867346Y-96886976D01*
X76880134Y-96904219D01*
X76891170Y-96922632D01*
X76900349Y-96942038D01*
X76907581Y-96962250D01*
X76912797Y-96983074D01*
X76915947Y-97004309D01*
X76917000Y-97025750D01*
X76917000Y-97538250D01*
X76915947Y-97559691D01*
X76912797Y-97580926D01*
X76907581Y-97601750D01*
X76900349Y-97621962D01*
X76891170Y-97641368D01*
X76880134Y-97659781D01*
X76867346Y-97677024D01*
X76852930Y-97692930D01*
X76837024Y-97707346D01*
X76819781Y-97720134D01*
X76801368Y-97731170D01*
X76781962Y-97740349D01*
X76761750Y-97747581D01*
X76740926Y-97752797D01*
X76719691Y-97755947D01*
X76698250Y-97757000D01*
X76260750Y-97757000D01*
X76239309Y-97755947D01*
X76218074Y-97752797D01*
X76197250Y-97747581D01*
X76177038Y-97740349D01*
X76157632Y-97731170D01*
X76139219Y-97720134D01*
X76121976Y-97707346D01*
X76106070Y-97692930D01*
X76091654Y-97677024D01*
X76078866Y-97659781D01*
X76067830Y-97641368D01*
X76058651Y-97621962D01*
X76051419Y-97601750D01*
X76046203Y-97580926D01*
X76043053Y-97559691D01*
X76042000Y-97538250D01*
X76042000Y-97025750D01*
X76043053Y-97004309D01*
X76046203Y-96983074D01*
X76051419Y-96962250D01*
X76058651Y-96942038D01*
X76067830Y-96922632D01*
X76078866Y-96904219D01*
X76091654Y-96886976D01*
X76106070Y-96871070D01*
X76121976Y-96856654D01*
X76139219Y-96843866D01*
X76157632Y-96832830D01*
X76177038Y-96823651D01*
X76197250Y-96816419D01*
X76218074Y-96811203D01*
X76239309Y-96808053D01*
X76260750Y-96807000D01*
X76698250Y-96807000D01*
X76719691Y-96808053D01*
X76719691Y-96808053D01*
G37*
D18*
X76479500Y-97282000D03*
D17*
G36*
X75144691Y-96808053D02*
G01*
X75165926Y-96811203D01*
X75186750Y-96816419D01*
X75206962Y-96823651D01*
X75226368Y-96832830D01*
X75244781Y-96843866D01*
X75262024Y-96856654D01*
X75277930Y-96871070D01*
X75292346Y-96886976D01*
X75305134Y-96904219D01*
X75316170Y-96922632D01*
X75325349Y-96942038D01*
X75332581Y-96962250D01*
X75337797Y-96983074D01*
X75340947Y-97004309D01*
X75342000Y-97025750D01*
X75342000Y-97538250D01*
X75340947Y-97559691D01*
X75337797Y-97580926D01*
X75332581Y-97601750D01*
X75325349Y-97621962D01*
X75316170Y-97641368D01*
X75305134Y-97659781D01*
X75292346Y-97677024D01*
X75277930Y-97692930D01*
X75262024Y-97707346D01*
X75244781Y-97720134D01*
X75226368Y-97731170D01*
X75206962Y-97740349D01*
X75186750Y-97747581D01*
X75165926Y-97752797D01*
X75144691Y-97755947D01*
X75123250Y-97757000D01*
X74685750Y-97757000D01*
X74664309Y-97755947D01*
X74643074Y-97752797D01*
X74622250Y-97747581D01*
X74602038Y-97740349D01*
X74582632Y-97731170D01*
X74564219Y-97720134D01*
X74546976Y-97707346D01*
X74531070Y-97692930D01*
X74516654Y-97677024D01*
X74503866Y-97659781D01*
X74492830Y-97641368D01*
X74483651Y-97621962D01*
X74476419Y-97601750D01*
X74471203Y-97580926D01*
X74468053Y-97559691D01*
X74467000Y-97538250D01*
X74467000Y-97025750D01*
X74468053Y-97004309D01*
X74471203Y-96983074D01*
X74476419Y-96962250D01*
X74483651Y-96942038D01*
X74492830Y-96922632D01*
X74503866Y-96904219D01*
X74516654Y-96886976D01*
X74531070Y-96871070D01*
X74546976Y-96856654D01*
X74564219Y-96843866D01*
X74582632Y-96832830D01*
X74602038Y-96823651D01*
X74622250Y-96816419D01*
X74643074Y-96811203D01*
X74664309Y-96808053D01*
X74685750Y-96807000D01*
X75123250Y-96807000D01*
X75144691Y-96808053D01*
X75144691Y-96808053D01*
G37*
D18*
X74904500Y-97282000D03*
D17*
G36*
X88657691Y-96554053D02*
G01*
X88678926Y-96557203D01*
X88699750Y-96562419D01*
X88719962Y-96569651D01*
X88739368Y-96578830D01*
X88757781Y-96589866D01*
X88775024Y-96602654D01*
X88790930Y-96617070D01*
X88805346Y-96632976D01*
X88818134Y-96650219D01*
X88829170Y-96668632D01*
X88838349Y-96688038D01*
X88845581Y-96708250D01*
X88850797Y-96729074D01*
X88853947Y-96750309D01*
X88855000Y-96771750D01*
X88855000Y-97284250D01*
X88853947Y-97305691D01*
X88850797Y-97326926D01*
X88845581Y-97347750D01*
X88838349Y-97367962D01*
X88829170Y-97387368D01*
X88818134Y-97405781D01*
X88805346Y-97423024D01*
X88790930Y-97438930D01*
X88775024Y-97453346D01*
X88757781Y-97466134D01*
X88739368Y-97477170D01*
X88719962Y-97486349D01*
X88699750Y-97493581D01*
X88678926Y-97498797D01*
X88657691Y-97501947D01*
X88636250Y-97503000D01*
X88198750Y-97503000D01*
X88177309Y-97501947D01*
X88156074Y-97498797D01*
X88135250Y-97493581D01*
X88115038Y-97486349D01*
X88095632Y-97477170D01*
X88077219Y-97466134D01*
X88059976Y-97453346D01*
X88044070Y-97438930D01*
X88029654Y-97423024D01*
X88016866Y-97405781D01*
X88005830Y-97387368D01*
X87996651Y-97367962D01*
X87989419Y-97347750D01*
X87984203Y-97326926D01*
X87981053Y-97305691D01*
X87980000Y-97284250D01*
X87980000Y-96771750D01*
X87981053Y-96750309D01*
X87984203Y-96729074D01*
X87989419Y-96708250D01*
X87996651Y-96688038D01*
X88005830Y-96668632D01*
X88016866Y-96650219D01*
X88029654Y-96632976D01*
X88044070Y-96617070D01*
X88059976Y-96602654D01*
X88077219Y-96589866D01*
X88095632Y-96578830D01*
X88115038Y-96569651D01*
X88135250Y-96562419D01*
X88156074Y-96557203D01*
X88177309Y-96554053D01*
X88198750Y-96553000D01*
X88636250Y-96553000D01*
X88657691Y-96554053D01*
X88657691Y-96554053D01*
G37*
D18*
X88417500Y-97028000D03*
D17*
G36*
X87082691Y-96554053D02*
G01*
X87103926Y-96557203D01*
X87124750Y-96562419D01*
X87144962Y-96569651D01*
X87164368Y-96578830D01*
X87182781Y-96589866D01*
X87200024Y-96602654D01*
X87215930Y-96617070D01*
X87230346Y-96632976D01*
X87243134Y-96650219D01*
X87254170Y-96668632D01*
X87263349Y-96688038D01*
X87270581Y-96708250D01*
X87275797Y-96729074D01*
X87278947Y-96750309D01*
X87280000Y-96771750D01*
X87280000Y-97284250D01*
X87278947Y-97305691D01*
X87275797Y-97326926D01*
X87270581Y-97347750D01*
X87263349Y-97367962D01*
X87254170Y-97387368D01*
X87243134Y-97405781D01*
X87230346Y-97423024D01*
X87215930Y-97438930D01*
X87200024Y-97453346D01*
X87182781Y-97466134D01*
X87164368Y-97477170D01*
X87144962Y-97486349D01*
X87124750Y-97493581D01*
X87103926Y-97498797D01*
X87082691Y-97501947D01*
X87061250Y-97503000D01*
X86623750Y-97503000D01*
X86602309Y-97501947D01*
X86581074Y-97498797D01*
X86560250Y-97493581D01*
X86540038Y-97486349D01*
X86520632Y-97477170D01*
X86502219Y-97466134D01*
X86484976Y-97453346D01*
X86469070Y-97438930D01*
X86454654Y-97423024D01*
X86441866Y-97405781D01*
X86430830Y-97387368D01*
X86421651Y-97367962D01*
X86414419Y-97347750D01*
X86409203Y-97326926D01*
X86406053Y-97305691D01*
X86405000Y-97284250D01*
X86405000Y-96771750D01*
X86406053Y-96750309D01*
X86409203Y-96729074D01*
X86414419Y-96708250D01*
X86421651Y-96688038D01*
X86430830Y-96668632D01*
X86441866Y-96650219D01*
X86454654Y-96632976D01*
X86469070Y-96617070D01*
X86484976Y-96602654D01*
X86502219Y-96589866D01*
X86520632Y-96578830D01*
X86540038Y-96569651D01*
X86560250Y-96562419D01*
X86581074Y-96557203D01*
X86602309Y-96554053D01*
X86623750Y-96553000D01*
X87061250Y-96553000D01*
X87082691Y-96554053D01*
X87082691Y-96554053D01*
G37*
D18*
X86842500Y-97028000D03*
D17*
G36*
X99782691Y-96808053D02*
G01*
X99803926Y-96811203D01*
X99824750Y-96816419D01*
X99844962Y-96823651D01*
X99864368Y-96832830D01*
X99882781Y-96843866D01*
X99900024Y-96856654D01*
X99915930Y-96871070D01*
X99930346Y-96886976D01*
X99943134Y-96904219D01*
X99954170Y-96922632D01*
X99963349Y-96942038D01*
X99970581Y-96962250D01*
X99975797Y-96983074D01*
X99978947Y-97004309D01*
X99980000Y-97025750D01*
X99980000Y-97538250D01*
X99978947Y-97559691D01*
X99975797Y-97580926D01*
X99970581Y-97601750D01*
X99963349Y-97621962D01*
X99954170Y-97641368D01*
X99943134Y-97659781D01*
X99930346Y-97677024D01*
X99915930Y-97692930D01*
X99900024Y-97707346D01*
X99882781Y-97720134D01*
X99864368Y-97731170D01*
X99844962Y-97740349D01*
X99824750Y-97747581D01*
X99803926Y-97752797D01*
X99782691Y-97755947D01*
X99761250Y-97757000D01*
X99323750Y-97757000D01*
X99302309Y-97755947D01*
X99281074Y-97752797D01*
X99260250Y-97747581D01*
X99240038Y-97740349D01*
X99220632Y-97731170D01*
X99202219Y-97720134D01*
X99184976Y-97707346D01*
X99169070Y-97692930D01*
X99154654Y-97677024D01*
X99141866Y-97659781D01*
X99130830Y-97641368D01*
X99121651Y-97621962D01*
X99114419Y-97601750D01*
X99109203Y-97580926D01*
X99106053Y-97559691D01*
X99105000Y-97538250D01*
X99105000Y-97025750D01*
X99106053Y-97004309D01*
X99109203Y-96983074D01*
X99114419Y-96962250D01*
X99121651Y-96942038D01*
X99130830Y-96922632D01*
X99141866Y-96904219D01*
X99154654Y-96886976D01*
X99169070Y-96871070D01*
X99184976Y-96856654D01*
X99202219Y-96843866D01*
X99220632Y-96832830D01*
X99240038Y-96823651D01*
X99260250Y-96816419D01*
X99281074Y-96811203D01*
X99302309Y-96808053D01*
X99323750Y-96807000D01*
X99761250Y-96807000D01*
X99782691Y-96808053D01*
X99782691Y-96808053D01*
G37*
D18*
X99542500Y-97282000D03*
D17*
G36*
X101357691Y-96808053D02*
G01*
X101378926Y-96811203D01*
X101399750Y-96816419D01*
X101419962Y-96823651D01*
X101439368Y-96832830D01*
X101457781Y-96843866D01*
X101475024Y-96856654D01*
X101490930Y-96871070D01*
X101505346Y-96886976D01*
X101518134Y-96904219D01*
X101529170Y-96922632D01*
X101538349Y-96942038D01*
X101545581Y-96962250D01*
X101550797Y-96983074D01*
X101553947Y-97004309D01*
X101555000Y-97025750D01*
X101555000Y-97538250D01*
X101553947Y-97559691D01*
X101550797Y-97580926D01*
X101545581Y-97601750D01*
X101538349Y-97621962D01*
X101529170Y-97641368D01*
X101518134Y-97659781D01*
X101505346Y-97677024D01*
X101490930Y-97692930D01*
X101475024Y-97707346D01*
X101457781Y-97720134D01*
X101439368Y-97731170D01*
X101419962Y-97740349D01*
X101399750Y-97747581D01*
X101378926Y-97752797D01*
X101357691Y-97755947D01*
X101336250Y-97757000D01*
X100898750Y-97757000D01*
X100877309Y-97755947D01*
X100856074Y-97752797D01*
X100835250Y-97747581D01*
X100815038Y-97740349D01*
X100795632Y-97731170D01*
X100777219Y-97720134D01*
X100759976Y-97707346D01*
X100744070Y-97692930D01*
X100729654Y-97677024D01*
X100716866Y-97659781D01*
X100705830Y-97641368D01*
X100696651Y-97621962D01*
X100689419Y-97601750D01*
X100684203Y-97580926D01*
X100681053Y-97559691D01*
X100680000Y-97538250D01*
X100680000Y-97025750D01*
X100681053Y-97004309D01*
X100684203Y-96983074D01*
X100689419Y-96962250D01*
X100696651Y-96942038D01*
X100705830Y-96922632D01*
X100716866Y-96904219D01*
X100729654Y-96886976D01*
X100744070Y-96871070D01*
X100759976Y-96856654D01*
X100777219Y-96843866D01*
X100795632Y-96832830D01*
X100815038Y-96823651D01*
X100835250Y-96816419D01*
X100856074Y-96811203D01*
X100877309Y-96808053D01*
X100898750Y-96807000D01*
X101336250Y-96807000D01*
X101357691Y-96808053D01*
X101357691Y-96808053D01*
G37*
D18*
X101117500Y-97282000D03*
D17*
G36*
X63714691Y-111286053D02*
G01*
X63735926Y-111289203D01*
X63756750Y-111294419D01*
X63776962Y-111301651D01*
X63796368Y-111310830D01*
X63814781Y-111321866D01*
X63832024Y-111334654D01*
X63847930Y-111349070D01*
X63862346Y-111364976D01*
X63875134Y-111382219D01*
X63886170Y-111400632D01*
X63895349Y-111420038D01*
X63902581Y-111440250D01*
X63907797Y-111461074D01*
X63910947Y-111482309D01*
X63912000Y-111503750D01*
X63912000Y-112016250D01*
X63910947Y-112037691D01*
X63907797Y-112058926D01*
X63902581Y-112079750D01*
X63895349Y-112099962D01*
X63886170Y-112119368D01*
X63875134Y-112137781D01*
X63862346Y-112155024D01*
X63847930Y-112170930D01*
X63832024Y-112185346D01*
X63814781Y-112198134D01*
X63796368Y-112209170D01*
X63776962Y-112218349D01*
X63756750Y-112225581D01*
X63735926Y-112230797D01*
X63714691Y-112233947D01*
X63693250Y-112235000D01*
X63255750Y-112235000D01*
X63234309Y-112233947D01*
X63213074Y-112230797D01*
X63192250Y-112225581D01*
X63172038Y-112218349D01*
X63152632Y-112209170D01*
X63134219Y-112198134D01*
X63116976Y-112185346D01*
X63101070Y-112170930D01*
X63086654Y-112155024D01*
X63073866Y-112137781D01*
X63062830Y-112119368D01*
X63053651Y-112099962D01*
X63046419Y-112079750D01*
X63041203Y-112058926D01*
X63038053Y-112037691D01*
X63037000Y-112016250D01*
X63037000Y-111503750D01*
X63038053Y-111482309D01*
X63041203Y-111461074D01*
X63046419Y-111440250D01*
X63053651Y-111420038D01*
X63062830Y-111400632D01*
X63073866Y-111382219D01*
X63086654Y-111364976D01*
X63101070Y-111349070D01*
X63116976Y-111334654D01*
X63134219Y-111321866D01*
X63152632Y-111310830D01*
X63172038Y-111301651D01*
X63192250Y-111294419D01*
X63213074Y-111289203D01*
X63234309Y-111286053D01*
X63255750Y-111285000D01*
X63693250Y-111285000D01*
X63714691Y-111286053D01*
X63714691Y-111286053D01*
G37*
D18*
X63474500Y-111760000D03*
D17*
G36*
X65289691Y-111286053D02*
G01*
X65310926Y-111289203D01*
X65331750Y-111294419D01*
X65351962Y-111301651D01*
X65371368Y-111310830D01*
X65389781Y-111321866D01*
X65407024Y-111334654D01*
X65422930Y-111349070D01*
X65437346Y-111364976D01*
X65450134Y-111382219D01*
X65461170Y-111400632D01*
X65470349Y-111420038D01*
X65477581Y-111440250D01*
X65482797Y-111461074D01*
X65485947Y-111482309D01*
X65487000Y-111503750D01*
X65487000Y-112016250D01*
X65485947Y-112037691D01*
X65482797Y-112058926D01*
X65477581Y-112079750D01*
X65470349Y-112099962D01*
X65461170Y-112119368D01*
X65450134Y-112137781D01*
X65437346Y-112155024D01*
X65422930Y-112170930D01*
X65407024Y-112185346D01*
X65389781Y-112198134D01*
X65371368Y-112209170D01*
X65351962Y-112218349D01*
X65331750Y-112225581D01*
X65310926Y-112230797D01*
X65289691Y-112233947D01*
X65268250Y-112235000D01*
X64830750Y-112235000D01*
X64809309Y-112233947D01*
X64788074Y-112230797D01*
X64767250Y-112225581D01*
X64747038Y-112218349D01*
X64727632Y-112209170D01*
X64709219Y-112198134D01*
X64691976Y-112185346D01*
X64676070Y-112170930D01*
X64661654Y-112155024D01*
X64648866Y-112137781D01*
X64637830Y-112119368D01*
X64628651Y-112099962D01*
X64621419Y-112079750D01*
X64616203Y-112058926D01*
X64613053Y-112037691D01*
X64612000Y-112016250D01*
X64612000Y-111503750D01*
X64613053Y-111482309D01*
X64616203Y-111461074D01*
X64621419Y-111440250D01*
X64628651Y-111420038D01*
X64637830Y-111400632D01*
X64648866Y-111382219D01*
X64661654Y-111364976D01*
X64676070Y-111349070D01*
X64691976Y-111334654D01*
X64709219Y-111321866D01*
X64727632Y-111310830D01*
X64747038Y-111301651D01*
X64767250Y-111294419D01*
X64788074Y-111289203D01*
X64809309Y-111286053D01*
X64830750Y-111285000D01*
X65268250Y-111285000D01*
X65289691Y-111286053D01*
X65289691Y-111286053D01*
G37*
D18*
X65049500Y-111760000D03*
D17*
G36*
X76719691Y-111286053D02*
G01*
X76740926Y-111289203D01*
X76761750Y-111294419D01*
X76781962Y-111301651D01*
X76801368Y-111310830D01*
X76819781Y-111321866D01*
X76837024Y-111334654D01*
X76852930Y-111349070D01*
X76867346Y-111364976D01*
X76880134Y-111382219D01*
X76891170Y-111400632D01*
X76900349Y-111420038D01*
X76907581Y-111440250D01*
X76912797Y-111461074D01*
X76915947Y-111482309D01*
X76917000Y-111503750D01*
X76917000Y-112016250D01*
X76915947Y-112037691D01*
X76912797Y-112058926D01*
X76907581Y-112079750D01*
X76900349Y-112099962D01*
X76891170Y-112119368D01*
X76880134Y-112137781D01*
X76867346Y-112155024D01*
X76852930Y-112170930D01*
X76837024Y-112185346D01*
X76819781Y-112198134D01*
X76801368Y-112209170D01*
X76781962Y-112218349D01*
X76761750Y-112225581D01*
X76740926Y-112230797D01*
X76719691Y-112233947D01*
X76698250Y-112235000D01*
X76260750Y-112235000D01*
X76239309Y-112233947D01*
X76218074Y-112230797D01*
X76197250Y-112225581D01*
X76177038Y-112218349D01*
X76157632Y-112209170D01*
X76139219Y-112198134D01*
X76121976Y-112185346D01*
X76106070Y-112170930D01*
X76091654Y-112155024D01*
X76078866Y-112137781D01*
X76067830Y-112119368D01*
X76058651Y-112099962D01*
X76051419Y-112079750D01*
X76046203Y-112058926D01*
X76043053Y-112037691D01*
X76042000Y-112016250D01*
X76042000Y-111503750D01*
X76043053Y-111482309D01*
X76046203Y-111461074D01*
X76051419Y-111440250D01*
X76058651Y-111420038D01*
X76067830Y-111400632D01*
X76078866Y-111382219D01*
X76091654Y-111364976D01*
X76106070Y-111349070D01*
X76121976Y-111334654D01*
X76139219Y-111321866D01*
X76157632Y-111310830D01*
X76177038Y-111301651D01*
X76197250Y-111294419D01*
X76218074Y-111289203D01*
X76239309Y-111286053D01*
X76260750Y-111285000D01*
X76698250Y-111285000D01*
X76719691Y-111286053D01*
X76719691Y-111286053D01*
G37*
D18*
X76479500Y-111760000D03*
D17*
G36*
X75144691Y-111286053D02*
G01*
X75165926Y-111289203D01*
X75186750Y-111294419D01*
X75206962Y-111301651D01*
X75226368Y-111310830D01*
X75244781Y-111321866D01*
X75262024Y-111334654D01*
X75277930Y-111349070D01*
X75292346Y-111364976D01*
X75305134Y-111382219D01*
X75316170Y-111400632D01*
X75325349Y-111420038D01*
X75332581Y-111440250D01*
X75337797Y-111461074D01*
X75340947Y-111482309D01*
X75342000Y-111503750D01*
X75342000Y-112016250D01*
X75340947Y-112037691D01*
X75337797Y-112058926D01*
X75332581Y-112079750D01*
X75325349Y-112099962D01*
X75316170Y-112119368D01*
X75305134Y-112137781D01*
X75292346Y-112155024D01*
X75277930Y-112170930D01*
X75262024Y-112185346D01*
X75244781Y-112198134D01*
X75226368Y-112209170D01*
X75206962Y-112218349D01*
X75186750Y-112225581D01*
X75165926Y-112230797D01*
X75144691Y-112233947D01*
X75123250Y-112235000D01*
X74685750Y-112235000D01*
X74664309Y-112233947D01*
X74643074Y-112230797D01*
X74622250Y-112225581D01*
X74602038Y-112218349D01*
X74582632Y-112209170D01*
X74564219Y-112198134D01*
X74546976Y-112185346D01*
X74531070Y-112170930D01*
X74516654Y-112155024D01*
X74503866Y-112137781D01*
X74492830Y-112119368D01*
X74483651Y-112099962D01*
X74476419Y-112079750D01*
X74471203Y-112058926D01*
X74468053Y-112037691D01*
X74467000Y-112016250D01*
X74467000Y-111503750D01*
X74468053Y-111482309D01*
X74471203Y-111461074D01*
X74476419Y-111440250D01*
X74483651Y-111420038D01*
X74492830Y-111400632D01*
X74503866Y-111382219D01*
X74516654Y-111364976D01*
X74531070Y-111349070D01*
X74546976Y-111334654D01*
X74564219Y-111321866D01*
X74582632Y-111310830D01*
X74602038Y-111301651D01*
X74622250Y-111294419D01*
X74643074Y-111289203D01*
X74664309Y-111286053D01*
X74685750Y-111285000D01*
X75123250Y-111285000D01*
X75144691Y-111286053D01*
X75144691Y-111286053D01*
G37*
D18*
X74904500Y-111760000D03*
D17*
G36*
X87336691Y-111286053D02*
G01*
X87357926Y-111289203D01*
X87378750Y-111294419D01*
X87398962Y-111301651D01*
X87418368Y-111310830D01*
X87436781Y-111321866D01*
X87454024Y-111334654D01*
X87469930Y-111349070D01*
X87484346Y-111364976D01*
X87497134Y-111382219D01*
X87508170Y-111400632D01*
X87517349Y-111420038D01*
X87524581Y-111440250D01*
X87529797Y-111461074D01*
X87532947Y-111482309D01*
X87534000Y-111503750D01*
X87534000Y-112016250D01*
X87532947Y-112037691D01*
X87529797Y-112058926D01*
X87524581Y-112079750D01*
X87517349Y-112099962D01*
X87508170Y-112119368D01*
X87497134Y-112137781D01*
X87484346Y-112155024D01*
X87469930Y-112170930D01*
X87454024Y-112185346D01*
X87436781Y-112198134D01*
X87418368Y-112209170D01*
X87398962Y-112218349D01*
X87378750Y-112225581D01*
X87357926Y-112230797D01*
X87336691Y-112233947D01*
X87315250Y-112235000D01*
X86877750Y-112235000D01*
X86856309Y-112233947D01*
X86835074Y-112230797D01*
X86814250Y-112225581D01*
X86794038Y-112218349D01*
X86774632Y-112209170D01*
X86756219Y-112198134D01*
X86738976Y-112185346D01*
X86723070Y-112170930D01*
X86708654Y-112155024D01*
X86695866Y-112137781D01*
X86684830Y-112119368D01*
X86675651Y-112099962D01*
X86668419Y-112079750D01*
X86663203Y-112058926D01*
X86660053Y-112037691D01*
X86659000Y-112016250D01*
X86659000Y-111503750D01*
X86660053Y-111482309D01*
X86663203Y-111461074D01*
X86668419Y-111440250D01*
X86675651Y-111420038D01*
X86684830Y-111400632D01*
X86695866Y-111382219D01*
X86708654Y-111364976D01*
X86723070Y-111349070D01*
X86738976Y-111334654D01*
X86756219Y-111321866D01*
X86774632Y-111310830D01*
X86794038Y-111301651D01*
X86814250Y-111294419D01*
X86835074Y-111289203D01*
X86856309Y-111286053D01*
X86877750Y-111285000D01*
X87315250Y-111285000D01*
X87336691Y-111286053D01*
X87336691Y-111286053D01*
G37*
D18*
X87096500Y-111760000D03*
D17*
G36*
X88911691Y-111286053D02*
G01*
X88932926Y-111289203D01*
X88953750Y-111294419D01*
X88973962Y-111301651D01*
X88993368Y-111310830D01*
X89011781Y-111321866D01*
X89029024Y-111334654D01*
X89044930Y-111349070D01*
X89059346Y-111364976D01*
X89072134Y-111382219D01*
X89083170Y-111400632D01*
X89092349Y-111420038D01*
X89099581Y-111440250D01*
X89104797Y-111461074D01*
X89107947Y-111482309D01*
X89109000Y-111503750D01*
X89109000Y-112016250D01*
X89107947Y-112037691D01*
X89104797Y-112058926D01*
X89099581Y-112079750D01*
X89092349Y-112099962D01*
X89083170Y-112119368D01*
X89072134Y-112137781D01*
X89059346Y-112155024D01*
X89044930Y-112170930D01*
X89029024Y-112185346D01*
X89011781Y-112198134D01*
X88993368Y-112209170D01*
X88973962Y-112218349D01*
X88953750Y-112225581D01*
X88932926Y-112230797D01*
X88911691Y-112233947D01*
X88890250Y-112235000D01*
X88452750Y-112235000D01*
X88431309Y-112233947D01*
X88410074Y-112230797D01*
X88389250Y-112225581D01*
X88369038Y-112218349D01*
X88349632Y-112209170D01*
X88331219Y-112198134D01*
X88313976Y-112185346D01*
X88298070Y-112170930D01*
X88283654Y-112155024D01*
X88270866Y-112137781D01*
X88259830Y-112119368D01*
X88250651Y-112099962D01*
X88243419Y-112079750D01*
X88238203Y-112058926D01*
X88235053Y-112037691D01*
X88234000Y-112016250D01*
X88234000Y-111503750D01*
X88235053Y-111482309D01*
X88238203Y-111461074D01*
X88243419Y-111440250D01*
X88250651Y-111420038D01*
X88259830Y-111400632D01*
X88270866Y-111382219D01*
X88283654Y-111364976D01*
X88298070Y-111349070D01*
X88313976Y-111334654D01*
X88331219Y-111321866D01*
X88349632Y-111310830D01*
X88369038Y-111301651D01*
X88389250Y-111294419D01*
X88410074Y-111289203D01*
X88431309Y-111286053D01*
X88452750Y-111285000D01*
X88890250Y-111285000D01*
X88911691Y-111286053D01*
X88911691Y-111286053D01*
G37*
D18*
X88671500Y-111760000D03*
D17*
G36*
X101611691Y-111286053D02*
G01*
X101632926Y-111289203D01*
X101653750Y-111294419D01*
X101673962Y-111301651D01*
X101693368Y-111310830D01*
X101711781Y-111321866D01*
X101729024Y-111334654D01*
X101744930Y-111349070D01*
X101759346Y-111364976D01*
X101772134Y-111382219D01*
X101783170Y-111400632D01*
X101792349Y-111420038D01*
X101799581Y-111440250D01*
X101804797Y-111461074D01*
X101807947Y-111482309D01*
X101809000Y-111503750D01*
X101809000Y-112016250D01*
X101807947Y-112037691D01*
X101804797Y-112058926D01*
X101799581Y-112079750D01*
X101792349Y-112099962D01*
X101783170Y-112119368D01*
X101772134Y-112137781D01*
X101759346Y-112155024D01*
X101744930Y-112170930D01*
X101729024Y-112185346D01*
X101711781Y-112198134D01*
X101693368Y-112209170D01*
X101673962Y-112218349D01*
X101653750Y-112225581D01*
X101632926Y-112230797D01*
X101611691Y-112233947D01*
X101590250Y-112235000D01*
X101152750Y-112235000D01*
X101131309Y-112233947D01*
X101110074Y-112230797D01*
X101089250Y-112225581D01*
X101069038Y-112218349D01*
X101049632Y-112209170D01*
X101031219Y-112198134D01*
X101013976Y-112185346D01*
X100998070Y-112170930D01*
X100983654Y-112155024D01*
X100970866Y-112137781D01*
X100959830Y-112119368D01*
X100950651Y-112099962D01*
X100943419Y-112079750D01*
X100938203Y-112058926D01*
X100935053Y-112037691D01*
X100934000Y-112016250D01*
X100934000Y-111503750D01*
X100935053Y-111482309D01*
X100938203Y-111461074D01*
X100943419Y-111440250D01*
X100950651Y-111420038D01*
X100959830Y-111400632D01*
X100970866Y-111382219D01*
X100983654Y-111364976D01*
X100998070Y-111349070D01*
X101013976Y-111334654D01*
X101031219Y-111321866D01*
X101049632Y-111310830D01*
X101069038Y-111301651D01*
X101089250Y-111294419D01*
X101110074Y-111289203D01*
X101131309Y-111286053D01*
X101152750Y-111285000D01*
X101590250Y-111285000D01*
X101611691Y-111286053D01*
X101611691Y-111286053D01*
G37*
D18*
X101371500Y-111760000D03*
D17*
G36*
X100036691Y-111286053D02*
G01*
X100057926Y-111289203D01*
X100078750Y-111294419D01*
X100098962Y-111301651D01*
X100118368Y-111310830D01*
X100136781Y-111321866D01*
X100154024Y-111334654D01*
X100169930Y-111349070D01*
X100184346Y-111364976D01*
X100197134Y-111382219D01*
X100208170Y-111400632D01*
X100217349Y-111420038D01*
X100224581Y-111440250D01*
X100229797Y-111461074D01*
X100232947Y-111482309D01*
X100234000Y-111503750D01*
X100234000Y-112016250D01*
X100232947Y-112037691D01*
X100229797Y-112058926D01*
X100224581Y-112079750D01*
X100217349Y-112099962D01*
X100208170Y-112119368D01*
X100197134Y-112137781D01*
X100184346Y-112155024D01*
X100169930Y-112170930D01*
X100154024Y-112185346D01*
X100136781Y-112198134D01*
X100118368Y-112209170D01*
X100098962Y-112218349D01*
X100078750Y-112225581D01*
X100057926Y-112230797D01*
X100036691Y-112233947D01*
X100015250Y-112235000D01*
X99577750Y-112235000D01*
X99556309Y-112233947D01*
X99535074Y-112230797D01*
X99514250Y-112225581D01*
X99494038Y-112218349D01*
X99474632Y-112209170D01*
X99456219Y-112198134D01*
X99438976Y-112185346D01*
X99423070Y-112170930D01*
X99408654Y-112155024D01*
X99395866Y-112137781D01*
X99384830Y-112119368D01*
X99375651Y-112099962D01*
X99368419Y-112079750D01*
X99363203Y-112058926D01*
X99360053Y-112037691D01*
X99359000Y-112016250D01*
X99359000Y-111503750D01*
X99360053Y-111482309D01*
X99363203Y-111461074D01*
X99368419Y-111440250D01*
X99375651Y-111420038D01*
X99384830Y-111400632D01*
X99395866Y-111382219D01*
X99408654Y-111364976D01*
X99423070Y-111349070D01*
X99438976Y-111334654D01*
X99456219Y-111321866D01*
X99474632Y-111310830D01*
X99494038Y-111301651D01*
X99514250Y-111294419D01*
X99535074Y-111289203D01*
X99556309Y-111286053D01*
X99577750Y-111285000D01*
X100015250Y-111285000D01*
X100036691Y-111286053D01*
X100036691Y-111286053D01*
G37*
D18*
X99796500Y-111760000D03*
D19*
X69342000Y-138596000D03*
X69342000Y-140296000D03*
X81280000Y-137834000D03*
X81280000Y-139534000D03*
X93472000Y-137834000D03*
X93472000Y-139534000D03*
X103124000Y-137834000D03*
X103124000Y-139534000D03*
X69342000Y-144106000D03*
X69342000Y-142406000D03*
X81280000Y-143344000D03*
X81280000Y-141644000D03*
X93472000Y-143852000D03*
X93472000Y-142152000D03*
X103124000Y-143852000D03*
X103124000Y-142152000D03*
D20*
X68614000Y-149606000D03*
X66514000Y-149606000D03*
X68614000Y-159766000D03*
X66514000Y-159766000D03*
D19*
X66636000Y-140208000D03*
X64936000Y-140208000D03*
X78486000Y-139446000D03*
X76786000Y-139446000D03*
X90766000Y-139446000D03*
X89066000Y-139446000D03*
X106592000Y-139446000D03*
X108292000Y-139446000D03*
X64936000Y-144018000D03*
X66636000Y-144018000D03*
X76874000Y-143256000D03*
X78574000Y-143256000D03*
X89066000Y-143764000D03*
X90766000Y-143764000D03*
X108292000Y-143764000D03*
X106592000Y-143764000D03*
D21*
X67056000Y-118872000D03*
X69596000Y-118872000D03*
X72136000Y-118872000D03*
X84328000Y-118872000D03*
X81788000Y-118872000D03*
X79248000Y-118872000D03*
X91440000Y-118872000D03*
X93980000Y-118872000D03*
X96520000Y-118872000D03*
X108712000Y-118618000D03*
X106172000Y-118618000D03*
X103632000Y-118618000D03*
M02*
